<?xml version="1.0" encoding="utf-8"?>
<!-- Generator: Adobe Illustrator 27.9.6, SVG Export Plug-In . SVG Version: 9.03 Build 54986)  -->
<svg version="1.1" id="katman_1" xmlns="http://www.w3.org/2000/svg" xmlns:xlink="http://www.w3.org/1999/xlink" x="0px" y="0px"
	 viewBox="0 0 48 48" style="enable-background:new 0 0 48 48;" xml:space="preserve">
<style type="text/css">
	.st0{fill:#C0C0C0;}
</style>
<g>
	<g>
		<path class="st0" d="M35.68,42.08c0.97,0.97,3.18,0.33,4.95-1.44s2.42-3.97,1.46-4.93l-0.02-0.02c-0.97-0.97-3.18-0.32-4.94,1.45
			S34.72,41.12,35.68,42.08z"/>
	</g>
	<g>
		<path class="st0" d="M30.72,37.12c0.97,0.97,3.18,0.33,4.95-1.44c1.77-1.77,2.42-3.97,1.46-4.93l-0.02-0.02
			c-0.97-0.97-3.18-0.32-4.94,1.45C30.4,33.94,29.75,36.15,30.72,37.12z"/>
	</g>
	<g>
		<path class="st0" d="M40.65,47.04c0.97,0.97,3.18,0.33,4.95-1.44c1.77-1.77,2.42-3.97,1.46-4.93l-0.02-0.02
			c-0.97-0.97-3.18-0.32-4.94,1.45S39.68,46.08,40.65,47.04z"/>
	</g>
	<g>
		<path class="st0" d="M20.8,27.19c0.97,0.97,3.18,0.33,4.95-1.44s2.42-3.97,1.46-4.93l-0.02-0.02c-0.97-0.97-3.18-0.32-4.94,1.45
			C20.48,24.02,19.83,26.23,20.8,27.19z"/>
	</g>
	<g>
		<path class="st0" d="M15.83,22.23c0.97,0.97,3.18,0.33,4.95-1.44c1.77-1.77,2.42-3.97,1.46-4.93l-0.02-0.02
			c-0.97-0.97-3.18-0.32-4.94,1.45C15.52,19.06,14.87,21.27,15.83,22.23z"/>
	</g>
	<g>
		<path class="st0" d="M25.76,32.16c0.97,0.97,3.18,0.33,4.95-1.44c1.77-1.77,2.42-3.97,1.46-4.93l-0.02-0.02
			c-0.97-0.97-3.18-0.32-4.94,1.45C25.44,28.98,24.79,31.19,25.76,32.16z"/>
	</g>
	<g>
		<path class="st0" d="M5.91,12.31c0.97,0.97,3.18,0.33,4.95-1.44s2.42-3.97,1.46-4.93L12.3,5.92C11.33,4.95,9.12,5.6,7.36,7.37
			S4.94,11.34,5.91,12.31z"/>
	</g>
	<g>
		<path class="st0" d="M0.95,7.35C1.91,8.31,4.13,7.67,5.9,5.91s2.42-3.97,1.46-4.93L7.34,0.96C6.37-0.01,4.16,0.64,2.4,2.4
			S-0.02,6.38,0.95,7.35z"/>
	</g>
	<g>
		<path class="st0" d="M10.87,17.27c0.97,0.97,3.18,0.33,4.95-1.44s2.42-3.97,1.46-4.93l-0.02-0.02c-0.97-0.97-3.18-0.32-4.94,1.45
			S9.91,16.3,10.87,17.27z"/>
	</g>
</g>
</svg>
