<?xml version="1.0" encoding="utf-8"?>
<!-- Generator: Adobe Illustrator 27.9.6, SVG Export Plug-In . SVG Version: 9.03 Build 54986)  -->
<svg version="1.1" id="katman_1" xmlns="http://www.w3.org/2000/svg" xmlns:xlink="http://www.w3.org/1999/xlink" x="0px" y="0px"
	 viewBox="0 0 48 48" style="enable-background:new 0 0 48 48;" xml:space="preserve">
<style type="text/css">
	.st0{fill:#C0C0C0;}
</style>
<g>
	<g>
		<path class="st0" d="M37.82,41.51c1.02,1.02,2.67,1.03,3.69,0.01c1.02-1.02,1.03-2.65,0.01-3.67l-0.02-0.02
			c-1.02-1.02-2.66-1.02-3.68,0C36.81,38.84,36.81,40.49,37.82,41.51z"/>
	</g>
	<g>
		<path class="st0" d="M32.6,36.28c1.02,1.02,2.67,1.03,3.69,0.01c1.02-1.02,1.03-2.65,0.01-3.67l-0.02-0.02
			c-1.02-1.02-2.66-1.02-3.68,0C31.58,33.62,31.58,35.27,32.6,36.28z"/>
	</g>
	<g>
		<path class="st0" d="M43.05,46.73c1.02,1.02,2.67,1.03,3.69,0.01c1.02-1.02,1.03-2.65,0.01-3.67l-0.02-0.02
			c-1.02-1.02-2.66-1.02-3.68,0C42.03,44.07,42.03,45.71,43.05,46.73z"/>
	</g>
	<g>
		<path class="st0" d="M22.15,25.84c1.02,1.02,2.67,1.03,3.69,0.01s1.03-2.65,0.01-3.67l-0.02-0.02c-1.02-1.02-2.66-1.02-3.68,0
			S21.14,24.82,22.15,25.84z"/>
	</g>
	<g>
		<path class="st0" d="M16.93,20.61c1.02,1.02,2.67,1.03,3.69,0.01s1.03-2.65,0.01-3.67l-0.02-0.02c-1.02-1.02-2.66-1.02-3.68,0
			S15.91,19.6,16.93,20.61z"/>
	</g>
	<g>
		<path class="st0" d="M27.38,31.06c1.02,1.02,2.67,1.03,3.69,0.01c1.02-1.02,1.03-2.65,0.01-3.67l-0.02-0.02
			c-1.02-1.02-2.66-1.02-3.68,0S26.36,30.04,27.38,31.06z"/>
	</g>
	<g>
		<path class="st0" d="M6.49,10.17c1.02,1.02,2.67,1.03,3.69,0.01s1.03-2.65,0.01-3.67l-0.02-0.02c-1.02-1.02-2.66-1.02-3.68,0
			S5.47,9.15,6.49,10.17z"/>
	</g>
	<g>
		<path class="st0" d="M1.26,4.95c1.02,1.02,2.67,1.03,3.69,0.01S5.98,2.3,4.96,1.29L4.94,1.27c-1.02-1.02-2.66-1.02-3.68,0
			S0.25,3.93,1.26,4.95z"/>
	</g>
	<g>
		<path class="st0" d="M11.71,15.39c1.02,1.02,2.67,1.03,3.69,0.01s1.03-2.65,0.01-3.67l-0.02-0.02c-1.02-1.02-2.66-1.02-3.68,0
			S10.69,14.37,11.71,15.39z"/>
	</g>
</g>
</svg>
