<?xml version="1.0" encoding="utf-8"?>
<!-- Generator: Adobe Illustrator 27.9.6, SVG Export Plug-In . SVG Version: 9.03 Build 54986)  -->
<svg version="1.1" id="katman_1" xmlns="http://www.w3.org/2000/svg" xmlns:xlink="http://www.w3.org/1999/xlink" x="0px" y="0px"
	 viewBox="0 0 48 48" style="enable-background:new 0 0 48 48;" xml:space="preserve">
<style type="text/css">
	.st0{fill:#F4F4F4;}
</style>
<g>
	<g>
		<path class="st0" d="M40.8,48H7.2C3.23,48,0,44.77,0,40.8V7.2C0,3.23,3.23,0,7.2,0h33.6C44.77,0,48,3.23,48,7.2v33.6
			C48,44.77,44.77,48,40.8,48z M7.2,4.8c-1.32,0-2.4,1.08-2.4,2.4v33.6c0,1.32,1.08,2.4,2.4,2.4h33.6c1.32,0,2.4-1.08,2.4-2.4V7.2
			c0-1.32-1.08-2.4-2.4-2.4H7.2z"/>
	</g>
</g>
</svg>
