<?xml version="1.0" encoding="utf-8"?>
<!-- Generator: Adobe Illustrator 27.9.6, SVG Export Plug-In . SVG Version: 9.03 Build 54986)  -->
<svg version="1.1" id="katman_1" xmlns="http://www.w3.org/2000/svg" xmlns:xlink="http://www.w3.org/1999/xlink" x="0px" y="0px"
	 viewBox="0 0 48 48" style="enable-background:new 0 0 48 48;" xml:space="preserve">
<style type="text/css">
	.st0{fill:#F4F4F4;}
</style>
<g>
	<path class="st0" d="M3.28,44.9c1.56-4.26,3.11-8.58,5.52-12.45c2.02-3.26,5.37-7.06,9.66-6.36c2.29,0.37,4.19,2.02,5.97,3.37
		c2.02,1.54,4.16,3.07,6.74,3.39c5.43,0.66,8.78-4.42,10.68-8.74c2.83-6.44,4.29-13.36,5.58-20.25c0.33-1.77-2.38-2.53-2.72-0.75
		c-1.16,6.17-2.43,12.38-4.74,18.23c-1.61,4.09-4.82,10.71-10.31,8.19c-4.36-2.01-7.47-6.75-12.78-6.3
		c-4.37,0.37-7.62,3.43-9.96,6.91c-2.87,4.27-4.61,9.21-6.37,14.01C-0.07,45.85,2.66,46.59,3.28,44.9L3.28,44.9z"/>
</g>
</svg>
