<?xml version="1.0" encoding="UTF-8" standalone="no"?>
<svg
   id="katman_2"
   data-name="katman 2"
   viewBox="0 0 434.99 421.82"
   version="1.1"
   sodipodi:docname="vector2.svg"
   inkscape:version="1.2.2 (b0a8486541, 2022-12-01)"
   xmlns:inkscape="http://www.inkscape.org/namespaces/inkscape"
   xmlns:sodipodi="http://sodipodi.sourceforge.net/DTD/sodipodi-0.dtd"
   xmlns="http://www.w3.org/2000/svg"
   xmlns:svg="http://www.w3.org/2000/svg">
  <sodipodi:namedview
     id="namedview28"
     pagecolor="#ffffff"
     bordercolor="#000000"
     borderopacity="0.25"
     inkscape:showpageshadow="2"
     inkscape:pageopacity="0.0"
     inkscape:pagecheckerboard="0"
     inkscape:deskcolor="#d1d1d1"
     showgrid="false"
     inkscape:zoom="0.52451285"
     inkscape:cx="248.80229"
     inkscape:cy="286.93291"
     inkscape:window-width="1276"
     inkscape:window-height="1390"
     inkscape:window-x="0"
     inkscape:window-y="0"
     inkscape:window-maximized="1"
     inkscape:current-layer="katman_2" />
  <defs
     id="defs4">
    <style
       id="style2">
      .cls-1 {
        fill: #d3af94;
      }

      .cls-1, .cls-2, .cls-3, .cls-4, .cls-5, .cls-6, .cls-7, .cls-8, .cls-9 {
        stroke-width: 0px;
      }

      .cls-2 {
        fill: #f7a833;
      }

      .cls-3 {
        fill: #ee9828;
      }

      .cls-4 {
        fill: #1a2e34;
      }

      .cls-5 {
        fill: #e88916;
      }

      .cls-6 {
        fill: #c8a184;
      }

      .cls-7 {
        fill: #e0bea2;
      }

      .cls-8 {
        fill: #f2908b;
      }

      .cls-9 {
        fill: #2a4551;
      }
    </style>
  </defs>
  <path
     id="rect1"
     style="fill:#f9f9f9;fill-opacity:1;stroke:#000000;stroke-width:8;stroke-linecap:round;stroke-dasharray:none;stroke-opacity:1;paint-order:stroke fill markers"
     d="M 259.82583 287.45548 C 259.5529 287.18255 259.2194 286.97751 258.93228 286.71937 C 258.51524 286.35433 258.09648 285.99275 257.65065 285.66147 C 257.06165 285.20814 256.46803 284.7747 255.83317 284.3826 C 254.5497 283.28049 252.96947 282.26386 251.04224 281.38983 L 86.340224 206.69477 C 75.465051 201.76268 58.629365 202.9985 48.591494 209.46657 C 38.553624 215.93465 39.22859 225.11378 50.103764 230.04587 L 162.64975 281.08738 L -151.73517 281.08876 L -42.205436 231.4145 C -31.330265 226.48242 -30.656675 217.30467 -40.694548 210.83659 C -50.73242 204.36852 -67.569486 203.13132 -78.444659 208.06341 L -242.43819 282.43944 C -242.55399 282.48088 -242.65752 282.5453 -242.77241 282.5886 C -243.45403 282.84506 -244.10195 283.14765 -244.74872 283.46834 C -245.23669 283.70954 -245.71033 283.96639 -246.17674 284.24173 C -246.76737 284.59197 -247.34764 284.94381 -247.90031 285.34659 C -248.44357 285.73989 -248.94208 286.18105 -249.44573 286.62131 C -249.85937 286.98547 -250.29981 287.31395 -250.68455 287.70821 C -251.52419 288.56209 -252.27956 289.49578 -252.96883 290.47864 C -253.19221 290.7995 -253.37305 291.1453 -253.57926 291.47853 C -254.06724 292.26136 -254.51194 293.06718 -254.89818 293.91335 C -255.06564 294.2821 -255.21639 294.65388 -255.3636 295.0334 C -255.7175 295.94152 -256.00092 296.87807 -256.23091 297.84249 C -256.3114 298.17988 -256.41068 298.50592 -256.47536 298.84929 C -256.72142 300.15857 -256.88554 301.49818 -256.88554 302.88339 C -256.88554 302.8938 -256.88279 302.90337 -256.88278 302.91377 C -256.88278 302.91897 -256.88416 302.92376 -256.88416 302.92896 C -256.88416 309.38395 -254.05308 315.10633 -249.6225 319.09022 C -249.20444 319.45623 -248.78372 319.81743 -248.33673 320.1495 C -247.7493 320.60147 -247.15918 321.03591 -246.52615 321.42699 C -245.24221 322.53006 -243.65974 323.54646 -241.73108 324.42114 L -77.029064 399.1162 C -66.153886 404.04828 -49.318207 402.81248 -39.280334 396.3444 C -29.242468 389.87633 -29.917425 380.69719 -40.792604 375.76511 L -153.33859 324.7236 L 161.04633 324.72222 L 51.516596 374.39647 C 40.641423 379.32855 39.967837 388.50631 50.005708 394.97438 C 60.043578 401.44245 76.880645 402.67965 87.755819 397.74756 L 251.74935 323.37153 C 251.87045 323.3282 251.97866 323.26084 252.09876 323.21547 C 252.77091 322.96201 253.40922 322.66273 254.04745 322.34678 C 254.53988 322.10372 255.0174 321.84429 255.4879 321.56648 C 256.07813 321.21643 256.65777 320.86552 257.21009 320.463 C 257.75257 320.07027 258.25115 319.62922 258.75413 319.18966 C 259.16829 318.82511 259.60914 318.49611 259.99432 318.10138 C 260.8378 317.24377 261.59518 316.30762 262.2869 315.31991 C 262.50358 315.00824 262.67887 314.67235 262.87938 314.34902 C 263.37161 313.56099 263.81891 312.74856 264.20796 311.89624 C 264.37568 311.52693 264.52736 311.15492 264.67476 310.77481 C 265.0282 309.86763 265.31227 308.93184 265.54207 307.96848 C 265.62225 307.6324 265.72065 307.30785 265.78514 306.96583 C 266.03192 305.65472 266.1967 304.31486 266.1967 302.92758 C 266.1967 302.91718 266.19395 302.9076 266.19394 302.8972 C 266.19394 302.892 266.19532 302.88721 266.19532 302.88201 C 266.19532 296.84479 263.76518 291.39483 259.82583 287.45548 z "
     transform="rotate(-45)" />
</svg>
