<?xml version="1.0" encoding="utf-8"?>
<!-- Generator: Adobe Illustrator 27.9.6, SVG Export Plug-In . SVG Version: 9.03 Build 54986)  -->
<svg version="1.1" id="katman_1" xmlns="http://www.w3.org/2000/svg" xmlns:xlink="http://www.w3.org/1999/xlink" x="0px" y="0px"
	 viewBox="0 0 48 48" style="enable-background:new 0 0 48 48;" xml:space="preserve">
<style type="text/css">
	.st0{fill:#F4F4F4;}
</style>
<path class="st0" d="M47.94,2.41c-0.02-0.09-0.05-0.18-0.08-0.27c-0.03-0.1-0.05-0.2-0.09-0.29c-0.05-0.11-0.11-0.21-0.17-0.31
	c-0.04-0.07-0.07-0.14-0.11-0.2c-0.22-0.33-0.5-0.61-0.83-0.83c-0.06-0.04-0.14-0.07-0.2-0.11c-0.1-0.06-0.2-0.12-0.31-0.17
	c-0.1-0.04-0.19-0.06-0.29-0.09c-0.09-0.03-0.17-0.06-0.27-0.08C45.39,0.02,45.2,0,45,0H27c-1.66,0-3,1.34-3,3c0,1.66,1.34,3,3,3
	h10.76L0.88,42.88c-1.17,1.17-1.17,3.07,0,4.24C1.46,47.71,2.23,48,3,48s1.54-0.29,2.12-0.88L42,10.24V21c0,1.66,1.34,3,3,3
	s3-1.34,3-3V3C48,2.8,47.98,2.61,47.94,2.41z"/>
</svg>
