<?xml version="1.0" encoding="utf-8"?>
<!-- Generator: Adobe Illustrator 27.9.6, SVG Export Plug-In . SVG Version: 9.03 Build 54986)  -->
<svg version="1.1" id="katman_1" xmlns="http://www.w3.org/2000/svg" xmlns:xlink="http://www.w3.org/1999/xlink" x="0px" y="0px"
	 viewBox="0 0 48 48" style="enable-background:new 0 0 48 48;" xml:space="preserve">
<style type="text/css">
	.st0{fill:#F4F4F4;}
</style>
<path class="st0" d="M47.95,1.93c-0.02-0.08-0.04-0.15-0.07-0.22c-0.02-0.07-0.04-0.15-0.07-0.22c-0.04-0.09-0.09-0.18-0.14-0.27
	c-0.03-0.05-0.05-0.1-0.08-0.14c-0.18-0.27-0.4-0.49-0.67-0.67c-0.05-0.03-0.1-0.05-0.14-0.08c-0.09-0.05-0.17-0.1-0.27-0.14
	c-0.07-0.03-0.15-0.05-0.22-0.07c-0.07-0.02-0.15-0.05-0.22-0.07C45.91,0.02,45.76,0,45.6,0H31.2c-1.33,0-2.4,1.07-2.4,2.4
	c0,1.33,1.07,2.4,2.4,2.4h8.61l-8.78,8.78L27.1,17.5L14.23,30.37c0,0,0,0,0,0L4.8,39.81V31.2c0-1.33-1.07-2.4-2.4-2.4
	S0,29.87,0,31.2v14.4c0,0.16,0.02,0.31,0.05,0.47c0.01,0.08,0.04,0.14,0.06,0.22c0.02,0.08,0.04,0.16,0.07,0.23
	c0.04,0.09,0.09,0.17,0.13,0.25c0.03,0.05,0.05,0.11,0.09,0.16c0.18,0.26,0.4,0.49,0.67,0.67c0.05,0.03,0.11,0.06,0.16,0.09
	c0.08,0.05,0.16,0.1,0.25,0.13c0.08,0.03,0.15,0.05,0.23,0.07c0.07,0.02,0.14,0.05,0.22,0.06C2.09,47.98,2.24,48,2.4,48h14.4
	c1.33,0,2.4-1.07,2.4-2.4c0-1.33-1.07-2.4-2.4-2.4H8.19l12.7-12.7l9.6-9.6l3.93-3.93l8.77-8.77v8.61c0,1.33,1.07,2.4,2.4,2.4
	c1.33,0,2.4-1.07,2.4-2.4V2.4l0,0C48,2.24,47.98,2.08,47.95,1.93z"/>
</svg>
