<?xml version="1.0" encoding="UTF-8" standalone="no"?>
<!-- Created with Inkscape (http://www.inkscape.org/) -->

<svg
   width="512"
   height="512"
   viewBox="0 0 135.46666 135.46666"
   version="1.1"
   id="svg1"
   inkscape:version="1.3.2 (091e20ef0f, 2023-11-25)"
   sodipodi:docname="circle.svg"
   xmlns:inkscape="http://www.inkscape.org/namespaces/inkscape"
   xmlns:sodipodi="http://sodipodi.sourceforge.net/DTD/sodipodi-0.dtd"
   xmlns="http://www.w3.org/2000/svg"
   xmlns:svg="http://www.w3.org/2000/svg">
  <sodipodi:namedview
     id="namedview1"
     pagecolor="#ffffff"
     bordercolor="#000000"
     borderopacity="0.25"
     inkscape:showpageshadow="2"
     inkscape:pageopacity="0.0"
     inkscape:pagecheckerboard="0"
     inkscape:deskcolor="#d1d1d1"
     inkscape:document-units="mm"
     inkscape:zoom="0.74475309"
     inkscape:cx="161.12723"
     inkscape:cy="232.29175"
     inkscape:window-width="1920"
     inkscape:window-height="1034"
     inkscape:window-x="0"
     inkscape:window-y="0"
     inkscape:window-maximized="1"
     inkscape:current-layer="layer1" />
  <defs
     id="defs1" />
  <g
     inkscape:label="Layer 1"
     inkscape:groupmode="layer"
     id="layer1">
    <g
       id="g4"
       transform="matrix(2.1043384,0,0,2.1043379,-167.42763,-241.62189)">
      <path
         id="path3"
         style="fill:#f9f9f9;stroke-width:0.026565;paint-order:stroke fill markers"
         d="m 111.75083,114.82086 a 32.187546,32.187546 0 0 0 -32.187755,32.18777 32.187546,32.187546 0 0 0 32.187755,32.18719 32.187546,32.187546 0 0 0 32.18719,-32.18719 32.187546,32.187546 0 0 0 -32.18719,-32.18777 z m 0,4.42381 a 27.76398,27.76398 0 0 1 27.76396,27.76396 27.76398,27.76398 0 0 1 -27.76396,27.76395 27.76398,27.76398 0 0 1 -27.763963,-27.76395 27.76398,27.76398 0 0 1 27.763963,-27.76396 z" />
      <path
         id="path4"
         style="fill:#f9f9f9;stroke-width:0.0245595;paint-order:stroke fill markers"
         d="m 111.75081,117.25076 a 29.757644,29.757644 0 0 0 -29.757838,29.75785 29.757644,29.757644 0 0 0 29.757838,29.75731 29.757644,29.757644 0 0 0 29.75731,-29.75731 29.757644,29.757644 0 0 0 -29.75731,-29.75785 z m 0,4.08984 a 25.668022,25.668022 0 0 1 25.668,25.66801 25.668022,25.668022 0 0 1 -25.668,25.66799 25.668022,25.668022 0 0 1 -25.668007,-25.66799 25.668022,25.668022 0 0 1 25.668007,-25.66801 z" />
      <path
         id="path2"
         style="fill:#000000;stroke-width:0.0256727;paint-order:stroke fill markers"
         d="m 111.75082,115.90195 a 31.106459,31.106459 0 0 0 -31.106661,31.10667 31.106459,31.106459 0 0 0 31.106661,31.10611 31.106459,31.106459 0 0 0 31.10611,-31.10611 31.106459,31.106459 0 0 0 -31.10611,-31.10667 z m 0,4.27521 a 26.831469,26.831469 0 0 1 26.83145,26.83146 26.831469,26.831469 0 0 1 -26.83145,26.83144 26.831469,26.831469 0 0 1 -26.83145,-26.83144 26.831469,26.831469 0 0 1 26.83145,-26.83146 z" />
    </g>
    <circle
       style="fill:#f9f9f9;stroke-width:0.0214438;paint-order:stroke fill markers"
       id="path6"
       cx="67.73333"
       cy="67.73333"
       r="7.0382323" />
    <circle
       style="fill:#000000;stroke-width:0.013108;paint-order:stroke fill markers"
       id="circle6"
       cx="67.73333"
       cy="67.73333"
       r="4.3022685" />
  </g>
</svg>
