<?xml version="1.0" encoding="UTF-8" standalone="no"?>
<svg
   id="katman_2"
   viewBox="0 0 426.55 474.16"
   version="1.1"
   sodipodi:docname="clear.svg"
   inkscape:version="1.2.2 (b0a8486541, 2022-12-01)"
   xmlns:inkscape="http://www.inkscape.org/namespaces/inkscape"
   xmlns:sodipodi="http://sodipodi.sourceforge.net/DTD/sodipodi-0.dtd"
   xmlns="http://www.w3.org/2000/svg"
   xmlns:svg="http://www.w3.org/2000/svg">
  <sodipodi:namedview
     id="namedview36"
     pagecolor="#ffffff"
     bordercolor="#000000"
     borderopacity="0.25"
     inkscape:showpageshadow="2"
     inkscape:pageopacity="0.0"
     inkscape:pagecheckerboard="0"
     inkscape:deskcolor="#d1d1d1"
     showgrid="false"
     inkscape:zoom="1.8664586"
     inkscape:cx="205.46933"
     inkscape:cy="236.81211"
     inkscape:window-width="1920"
     inkscape:window-height="1057"
     inkscape:window-x="0"
     inkscape:window-y="0"
     inkscape:window-maximized="1"
     inkscape:current-layer="katman_2" />
  <defs
     id="defs4">
    <style
       id="style2">.cls-1{fill:#161a1e;opacity:.1;}.cls-2{fill:#7ca1b1;}.cls-3{fill:#ce9644;}.cls-4{fill:#c5d6db;}.cls-5{fill:#1d71b8;}.cls-6{fill:#1eb8d3;}</style>
  </defs>
  <g
     id="katman_1">
    <g
       id="g32">
      <path
         class="cls-6"
         d="m 364.26,213.1 c -0.56,-1.03 -7.55,-22.97 -39.53,-39.52 -24.69,-12.78 -53.91,-12.78 -55.69,-12.78 -23.11,0.02 -43.27,8.28 -60.16,23.76 -8.53,7.81 -15.81,16.98 -23.7,25.49 -17.71,19.07 -35.78,37.76 -58.12,51.6 -23.53,14.57 -48.79,24.61 -76.11,29.62 -21.1,3.86 -30.71,30.15 -14.28,45.63 14.74,13.89 29.25,28.16 45.04,40.78 44.76,35.78 92.64,66.62 146.33,87.58 9.84,3.84 20.01,6.85 26.08,8.91 17.44,-0.32 27.56,-6 34.5,-16.79 7.96,-12.38 15.73,-24.92 23.04,-37.69 24.61,-42.97 41.65,-89.21 58.12,-135.69 8.68,-24.49 6.86,-48.02 -5.53,-70.89 z"
         id="path6" />
      <path
         class="cls-5"
         d="m 350.7,336.43 c 6.68,-17.16 12.92,-34.5 19.09,-51.88 8.68,-24.49 6.86,-48.02 -5.53,-70.89 -0.56,-1.03 -7.55,-22.97 -39.53,-39.52 -24.69,-12.78 -53.91,-12.78 -55.69,-12.78 -23.11,0.02 -43.27,8.28 -60.16,23.76 -8.53,7.81 -15.81,16.98 -23.7,25.49 -7.9,8.51 -15.88,16.95 -24.28,24.91 0,0 27.18,25.33 71.34,53.02 54.81,34.37 118.48,47.89 118.48,47.89 z"
         id="path8" />
      <path
         class="cls-3"
         d="m 374.91,22.65 c -20.69,0.44 -35.86,10.65 -45.42,29.13 -17.99,34.81 -36.07,69.58 -54.04,104.4 -1.42,2.75 87.82,51.57 88.8,49.52 4.26,-8.97 9.08,-17.67 13.65,-26.49 14.66,-28.26 30.02,-56.18 43.75,-84.87 16.07,-33.57 -9.54,-72.48 -46.75,-71.68 z"
         id="path10" />
      <path
         class="cls-4"
         d="m 95.51,125.5 c 11.73,-11.73 23.27,-20.21 38.67,-21.67 l 0.67,-0.67 C 119.39,101.52 104.31,94.73 92.4,82.82 80.45,70.87 73.65,55.73 72.04,40.21 L 71.63,39.8 C 70.3,55.44 63.7,70.65 51.8,82.55 39.9,94.45 24.69,101.05 9.05,102.38 l 0.45,0.45 c 15.37,1.69 27.62,12.77 39.47,24.62 11.85,11.85 23.37,60.42 23.37,60.42 1.46,-15.4 11.44,-50.65 23.17,-62.38 z"
         id="path12" />
      <path
         class="cls-4"
         d="m 144.25,188.74 c 5.58,-5.58 11.07,-9.61 18.4,-10.31 l 0.32,-0.32 c -7.35,-0.78 -14.53,-4.01 -20.19,-9.68 -5.69,-5.69 -8.92,-12.89 -9.69,-20.27 l -0.19,-0.19 c -0.63,7.44 -3.77,14.67 -9.43,20.33 -5.66,5.66 -12.9,8.8 -20.33,9.43 l 0.21,0.21 c 7.31,0.8 13.56,4.97 19.2,10.6 5.64,5.64 10.69,29.85 10.69,29.85 0.7,-7.33 5.44,-24.09 11.02,-29.67 z"
         id="path14" />
      <path
         class="cls-4"
         d="m 124.15,37.73 c 2.97,-2.97 5.88,-5.11 9.78,-5.48 l 0.17,-0.17 c -3.91,-0.42 -7.72,-2.13 -10.73,-5.14 -3.02,-3.02 -4.74,-6.85 -5.15,-10.77 l -0.1,-0.1 c -0.34,3.95 -2.01,7.8 -5.01,10.81 -3.01,3.01 -6.85,4.68 -10.81,5.01 l 0.11,0.11 c 3.89,0.43 7.21,2.64 10.2,5.63 3,3 5.68,15.86 5.68,15.86 0.37,-3.89 2.89,-12.8 5.86,-15.77 z"
         id="path16" />
      <path
         class="cls-4"
         d="M 40.62,9.81 C 41.96,8.47 43.28,7.5 45.05,7.33 L 45.13,7.25 C 43.36,7.06 41.63,6.29 40.27,4.92 38.9,3.55 38.12,1.82 37.94,0.04 L 37.89,-0.01 C 37.74,1.78 36.98,3.52 35.62,4.88 34.26,6.24 32.52,7 30.73,7.15 l 0.05,0.05 c 1.76,0.19 3.26,1.19 4.62,2.55 1.36,1.36 2.57,7.18 2.57,7.18 0.17,-1.76 1.31,-5.8 2.65,-7.14 z"
         id="path18" />
      <path
         class="cls-4"
         d="m 17.05,64.15 c 2.31,-2.31 4.59,-3.99 7.63,-4.27 l 0.13,-0.13 c -3.05,-0.32 -6.02,-1.66 -8.37,-4.01 -2.36,-2.36 -3.7,-5.34 -4.02,-8.4 L 12.34,47.26 C 12.08,50.34 10.78,53.34 8.43,55.69 6.08,58.04 3.08,59.34 0,59.6 l 0.09,0.09 c 3.03,0.33 5.62,2.06 7.96,4.4 2.34,2.34 4.43,12.38 4.43,12.38 0.29,-3.04 2.26,-9.99 4.57,-12.3 z"
         id="path20" />
      <circle
         class="cls-4"
         cx="13.75"
         cy="164.03"
         r="13.36"
         id="circle22" />
      <circle
         class="cls-4"
         cx="183.91"
         cy="67.589996"
         r="5.1399999"
         id="circle24" />
      <circle
         class="cls-4"
         cx="63.220001"
         cy="254.67"
         r="7.6399999"
         id="circle26" />
      <rect
         class="cls-2"
         x="258.92001"
         y="161.46001"
         width="129.64999"
         height="29.17"
         rx="14.59"
         ry="14.59"
         transform="rotate(-151.17,323.74845,176.04206)"
         id="rect28" />
      <path
         class="cls-1"
         d="m 396.95,27.65 c -45.4,75.63 -117.89,195.95 -142.77,234.66 -43.74,68.04 -89.82,127.19 -114.62,157.84 27.58,17.68 56.56,33.03 87.47,45.09 9.84,3.84 20.01,6.85 26.08,8.91 17.44,-0.32 27.56,-6 34.5,-16.79 7.96,-12.38 15.73,-24.92 23.04,-37.69 15.32,-26.74 27.7,-54.75 38.83,-83.29 0.13,0.03 0.2,0.04 0.2,0.04 6.68,-17.16 12.92,-34.5 19.09,-51.88 3.58,-10.09 5.36,-20.01 5.37,-29.79 0.11,-13.65 -3.26,-27.01 -10.11,-40.16 6.03,1.14 12.37,-1.62 15.49,-7.29 3.88,-7.06 1.31,-15.93 -5.75,-19.81 l -0.96,-0.53 c 1.37,-2.58 2.73,-5.17 4.08,-7.76 14.66,-28.26 30.02,-56.18 43.75,-84.87 12.45,-26 -0.12,-55.2 -23.7,-66.68 z"
         id="path30" />
    </g>
  </g>
</svg>
