<?xml version="1.0" encoding="UTF-8"?><svg id="katman_2" xmlns="http://www.w3.org/2000/svg" viewBox="0 0 426.55 474.16"><defs><style>.cls-1{fill:#161a1e;opacity:.1;}.cls-2{fill:#7ca1b1;}.cls-3{fill:#ce9644;}.cls-4{fill:#c5d6db;}.cls-5{fill:#1d71b8;}.cls-6{fill:#1eb8d3;}</style></defs><g id="katman_1"><g><path class="cls-6" d="M364.26,213.1c-.56-1.03-7.55-22.97-39.53-39.52-24.69-12.78-53.91-12.78-55.69-12.78-23.11,.02-43.27,8.28-60.16,23.76-8.53,7.81-15.81,16.98-23.7,25.49-17.71,19.07-35.78,37.76-58.12,51.6-23.53,14.57-48.79,24.61-76.11,29.62-21.1,3.86-30.71,30.15-14.28,45.63,14.74,13.89,29.25,28.16,45.04,40.78,44.76,35.78,92.64,66.62,146.33,87.58,9.84,3.84,20.01,6.85,26.08,8.91,17.44-.32,27.56-6,34.5-16.79,7.96-12.38,15.73-24.92,23.04-37.69,24.61-42.97,41.65-89.21,58.12-135.69,8.68-24.49,6.86-48.02-5.53-70.89Z"/><path class="cls-5" d="M350.7,336.43c6.68-17.16,12.92-34.5,19.09-51.88,8.68-24.49,6.86-48.02-5.53-70.89-.56-1.03-7.55-22.97-39.53-39.52-24.69-12.78-53.91-12.78-55.69-12.78-23.11,.02-43.27,8.28-60.16,23.76-8.53,7.81-15.81,16.98-23.7,25.49-7.9,8.51-15.88,16.95-24.28,24.91,0,0,27.18,25.33,71.34,53.02,54.81,34.37,118.48,47.89,118.48,47.89Z"/><path class="cls-3" d="M374.91,22.65c-20.69,.44-35.86,10.65-45.42,29.13-17.99,34.81-36.07,69.58-54.04,104.4-1.42,2.75,87.82,51.57,88.8,49.52,4.26-8.97,9.08-17.67,13.65-26.49,14.66-28.26,30.02-56.18,43.75-84.87,16.07-33.57-9.54-72.48-46.75-71.68Z"/><path class="cls-4" d="M95.51,125.5c11.73-11.73,23.27-20.21,38.67-21.67l.67-.67c-15.46-1.64-30.54-8.43-42.45-20.34-11.95-11.95-18.75-27.09-20.36-42.61l-.41-.41c-1.33,15.64-7.93,30.85-19.83,42.75-11.9,11.9-27.11,18.5-42.75,19.83l.45,.45c15.37,1.69,27.62,12.77,39.47,24.62,11.85,11.85,23.37,60.42,23.37,60.42,1.46-15.4,11.44-50.65,23.17-62.38Z"/><path class="cls-4" d="M144.25,188.74c5.58-5.58,11.07-9.61,18.4-10.31l.32-.32c-7.35-.78-14.53-4.01-20.19-9.68-5.69-5.69-8.92-12.89-9.69-20.27l-.19-.19c-.63,7.44-3.77,14.67-9.43,20.33-5.66,5.66-12.9,8.8-20.33,9.43l.21,.21c7.31,.8,13.56,4.97,19.2,10.6,5.64,5.64,10.69,29.85,10.69,29.85,.7-7.33,5.44-24.09,11.02-29.67Z"/><path class="cls-4" d="M124.15,37.73c2.97-2.97,5.88-5.11,9.78-5.48l.17-.17c-3.91-.42-7.72-2.13-10.73-5.14-3.02-3.02-4.74-6.85-5.15-10.77l-.1-.1c-.34,3.95-2.01,7.8-5.01,10.81-3.01,3.01-6.85,4.68-10.81,5.01l.11,.11c3.89,.43,7.21,2.64,10.2,5.63,3,3,5.68,15.86,5.68,15.86,.37-3.89,2.89-12.8,5.86-15.77Z"/><path class="cls-4" d="M40.62,9.81c1.34-1.34,2.66-2.31,4.43-2.48l.08-.08c-1.77-.19-3.5-.96-4.86-2.33-1.37-1.37-2.15-3.1-2.33-4.88l-.05-.05c-.15,1.79-.91,3.53-2.27,4.89s-3.1,2.12-4.89,2.27l.05,.05c1.76,.19,3.26,1.19,4.62,2.55,1.36,1.36,2.57,7.18,2.57,7.18,.17-1.76,1.31-5.8,2.65-7.14Z"/><path class="cls-4" d="M17.05,64.15c2.31-2.31,4.59-3.99,7.63-4.27l.13-.13c-3.05-.32-6.02-1.66-8.37-4.01-2.36-2.36-3.7-5.34-4.02-8.4l-.08-.08c-.26,3.08-1.56,6.08-3.91,8.43s-5.35,3.65-8.43,3.91l.09,.09c3.03,.33,5.62,2.06,7.96,4.4,2.34,2.34,4.43,12.38,4.43,12.38,.29-3.04,2.26-9.99,4.57-12.3Z"/><circle class="cls-4" cx="13.75" cy="164.03" r="13.36"/><circle class="cls-4" cx="183.91" cy="67.59" r="5.14"/><circle class="cls-4" cx="63.22" cy="254.67" r="7.64"/><rect class="cls-2" x="258.92" y="161.46" width="129.65" height="29.17" rx="14.59" ry="14.59" transform="translate(522.48 486.38) rotate(-151.17)"/><path class="cls-1" d="M396.95,27.65c-45.4,75.63-117.89,195.95-142.77,234.66-43.74,68.04-89.82,127.19-114.62,157.84,27.58,17.68,56.56,33.03,87.47,45.09,9.84,3.84,20.01,6.85,26.08,8.91,17.44-.32,27.56-6,34.5-16.79,7.96-12.38,15.73-24.92,23.04-37.69,15.32-26.74,27.7-54.75,38.83-83.29,.13,.03,.2,.04,.2,.04,6.68-17.16,12.92-34.5,19.09-51.88,3.58-10.09,5.36-20.01,5.37-29.79,.11-13.65-3.26-27.01-10.11-40.16,6.03,1.14,12.37-1.62,15.49-7.29,3.88-7.06,1.31-15.93-5.75-19.81l-.96-.53c1.37-2.58,2.73-5.17,4.08-7.76,14.66-28.26,30.02-56.18,43.75-84.87,12.45-26-.12-55.2-23.7-66.68Z"/></g></g></svg>