<?xml version="1.0" encoding="UTF-8" standalone="no"?>
<svg
   xmlns:dc="http://purl.org/dc/elements/1.1/"
   xmlns:cc="http://creativecommons.org/ns#"
   xmlns:rdf="http://www.w3.org/1999/02/22-rdf-syntax-ns#"
   xmlns:svg="http://www.w3.org/2000/svg"
   xmlns="http://www.w3.org/2000/svg"
   xmlns:sodipodi="http://sodipodi.sourceforge.net/DTD/sodipodi-0.dtd"
   xmlns:inkscape="http://www.inkscape.org/namespaces/inkscape"
   width="512"
   height="512"
   viewBox="0 0 512 512"
   id="svg2"
   version="1.1"
   inkscape:version="0.48.5 r10040"
   sodipodi:docname="clear.svg">
  <metadata
     id="metadata12">
    <rdf:RDF>
      <cc:Work
         rdf:about="">
        <dc:format>image/svg+xml</dc:format>
        <dc:type
           rdf:resource="http://purl.org/dc/dcmitype/StillImage" />
      </cc:Work>
    </rdf:RDF>
  </metadata>
  <defs
     id="defs10" />
  <sodipodi:namedview
     pagecolor="#ffffff"
     bordercolor="#666666"
     borderopacity="1"
     objecttolerance="10"
     gridtolerance="10"
     guidetolerance="10"
     inkscape:pageopacity="0"
     inkscape:pageshadow="2"
     inkscape:window-width="1920"
     inkscape:window-height="1168"
     id="namedview8"
     showgrid="false"
     inkscape:zoom="0.921875"
     inkscape:cx="-177.8983"
     inkscape:cy="214.77966"
     inkscape:window-x="-5"
     inkscape:window-y="-5"
     inkscape:window-maximized="1"
     inkscape:current-layer="svg2" />
  <rect
     style="fill:#f2f2f2;fill-opacity:0.39215687;fill-rule:evenodd;stroke:none"
     id="rect3813"
     width="512"
     height="512"
     x="0"
     y="0"
     ry="72.437981" />
  <g
     id="g2989"
     transform="matrix(1.5234375,0,0,1.5234375,61,48.8125)">
    <path
       id="path4"
       d="M 112,16 C 83.554688,16 80,16.382812 80,41.984375 L 80,96 32,96 C 3.554688,96 0,92.800781 0,118.39844 L 0,144 l 256,0 0,-25.60156 C 256,92.800781 252.44531,96 224,96 l -48,0 0,-53.632812 C 176,16.765625 172.44531,16 144,16 z"
       style="fill:#268bd2"
       inkscape:connector-curvature="0" />
    <path
       id="path6"
       d="m 32,144 0,112 123.42969,0 0,-84 27.42578,84 41.14453,0 0,-112 z"
       style="fill:#dfd187"
       inkscape:connector-curvature="0" />
  </g>
</svg>
