<?xml version="1.0" encoding="UTF-8" standalone="no"?>
<svg
   xmlns:dc="http://purl.org/dc/elements/1.1/"
   xmlns:cc="http://creativecommons.org/ns#"
   xmlns:rdf="http://www.w3.org/1999/02/22-rdf-syntax-ns#"
   xmlns:svg="http://www.w3.org/2000/svg"
   xmlns="http://www.w3.org/2000/svg"
   xmlns:sodipodi="http://sodipodi.sourceforge.net/DTD/sodipodi-0.dtd"
   xmlns:inkscape="http://www.inkscape.org/namespaces/inkscape"
   width="100"
   height="100"
   version="1"
   id="svg40"
   sodipodi:docname="close.svg"
   inkscape:version="0.92.1 r15371">
  <metadata
     id="metadata46">
    <rdf:RDF>
      <cc:Work
         rdf:about="">
        <dc:format>image/svg+xml</dc:format>
        <dc:type
           rdf:resource="http://purl.org/dc/dcmitype/StillImage" />
        <dc:title />
      </cc:Work>
    </rdf:RDF>
  </metadata>
  <defs
     id="defs44" />
  <sodipodi:namedview
     pagecolor="#ffffff"
     bordercolor="#666666"
     borderopacity="1"
     objecttolerance="10"
     gridtolerance="10"
     guidetolerance="10"
     inkscape:pageopacity="0"
     inkscape:pageshadow="2"
     inkscape:window-width="1920"
     inkscape:window-height="1172"
     id="namedview42"
     showgrid="false"
     inkscape:zoom="4.9166667"
     inkscape:cx="-46.779661"
     inkscape:cy="24"
     inkscape:window-x="0"
     inkscape:window-y="0"
     inkscape:window-maximized="1"
     inkscape:current-layer="svg40" />
  <rect
     style="fill:#f2f2f2;fill-opacity:0.39215686;fill-rule:evenodd;stroke:none;stroke-width:0.1953125"
     id="rect3813"
     width="100"
     height="100"
     x="0"
     y="0"
     ry="6"
     rx="6" />
  <g
     id="g4528"
     transform="matrix(4.2857143,0,0,4.2857143,-104.02857,-106.42857)">
    <circle
       id="circle30"
       style="fill:#db3c30"
       r="10"
       cy="36"
       cx="36" />
    <path
       id="path32"
       style="opacity:0.2"
       d="M 45.979,36.414 A 10,10 0 0 1 36,46 10,10 0 0 1 26.021,36.586 10,10 0 0 0 26,37 10,10 0 0 0 36,47 10,10 0 0 0 46,37 10,10 0 0 0 45.979,36.414 Z"
       inkscape:connector-curvature="0" />
    <g
       id="g38"
       style="fill:#ffffff"
       transform="matrix(0.70711,-0.70711,0.70711,0.70711,-13.497,34.846)">
      <rect
         id="rect34"
         y="35"
         x="28"
         height="2"
         width="12" />
      <rect
         id="rect36"
         transform="rotate(-90)"
         y="33"
         x="-42"
         height="2"
         width="12" />
    </g>
  </g>
</svg>
