<?xml version="1.0" encoding="UTF-8"?>
<svg id="katman_2" data-name="katman 2" xmlns="http://www.w3.org/2000/svg" viewBox="0 0 496.97 471.35">
  <defs>
    <style>
      .cls-1 {
        fill: #e14e3d;
      }

      .cls-1, .cls-2, .cls-3, .cls-4, .cls-5, .cls-6, .cls-7, .cls-8, .cls-9, .cls-10, .cls-11, .cls-12, .cls-13, .cls-14, .cls-15, .cls-16, .cls-17, .cls-18, .cls-19, .cls-20, .cls-21 {
        stroke-width: 0px;
      }

      .cls-2 {
        fill: #c13b29;
      }

      .cls-3 {
        fill: #ef7b77;
      }

      .cls-4 {
        fill: #54b46f;
      }

      .cls-5 {
        fill: #517b9a;
      }

      .cls-6 {
        fill: #d35624;
      }

      .cls-7 {
        fill: #f9eab1;
      }

      .cls-8 {
        fill: #1d1d1b;
      }

      .cls-9 {
        fill: #45b492;
      }

      .cls-10 {
        fill: #f4efc9;
      }

      .cls-11 {
        fill: #f7c176;
      }

      .cls-12 {
        fill: #01a084;
      }

      .cls-13 {
        fill: #4cc1ea;
      }

      .cls-14 {
        fill: #74be86;
      }

      .cls-15 {
        fill: #f39e20;
      }

      .cls-16 {
        fill: #004a77;
      }

      .cls-17 {
        fill: #822e40;
      }

      .cls-18 {
        fill: #748b96;
      }

      .cls-19 {
        fill: #fff;
      }

      .cls-20 {
        fill: #7e6699;
      }

      .cls-21 {
        fill: #f4d55b;
      }
    </style>
  </defs>
  <g id="katman_1" data-name="katman 1">
    <g>
      <g>
        <g>
          <path class="cls-8" d="M8.43,146.84h366.07c7.3,0,13.22,5.93,13.22,13.22v82.15c0,7.3-5.93,13.22-13.22,13.22H90.58c-52.64,0-95.37-42.73-95.37-95.37h0c0-7.3,5.93-13.22,13.22-13.22Z" transform="translate(-70.16 294.23) rotate(-66)"/>
          <path class="cls-8" d="M112.87,376.02c-13.74,0-27.45-2.89-40.38-8.65-4.2-1.87-7.43-5.27-9.07-9.56-1.65-4.29-1.53-8.97.34-13.18L212.66,10.22c3.86-8.68,14.06-12.59,22.74-8.73l75.04,33.41c4.2,1.87,7.43,5.27,9.07,9.56,1.65,4.29,1.53,8.98-.35,13.18l-115.49,259.37c-10.8,24.25-30.39,42.84-55.17,52.35-11.57,4.44-23.62,6.65-35.65,6.65ZM228.4,7.99c-1.12,0-2.23.21-3.31.62-2.3.88-4.12,2.61-5.12,4.86L71.06,347.89c-1,2.25-1.07,4.76-.18,7.06.88,2.3,2.61,4.12,4.86,5.12,22.3,9.93,47.12,10.58,69.91,1.83,22.79-8.75,40.8-25.84,50.73-48.14L311.86,54.39l3.65,1.63-3.65-1.63c1-2.25,1.07-4.76.19-7.06-.88-2.3-2.61-4.12-4.86-5.12L232.15,8.8c-1.2-.53-2.47-.8-3.75-.8Z"/>
        </g>
        <rect class="cls-21" x="221.11" y="10.22" width="67.45" height="97.2" rx="10.02" ry="10.02" transform="translate(97.45 267.69) rotate(-66)"/>
        <rect class="cls-7" x="190.07" y="79.94" width="67.45" height="97.2" rx="10.02" ry="10.02" transform="translate(15.33 280.7) rotate(-66)"/>
        <rect class="cls-10" x="159.02" y="149.67" width="67.45" height="97.2" rx="10.02" ry="10.02" transform="translate(-66.78 293.7) rotate(-66)"/>
        <rect class="cls-7" x="127.97" y="219.39" width="67.45" height="97.2" rx="10.02" ry="10.02" transform="translate(-148.89 306.7) rotate(-66)"/>
      </g>
      <g>
        <g>
          <path class="cls-8" d="M55.54,179.38h366.07c7.3,0,13.22,5.93,13.22,13.22v82.15c0,7.3-5.93,13.22-13.22,13.22H137.69c-52.64,0-95.37-42.73-95.37-95.37h0c0-7.3,5.93-13.22,13.22-13.22Z" transform="translate(-92.99 273.51) rotate(-51.26)"/>
          <path class="cls-8" d="M143.21,386.04c-22.51,0-44.19-7.59-62-21.88-3.59-2.88-5.84-6.98-6.34-11.56-.5-4.57.81-9.07,3.69-12.66L307.66,54.44c2.88-3.59,6.98-5.84,11.56-6.34,4.58-.5,9.07.81,12.66,3.69l64.07,51.41c3.59,2.88,5.84,6.98,6.34,11.56.5,4.57-.81,9.07-3.69,12.66l-177.69,221.44c-16.61,20.7-40.29,33.7-66.68,36.59-3.68.4-7.37.6-11.02.6ZM321.11,55.99c-.34,0-.68.02-1.02.06-2.45.27-4.65,1.47-6.19,3.4L84.8,344.96c-1.54,1.92-2.24,4.33-1.97,6.78s1.47,4.65,3.4,6.19c19.04,15.28,42.88,22.23,67.14,19.56,24.26-2.66,46.03-14.61,61.31-33.64l177.69-221.44c1.54-1.92,2.24-4.33,1.98-6.78s-1.47-4.65-3.4-6.19l-64.07-51.41c-1.65-1.33-3.67-2.03-5.76-2.03Z"/>
        </g>
        <rect class="cls-2" x="302.36" y="63.57" width="67.45" height="97.2" rx="10.02" ry="10.02" transform="translate(38.26 304.09) rotate(-51.26)"/>
        <rect class="cls-6" x="254.59" y="123.1" width="67.45" height="97.2" rx="10.02" ry="10.02" transform="translate(-26.04 289.11) rotate(-51.26)"/>
        <rect class="cls-15" x="206.82" y="182.63" width="67.45" height="97.2" rx="10.02" ry="10.02" transform="translate(-90.34 274.13) rotate(-51.26)"/>
        <rect class="cls-11" x="159.06" y="242.15" width="67.45" height="97.2" rx="10.02" ry="10.02" transform="translate(-154.64 259.14) rotate(-51.26)"/>
      </g>
      <g>
        <g>
          <path class="cls-8" d="M86.28,221.81h366.07c7.3,0,13.22,5.93,13.22,13.22v82.15c0,7.3-5.93,13.22-13.22,13.22H168.43c-52.64,0-95.37-42.73-95.37-95.37h0c0-7.3,5.93-13.22,13.22-13.22Z" transform="translate(-107.39 193.27) rotate(-33.31)"/>
          <path class="cls-8" d="M162.6,396.53c-32.37,0-64.13-15.76-83.2-44.77-5.21-7.94-3-18.64,4.93-23.85L390.27,126.87c7.94-5.21,18.64-3,23.85,4.94l45.11,68.65c2.53,3.84,3.4,8.44,2.47,12.95-.93,4.51-3.56,8.38-7.41,10.9l-2.2-3.34,2.2,3.34-237.28,155.92c-16.78,11.03-35.7,16.3-54.42,16.3ZM399.71,132.05c-1.74,0-3.49.49-5.05,1.51L88.73,334.59c-4.25,2.79-5.44,8.52-2.64,12.78,27.67,42.1,84.44,53.85,126.54,26.18l237.28-155.92c2.06-1.35,3.47-3.43,3.97-5.84.5-2.41.03-4.88-1.32-6.93l-45.11-68.65c-1.77-2.69-4.72-4.16-7.72-4.16Z"/>
        </g>
        <rect class="cls-20" x="365.79" y="141.95" width="67.45" height="97.2" rx="10.02" ry="10.02" transform="translate(-39.01 250.71) rotate(-33.31)"/>
        <rect class="cls-1" x="302.01" y="183.87" width="67.45" height="97.2" rx="10.02" ry="10.02" transform="translate(-72.51 222.57) rotate(-33.31)"/>
        <rect class="cls-17" x="238.22" y="225.78" width="67.45" height="97.2" rx="10.02" ry="10.02" transform="translate(-106.01 194.43) rotate(-33.31)"/>
        <rect class="cls-3" x="174.44" y="267.7" width="67.45" height="97.2" rx="10.02" ry="10.02" transform="translate(-139.5 166.28) rotate(-33.31)"/>
      </g>
      <g>
        <g>
          <path class="cls-8" d="M107.98,278.61h366.07c7.3,0,13.22,5.93,13.22,13.22v82.15c0,7.3-5.93,13.22-13.22,13.22H190.13c-52.64,0-95.37-42.73-95.37-95.37h0c0-7.3,5.93-13.22,13.22-13.22Z" transform="translate(-87.88 104.97) rotate(-17.81)"/>
          <path class="cls-8" d="M182.29,424.08c-15.58,0-31.04-3.71-45.3-11.03-23.61-12.13-41.08-32.72-49.2-58-1.41-4.38-1.02-9.05,1.08-13.14,2.1-4.09,5.67-7.12,10.05-8.53l348.53-111.97c4.38-1.41,9.05-1.02,13.14,1.08,4.09,2.1,7.12,5.67,8.53,10.05l25.13,78.21c2.9,9.04-2.09,18.76-11.13,21.67l-270.32,86.85c-10.01,3.22-20.28,4.81-30.5,4.81ZM452.72,228.58c-.95,0-1.9.15-2.83.45l-348.53,111.98c-2.35.75-4.26,2.38-5.38,4.57-1.12,2.19-1.33,4.69-.58,7.04,7.46,23.24,23.53,42.17,45.24,53.33,21.71,11.15,46.46,13.18,69.7,5.72l270.32-86.85c4.84-1.56,7.52-6.76,5.96-11.6l-25.13-78.21c-.75-2.35-2.38-4.26-4.57-5.38-1.32-.68-2.76-1.02-4.21-1.02Z"/>
        </g>
        <rect class="cls-13" x="405.62" y="236.65" width="67.45" height="97.2" rx="10.02" ry="10.02" transform="translate(-66.2 148.06) rotate(-17.81)"/>
        <rect class="cls-5" x="332.95" y="260" width="67.45" height="97.2" rx="10.02" ry="10.02" transform="translate(-76.82 126.95) rotate(-17.81)"/>
        <rect class="cls-18" x="260.28" y="283.34" width="67.45" height="97.2" rx="10.02" ry="10.02" transform="translate(-87.44 105.84) rotate(-17.81)"/>
        <rect class="cls-16" x="187.62" y="306.69" width="67.45" height="97.2" rx="10.02" ry="10.02" transform="translate(-98.07 84.73) rotate(-17.81)"/>
      </g>
      <g>
        <path class="cls-8" d="M113.67,332.3h366.07c7.3,0,13.22,5.93,13.22,13.22v82.15c0,7.3-5.93,13.22-13.22,13.22H195.82c-52.64,0-95.37-42.73-95.37-95.37h0c0-7.3,5.93-13.22,13.22-13.22Z"/>
        <path class="cls-8" d="M479.74,444.89H195.82c-54.79,0-99.37-44.58-99.37-99.37,0-9.5,7.73-17.22,17.22-17.22h366.07c9.5,0,17.22,7.73,17.22,17.22v82.15c0,9.5-7.73,17.22-17.22,17.22ZM113.67,336.3c-5.09,0-9.22,4.14-9.22,9.22,0,50.38,40.99,91.37,91.37,91.37h283.92c5.09,0,9.22-4.14,9.22-9.22v-82.15c0-5.09-4.14-9.22-9.22-9.22H113.67Z"/>
      </g>
      <rect class="cls-9" x="418.78" y="337.99" width="67.45" height="97.2" rx="10.02" ry="10.02"/>
      <rect class="cls-12" x="342.45" y="337.99" width="67.45" height="97.2" rx="10.02" ry="10.02"/>
      <rect class="cls-4" x="266.13" y="337.99" width="67.45" height="97.2" rx="10.02" ry="10.02"/>
      <rect class="cls-14" x="189.8" y="337.99" width="67.45" height="97.2" rx="10.02" ry="10.02"/>
      <circle class="cls-8" cx="87.86" cy="383.49" r="87.86"/>
      <path class="cls-19" d="M46.91,368.65h24.81v-29.08c0-8.19,6.64-14.84,14.84-14.84h2.61c8.19,0,14.84,6.64,14.84,14.84v29.08h24.81c8.19,0,14.84,6.64,14.84,14.84h0c0,8.19-6.64,14.84-14.84,14.84h-24.81v29.08c0,8.19-6.64,14.84-14.84,14.84h-2.61c-8.19,0-14.84-6.64-14.84-14.84v-29.08h-24.81c-8.19,0-14.84-6.64-14.84-14.84h0c0-8.19,6.64-14.84,14.84-14.84Z"/>
    </g>
  </g>
</svg>