<?xml version="1.0" encoding="utf-8"?>
<!-- Uploaded to: SVG Repo, www.svgrepo.com, Generator: SVG Repo Mixer Tools -->
<svg width="800px" height="800px" viewBox="-1.46 0 13.518 13.518" xmlns="http://www.w3.org/2000/svg">
  <g id="color_picker" data-name="color picker" transform="translate(-63.426 75.792)">
    <path id="path216" d="M67.617-73.545,65.675-71.6l.835.834h3.884l-2.777-2.777" fill="#c3ead6"/>
    <path id="path218" d="M66.263-74.9a1.364,1.364,0,0,0-.971-.4,1.366,1.366,0,0,0-.971.4,1.365,1.365,0,0,0-.4.971,1.362,1.362,0,0,0,.4.971l1.006,1.006,1.942-1.942L66.263-74.9" fill="#a3dac1"/>
    <path id="path220" d="M73.062-66.853,72.056-67.86a.246.246,0,0,1-.06-.249A1.37,1.37,0,0,0,71.66-69.5l-.774-.774H67l2.716,2.716a1.389,1.389,0,0,0,1.393.335.238.238,0,0,1,.076-.012.246.246,0,0,1,.174.072l1.007,1.007a.5.5,0,0,0,.7,0,.493.493,0,0,0,0-.7" fill="#498a76"/>
    <path id="path222" d="M72.552-63.259a.493.493,0,0,0,.492.492h0a.491.491,0,0,0,.348-.144.489.489,0,0,0,.144-.348,3.259,3.259,0,0,0-.493-1.243,3.257,3.257,0,0,0-.491,1.243" fill="#498a76"/>
    <path id="path224" d="M72.366-66.157,71.36-67.164a.246.246,0,0,0-.174-.072.238.238,0,0,0-.076.012,1.389,1.389,0,0,1-1.393-.335L67-70.275h3.885l.774.774A1.37,1.37,0,0,1,72-68.109a.246.246,0,0,0,.06.249l1.007,1.007a.493.493,0,0,1,0,.7.5.5,0,0,1-.7,0ZM65.675-71.6l1.942-1.943,2.777,2.777H66.51Zm-1.354-1.354a1.362,1.362,0,0,1-.4-.971,1.365,1.365,0,0,1,.4-.971,1.366,1.366,0,0,1,.971-.4,1.364,1.364,0,0,1,.971.4l1.006,1.006L65.327-71.95Zm9.089,7.147a.986.986,0,0,0,0-1.392l-.906-.906a1.857,1.857,0,0,0-.5-1.743l-4.043-4.043.345-.346a.246.246,0,0,0,0-.348.246.246,0,0,0-.347,0l-.346.346-1.006-1.006a1.854,1.854,0,0,0-1.319-.546,1.854,1.854,0,0,0-1.319.546,1.853,1.853,0,0,0-.547,1.319,1.851,1.851,0,0,0,.547,1.319L64.979-71.6l-.293.293a.247.247,0,0,0,0,.348.246.246,0,0,0,.174.072.246.246,0,0,0,.174-.072l.293-.293,4.043,4.043a1.851,1.851,0,0,0,1.317.546,1.862,1.862,0,0,0,.426-.049l.906.906a.978.978,0,0,0,.7.288.977.977,0,0,0,.7-.288" fill="#171a1c"/>
    <path id="path226" d="M73.392-62.911a.491.491,0,0,1-.348.144h0a.493.493,0,0,1-.492-.492,3.257,3.257,0,0,1,.491-1.243,3.259,3.259,0,0,1,.493,1.243.489.489,0,0,1-.144.348Zm-.348-2.14c-.5,0-.984,1.4-.984,1.792a.985.985,0,0,0,.984.984.977.977,0,0,0,.7-.288.979.979,0,0,0,.288-.7,3.413,3.413,0,0,0-.692-1.652.411.411,0,0,0-.293-.141" fill="#171a1c"/>
  </g>
</svg>