<?xml version="1.0" encoding="utf-8"?>
<!-- Generator: Adobe Illustrator 28.4.1, SVG Export Plug-In . SVG Version: 6.00 Build 0)  -->
<svg version="1.0" id="katman_2_00000176739703687174065870000014256090685133876635_"
	 xmlns="http://www.w3.org/2000/svg" xmlns:xlink="http://www.w3.org/1999/xlink" x="0px" y="0px" viewBox="0 0 512 512"
	 style="enable-background:new 0 0 512 512;" xml:space="preserve">
<style type="text/css">
	.st0{fill:#1D1D1B;}
	.st1{fill:#F4D55B;}
	.st2{fill:#F9EAB1;}
	.st3{fill:#F4EFC9;}
	.st4{fill:#C13B29;}
	.st5{fill:#D35624;}
	.st6{fill:#F39E20;}
	.st7{fill:#F7C176;}
	.st8{fill:#7E6699;}
	.st9{fill:#E14E3D;}
	.st10{fill:#822E40;}
	.st11{fill:#EF7B77;}
	.st12{fill:#4CC1EA;}
	.st13{fill:#517B9A;}
	.st14{fill:#748B96;}
	.st15{fill:#004A77;}
	.st16{fill:#45B492;}
	.st17{fill:#01A084;}
	.st18{fill:#54B46F;}
	.st19{fill:#74BE86;}
	.st20{fill:#FFFFFF;}
</style>
<path class="st0" d="M102.6,349.7L228.7,66.4c2.5-5.6,9.1-8.2,14.8-5.7L307.1,89c5.6,2.5,8.2,9.1,5.7,14.8L215,323.5
	c-18.1,40.7-65.9,59.1-106.7,40.9l0,0C102.6,361.9,100.1,355.3,102.6,349.7z"/>
<path class="st0" d="M141.1,374.9c-11.6,0-23.3-2.4-34.2-7.3c-3.6-1.6-6.3-4.5-7.7-8.1c-1.4-3.6-1.3-7.6,0.3-11.2L225.7,65
	c3.3-7.4,11.9-10.7,19.3-7.4l63.6,28.3c3.6,1.6,6.3,4.5,7.7,8.1c1.4,3.6,1.3,7.6-0.3,11.2l-98,219.7c-9.1,20.5-25.7,36.3-46.7,44.3
	C161.5,373,151.3,374.9,141.1,374.9L141.1,374.9z M239,63.1c-0.9,0-1.9,0.2-2.8,0.5c-1.9,0.7-3.5,2.2-4.3,4.1L105.7,351.1
	c-0.8,1.9-0.9,4-0.2,6c0.7,1.9,2.2,3.5,4.1,4.3c18.9,8.4,39.9,9,59.2,1.6s34.6-21.9,43-40.8l97.8-219.7l3.1,1.4l-3.1-1.4
	c0.8-1.9,0.9-4,0.2-6c-0.7-1.9-2.2-3.5-4.1-4.3l-63.6-28.3C241.1,63.4,240.1,63.1,239,63.1L239,63.1z"/>
<path class="st1" d="M215.6,107.8l16.3-36.7c1.9-4.3,6.9-6.2,11.2-4.3l59.7,26.6c4.3,1.9,6.2,6.9,4.3,11.2l-16.3,36.7
	c-1.9,4.3-6.9,6.2-11.2,4.3L219.9,119C215.6,117.1,213.7,112.1,215.6,107.8z"/>
<path class="st2" d="M189.3,166.8l16.3-36.7c1.9-4.3,6.9-6.2,11.2-4.3l59.7,26.6c4.3,1.9,6.2,6.9,4.3,11.2l-16.3,36.7
	c-1.9,4.3-6.9,6.2-11.2,4.3L193.6,178C189.3,176.1,187.4,171.1,189.3,166.8z"/>
<path class="st3" d="M163,225.9l16.3-36.7c1.9-4.3,6.9-6.2,11.2-4.3l59.7,26.6c4.3,1.9,6.2,6.9,4.3,11.2l-16.3,36.7
	c-1.9,4.3-6.9,6.2-11.2,4.3l-59.7-26.6C163,235.2,161.1,230.2,163,225.9z"/>
<path class="st2" d="M136.7,285l16.3-36.7c1.9-4.3,6.9-6.2,11.2-4.3l59.7,26.6c4.3,1.9,6.2,6.9,4.3,11.2l-16.3,36.7
	c-1.9,4.3-6.9,6.2-11.2,4.3L141,296.2C136.7,294.3,134.8,289.3,136.7,285z"/>
<path class="st0" d="M114.7,346.4l194.1-241.9c3.9-4.8,10.9-5.6,15.7-1.7l54.3,43.6c4.8,3.9,5.6,10.9,1.7,15.7L230,349.7
	c-27.9,34.8-78.8,40.4-113.6,12.5l0,0C111.6,358.3,110.8,351.3,114.7,346.4z"/>
<path class="st0" d="M166.8,383.4c-19.1,0-37.4-6.4-52.5-18.5c-3-2.4-4.9-5.9-5.4-9.8c-0.4-3.9,0.7-7.7,3.1-10.7l194.1-241.9
	c2.4-3,5.9-4.9,9.8-5.4c3.9-0.4,7.7,0.7,10.7,3.1l54.3,43.6c3,2.4,4.9,5.9,5.4,9.8c0.4,3.9-0.7,7.7-3.1,10.7L232.6,351.9
	c-14.1,17.5-34.1,28.5-56.5,31C173,383.2,169.9,383.4,166.8,383.4L166.8,383.4z M317.5,103.8c-0.3,0-0.6,0-0.9,0.1
	c-2.1,0.2-3.9,1.2-5.2,2.9L117.3,348.6c-1.3,1.6-1.9,3.7-1.7,5.7s1.2,3.9,2.9,5.2c16.1,12.9,36.3,18.8,56.9,16.6
	c20.6-2.3,39-12.4,51.9-28.5L377.9,160c1.3-1.6,1.9-3.7,1.7-5.7s-1.2-3.9-2.9-5.2l-54.3-43.6C321,104.4,319.3,103.8,317.5,103.8
	L317.5,103.8z"/>
<path class="st4" d="M285.5,141.2l25.1-31.3c2.9-3.7,8.3-4.2,11.9-1.3l51,40.9c3.7,2.9,4.2,8.3,1.3,11.9l-25.1,31.3
	c-2.9,3.7-8.3,4.2-11.9,1.3l-51-40.9C283.2,150.2,282.6,144.9,285.5,141.2z"/>
<path class="st5" d="M245.1,191.7l25.1-31.3c2.9-3.7,8.3-4.2,11.9-1.3l51,40.9c3.7,2.9,4.2,8.3,1.3,11.9l-25.1,31.3
	c-2.9,3.7-8.3,4.2-11.9,1.3l-51-40.9C242.7,200.7,242.1,195.3,245.1,191.7z"/>
<path class="st6" d="M204.6,242.1l25.1-31.3c2.9-3.7,8.3-4.2,11.9-1.3l51,40.9c3.7,2.9,4.2,8.3,1.3,11.9l-25.1,31.3
	c-2.9,3.7-8.3,4.2-11.9,1.3l-51-40.9C202.2,251.1,201.7,245.8,204.6,242.1z"/>
<path class="st7" d="M164.1,292.5l25.1-31.3c2.9-3.7,8.3-4.2,11.9-1.3l51,40.9c3.7,2.9,4.2,8.3,1.3,11.9L228.3,344
	c-2.9,3.7-8.3,4.2-11.9,1.3l-51-40.9C161.8,301.5,161.2,296.2,164.1,292.5z"/>
<g>
	<g>
		<path class="st0" d="M118.8,337L378,166.7c5.2-3.4,12.1-2,15.5,3.2l38.2,58.2c3.4,5.2,2,12.1-3.2,15.5l-201,132.1
			c-37.3,24.5-87.4,14.1-111.9-23.2l0,0C112.2,347.3,113.6,340.4,118.8,337z"/>
		<path class="st0" d="M183.2,392.3c-27.4,0-54.3-13.4-70.5-37.9c-4.4-6.7-2.5-15.8,4.2-20.2l259.2-170.3c6.7-4.4,15.8-2.5,20.2,4.2
			l38.2,58.2c2.1,3.3,2.9,7.1,2.1,11c-0.8,3.8-3,7.1-6.3,9.2l-1.9-2.8l1.9,2.8l-201,132.1C215.1,387.8,199.1,392.3,183.2,392.3
			L183.2,392.3z M384.1,168.2c-1.5,0-3,0.4-4.3,1.3L120.7,339.8c-3.6,2.4-4.6,7.2-2.2,10.8c23.4,35.7,71.5,45.6,107.2,22.2
			l201-132.1c1.7-1.1,2.9-2.9,3.4-4.9c0.4-2,0-4.1-1.1-5.9l-38.2-58.2C389.2,169.5,386.7,168.2,384.1,168.2L384.1,168.2z"/>
	</g>
	<path class="st8" d="M344.6,194.4l33.6-22.1c3.9-2.6,9.2-1.5,11.8,2.4l35.9,54.6c2.6,3.9,1.5,9.2-2.4,11.8l-33.6,22.1
		c-3.9,2.6-9.2,1.5-11.8-2.4l-35.9-54.6C339.5,202.2,340.6,197,344.6,194.4z"/>
	<path class="st9" d="M290.5,229.9l33.6-22.1c3.9-2.6,9.2-1.5,11.8,2.4l35.9,54.6c2.6,3.9,1.5,9.2-2.4,11.8l-33.6,22.1
		c-3.9,2.6-9.2,1.5-11.8-2.4l-35.9-54.6C285.5,237.7,286.6,232.5,290.5,229.9z"/>
	<path class="st10" d="M236.5,265.4l33.6-22.1c3.9-2.6,9.2-1.5,11.8,2.4l35.9,54.6c2.6,3.9,1.5,9.2-2.4,11.8l-33.6,22.1
		c-3.9,2.6-9.2,1.5-11.8-2.4l-36-54.6C231.5,273.3,232.6,268,236.5,265.4z"/>
	<path class="st11" d="M182.5,300.9l33.6-22.1c3.9-2.6,9.2-1.5,11.8,2.4l35.9,54.6c2.6,3.9,1.5,9.2-2.4,11.8l-33.6,22.1
		c-3.9,2.6-9.2,1.5-11.8-2.4l-36-54.6C177.4,308.8,178.5,303.5,182.5,300.9z"/>
</g>
<path class="st0" d="M130.3,342l295.3-94.9c5.9-1.9,12.2,1.4,14.1,7.2l21.3,66.3c1.9,5.9-1.4,12.2-7.2,14.1l-229,73.6
	c-42.5,13.6-88-9.8-101.6-52.2l0,0C121.2,350.2,124.4,343.9,130.3,342z"/>
<path class="st0" d="M199.9,415.6c-13.2,0-26.3-3.1-38.4-9.3c-20-10.3-34.8-27.7-41.7-49.1c-1.2-3.7-0.9-7.7,0.9-11.1
	c1.8-3.5,4.8-6,8.5-7.2L424.5,244c3.7-1.2,7.7-0.9,11.1,0.9c3.5,1.8,6,4.8,7.2,8.5l21.3,66.3c2.5,7.7-1.8,15.9-9.4,18.4l-229,73.6
	C217.3,414.3,208.6,415.6,199.9,415.6L199.9,415.6z M429,250c-0.8,0-1.6,0.1-2.4,0.4l-295.3,94.9c-2,0.6-3.6,2-4.6,3.9s-1.1,4-0.5,6
	c6.3,19.7,19.9,35.7,38.3,45.2c18.4,9.4,39.4,11.2,59,4.8l229-73.6c4.1-1.3,6.4-5.7,5-9.8l-21.3-66.3c-0.6-2-2-3.6-3.9-4.6
	C431.5,250.3,430.2,250,429,250L429,250z"/>
<path class="st12" d="M386,265l38.2-12.3c4.5-1.4,9.2,1,10.7,5.5l20,62.2c1.4,4.5-1,9.2-5.5,10.7l-38.2,12.3
	c-4.5,1.4-9.2-1-10.7-5.5l-20-62.2C379,271.2,381.5,266.4,386,265z"/>
<path class="st13" d="M324.4,284.7l38.2-12.3c4.5-1.4,9.2,1,10.7,5.5l20,62.2c1.4,4.5-1,9.2-5.5,10.7l-38.2,12.3
	c-4.5,1.4-9.2-1-10.7-5.5l-20-62.2C317.5,290.9,319.9,286.2,324.4,284.7z"/>
<path class="st14" d="M262.8,304.5l38.2-12.3c4.5-1.4,9.2,1,10.7,5.5l20,62.2c1.4,4.5-1,9.2-5.5,10.7L288,382.9
	c-4.5,1.4-9.2-1-10.7-5.5l-20-62.2C255.9,310.7,258.4,305.9,262.8,304.5z"/>
<path class="st15" d="M201.3,324.3l38.2-12.3c4.5-1.4,9.2,1,10.7,5.5l20,62.2c1.4,4.5-1,9.2-5.5,10.7l-38.2,12.3
	c-4.5,1.4-9.2-1-10.7-5.5l-20-62.2C194.4,330.5,196.8,325.7,201.3,324.3z"/>
<path class="st0" d="M141.8,337.9h310.1c6.2,0,11.2,5,11.2,11.2v69.6c0,6.2-5,11.2-11.2,11.2H211.4c-44.6,0-80.8-36.2-80.8-80.8l0,0
	C130.6,342.9,135.6,337.9,141.8,337.9z"/>
<path class="st0" d="M451.9,433.2H211.4c-46.4,0-84.2-37.8-84.2-84.2c0-8,6.5-14.6,14.6-14.6h310.1c8,0,14.6,6.5,14.6,14.6v69.6
	C466.5,426.7,459.9,433.2,451.9,433.2L451.9,433.2z M141.8,341.2c-4.3,0-7.8,3.5-7.8,7.8c0,42.7,34.7,77.4,77.4,77.4h240.5
	c4.3,0,7.8-3.5,7.8-7.8V349c0-4.3-3.5-7.8-7.8-7.8H141.8z"/>
<path class="st16" d="M408.8,342.7H449c4.7,0,8.5,3.8,8.5,8.5v65.4c0,4.7-3.8,8.5-8.5,8.5h-40.2c-4.7,0-8.5-3.8-8.5-8.5v-65.4
	C400.3,346.5,404.1,342.7,408.8,342.7z"/>
<path class="st17" d="M344.1,342.7h40.2c4.7,0,8.5,3.8,8.5,8.5v65.4c0,4.7-3.8,8.5-8.5,8.5h-40.2c-4.7,0-8.5-3.8-8.5-8.5v-65.4
	C335.6,346.5,339.4,342.7,344.1,342.7z"/>
<path class="st18" d="M279.4,342.7h40.2c4.7,0,8.5,3.8,8.5,8.5v65.4c0,4.7-3.8,8.5-8.5,8.5h-40.2c-4.7,0-8.5-3.8-8.5-8.5v-65.4
	C270.9,346.5,274.7,342.7,279.4,342.7z"/>
<path class="st19" d="M214.8,342.7H255c4.7,0,8.5,3.8,8.5,8.5v65.4c0,4.7-3.8,8.5-8.5,8.5h-40.2c-4.7,0-8.5-3.8-8.5-8.5v-65.4
	C206.3,346.5,210.1,342.7,214.8,342.7z"/>
<circle class="st0" cx="119.9" cy="381.2" r="74.4"/>
<path class="st20" d="M85.2,368.6h21V344c0-6.9,5.6-12.6,12.6-12.6h2.2c6.9,0,12.6,5.6,12.6,12.6v24.6h21c6.9,0,12.6,5.6,12.6,12.6
	l0,0c0,6.9-5.6,12.6-12.6,12.6h-21v24.6c0,6.9-5.6,12.6-12.6,12.6h-2.2c-6.9,0-12.6-5.6-12.6-12.6v-24.6h-21
	c-6.9,0-12.6-5.6-12.6-12.6l0,0C72.7,374.3,78.3,368.6,85.2,368.6z"/>
</svg>
