<?xml version="1.0" encoding="UTF-8" standalone="no"?>
<svg
   id="katman_2"
   data-name="katman 2"
   viewBox="0 0 496.97 471.35"
   version="1.1"
   sodipodi:docname="color-picker.svg"
   inkscape:version="1.2.2 (b0a8486541, 2022-12-01)"
   xmlns:inkscape="http://www.inkscape.org/namespaces/inkscape"
   xmlns:sodipodi="http://sodipodi.sourceforge.net/DTD/sodipodi-0.dtd"
   xmlns="http://www.w3.org/2000/svg"
   xmlns:svg="http://www.w3.org/2000/svg">
  <sodipodi:namedview
     id="namedview92"
     pagecolor="#ffffff"
     bordercolor="#000000"
     borderopacity="0.25"
     inkscape:showpageshadow="2"
     inkscape:pageopacity="0.0"
     inkscape:pagecheckerboard="0"
     inkscape:deskcolor="#d1d1d1"
     showgrid="false"
     inkscape:zoom="1.8775856"
     inkscape:cx="248.98997"
     inkscape:cy="235.9413"
     inkscape:window-width="1920"
     inkscape:window-height="1057"
     inkscape:window-x="0"
     inkscape:window-y="0"
     inkscape:window-maximized="1"
     inkscape:current-layer="katman_2" />
  <defs
     id="defs4">
    <style
       id="style2">
      .cls-1 {
        fill: #e14e3d;
      }

      .cls-1, .cls-2, .cls-3, .cls-4, .cls-5, .cls-6, .cls-7, .cls-8, .cls-9, .cls-10, .cls-11, .cls-12, .cls-13, .cls-14, .cls-15, .cls-16, .cls-17, .cls-18, .cls-19, .cls-20, .cls-21 {
        stroke-width: 0px;
      }

      .cls-2 {
        fill: #c13b29;
      }

      .cls-3 {
        fill: #ef7b77;
      }

      .cls-4 {
        fill: #54b46f;
      }

      .cls-5 {
        fill: #517b9a;
      }

      .cls-6 {
        fill: #d35624;
      }

      .cls-7 {
        fill: #f9eab1;
      }

      .cls-8 {
        fill: #1d1d1b;
      }

      .cls-9 {
        fill: #45b492;
      }

      .cls-10 {
        fill: #f4efc9;
      }

      .cls-11 {
        fill: #f7c176;
      }

      .cls-12 {
        fill: #01a084;
      }

      .cls-13 {
        fill: #4cc1ea;
      }

      .cls-14 {
        fill: #74be86;
      }

      .cls-15 {
        fill: #f39e20;
      }

      .cls-16 {
        fill: #004a77;
      }

      .cls-17 {
        fill: #822e40;
      }

      .cls-18 {
        fill: #748b96;
      }

      .cls-19 {
        fill: #fff;
      }

      .cls-20 {
        fill: #7e6699;
      }

      .cls-21 {
        fill: #f4d55b;
      }
    </style>
  </defs>
  <g
     id="katman_1"
     data-name="katman 1">
    <g
       id="g88">
      <g
         id="g20">
        <g
           id="g10">
          <path
             class="cls-8"
             d="M 8.43,146.84 H 374.5 c 7.3,0 13.22,5.93 13.22,13.22 v 82.15 c 0,7.3 -5.93,13.22 -13.22,13.22 H 90.58 c -52.64,0 -95.37,-42.73 -95.37,-95.37 v 0 c 0,-7.3 5.93,-13.22 13.22,-13.22 z"
             transform="rotate(-66,191.45723,201.13346)"
             id="path6" />
          <path
             class="cls-8"
             d="m 112.87,376.02 c -13.74,0 -27.45,-2.89 -40.38,-8.65 -4.2,-1.87 -7.43,-5.27 -9.07,-9.56 -1.65,-4.29 -1.53,-8.97 0.34,-13.18 L 212.66,10.22 c 3.86,-8.68 14.06,-12.59 22.74,-8.73 l 75.04,33.41 c 4.2,1.87 7.43,5.27 9.07,9.56 1.65,4.29 1.53,8.98 -0.35,13.18 L 203.67,317.01 c -10.8,24.25 -30.39,42.84 -55.17,52.35 -11.57,4.44 -23.62,6.65 -35.65,6.65 z M 228.4,7.99 c -1.12,0 -2.23,0.21 -3.31,0.62 -2.3,0.88 -4.12,2.61 -5.12,4.86 L 71.06,347.89 c -1,2.25 -1.07,4.76 -0.18,7.06 0.88,2.3 2.61,4.12 4.86,5.12 22.3,9.93 47.12,10.58 69.91,1.83 22.79,-8.75 40.8,-25.84 50.73,-48.14 l 115.48,-259.37 3.65,1.63 -3.65,-1.63 c 1,-2.25 1.07,-4.76 0.19,-7.06 -0.88,-2.3 -2.61,-4.12 -4.86,-5.12 L 232.15,8.8 C 230.95,8.27 229.68,8 228.4,8 Z"
             id="path8" />
        </g>
        <rect
           class="cls-21"
           x="221.11"
           y="10.22"
           width="67.449997"
           height="97.199997"
           rx="10.02"
           ry="10.02"
           transform="rotate(-66,254.82823,58.81508)"
           id="rect12" />
        <rect
           class="cls-7"
           x="190.07001"
           y="79.940002"
           width="67.449997"
           height="97.199997"
           rx="10.02"
           ry="10.02"
           transform="rotate(-66,223.78505,128.54694)"
           id="rect14" />
        <rect
           class="cls-10"
           x="159.02"
           y="149.67"
           width="67.449997"
           height="97.199997"
           rx="10.02"
           ry="10.02"
           transform="rotate(-66,192.73917,198.26609)"
           id="rect16" />
        <rect
           class="cls-7"
           x="127.97"
           y="219.39"
           width="67.449997"
           height="97.199997"
           rx="10.02"
           ry="10.02"
           transform="rotate(-66,161.69329,267.98525)"
           id="rect18" />
      </g>
      <g
         id="g36">
        <g
           id="g26">
          <path
             class="cls-8"
             d="m 55.54,179.38 h 366.07 c 7.3,0 13.22,5.93 13.22,13.22 v 82.15 c 0,7.3 -5.93,13.22 -13.22,13.22 H 137.69 c -52.64,0 -95.37,-42.73 -95.37,-95.37 v 0 c 0,-7.3 5.93,-13.22 13.22,-13.22 z"
             transform="rotate(-51.26,238.55159,233.6673)"
             id="path22" />
          <path
             class="cls-8"
             d="m 143.21,386.04 c -22.51,0 -44.19,-7.59 -62,-21.88 -3.59,-2.88 -5.84,-6.98 -6.34,-11.56 -0.5,-4.57 0.81,-9.07 3.69,-12.66 l 229.1,-285.5 c 2.88,-3.59 6.98,-5.84 11.56,-6.34 4.58,-0.5 9.07,0.81 12.66,3.69 l 64.07,51.41 c 3.59,2.88 5.84,6.98 6.34,11.56 0.5,4.57 -0.81,9.07 -3.69,12.66 L 220.91,348.86 c -16.61,20.7 -40.29,33.7 -66.68,36.59 -3.68,0.4 -7.37,0.6 -11.02,0.6 z M 321.11,55.99 c -0.34,0 -0.68,0.02 -1.02,0.06 -2.45,0.27 -4.65,1.47 -6.19,3.4 L 84.8,344.96 c -1.54,1.92 -2.24,4.33 -1.97,6.78 0.27,2.45 1.47,4.65 3.4,6.19 19.04,15.28 42.88,22.23 67.14,19.56 24.26,-2.66 46.03,-14.61 61.31,-33.64 L 392.37,122.41 c 1.54,-1.92 2.24,-4.33 1.98,-6.78 -0.26,-2.45 -1.47,-4.65 -3.4,-6.19 L 326.88,58.03 C 325.23,56.7 323.21,56 321.12,56 Z"
             id="path24" />
        </g>
        <rect
           class="cls-2"
           x="302.35999"
           y="63.57"
           width="67.449997"
           height="97.199997"
           rx="10.02"
           ry="10.02"
           transform="rotate(-51.26,336.04645,112.1712)"
           id="rect28" />
        <rect
           class="cls-6"
           x="254.59"
           y="123.1"
           width="67.449997"
           height="97.199997"
           rx="10.02"
           ry="10.02"
           transform="rotate(-51.26,288.28459,171.69336)"
           id="rect30" />
        <rect
           class="cls-15"
           x="206.82001"
           y="182.63"
           width="67.449997"
           height="97.199997"
           rx="10.02"
           ry="10.02"
           transform="rotate(-51.26,240.52274,231.21552)"
           id="rect32" />
        <rect
           class="cls-11"
           x="159.06"
           y="242.14999"
           width="67.449997"
           height="97.199997"
           rx="10.02"
           ry="10.02"
           transform="rotate(-51.26,192.75047,290.73268)"
           id="rect34" />
      </g>
      <g
         id="g52">
        <g
           id="g42">
          <path
             class="cls-8"
             d="m 86.28,221.81 h 366.07 c 7.3,0 13.22,5.93 13.22,13.22 v 82.15 c 0,7.3 -5.93,13.22 -13.22,13.22 H 168.43 c -52.64,0 -95.37,-42.73 -95.37,-95.37 v 0 c 0,-7.3 5.93,-13.22 13.22,-13.22 z"
             transform="rotate(-33.31,269.32776,276.1218)"
             id="path38" />
          <path
             class="cls-8"
             d="m 162.6,396.53 c -32.37,0 -64.13,-15.76 -83.2,-44.77 -5.21,-7.94 -3,-18.64 4.93,-23.85 L 390.27,126.87 c 7.94,-5.21 18.64,-3 23.85,4.94 l 45.11,68.65 c 2.53,3.84 3.4,8.44 2.47,12.95 -0.93,4.51 -3.56,8.38 -7.41,10.9 l -2.2,-3.34 2.2,3.34 -237.28,155.92 c -16.78,11.03 -35.7,16.3 -54.42,16.3 z M 399.71,132.05 c -1.74,0 -3.49,0.49 -5.05,1.51 L 88.73,334.59 c -4.25,2.79 -5.44,8.52 -2.64,12.78 27.67,42.1 84.44,53.85 126.54,26.18 L 449.91,217.63 c 2.06,-1.35 3.47,-3.43 3.97,-5.84 0.5,-2.41 0.03,-4.88 -1.32,-6.93 l -45.11,-68.65 c -1.77,-2.69 -4.72,-4.16 -7.72,-4.16 z"
             id="path40" />
        </g>
        <rect
           class="cls-20"
           x="365.79001"
           y="141.95"
           width="67.449997"
           height="97.199997"
           rx="10.02"
           ry="10.02"
           transform="rotate(-33.31,399.52038,190.55455)"
           id="rect44" />
        <rect
           class="cls-1"
           x="302.01001"
           y="183.87"
           width="67.449997"
           height="97.199997"
           rx="10.02"
           ry="10.02"
           transform="rotate(-33.31,335.73846,232.47494)"
           id="rect46" />
        <rect
           class="cls-17"
           x="238.22"
           y="225.78"
           width="67.449997"
           height="97.199997"
           rx="10.02"
           ry="10.02"
           transform="rotate(-33.31,271.95653,274.39533)"
           id="rect48" />
        <rect
           class="cls-3"
           x="174.44"
           y="267.70001"
           width="67.449997"
           height="97.199997"
           rx="10.02"
           ry="10.02"
           transform="rotate(-33.31,208.16289,316.29401)"
           id="rect50" />
      </g>
      <g
         id="g68">
        <g
           id="g58">
          <path
             class="cls-8"
             d="m 107.98,278.61 h 366.07 c 7.3,0 13.22,5.93 13.22,13.22 v 82.15 c 0,7.3 -5.93,13.22 -13.22,13.22 H 190.13 c -52.64,0 -95.37,-42.73 -95.37,-95.37 v 0 c 0,-7.3 5.93,-13.22 13.22,-13.22 z"
             transform="rotate(-17.81,291.03095,332.91986)"
             id="path54" />
          <path
             class="cls-8"
             d="m 182.29,424.08 c -15.58,0 -31.04,-3.71 -45.3,-11.03 -23.61,-12.13 -41.08,-32.72 -49.2,-58 -1.41,-4.38 -1.02,-9.05 1.08,-13.14 2.1,-4.09 5.67,-7.12 10.05,-8.53 L 447.45,221.41 c 4.38,-1.41 9.05,-1.02 13.14,1.08 4.09,2.1 7.12,5.67 8.53,10.05 l 25.13,78.21 c 2.9,9.04 -2.09,18.76 -11.13,21.67 L 212.8,419.27 c -10.01,3.22 -20.28,4.81 -30.5,4.81 z m 270.43,-195.5 c -0.95,0 -1.9,0.15 -2.83,0.45 L 101.36,341.01 c -2.35,0.75 -4.26,2.38 -5.38,4.57 -1.12,2.19 -1.33,4.69 -0.58,7.04 7.46,23.24 23.53,42.17 45.24,53.33 21.71,11.15 46.46,13.18 69.7,5.72 l 270.32,-86.85 c 4.84,-1.56 7.52,-6.76 5.96,-11.6 l -25.13,-78.21 c -0.75,-2.35 -2.38,-4.26 -4.57,-5.38 -1.32,-0.68 -2.76,-1.02 -4.21,-1.02 z"
             id="path56" />
        </g>
        <rect
           class="cls-13"
           x="405.62"
           y="236.64999"
           width="67.449997"
           height="97.199997"
           rx="10.02"
           ry="10.02"
           transform="rotate(-17.81,439.37594,285.28157)"
           id="rect60" />
        <rect
           class="cls-5"
           x="332.95001"
           y="260"
           width="67.449997"
           height="97.199997"
           rx="10.02"
           ry="10.02"
           transform="rotate(-17.81,366.70158,308.61617)"
           id="rect62" />
        <rect
           class="cls-18"
           x="260.28"
           y="283.34"
           width="67.449997"
           height="97.199997"
           rx="10.02"
           ry="10.02"
           transform="rotate(-17.81,294.02722,331.95077)"
           id="rect64" />
        <rect
           class="cls-16"
           x="187.62"
           y="306.69"
           width="67.449997"
           height="97.199997"
           rx="10.02"
           ry="10.02"
           transform="rotate(-17.81,221.34786,355.31728)"
           id="rect66" />
      </g>
      <g
         id="g74">
        <path
           class="cls-8"
           d="m 113.67,332.3 h 366.07 c 7.3,0 13.22,5.93 13.22,13.22 v 82.15 c 0,7.3 -5.93,13.22 -13.22,13.22 H 195.82 c -52.64,0 -95.37,-42.73 -95.37,-95.37 v 0 c 0,-7.3 5.93,-13.22 13.22,-13.22 z"
           id="path70" />
        <path
           class="cls-8"
           d="M 479.74,444.89 H 195.82 c -54.79,0 -99.37,-44.58 -99.37,-99.37 0,-9.5 7.73,-17.22 17.22,-17.22 h 366.07 c 9.5,0 17.22,7.73 17.22,17.22 v 82.15 c 0,9.5 -7.73,17.22 -17.22,17.22 z M 113.67,336.3 c -5.09,0 -9.22,4.14 -9.22,9.22 0,50.38 40.99,91.37 91.37,91.37 h 283.92 c 5.09,0 9.22,-4.14 9.22,-9.22 v -82.15 c 0,-5.09 -4.14,-9.22 -9.22,-9.22 H 113.67 Z"
           id="path72" />
      </g>
      <rect
         class="cls-9"
         x="418.78"
         y="337.98999"
         width="67.449997"
         height="97.199997"
         rx="10.02"
         ry="10.02"
         id="rect76" />
      <rect
         class="cls-12"
         x="342.45001"
         y="337.98999"
         width="67.449997"
         height="97.199997"
         rx="10.02"
         ry="10.02"
         id="rect78" />
      <rect
         class="cls-4"
         x="266.13"
         y="337.98999"
         width="67.449997"
         height="97.199997"
         rx="10.02"
         ry="10.02"
         id="rect80" />
      <rect
         class="cls-14"
         x="189.8"
         y="337.98999"
         width="67.449997"
         height="97.199997"
         rx="10.02"
         ry="10.02"
         id="rect82" />
      <circle
         class="cls-8"
         cx="87.860001"
         cy="383.48999"
         r="87.860001"
         id="circle84" />
      <path
         class="cls-19"
         d="m 46.91,368.65 h 24.81 v -29.08 c 0,-8.19 6.64,-14.84 14.84,-14.84 h 2.61 c 8.19,0 14.84,6.64 14.84,14.84 v 29.08 h 24.81 c 8.19,0 14.84,6.64 14.84,14.84 v 0 c 0,8.19 -6.64,14.84 -14.84,14.84 h -24.81 v 29.08 c 0,8.19 -6.64,14.84 -14.84,14.84 h -2.61 c -8.19,0 -14.84,-6.64 -14.84,-14.84 V 398.33 H 46.91 c -8.19,0 -14.84,-6.64 -14.84,-14.84 v 0 c 0,-8.19 6.64,-14.84 14.84,-14.84 z"
         id="path86" />
    </g>
  </g>
</svg>
