<?xml version="1.0" encoding="UTF-8" standalone="no"?>
<svg
   id="katman_2"
   data-name="katman 2"
   viewBox="0 0 434.99 421.82"
   version="1.1"
   sodipodi:docname="dummy.svg"
   inkscape:version="1.2.2 (b0a8486541, 2022-12-01)"
   xmlns:inkscape="http://www.inkscape.org/namespaces/inkscape"
   xmlns:sodipodi="http://sodipodi.sourceforge.net/DTD/sodipodi-0.dtd"
   xmlns="http://www.w3.org/2000/svg"
   xmlns:svg="http://www.w3.org/2000/svg">
  <sodipodi:namedview
     id="namedview28"
     pagecolor="#ffffff"
     bordercolor="#000000"
     borderopacity="0.25"
     inkscape:showpageshadow="2"
     inkscape:pageopacity="0.0"
     inkscape:pagecheckerboard="0"
     inkscape:deskcolor="#d1d1d1"
     showgrid="false"
     inkscape:zoom="1.0490257"
     inkscape:cx="102.47604"
     inkscape:cy="202.56892"
     inkscape:window-width="1276"
     inkscape:window-height="1390"
     inkscape:window-x="0"
     inkscape:window-y="0"
     inkscape:window-maximized="1"
     inkscape:current-layer="katman_2" />
  <defs
     id="defs4">
    <style
       id="style2">
      .cls-1 {
        fill: #d3af94;
      }

      .cls-1, .cls-2, .cls-3, .cls-4, .cls-5, .cls-6, .cls-7, .cls-8, .cls-9 {
        stroke-width: 0px;
      }

      .cls-2 {
        fill: #f7a833;
      }

      .cls-3 {
        fill: #ee9828;
      }

      .cls-4 {
        fill: #1a2e34;
      }

      .cls-5 {
        fill: #e88916;
      }

      .cls-6 {
        fill: #c8a184;
      }

      .cls-7 {
        fill: #e0bea2;
      }

      .cls-8 {
        fill: #f2908b;
      }

      .cls-9 {
        fill: #2a4551;
      }
    </style>
  </defs>
  <g
     id="g2676"
     style="fill:none">
    <path
       d="m 315.90315,365.79445 -84.71549,-84.71551 -25.87089,25.8709 c -26.48394,26.48394 -39.72678,39.72592 -53.95974,36.60041 C 137.12406,340.4226 130.65,322.85053 117.70164,287.70424 L 74.516816,170.49042 C 48.686147,100.37766 35.770925,65.321709 53.83881,47.253816 71.906706,29.185926 106.96266,42.101152 177.0754,67.932029 l 117.21383,43.184611 c 35.14629,12.94836 52.71836,19.42243 55.84601,33.65539 3.12551,14.23297 -10.11647,27.47581 -36.60041,53.95975 l -25.87089,25.87089 84.7155,84.71549 c 8.77205,8.76991 13.15808,13.15593 15.18439,18.04961 2.70174,6.52419 2.70174,13.85288 0,20.37707 -2.02631,4.89153 -6.41234,9.27756 -15.18439,18.04961 -8.77205,8.77204 -13.15808,13.15808 -18.04961,15.18438 -6.52419,2.70175 -13.85288,2.70175 -20.37707,0 -4.89368,-2.0263 -9.2797,-6.41234 -18.04961,-15.18438 z"
       stroke="#1c274c"
       stroke-width="32.266"
       stroke-linecap="round"
       stroke-linejoin="round"
       id="path2"
       style="fill:none;stroke:#000000;stroke-opacity:1" />
    <path
       d="m 315.90315,365.79445 -84.71549,-84.71551 -25.87089,25.8709 c -26.48394,26.48394 -39.72678,39.72592 -53.95974,36.60041 C 137.12406,340.4226 130.65,322.85053 117.70164,287.70424 L 74.516816,170.49042 C 48.686147,100.37766 35.770925,65.321709 53.83881,47.253816 71.906706,29.185926 106.96266,42.101152 177.0754,67.932029 l 117.21383,43.184611 c 35.14629,12.94836 52.71836,19.42243 55.84601,33.65539 3.12551,14.23297 -10.11647,27.47581 -36.60041,53.95975 l -25.87089,25.87089 84.7155,84.71549 c 8.77205,8.76991 13.15808,13.15593 15.18439,18.04961 2.70174,6.52419 2.70174,13.85288 0,20.37707 -2.02631,4.89153 -6.41234,9.27756 -15.18439,18.04961 -8.77205,8.77204 -13.15808,13.15808 -18.04961,15.18438 -6.52419,2.70175 -13.85288,2.70175 -20.37707,0 -4.89368,-2.0263 -9.2797,-6.41234 -18.04961,-15.18438 z"
       stroke="#1c274c"
       stroke-width="32.266"
       stroke-linecap="round"
       stroke-linejoin="round"
       id="path1940"
       style="fill:none;stroke:#ffffff;stroke-width:22.766;stroke-dasharray:none;stroke-opacity:1" />
  </g>
</svg>
