<?xml version="1.0" encoding="UTF-8" standalone="no"?>
<!-- Generator: Adobe Illustrator 19.0.0, SVG Export Plug-In . SVG Version: 6.00 Build 0)  -->

<svg
   xmlns:dc="http://purl.org/dc/elements/1.1/"
   xmlns:cc="http://creativecommons.org/ns#"
   xmlns:rdf="http://www.w3.org/1999/02/22-rdf-syntax-ns#"
   xmlns:svg="http://www.w3.org/2000/svg"
   xmlns="http://www.w3.org/2000/svg"
   xmlns:sodipodi="http://sodipodi.sourceforge.net/DTD/sodipodi-0.dtd"
   xmlns:inkscape="http://www.inkscape.org/namespaces/inkscape"
   version="1.1"
   id="Layer_1"
   x="0px"
   y="0px"
   viewBox="0 0 100 100"
   xml:space="preserve"
   sodipodi:docname="eraser.svg"
   width="100"
   height="100"
   inkscape:version="0.92.1 r15371"><metadata
     id="metadata43"><rdf:RDF><cc:Work
         rdf:about=""><dc:format>image/svg+xml</dc:format><dc:type
           rdf:resource="http://purl.org/dc/dcmitype/StillImage" /><dc:title /></cc:Work></rdf:RDF></metadata><defs
     id="defs41" /><sodipodi:namedview
     pagecolor="#ffffff"
     bordercolor="#666666"
     borderopacity="1"
     objecttolerance="10"
     gridtolerance="10"
     guidetolerance="10"
     inkscape:pageopacity="0"
     inkscape:pageshadow="2"
     inkscape:window-width="1920"
     inkscape:window-height="1172"
     id="namedview39"
     showgrid="false"
     inkscape:zoom="2.6074513"
     inkscape:cx="-28.620138"
     inkscape:cy="27.787413"
     inkscape:window-x="0"
     inkscape:window-y="0"
     inkscape:window-maximized="1"
     inkscape:current-layer="Layer_1" /><rect
     style="fill:#f2f2f2;fill-opacity:0.39215686;fill-rule:evenodd;stroke:none;stroke-width:0.1953125"
     id="rect3813"
     width="100"
     height="100"
     x="0"
     y="0"
     ry="6"
     rx="6" /><g
     id="g4512"
     transform="matrix(0.97826088,0,0,0.97826088,2.1284106,1.0869564)"><g
       style="opacity:0.2;fill-opacity:1"
       transform="matrix(0.97872155,0,0,0.97872529,104.53145,17.667524)"
       id="g4538"><path
         inkscape:connector-curvature="0"
         style="fill-opacity:1;stroke-width:0.17968714"
         d="m -88.915394,31.705466 -11.930136,11.93016 c -2.55317,2.553177 -2.55317,6.692634 0,9.245811 l 25.238831,25.238881 c 2.553172,2.553177 6.692621,2.553177 9.245793,0 l 11.930137,-11.93016 z"
         id="path2-6" /><path
         inkscape:connector-curvature="0"
         style="fill-opacity:1;stroke-width:0.17968714"
         d="m -88.915394,31.705466 c -2.553172,2.553177 -2.553172,6.692634 0,9.245811 l 25.238832,25.238881 c 2.553172,2.553177 6.692621,2.553177 9.245793,0 L -33.55312,45.312468 -47.712274,24.986957 -68.037745,10.827776 Z"
         id="path4-7" /><path
         inkscape:connector-curvature="0"
         style="fill-opacity:1;stroke-width:0.17968714"
         d="m -12.675291,15.188967 -25.238832,-25.238881 c -2.553172,-2.553177 -6.692621,-2.553177 -9.245793,0 l -20.877649,20.877511 34.484625,34.484692 20.877649,-20.877691 c 2.553172,-2.552997 2.553172,-6.692633 0,-9.245631 z"
         id="path6-5" /></g><g
       transform="matrix(0.97872155,0,0,0.97872529,0.08511375,0.08509657)"
       id="g4506"><path
         inkscape:connector-curvature="0"
         style="fill:#3b8bc0;stroke-width:0.17968714"
         d="M 17.845016,47.670265 5.9148792,59.600425 c -2.5531722,2.553177 -2.5531722,6.692634 0,9.245811 L 31.153711,94.085117 c 2.553172,2.553177 6.692621,2.553177 9.245793,0 l 11.930137,-11.93016 z"
         id="path2" /><path
         inkscape:connector-curvature="0"
         style="fill:#4eb9ff;stroke-width:0.17968714"
         d="m 17.845016,47.670265 c -2.553172,2.553177 -2.553172,6.692634 0,9.245811 l 25.238832,25.238881 c 2.553172,2.553177 6.692621,2.553177 9.245793,0 L 73.20729,61.277267 59.048136,40.951756 38.722665,26.792575 Z"
         id="path4" /><path
         inkscape:connector-curvature="0"
         style="fill:#ff4181;stroke-width:0.17968714"
         d="M 94.085119,31.153766 68.846287,5.9148852 c -2.553172,-2.5531772 -6.692621,-2.5531772 -9.245793,0 L 38.722845,26.792396 73.20747,61.277088 94.085119,40.399397 c 2.553172,-2.552997 2.553172,-6.692633 0,-9.245631 z"
         id="path6" /></g></g><g
     id="g8"
     transform="translate(0,-412.00098)" /><g
     id="g10"
     transform="translate(0,-412.00098)" /><g
     id="g12"
     transform="translate(0,-412.00098)" /><g
     id="g14"
     transform="translate(0,-412.00098)" /><g
     id="g16"
     transform="translate(0,-412.00098)" /><g
     id="g18"
     transform="translate(0,-412.00098)" /><g
     id="g20"
     transform="translate(0,-412.00098)" /><g
     id="g22"
     transform="translate(0,-412.00098)" /><g
     id="g24"
     transform="translate(0,-412.00098)" /><g
     id="g26"
     transform="translate(0,-412.00098)" /><g
     id="g28"
     transform="translate(0,-412.00098)" /><g
     id="g30"
     transform="translate(0,-412.00098)" /><g
     id="g32"
     transform="translate(0,-412.00098)" /><g
     id="g34"
     transform="translate(0,-412.00098)" /><g
     id="g36"
     transform="translate(0,-412.00098)" /></svg>