<?xml version="1.0" encoding="UTF-8"?><svg id="katman_2" xmlns="http://www.w3.org/2000/svg" viewBox="0 0 463.57 376.26"><defs><style>.cls-1{fill:#3a4654;stroke:#3a4654;stroke-miterlimit:10;stroke-width:2.5px;}.cls-2{fill:#161a1e;opacity:.1;}.cls-3{fill:#f2908b;}.cls-4{fill:#fff;}.cls-5{fill:#1d71b8;}</style></defs><g id="katman_1"><g><path class="cls-3" d="M132.01,370.83l-74.05-74.05c-14.39-14.4-14.39-37.96,0-52.35L291.61,10.8c14.39-14.39,37.95-14.39,52.35,0l108.81,108.8c14.4,14.39,14.4,37.96,0,52.35l-198.92,198.89h-121.83Z"/><path class="cls-5" d="M452.77,119.6L343.96,10.8c-14.4-14.39-37.96-14.39-52.35,0l-111.62,111.61,161.37,160.92,111.41-111.39c14.39-14.39,14.39-37.96,0-52.35Z"/><path class="cls-1" d="M29.82,358.91c0,3.19-2.57,5.77-5.76,5.77s-5.77-2.57-5.77-5.77,2.59-5.77,5.77-5.77,5.76,2.57,5.76,5.77Z"/><path class="cls-1" d="M12.78,312.25c0,3.19-2.57,5.77-5.76,5.77s-5.77-2.57-5.77-5.77,2.59-5.77,5.77-5.77,5.76,2.57,5.76,5.77Z"/><path class="cls-1" d="M93.08,369.25c0,3.19-2.57,5.77-5.76,5.77s-5.77-2.57-5.77-5.77,2.59-5.77,5.77-5.77,5.76,2.57,5.76,5.77Z"/><rect class="cls-4" x="248.68" y="88.92" width="24" height="227.9" transform="translate(-67.04 244.21) rotate(-45.08)"/><path class="cls-2" d="M452.77,119.6l-55.97-55.97L113.41,352.97l17.86,17.86h121.83l87.89-87.87,.37,.37,111.41-111.39c14.39-14.39,14.39-37.96,0-52.35Z"/></g></g></svg>