<?xml version="1.0" encoding="utf-8"?>
<!-- Generator: Adobe Illustrator 28.4.1, SVG Export Plug-In . SVG Version: 6.00 Build 0)  -->
<svg version="1.0" id="katman_2_00000042715472195631069510000003285354857907377558_"
	 xmlns="http://www.w3.org/2000/svg" xmlns:xlink="http://www.w3.org/1999/xlink" x="0px" y="0px" viewBox="0 0 512 512"
	 style="enable-background:new 0 0 512 512;" xml:space="preserve">
<style type="text/css">
	.st0{fill:#F2908B;}
	.st1{fill:#1D71B8;}
	.st2{fill:#3A4654;stroke:#3A4654;stroke-width:2.5;stroke-miterlimit:10;}
	.st3{fill:#FFFFFF;}
	.st4{opacity:0.1;fill:#161A1E;enable-background:new    ;}
</style>
<path class="st0" d="M164.8,422.5l-67.3-67.3c-13.1-13.1-13.1-34.5,0-47.6L309.8,95.5c13.1-13.1,34.5-13.1,47.6,0l98.8,98.8
	c13.1,13.1,13.1,34.5,0,47.6L275.5,422.5H164.8L164.8,422.5z"/>
<path class="st1" d="M456.2,194.3l-98.8-98.8c-13.1-13.1-34.5-13.1-47.6,0L208.4,196.9L355,343l101.2-101.2
	C469.3,228.8,469.3,207.4,456.2,194.3L456.2,194.3z"/>
<path class="st2" d="M72,411.7c0,2.9-2.3,5.2-5.2,5.2c-2.9,0-5.2-2.3-5.2-5.2c0-2.9,2.4-5.2,5.2-5.2C69.6,406.5,72,408.8,72,411.7z"
	/>
<path class="st2" d="M56.5,369.3c0,2.9-2.3,5.2-5.2,5.2s-5.2-2.3-5.2-5.2c0-2.9,2.4-5.2,5.2-5.2S56.5,366.4,56.5,369.3z"/>
<path class="st2" d="M129.4,421.1c0,2.9-2.3,5.2-5.2,5.2s-5.2-2.3-5.2-5.2c0-2.9,2.4-5.2,5.2-5.2S129.4,418.2,129.4,421.1z"/>
<rect x="270.8" y="166.4" transform="matrix(0.7061 -0.7081 0.7081 0.7061 -108.3401 278.7615)" class="st3" width="21.8" height="207"/>
<path class="st4" d="M456.2,194.3l-50.8-50.8L147.9,406.3l16.2,16.2h110.7l79.8-79.8l0.3,0.3l101.2-101.2
	C469.3,228.8,469.3,207.4,456.2,194.3L456.2,194.3z"/>
</svg>
