<?xml version="1.0" encoding="UTF-8"?><svg id="katman_2" xmlns="http://www.w3.org/2000/svg" viewBox="0 0 479.13 285.35"><defs><style>.cls-1{fill:#7ca1b1;}.cls-2{fill:#1e71b8;}</style></defs><g id="katman_1"><g><path class="cls-1" d="M13.55,76.08l57.78,43.18c18.93-37.14,46.42-66.62,81.31-86.74C206.06,1.72,274.79-5.48,336.52,13.26c80.09,24.31,121.85,90.98,123.59,93.8l14.88,24.19-48.32,29.87-15.09-24.06c-.32-.51-32.75-51.33-91.63-69.21-36.22-10.99-91.71-13.07-138.8,14.09-23.48,13.54-42.12,32.63-55.77,57l68.77,5.95c5.91,.51,8.19,7.95,3.6,11.69L45.05,280.86c-3.94,3.21-9.87,.95-10.68-4.07L3.09,82.41c-.94-5.85,5.71-9.88,10.46-6.33Z"/><path class="cls-2" d="M40.92,285.35c-1.15,0-2.32-.21-3.45-.64-3.24-1.24-5.51-4.02-6.06-7.44L.13,82.89c-.63-3.94,1.09-7.67,4.51-9.74,3.41-2.07,7.52-1.87,10.71,.52l54.95,41.06c19.27-36.46,46.46-64.99,80.85-84.82C205.26-1.28,274.89-8.59,337.4,10.39c81.09,24.61,123.51,92.23,125.27,95.1l16.46,26.75-53.41,33.01-16.68-26.59c-.32-.5-32.31-50.43-89.96-67.93-35.62-10.81-90.17-12.86-136.43,13.81-21.59,12.45-39.16,29.87-52.3,51.82l64.06,5.54c3.98,.34,7.17,2.93,8.35,6.74,1.17,3.81-.02,7.75-3.12,10.26L46.94,283.19c-1.75,1.43-3.87,2.17-6.03,2.17ZM9.65,77.75c-.91,0-1.62,.37-1.91,.54-.49,.29-2.05,1.43-1.69,3.65l31.28,194.38c.3,1.85,1.69,2.57,2.27,2.79,.58,.22,2.1,.61,3.55-.57l152.7-124.28c1.75-1.42,1.33-3.3,1.17-3.85-.17-.54-.89-2.33-3.13-2.53l-73.4-6.35,2.27-4.05c13.9-24.82,33.04-44.38,56.88-58.13,47.93-27.63,104.35-25.54,141.17-14.36,60.15,18.26,92.98,69.97,93.31,70.49l13.51,21.53,43.24-26.73-13.32-21.64c-1.72-2.79-42.97-68.54-121.91-92.5C274.7-2.37,206.85,4.73,154.14,35.12c-34.35,19.81-61.31,48.58-80.14,85.5l-1.62,3.17L11.76,78.48c-.74-.56-1.47-.74-2.11-.74Z"/></g></g></svg>