<?xml version="1.0" encoding="utf-8"?>
<!-- Generator: Adobe Illustrator 28.4.1, SVG Export Plug-In . SVG Version: 6.00 Build 0)  -->
<svg version="1.0" id="katman_2_00000062160673057393631680000016672637098088076699_"
	 xmlns="http://www.w3.org/2000/svg" xmlns:xlink="http://www.w3.org/1999/xlink" x="0px" y="0px" viewBox="0 0 512 512"
	 style="enable-background:new 0 0 512 512;" xml:space="preserve">
<style type="text/css">
	.st0{fill:#E3E3E4;}
	.st1{fill:#1E71B8;}
</style>
<path class="st0" d="M57.4,197.5l50.8,37.9c16.6-32.6,40.8-58.5,71.4-76.2c46.9-27.1,107.3-33.4,161.6-16.9
	c70.4,21.4,107.1,79.9,108.6,82.4l13.1,21.3l-42.5,26.2l-13.3-21.1c-0.3-0.4-28.8-45.1-80.5-60.8c-31.8-9.7-80.6-11.5-122,12.4
	c-20.6,11.9-37,28.7-49,50.1l60.4,5.2c5.2,0.4,7.2,7,3.2,10.3L85.1,377.4c-3.5,2.8-8.7,0.8-9.4-3.6L48.2,203
	C47.4,197.9,53.2,194.4,57.4,197.5z"/>
<path class="st1" d="M81.5,381.4c-1,0-2-0.2-3-0.6c-2.8-1.1-4.8-3.5-5.3-6.5L45.6,203.5c-0.6-3.5,1-6.7,4-8.6c3-1.8,6.6-1.6,9.4,0.5
	l48.3,36.1c16.9-32,40.8-57.1,71-74.5c47.5-27.4,108.7-33.8,163.7-17.2c71.3,21.6,108.5,81,110.1,83.6l14.5,23.5l-46.9,29
	l-14.7-23.4c-0.3-0.4-28.4-44.3-79-59.7c-31.3-9.5-79.2-11.3-119.9,12.1c-19,10.9-34.4,26.2-46,45.5l56.3,4.9
	c3.5,0.3,6.3,2.6,7.3,5.9c1,3.3,0,6.8-2.7,9L86.7,379.5C85.2,380.7,83.3,381.4,81.5,381.4L81.5,381.4z M54,199
	c-0.8,0-1.4,0.3-1.7,0.5c-0.4,0.3-1.8,1.3-1.5,3.2l27.5,170.8c0.3,1.6,1.5,2.3,2,2.5c0.5,0.2,1.8,0.5,3.1-0.5l134.2-109.2
	c1.5-1.2,1.2-2.9,1-3.4c-0.1-0.5-0.8-2-2.8-2.2l-64.5-5.6l2-3.6c12.2-21.8,29-39,50-51.1c42.1-24.3,91.7-22.4,124-12.6
	c52.9,16,81.7,61.5,82,61.9l11.9,18.9l38-23.5l-11.7-19c-1.5-2.5-37.8-60.2-107.1-81.3c-53.6-16.3-113.2-10-159.5,16.7
	c-30.2,17.4-53.9,42.7-70.4,75.1l-1.4,2.8l-53.3-39.8C55.2,199.1,54.5,198.9,54,199L54,199z"/>
</svg>
