<?xml version="1.0" encoding="UTF-8" standalone="no"?>
<svg
   id="katman_2"
   viewBox="0 0 479.13 285.35"
   version="1.1"
   sodipodi:docname="go-back.svg"
   inkscape:version="1.2.2 (b0a8486541, 2022-12-01)"
   xmlns:inkscape="http://www.inkscape.org/namespaces/inkscape"
   xmlns:sodipodi="http://sodipodi.sourceforge.net/DTD/sodipodi-0.dtd"
   xmlns="http://www.w3.org/2000/svg"
   xmlns:svg="http://www.w3.org/2000/svg">
  <sodipodi:namedview
     id="namedview14"
     pagecolor="#ffffff"
     bordercolor="#000000"
     borderopacity="0.25"
     inkscape:showpageshadow="2"
     inkscape:pageopacity="0.0"
     inkscape:pagecheckerboard="0"
     inkscape:deskcolor="#d1d1d1"
     showgrid="false"
     inkscape:zoom="2.7445578"
     inkscape:cx="239.92936"
     inkscape:cy="143.19247"
     inkscape:window-width="1920"
     inkscape:window-height="1057"
     inkscape:window-x="0"
     inkscape:window-y="0"
     inkscape:window-maximized="1"
     inkscape:current-layer="katman_2" />
  <defs
     id="defs4">
    <style
       id="style2">.cls-1{fill:#1eb8d3;}.cls-2{fill:#1f71b8;}</style>
  </defs>
  <g
     id="katman_1"
     transform="matrix(-1,0,0,1,479.1278,0)">
    <g
       id="g10">
      <path
         class="cls-1"
         d="m 465.57,76.08 -57.78,43.18 C 388.86,82.12 361.37,52.64 326.48,32.52 273.07,1.72 204.33,-5.48 142.6,13.26 62.51,37.57 20.75,104.24 19.01,107.06 l -14.88,24.19 48.32,29.87 15.09,-24.06 c 0.32,-0.51 32.75,-51.33 91.63,-69.21 36.22,-10.99 91.71,-13.07 138.8,14.09 23.48,13.54 42.12,32.63 55.77,57 l -68.77,5.95 c -5.91,0.51 -8.19,7.95 -3.6,11.69 l 152.7,124.28 c 3.94,3.21 9.87,0.95 10.68,-4.07 L 476.03,82.41 c 0.94,-5.85 -5.71,-9.88 -10.46,-6.33 z"
         id="path6" />
      <path
         class="cls-2"
         d="m 438.21,285.35 c -2.16,0 -4.27,-0.74 -6.03,-2.17 L 279.48,158.9 c -3.09,-2.52 -4.29,-6.45 -3.12,-10.26 1.17,-3.81 4.37,-6.4 8.35,-6.74 l 64.06,-5.54 C 335.63,114.41 318.05,96.99 296.47,84.54 250.2,57.87 195.66,59.91 160.04,70.73 102.39,88.23 70.4,138.16 70.08,138.66 L 53.4,165.25 0,132.24 16.45,105.5 c 1.77,-2.87 44.19,-70.48 125.28,-95.1 62.51,-18.98 132.14,-11.68 186.25,19.52 34.39,19.83 61.57,48.36 80.85,84.82 l 54.95,-41.06 c 3.2,-2.39 7.3,-2.59 10.71,-0.52 3.41,2.07 5.14,5.8 4.51,9.74 l -31.28,194.38 c -0.55,3.43 -2.82,6.21 -6.06,7.44 -1.13,0.43 -2.3,0.64 -3.45,0.64 z M 212.61,57.24 c 28.14,0 58.94,6.01 86.86,22.11 23.85,13.75 42.99,33.31 56.88,58.13 l 2.27,4.05 -73.4,6.35 c -2.24,0.19 -2.96,1.98 -3.13,2.53 -0.17,0.54 -0.58,2.43 1.17,3.85 l 152.7,124.28 c 1.45,1.18 2.97,0.79 3.55,0.57 0.58,-0.22 1.97,-0.94 2.27,-2.79 L 473.06,81.94 c 0.36,-2.22 -1.2,-3.36 -1.69,-3.65 -0.49,-0.29 -2.21,-1.15 -4.02,0.2 l -60.63,45.31 -1.62,-3.17 C 386.28,83.7 359.31,54.94 324.96,35.13 272.28,4.73 204.42,-2.37 143.47,16.13 64.54,40.1 23.28,105.85 21.56,108.64 L 8.25,130.28 51.49,157.01 65,135.47 c 0.32,-0.51 33.15,-52.23 93.3,-70.49 15.37,-4.66 34.16,-7.75 54.31,-7.75 z"
         id="path8" />
    </g>
  </g>
</svg>
