<?xml version="1.0" encoding="iso-8859-1"?>
<!-- Uploaded to: SVG Repo, www.svgrepo.com, Generator: SVG Repo Mixer Tools -->
<!DOCTYPE svg PUBLIC "-//W3C//DTD SVG 1.1//EN" "http://www.w3.org/Graphics/SVG/1.1/DTD/svg11.dtd">
<svg height="800px" width="800px" version="1.1" id="Capa_1" xmlns="http://www.w3.org/2000/svg" xmlns:xlink="http://www.w3.org/1999/xlink" 
	 viewBox="0 0 461.043 461.043" xml:space="preserve">
<g>
	<path style="fill:#2C3D8E;" d="M71.832,103.403c3.94,0,7.768,1.676,10.452,4.724l40.755,46.293c2.738,3.11,6.57,4.713,10.438,4.713
		c2.935,0,5.89-0.923,8.404-2.811c33.991-25.527,76.237-40.657,122.019-40.657c74.537,0,139.702,40.095,175.121,99.891
		c5.86,9.893-2.007,21.094-11.897,21.094c-2.078,0-4.248-0.495-6.396-1.601c-27.858-14.341-59.454-22.44-92.944-22.44
		c-38.686,0-74.843,10.806-105.63,29.558c-7.417,4.518-8.998,14.613-3.259,21.132l51.058,57.995c3.518,3.996,4.449,9.648,2.4,14.561
		c-2.049,4.913-6.721,8.228-12.036,8.54L34.741,357.615c-0.281,0.016-0.56,0.025-0.837,0.025c-8.526,0-15.14-7.684-13.71-16.224
		l37.907-226.387c0.887-5.299,4.745-9.615,9.912-11.09C69.274,103.578,70.559,103.403,71.832,103.403 M71.834,83.403L71.834,83.403
		L71.834,83.403c-3.148,0-6.28,0.438-9.31,1.303c-12.519,3.573-21.998,14.178-24.148,27.019L0.469,338.112
		c-1.651,9.859,1.106,19.889,7.562,27.517c6.461,7.633,15.891,12.01,25.873,12.01c0.667,0,1.343-0.02,2.009-0.059l225.573-13.221
		c12.856-0.754,24.366-8.92,29.324-20.806c4.958-11.885,2.663-25.811-5.847-35.476l-46.18-52.455
		c27.116-15.077,57.733-23.014,89-23.014c29.534,0,57.725,6.804,83.79,20.222c4.922,2.534,10.154,3.819,15.55,3.819
		c12.082,0,23.37-6.637,29.459-17.321c6.069-10.648,5.936-23.346-0.354-33.966c-19.427-32.797-47.101-60.273-80.031-79.458
		c-33.958-19.784-72.79-30.241-112.297-30.241c-24.594,0-48.772,3.976-71.863,11.818c-20.566,6.985-39.938,16.915-57.66,29.549
		l-37.082-42.12C90.857,87.598,81.577,83.404,71.834,83.403L71.834,83.403L71.834,83.403z"/>
	<path style="fill:#4479FA;" d="M436.58,232.769c-35.522-59.364-100.439-99.113-174.652-99.113
		c-45.783,0-88.028,15.13-122.019,40.657c-5.827,4.376-14.027,3.567-18.842-1.902l-40.755-46.293
		c-7.329-8.324-21.878-5.185-24.947,4.974L19.999,342.304c-0.082,0.491-0.859,6.884,4.631,11.756
		c2.453,2.209,5.69,3.579,9.274,3.579c0.277,0,0.556-0.008,0.837-0.025l225.575-13.221c3.317-0.194,6.384-1.559,8.719-3.752
		c-0.32-0.463-0.667-0.918-1.054-1.358l-51.058-57.995c-5.072-5.761-4.401-14.295,0.938-19.324
		c-4.467-6.492-2.635-15.579,4.294-19.799c30.787-18.752,66.944-29.558,105.63-29.558c33.491,0,65.087,8.099,92.944,22.44
		c2.148,1.106,4.318,1.601,6.396,1.601C430.738,236.65,434.077,235.15,436.58,232.769z"/>
</g>
</svg>