<?xml version="1.0" encoding="UTF-8"?><svg id="katman_2" xmlns="http://www.w3.org/2000/svg" viewBox="0 0 479.13 285.35"><defs><style>.cls-1{fill:#1eb8d3;}.cls-2{fill:#1f71b8;}</style></defs><g id="katman_1"><g><path class="cls-1" d="M465.57,76.08l-57.78,43.18c-18.93-37.14-46.42-66.62-81.31-86.74C273.07,1.72,204.33-5.48,142.6,13.26,62.51,37.57,20.75,104.24,19.01,107.06l-14.88,24.19,48.32,29.87,15.09-24.06c.32-.51,32.75-51.33,91.63-69.21,36.22-10.99,91.71-13.07,138.8,14.09,23.48,13.54,42.12,32.63,55.77,57l-68.77,5.95c-5.91,.51-8.19,7.95-3.6,11.69l152.7,124.28c3.94,3.21,9.87,.95,10.68-4.07l31.28-194.38c.94-5.85-5.71-9.88-10.46-6.33Z"/><path class="cls-2" d="M438.21,285.35c-2.16,0-4.27-.74-6.03-2.17l-152.7-124.28c-3.09-2.52-4.29-6.45-3.12-10.27,1.17-3.81,4.37-6.4,8.35-6.74l64.06-5.54c-13.14-21.95-30.72-39.37-52.3-51.82-46.27-26.68-100.81-24.63-136.43-13.81-57.65,17.5-89.64,67.43-89.96,67.93l-16.68,26.59L0,132.24l16.45-26.74c1.77-2.87,44.16-70.48,125.28-95.1C204.24-8.58,273.87-1.28,327.98,29.92c34.39,19.83,61.57,48.35,80.85,84.82l54.95-41.06c3.2-2.39,7.3-2.59,10.71-.52,3.41,2.07,5.14,5.8,4.51,9.74l-31.28,194.38c-.55,3.43-2.82,6.21-6.06,7.44-1.13,.43-2.3,.64-3.45,.64ZM212.61,57.24c28.14,0,58.94,6.01,86.86,22.11,23.85,13.75,42.99,33.31,56.88,58.13l2.27,4.05-73.4,6.35c-2.24,.19-2.96,1.98-3.13,2.53s-.58,2.43,1.17,3.85l152.7,124.28c1.45,1.18,2.97,.79,3.55,.57,.58-.22,1.97-.94,2.27-2.79l31.28-194.38c.36-2.22-1.2-3.36-1.69-3.65-.49-.29-2.21-1.15-4.02,.2l-60.63,45.31-1.62-3.17c-18.82-36.93-45.79-65.69-80.14-85.5C272.28,4.73,204.42-2.37,143.47,16.13,64.51,40.1,23.28,105.85,21.56,108.64l-13.32,21.64,43.24,26.73,13.51-21.54c.32-.51,33.15-52.23,93.3-70.49,15.37-4.66,34.16-7.75,54.31-7.75Z"/></g></g></svg>