<?xml version="1.0" encoding="UTF-8" standalone="no"?>
<!-- Uploaded to: SVG Repo, www.svgrepo.com, Generator: SVG Repo Mixer Tools -->

<svg
   height="800px"
   width="800px"
   version="1.1"
   id="Capa_1"
   viewBox="0 0 461.043 461.043"
   xml:space="preserve"
   sodipodi:docname="go-next.svg"
   inkscape:version="1.3.2 (091e20ef0f, 2023-11-25)"
   xmlns:inkscape="http://www.inkscape.org/namespaces/inkscape"
   xmlns:sodipodi="http://sodipodi.sourceforge.net/DTD/sodipodi-0.dtd"
   xmlns="http://www.w3.org/2000/svg"
   xmlns:svg="http://www.w3.org/2000/svg"><defs
   id="defs2" /><sodipodi:namedview
   id="namedview2"
   pagecolor="#ffffff"
   bordercolor="#000000"
   borderopacity="0.25"
   inkscape:showpageshadow="2"
   inkscape:pageopacity="0.0"
   inkscape:pagecheckerboard="0"
   inkscape:deskcolor="#d1d1d1"
   inkscape:zoom="1.045"
   inkscape:cx="399.52153"
   inkscape:cy="400"
   inkscape:window-width="1920"
   inkscape:window-height="1034"
   inkscape:window-x="0"
   inkscape:window-y="0"
   inkscape:window-maximized="1"
   inkscape:current-layer="Capa_1" />
<g
   id="g2"
   transform="matrix(-1,0,0,1,461.04188,0)">
	<path
   style="fill:#2c3d8e"
   d="m 71.832,103.403 c 3.94,0 7.768,1.676 10.452,4.724 l 40.755,46.293 c 2.738,3.11 6.57,4.713 10.438,4.713 2.935,0 5.89,-0.923 8.404,-2.811 33.991,-25.527 76.237,-40.657 122.019,-40.657 74.537,0 139.702,40.095 175.121,99.891 5.86,9.893 -2.007,21.094 -11.897,21.094 -2.078,0 -4.248,-0.495 -6.396,-1.601 -27.858,-14.341 -59.454,-22.44 -92.944,-22.44 -38.686,0 -74.843,10.806 -105.63,29.558 -7.417,4.518 -8.998,14.613 -3.259,21.132 l 51.058,57.995 c 3.518,3.996 4.449,9.648 2.4,14.561 -2.049,4.913 -6.721,8.228 -12.036,8.54 l -225.576,13.22 c -0.281,0.016 -0.56,0.025 -0.837,0.025 -8.526,0 -15.14,-7.684 -13.71,-16.224 L 58.101,115.029 c 0.887,-5.299 4.745,-9.615 9.912,-11.09 1.261,-0.361 2.546,-0.536 3.819,-0.536 m 0.002,-20 v 0 0 c -3.148,0 -6.28,0.438 -9.31,1.303 -12.519,3.573 -21.998,14.178 -24.148,27.019 L 0.469,338.112 c -1.651,9.859 1.106,19.889 7.562,27.517 6.461,7.633 15.891,12.01 25.873,12.01 0.667,0 1.343,-0.02 2.009,-0.059 l 225.573,-13.221 c 12.856,-0.754 24.366,-8.92 29.324,-20.806 4.958,-11.885 2.663,-25.811 -5.847,-35.476 l -46.18,-52.455 c 27.116,-15.077 57.733,-23.014 89,-23.014 29.534,0 57.725,6.804 83.79,20.222 4.922,2.534 10.154,3.819 15.55,3.819 12.082,0 23.37,-6.637 29.459,-17.321 6.069,-10.648 5.936,-23.346 -0.354,-33.966 C 436.801,172.565 409.127,145.089 376.197,125.904 342.239,106.12 303.407,95.663 263.9,95.663 c -24.594,0 -48.772,3.976 -71.863,11.818 -20.566,6.985 -39.938,16.915 -57.66,29.549 L 97.295,94.91 C 90.857,87.598 81.577,83.404 71.834,83.403 v 0 z"
   id="path1" />
	<path
   style="fill:#4479fa"
   d="m 436.58,232.769 c -35.522,-59.364 -100.439,-99.113 -174.652,-99.113 -45.783,0 -88.028,15.13 -122.019,40.657 -5.827,4.376 -14.027,3.567 -18.842,-1.902 L 80.312,126.118 c -7.329,-8.324 -21.878,-5.185 -24.947,4.974 L 19.999,342.304 c -0.082,0.491 -0.859,6.884 4.631,11.756 2.453,2.209 5.69,3.579 9.274,3.579 0.277,0 0.556,-0.008 0.837,-0.025 l 225.575,-13.221 c 3.317,-0.194 6.384,-1.559 8.719,-3.752 -0.32,-0.463 -0.667,-0.918 -1.054,-1.358 l -51.058,-57.995 c -5.072,-5.761 -4.401,-14.295 0.938,-19.324 -4.467,-6.492 -2.635,-15.579 4.294,-19.799 30.787,-18.752 66.944,-29.558 105.63,-29.558 33.491,0 65.087,8.099 92.944,22.44 2.148,1.106 4.318,1.601 6.396,1.601 3.613,0.002 6.952,-1.498 9.455,-3.879 z"
   id="path2" />
</g>
</svg>
