<?xml version="1.0" encoding="UTF-8" standalone="no"?>
<svg
   id="katman_2"
   viewBox="0 0 479.13 285.35"
   version="1.1"
   sodipodi:docname="Varlık 1172.svg"
   inkscape:version="1.2.2 (b0a8486541, 2022-12-01)"
   xmlns:inkscape="http://www.inkscape.org/namespaces/inkscape"
   xmlns:sodipodi="http://sodipodi.sourceforge.net/DTD/sodipodi-0.dtd"
   xmlns="http://www.w3.org/2000/svg"
   xmlns:svg="http://www.w3.org/2000/svg">
  <sodipodi:namedview
     id="namedview14"
     pagecolor="#ffffff"
     bordercolor="#000000"
     borderopacity="0.25"
     inkscape:showpageshadow="2"
     inkscape:pageopacity="0.0"
     inkscape:pagecheckerboard="0"
     inkscape:deskcolor="#d1d1d1"
     showgrid="false"
     inkscape:zoom="2.7445578"
     inkscape:cx="240.11154"
     inkscape:cy="143.19247"
     inkscape:window-width="2560"
     inkscape:window-height="1440"
     inkscape:window-x="0"
     inkscape:window-y="0"
     inkscape:window-maximized="0"
     inkscape:current-layer="katman_2" />
  <defs
     id="defs4">
    <style
       id="style2">.cls-1{fill:#7ca1b1;}.cls-2{fill:#1e71b8;}</style>
  </defs>
  <g
     id="katman_1"
     transform="matrix(-1,0,0,1,479.13172,0)">
    <g
       id="g10">
      <path
         class="cls-1"
         d="m 13.55,76.08 57.78,43.18 c 18.93,-37.14 46.42,-66.62 81.31,-86.74 53.42,-30.8 122.15,-38 183.88,-19.26 80.09,24.31 121.85,90.98 123.59,93.8 l 14.88,24.19 -48.32,29.87 -15.09,-24.06 c -0.32,-0.51 -32.75,-51.33 -91.63,-69.21 -36.22,-10.99 -91.71,-13.07 -138.8,14.09 -23.48,13.54 -42.12,32.63 -55.77,57 l 68.77,5.95 c 5.91,0.51 8.19,7.95 3.6,11.69 L 45.05,280.86 c -3.94,3.21 -9.87,0.95 -10.68,-4.07 L 3.09,82.41 C 2.15,76.56 8.8,72.53 13.55,76.08 Z"
         id="path6" />
      <path
         class="cls-2"
         d="m 40.92,285.35 c -1.15,0 -2.32,-0.21 -3.45,-0.64 -3.24,-1.24 -5.51,-4.02 -6.06,-7.44 L 0.13,82.89 c -0.63,-3.94 1.09,-7.67 4.51,-9.74 3.41,-2.07 7.52,-1.87 10.71,0.52 L 70.3,114.73 C 89.57,78.27 116.76,49.74 151.15,29.91 205.26,-1.28 274.89,-8.59 337.4,10.39 418.49,35 460.91,102.62 462.67,105.49 l 16.46,26.75 -53.41,33.01 -16.68,-26.59 c -0.32,-0.5 -32.31,-50.43 -89.96,-67.93 -35.62,-10.81 -90.17,-12.86 -136.43,13.81 -21.59,12.45 -39.16,29.87 -52.3,51.82 l 64.06,5.54 c 3.98,0.34 7.17,2.93 8.35,6.74 1.17,3.81 -0.02,7.75 -3.12,10.26 L 46.94,283.19 c -1.75,1.43 -3.87,2.17 -6.03,2.17 z M 9.65,77.75 c -0.91,0 -1.62,0.37 -1.91,0.54 -0.49,0.29 -2.05,1.43 -1.69,3.65 l 31.28,194.38 c 0.3,1.85 1.69,2.57 2.27,2.79 0.58,0.22 2.1,0.61 3.55,-0.57 l 152.7,-124.28 c 1.75,-1.42 1.33,-3.3 1.17,-3.85 -0.17,-0.54 -0.89,-2.33 -3.13,-2.53 l -73.4,-6.35 2.27,-4.05 c 13.9,-24.82 33.04,-44.38 56.88,-58.13 47.93,-27.63 104.35,-25.54 141.17,-14.36 60.15,18.26 92.98,69.97 93.31,70.49 l 13.51,21.53 43.24,-26.73 -13.32,-21.64 C 455.83,105.85 414.58,40.1 335.64,16.14 274.7,-2.37 206.85,4.73 154.14,35.12 119.79,54.93 92.83,83.7 74,120.62 L 72.38,123.79 11.76,78.48 C 11.02,77.92 10.29,77.74 9.65,77.74 Z"
         id="path8" />
    </g>
  </g>
</svg>
