<?xml version="1.0" encoding="UTF-8" standalone="no"?>
<!-- Generator: Adobe Illustrator 28.4.1, SVG Export Plug-In . SVG Version: 6.00 Build 0)  -->

<svg
   version="1.0"
   id="katman_2_00000062160673057393631680000016672637098088076699_"
   x="0px"
   y="0px"
   viewBox="0 0 512 512"
   style="enable-background:new 0 0 512 512;"
   xml:space="preserve"
   sodipodi:docname="go-next-disabled.svg"
   inkscape:version="1.2.2 (b0a8486541, 2022-12-01)"
   xmlns:inkscape="http://www.inkscape.org/namespaces/inkscape"
   xmlns:sodipodi="http://sodipodi.sourceforge.net/DTD/sodipodi-0.dtd"
   xmlns="http://www.w3.org/2000/svg"
   xmlns:svg="http://www.w3.org/2000/svg"><defs
   id="defs11" /><sodipodi:namedview
   id="namedview9"
   pagecolor="#ffffff"
   bordercolor="#000000"
   borderopacity="0.25"
   inkscape:showpageshadow="2"
   inkscape:pageopacity="0.0"
   inkscape:pagecheckerboard="0"
   inkscape:deskcolor="#d1d1d1"
   showgrid="false"
   inkscape:zoom="1.7285156"
   inkscape:cx="255.1322"
   inkscape:cy="256.28927"
   inkscape:window-width="1920"
   inkscape:window-height="1057"
   inkscape:window-x="0"
   inkscape:window-y="0"
   inkscape:window-maximized="1"
   inkscape:current-layer="katman_2_00000062160673057393631680000016672637098088076699_" />
<style
   type="text/css"
   id="style2">
	.st0{fill:#E3E3E4;}
	.st1{fill:#1E71B8;}
</style>
<path
   class="st0"
   d="m 454.67516,197.5 -50.8,37.9 c -16.6,-32.6 -40.8,-58.5 -71.4,-76.2 -46.9,-27.1 -107.3,-33.4 -161.6,-16.9 -70.4,21.4 -107.099995,79.9 -108.599995,82.4 l -13.1,21.3 42.5,26.2 13.299995,-21.1 c 0.3,-0.4 28.8,-45.1 80.5,-60.8 31.8,-9.7 80.6,-11.5 122,12.4 20.6,11.9 37,28.7 49,50.1 l -60.4,5.2 c -5.2,0.4 -7.2,7 -3.2,10.3 l 134.1,109.1 c 3.5,2.8 8.7,0.8 9.4,-3.6 l 27.5,-170.8 c 0.8,-5.1 -5,-8.6 -9.2,-5.5 z"
   id="path4" />
<path
   class="st1"
   d="m 430.57516,381.4 c 1,0 2,-0.2 3,-0.6 2.8,-1.1 4.8,-3.5 5.3,-6.5 l 27.6,-170.8 c 0.6,-3.5 -1,-6.7 -4,-8.6 -3,-1.8 -6.6,-1.6 -9.4,0.5 l -48.3,36.1 c -16.9,-32 -40.8,-57.1 -71,-74.5 -47.5,-27.4 -108.7,-33.8 -163.7,-17.2 -71.299995,21.6 -108.499995,81 -110.099995,83.6 l -14.5,23.5 46.9,29 14.699995,-23.4 c 0.3,-0.4 28.4,-44.3 79,-59.7 31.3,-9.5 79.2,-11.3 119.9,12.1 19,10.9 34.4,26.2 46,45.5 l -56.3,4.9 c -3.5,0.3 -6.3,2.6 -7.3,5.9 -1,3.3 0,6.8 2.7,9 l 134.3,109.3 c 1.5,1.2 3.4,1.9 5.2,1.9 z m 27.5,-182.4 c 0.8,0 1.4,0.3 1.7,0.5 0.4,0.3 1.8,1.3 1.5,3.2 l -27.5,170.8 c -0.3,1.6 -1.5,2.3 -2,2.5 -0.5,0.2 -1.8,0.5 -3.1,-0.5 l -134.2,-109.2 c -1.5,-1.2 -1.2,-2.9 -1,-3.4 0.1,-0.5 0.8,-2 2.8,-2.2 l 64.5,-5.6 -2,-3.6 c -12.2,-21.8 -29,-39 -50,-51.1 -42.1,-24.3 -91.7,-22.4 -124,-12.6 -52.9,16 -81.7,61.5 -82,61.9 l -11.899995,18.9 -38,-23.5 11.7,-19 c 1.5,-2.5 37.799995,-60.2 107.099995,-81.3 53.6,-16.3 113.2,-10 159.5,16.7 30.2,17.4 53.9,42.7 70.4,75.1 l 1.4,2.8 53.3,-39.8 c 0.6,-0.5 1.3,-0.7 1.8,-0.6 z"
   id="path6" />
</svg>
