<?xml version="1.0" encoding="UTF-8" standalone="no"?>
<!-- Generator: Adobe Illustrator 28.4.1, SVG Export Plug-In . SVG Version: 6.00 Build 0)  -->

<svg
   version="1.0"
   id="katman_2_00000015328674555090814690000013762126697356173469_"
   x="0px"
   y="0px"
   viewBox="0 0 512 512"
   style="enable-background:new 0 0 512 512;"
   xml:space="preserve"
   sodipodi:docname="go-page-next-disabled.svg"
   inkscape:version="1.2.2 (b0a8486541, 2022-12-01)"
   xmlns:inkscape="http://www.inkscape.org/namespaces/inkscape"
   xmlns:sodipodi="http://sodipodi.sourceforge.net/DTD/sodipodi-0.dtd"
   xmlns="http://www.w3.org/2000/svg"
   xmlns:svg="http://www.w3.org/2000/svg"><defs
   id="defs11" /><sodipodi:namedview
   id="namedview9"
   pagecolor="#ffffff"
   bordercolor="#000000"
   borderopacity="0.25"
   inkscape:showpageshadow="2"
   inkscape:pageopacity="0.0"
   inkscape:pagecheckerboard="0"
   inkscape:deskcolor="#d1d1d1"
   showgrid="false"
   inkscape:zoom="1.7285156"
   inkscape:cx="253.10734"
   inkscape:cy="257.73559"
   inkscape:window-width="1466"
   inkscape:window-height="930"
   inkscape:window-x="161"
   inkscape:window-y="71"
   inkscape:window-maximized="0"
   inkscape:current-layer="katman_2_00000015328674555090814690000013762126697356173469_" />
<style
   type="text/css"
   id="style2">
	.st0{fill:#1EB7D2;}
	.st1{fill:#1F71B7;}
</style>
<path
   class="st0"
   d="M409.7,251.3l-166-154.4c-2.6-2.4-6.7-2.3-9.2,0.3L216.1,117c-2.4,2.6-2.3,6.7,0.3,9.2L334.6,236H100.2v40  h234.5L216.4,385.8c-2.6,2.4-2.8,6.6-0.3,9.2l18.4,19.8c2.4,2.6,6.6,2.8,9.2,0.3l166-154.4C412.5,258.2,412.5,253.8,409.7,251.3z"
   id="path4"
   style="fill:#7ca1b1;fill-opacity:1" />
<path
   class="st1"
   d="M239.3,419.9c-2.5,0-5.1-1-7-3l-18.4-19.8c-1.7-1.9-2.6-4.3-2.5-6.8c0.1-2.5,1.2-4.9,3-6.6L327,279H97.2v-46  h229.7L214.4,128.3c-1.9-1.7-2.9-4.1-3-6.6c-0.1-2.5,0.8-5,2.5-6.8l18.4-19.8c3.6-3.8,9.6-4,13.4-0.5l166,154.4c1.9,1.8,3,4.3,3,7  c0,2.6-1.1,5.2-3,7l-166,154.4C243.9,419,241.6,419.9,239.3,419.9z M103.2,273h239.1L218.5,388c-0.7,0.6-1.1,1.5-1.1,2.4  c0,0.9,0.3,1.8,0.9,2.5l18.4,19.8c1.3,1.4,3.5,1.5,4.9,0.2l166-154.4c0.7-0.7,1.1-1.6,1.1-2.6c0-1-0.4-1.9-1.1-2.6L241.6,99  c-1.4-1.3-3.6-1.2-4.9,0.2L218.3,119c-0.6,0.7-1,1.6-0.9,2.5c0,0.9,0.4,1.8,1.1,2.4l123.7,115h-239V273z"
   id="path6" />
</svg>
