<?xml version="1.0" encoding="utf-8"?>
<!-- Generator: Adobe Illustrator 28.4.1, SVG Export Plug-In . SVG Version: 6.00 Build 0)  -->
<svg version="1.0" id="katman_2_00000015328674555090814690000013762126697356173469_"
	 xmlns="http://www.w3.org/2000/svg" xmlns:xlink="http://www.w3.org/1999/xlink" x="0px" y="0px" viewBox="0 0 512 512"
	 style="enable-background:new 0 0 512 512;" xml:space="preserve">
<style type="text/css">
	.st0{fill:#1EB7D2;}
	.st1{fill:#1F71B7;}
</style>
<path class="st0" d="M102.3,251.3l166-154.4c2.6-2.4,6.7-2.3,9.2,0.3l18.4,19.8c2.4,2.6,2.3,6.7-0.3,9.2L177.4,236h234.4v40H177.4
	l118.2,109.9c2.6,2.4,2.8,6.6,0.3,9.2l-18.4,19.8c-2.4,2.6-6.6,2.8-9.2,0.3l-166-154.4C99.5,258.2,99.5,253.8,102.3,251.3z"/>
<path class="st1" d="M266.3,417.3L100.2,263c-1.9-1.8-3-4.3-3-7c0-2.6,1.1-5.2,3-7l166-154.4c3.8-3.6,9.9-3.3,13.4,0.5l18.4,19.8
	c1.7,1.9,2.6,4.3,2.5,6.8c-0.1,2.5-1.2,4.9-3,6.6L185.1,233h229.7v46H185l112.6,104.7c1.9,1.7,2.9,4.1,3,6.6c0.1,2.5-0.8,5-2.5,6.8
	l-18.4,19.8c-1.9,2-4.4,3-7,3C270.4,419.9,268.1,419,266.3,417.3z M408.8,239h-239l123.7-115c0.7-0.6,1.1-1.5,1.1-2.4
	c0-0.9-0.3-1.8-0.9-2.5l-18.4-19.8c-1.3-1.4-3.5-1.5-4.9-0.2l-166,154.4c-0.7,0.7-1.1,1.6-1.1,2.6c0,1,0.4,1.9,1.1,2.6l166,154.4
	c1.4,1.3,3.6,1.2,4.9-0.2l18.4-19.8c0.6-0.7,1-1.6,0.9-2.5c0-0.9-0.4-1.8-1.1-2.4L169.7,273h239.1V239z"/>
</svg>
