<?xml version="1.0" encoding="UTF-8" standalone="no"?>
<!-- Generator: Adobe Illustrator 28.4.1, SVG Export Plug-In . SVG Version: 6.00 Build 0)  -->

<svg
   version="1.0"
   id="katman_2_00000015328674555090814690000013762126697356173469_"
   x="0px"
   y="0px"
   viewBox="0 0 512 512"
   style="enable-background:new 0 0 512 512;"
   xml:space="preserve"
   sodipodi:docname="go-page-previous-disabled.svg"
   inkscape:version="1.2.2 (b0a8486541, 2022-12-01)"
   xmlns:inkscape="http://www.inkscape.org/namespaces/inkscape"
   xmlns:sodipodi="http://sodipodi.sourceforge.net/DTD/sodipodi-0.dtd"
   xmlns="http://www.w3.org/2000/svg"
   xmlns:svg="http://www.w3.org/2000/svg"><defs
   id="defs11" /><sodipodi:namedview
   id="namedview9"
   pagecolor="#ffffff"
   bordercolor="#000000"
   borderopacity="0.25"
   inkscape:showpageshadow="2"
   inkscape:pageopacity="0.0"
   inkscape:pagecheckerboard="0"
   inkscape:deskcolor="#d1d1d1"
   showgrid="false"
   inkscape:zoom="1.7285156"
   inkscape:cx="252.81808"
   inkscape:cy="258.31413"
   inkscape:window-width="1466"
   inkscape:window-height="930"
   inkscape:window-x="161"
   inkscape:window-y="71"
   inkscape:window-maximized="0"
   inkscape:current-layer="katman_2_00000015328674555090814690000013762126697356173469_" />
<style
   type="text/css"
   id="style2">
	.st0{fill:#1EB7D2;}
	.st1{fill:#1F71B7;}
</style>
<path
   class="st0"
   d="m 102.2,251.3 166,-154.4 c 2.6,-2.4 6.7,-2.3 9.2,0.3 l 18.4,19.8 c 2.4,2.6 2.3,6.7 -0.3,9.2 L 177.3,236 h 234.4 v 40 H 177.2 l 118.3,109.8 c 2.6,2.4 2.8,6.6 0.3,9.2 l -18.4,19.8 c -2.4,2.6 -6.6,2.8 -9.2,0.3 l -166,-154.4 c -2.8,-2.5 -2.8,-6.9 0,-9.4 z"
   id="path4"
   style="fill:#7ca1b1;fill-opacity:1" />
<path
   class="st1"
   d="m 272.6,419.9 c 2.5,0 5.1,-1 7,-3 L 298,397.1 c 1.7,-1.9 2.6,-4.3 2.5,-6.8 -0.1,-2.5 -1.2,-4.9 -3,-6.6 L 184.9,279 H 414.7 V 233 H 185 L 297.5,128.3 c 1.9,-1.7 2.9,-4.1 3,-6.6 0.1,-2.5 -0.8,-5 -2.5,-6.8 L 279.6,95.1 C 276,91.3 270,91.1 266.2,94.6 L 100.2,249 c -1.9,1.8 -3,4.3 -3,7 0,2.6 1.1,5.2 3,7 l 166,154.4 c 1.8,1.6 4.1,2.5 6.4,2.5 z M 408.7,273 H 169.6 l 123.8,115 c 0.7,0.6 1.1,1.5 1.1,2.4 0,0.9 -0.3,1.8 -0.9,2.5 l -18.4,19.8 c -1.3,1.4 -3.5,1.5 -4.9,0.2 l -166,-154.4 c -0.7,-0.7 -1.1,-1.6 -1.1,-2.6 0,-1 0.4,-1.9 1.1,-2.6 L 270.3,99 c 1.4,-1.3 3.6,-1.2 4.9,0.2 l 18.4,19.8 c 0.6,0.7 1,1.6 0.9,2.5 0,0.9 -0.4,1.8 -1.1,2.4 l -123.7,115 h 239 V 273 Z"
   id="path6" />
</svg>
