<?xml version="1.0" encoding="UTF-8"?><svg id="katman_2" xmlns="http://www.w3.org/2000/svg" viewBox="0 0 431.42 426.71"><defs><style>.cls-1,.cls-2{opacity:.1;}.cls-1,.cls-3{fill:#161a1e;}.cls-4{fill:#67b42e;}.cls-5{fill:#0c0d18;}.cls-6{fill:none;stroke:#3a4654;stroke-linecap:round;stroke-linejoin:round;stroke-width:2.5px;}</style></defs><g id="katman_1"><g><polygon class="cls-4" points="44.81 355.09 0 399.9 44.3 426.71 80.57 390.45 44.81 355.09"/><line class="cls-6" x1="315.04" y1="57.29" x2="173.05" y2="178.41"/><path class="cls-4" d="M422.44,136.43c12.83-15.23,11.8-39.22-2.28-53.3L348.29,11.27c-14.08-14.08-38.07-15.11-53.3-2.29L69.52,199.71l162.19,162.19,190.72-225.47Z"/><path class="cls-5" d="M96.36,407.89c33.71-33.71,93.61-23.48,93.61-23.48L50.16,244.59s10.23,59.9-23.48,93.61l69.69,69.69Z"/><path class="cls-3" d="M232.45,361s-13.39,2.95-23.96,9.23c-10.24,6.08-18.54,14.21-18.54,14.21L50.12,244.63s7.76-10.47,11.72-19.38c4.38-9.85,8.69-26.15,8.69-26.15l161.92,161.92Z"/><path class="cls-1" d="M385.78,48.76L21.58,412.96l22.72,13.75,35.44-35.44,16.62,16.62c33.02-33.03,91.18-23.88,93.53-23.49l.05,.05s8.31-8.13,18.54-14.21c8.58-5.09,19.02-8,22.65-8.91l.58,.58,190.72-225.47c12.82-15.23,11.8-39.22-2.28-53.3l-34.37-34.37Z"/><g class="cls-2"><path class="cls-3" d="M158.55,189.95c-2.54,0-5.07-1.07-6.85-3.16-3.23-3.78-2.78-9.46,1.01-12.69L288.62,58.16c3.78-3.22,9.46-2.78,12.69,1.01,3.23,3.78,2.78,9.46-1.01,12.69l-135.92,115.95c-1.69,1.45-3.77,2.15-5.84,2.15Z"/></g></g></g></svg>