<?xml version="1.0" encoding="UTF-8" standalone="no"?>
<!-- Uploaded to: SVG Repo, www.svgrepo.com, Generator: SVG Repo Mixer Tools -->

<svg
   height="800px"
   width="800px"
   version="1.1"
   id="Layer_1"
   viewBox="0 0 512 512"
   xml:space="preserve"
   sodipodi:docname="marker.svg"
   inkscape:version="1.3.2 (091e20ef0f, 2023-11-25)"
   xmlns:inkscape="http://www.inkscape.org/namespaces/inkscape"
   xmlns:sodipodi="http://sodipodi.sourceforge.net/DTD/sodipodi-0.dtd"
   xmlns="http://www.w3.org/2000/svg"
   xmlns:svg="http://www.w3.org/2000/svg"><defs
   id="defs7" /><sodipodi:namedview
   id="namedview7"
   pagecolor="#ffffff"
   bordercolor="#000000"
   borderopacity="0.25"
   inkscape:showpageshadow="2"
   inkscape:pageopacity="0.0"
   inkscape:pagecheckerboard="0"
   inkscape:deskcolor="#d1d1d1"
   inkscape:zoom="0.548125"
   inkscape:cx="464.31015"
   inkscape:cy="639.45268"
   inkscape:window-width="1826"
   inkscape:window-height="1080"
   inkscape:window-x="0"
   inkscape:window-y="0"
   inkscape:window-maximized="0"
   inkscape:current-layer="Layer_1" />






<g
   id="g7"
   transform="matrix(-0.91527525,0,0,0.91527525,490.31059,21.689586)"><path
     style="fill:#f37b2a"
     d="M 497.524,131.453 404.001,37.82 C 384.48,18.63 353.05,18.63 333.75,37.93 l -222.227,222.227 -11.689,11.69 c -2.317,2.316 -3.86,5.294 -4.522,8.492 -1.079,4.853 0.352,10.717 4.522,14.889 l 140.394,140.394 c 4.162,4.161 10.023,5.604 14.889,4.522 3.198,-0.662 6.177,-2.206 8.492,-4.522 l 11.691,-11.69 46.879,-46.879 c 6.686,-6.686 7.569,-17.218 2.087,-24.92 C 304.128,323.841 275.3,283.537 275.3,283.537 l 93.523,-93.523 c 0,0 47.169,33.29 70.199,49.857 6.821,4.907 16.193,4.142 22.136,-1.799 l 36.368,-36.368 c 19.298,-19.299 19.298,-50.731 -0.002,-70.251 z"
     id="path1" /><path
     style="fill:#e56722"
     d="m 170.031,365.425 70.197,70.198 c 2.081,2.081 4.587,3.482 7.18,4.227 2.594,0.746 5.276,0.835 7.709,0.294 1.599,-0.331 3.143,-0.882 4.577,-1.64 1.434,-0.759 2.757,-1.724 3.915,-2.881 l 11.691,-11.69 29.226,-29.226 29.226,-29.226 c 3.252,-3.198 4.879,-7.417 4.879,-11.648 0,-4.233 -1.627,-8.479 -4.879,-11.732 L 304.526,312.82 275.3,283.539 l 46.761,-46.761 46.761,-46.761 29.281,29.226 29.281,29.226 c 3.252,3.253 7.472,4.88 11.688,4.88 4.22,0 8.438,-1.627 11.691,-4.88 l 23.381,-23.381 23.381,-23.381 c 9.65,-9.65 14.475,-22.333 14.475,-35.043 0,-12.71 -4.825,-25.449 -14.475,-35.209 L 450.764,84.639 170.002,365.397 Z"
     id="path2" /><path
     style="fill:#dae1e6"
     d="m 263.551,318.599 58.494,58.592 140.431,-140.424 -58.593,-58.498 c -12.867,-12.846 -33.914,-12.838 -46.771,0.019 l -93.54,93.54 c -12.915,12.915 -12.923,33.848 -0.021,46.771 z"
     id="path3" /><path
     style="fill:#ff9f19"
     d="m 143.066,462.532 -21.175,21.175 c -3.087,3.088 -7.279,4.853 -11.689,4.853 H 16.569 C 9.84,488.56 3.885,484.479 1.238,478.303 -1.299,472.127 0.136,465.069 4.879,460.326 L 72.924,392.39 Z"
     id="path4" /><path
     style="fill:#f28618"
     d="m 110.2,488.559 c 4.41,0 8.602,-1.765 11.689,-4.853 l 21.175,-21.175 -35.1,-35.1 -61.126,61.126 H 110.2 Z"
     id="path5" /><path
     style="fill:#736056"
     d="m 111.523,260.157 -11.689,11.69 c -2.317,2.316 -3.86,5.294 -4.522,8.492 l -22.388,112.051 70.143,70.142 112.05,-22.388 c 3.198,-0.662 6.177,-2.206 8.492,-4.522 l 11.691,-11.69 z"
     id="path6" /><path
     style="fill:#665247"
     d="m 143.066,462.532 112.05,-22.388 c 3.198,-0.662 6.177,-2.206 8.492,-4.522 l 11.691,-11.69 -81.915,-81.916 -85.418,85.417 z"
     id="path7" /></g>
</svg>
