<?xml version="1.0" encoding="UTF-8" standalone="no"?>
<svg
   id="katman_2"
   data-name="katman 2"
   viewBox="0 0 431.42 426.71"
   version="1.1"
   sodipodi:docname="marker.svg"
   inkscape:version="1.2.2 (b0a8486541, 2022-12-01)"
   xmlns:inkscape="http://www.inkscape.org/namespaces/inkscape"
   xmlns:sodipodi="http://sodipodi.sourceforge.net/DTD/sodipodi-0.dtd"
   xmlns="http://www.w3.org/2000/svg"
   xmlns:svg="http://www.w3.org/2000/svg">
  <sodipodi:namedview
     id="namedview26"
     pagecolor="#ffffff"
     bordercolor="#000000"
     borderopacity="0.25"
     inkscape:showpageshadow="2"
     inkscape:pageopacity="0.0"
     inkscape:pagecheckerboard="0"
     inkscape:deskcolor="#d1d1d1"
     showgrid="false"
     inkscape:zoom="2.0740082"
     inkscape:cx="215.76579"
     inkscape:cy="213.59607"
     inkscape:window-width="1920"
     inkscape:window-height="1057"
     inkscape:window-x="0"
     inkscape:window-y="0"
     inkscape:window-maximized="1"
     inkscape:current-layer="katman_2" />
  <defs
     id="defs4">
    <style
       id="style2">
      .cls-1 {
        fill: none;
        stroke: #3a4654;
        stroke-linecap: round;
        stroke-linejoin: round;
        stroke-width: 2.5px;
      }

      .cls-2, .cls-3 {
        opacity: .1;
      }

      .cls-4 {
        fill: #f4e72a;
      }

      .cls-4, .cls-5, .cls-6, .cls-3 {
        stroke-width: 0px;
      }

      .cls-5, .cls-3 {
        fill: #161a1e;
      }

      .cls-6 {
        fill: #0c0d18;
      }
    </style>
  </defs>
  <g
     id="katman_1"
     data-name="katman 1">
    <g
       id="g22">
      <polygon
         class="cls-4"
         points="44.3,426.71 80.57,390.45 44.81,355.09 0,399.9 "
         id="polygon6" />
      <line
         class="cls-1"
         x1="315.04001"
         y1="57.290001"
         x2="173.05"
         y2="178.41"
         id="line8" />
      <path
         class="cls-4"
         d="m 422.44,136.43 c 12.83,-15.23 11.8,-39.22 -2.28,-53.3 L 348.29,11.27 C 334.21,-2.81 310.22,-3.84 294.99,8.98 L 69.52,199.71 231.71,361.9 422.43,136.43 Z"
         id="path10" />
      <path
         class="cls-6"
         d="m 96.36,407.89 c 33.71,-33.71 93.61,-23.48 93.61,-23.48 L 50.16,244.59 c 0,0 10.23,59.9 -23.48,93.61 l 69.69,69.69 z"
         id="path12" />
      <path
         class="cls-5"
         d="m 232.45,361 c 0,0 -13.39,2.95 -23.96,9.23 -10.24,6.08 -18.54,14.21 -18.54,14.21 L 50.12,244.63 c 0,0 7.76,-10.47 11.72,-19.38 4.38,-9.85 8.69,-26.15 8.69,-26.15 l 161.92,161.92 z"
         id="path14" />
      <path
         class="cls-3"
         d="m 385.78,48.76 -364.2,364.2 22.72,13.75 35.44,-35.44 16.62,16.62 c 33.02,-33.03 91.18,-23.88 93.53,-23.49 l 0.05,0.05 c 0,0 8.31,-8.13 18.54,-14.21 8.58,-5.09 19.02,-8 22.65,-8.91 l 0.58,0.58 190.72,-225.47 c 12.82,-15.23 11.8,-39.22 -2.28,-53.3 L 385.78,48.77 Z"
         id="path16" />
      <g
         class="cls-2"
         id="g20">
        <path
           class="cls-5"
           d="m 158.55,189.95 c -2.54,0 -5.07,-1.07 -6.85,-3.16 -3.23,-3.78 -2.78,-9.46 1.01,-12.69 L 288.63,58.15 c 3.78,-3.22 9.46,-2.78 12.69,1.01 3.23,3.78 2.78,9.46 -1.01,12.69 L 164.39,187.8 c -1.69,1.45 -3.77,2.15 -5.84,2.15 z"
           id="path18" />
      </g>
    </g>
  </g>
</svg>
