<?xml version="1.0" encoding="UTF-8" standalone="no"?>
<svg
   id="katman_2"
   data-name="katman 2"
   viewBox="0 0 519.38 515.93"
   version="1.1"
   sodipodi:docname="overlay-squares.svg"
   inkscape:version="1.2.2 (b0a8486541, 2022-12-01)"
   xmlns:inkscape="http://www.inkscape.org/namespaces/inkscape"
   xmlns:sodipodi="http://sodipodi.sourceforge.net/DTD/sodipodi-0.dtd"
   xmlns="http://www.w3.org/2000/svg"
   xmlns:svg="http://www.w3.org/2000/svg">
  <sodipodi:namedview
     id="namedview46"
     pagecolor="#ffffff"
     bordercolor="#000000"
     borderopacity="0.25"
     inkscape:showpageshadow="2"
     inkscape:pageopacity="0.0"
     inkscape:pagecheckerboard="0"
     inkscape:deskcolor="#d1d1d1"
     showgrid="false"
     inkscape:zoom="1.715349"
     inkscape:cx="259.71391"
     inkscape:cy="258.25648"
     inkscape:window-width="1920"
     inkscape:window-height="1057"
     inkscape:window-x="0"
     inkscape:window-y="0"
     inkscape:window-maximized="1"
     inkscape:current-layer="katman_2" />
  <defs
     id="defs24">
    <style
       id="style2">
      .cls-1 {
        fill: url(#Adsız_degrade_113);
      }

      .cls-1, .cls-2, .cls-3, .cls-4, .cls-5, .cls-6 {
        stroke-width: 0px;
      }

      .cls-2 {
        fill: url(#Adsız_degrade_111);
      }

      .cls-3 {
        fill: #e83d43;
      }

      .cls-4 {
        fill: #f4f4f4;
      }

      .cls-5 {
        fill: #00b1d9;
      }

      .cls-6 {
        fill: #fff;
      }
    </style>
    <linearGradient
       id="Adsız_degrade_113"
       data-name="Adsız degrade 113"
       x1="274.56"
       y1="246.57"
       x2="465.09"
       y2="50.51"
       gradientUnits="userSpaceOnUse">
      <stop
         offset="0"
         stop-color="#c1c8cc"
         id="stop4" />
      <stop
         offset=".1"
         stop-color="rgba(195, 202, 206, .96)"
         stop-opacity=".96"
         id="stop6" />
      <stop
         offset=".26"
         stop-color="rgba(202, 208, 211, .85)"
         stop-opacity=".85"
         id="stop8" />
      <stop
         offset=".45"
         stop-color="rgba(213, 218, 220, .67)"
         stop-opacity=".67"
         id="stop10" />
      <stop
         offset=".68"
         stop-color="rgba(228, 231, 233, .42)"
         stop-opacity=".42"
         id="stop12" />
      <stop
         offset=".92"
         stop-color="rgba(248, 249, 249, .11)"
         stop-opacity=".11"
         id="stop14" />
      <stop
         offset="1"
         stop-color="#fff"
         stop-opacity="0"
         id="stop16" />
    </linearGradient>
    <linearGradient
       id="Adsız_degrade_111"
       data-name="Adsız degrade 111"
       x1="374.69"
       y1="143.55"
       x2="482.2"
       y2="33.09"
       gradientUnits="userSpaceOnUse">
      <stop
         offset="0"
         stop-color="#c1c8cc"
         id="stop19" />
      <stop
         offset="1"
         stop-color="#fff"
         stop-opacity="0"
         id="stop21" />
    </linearGradient>
  </defs>
  <g
     id="katman_1"
     data-name="katman 1">
    <g
       id="g42">
      <rect
         class="cls-6"
         x="3.7"
         y="2.5"
         width="513.42999"
         height="513.42999"
         id="rect26" />
      <g
         id="g32">
        <path
           class="cls-5"
           d="m 0.19,126.71 v 1.6 c -0.25,123.85 -0.25,249.09 0,372.23 v 14.42 H 519.38 V 126.71 Z M 513.5,166.19 H 477.01 V 129.8 H 513.5 Z M 3.19,406.12 h 36.46 v 36.49 H 3.19 Z m 0,-39.49 h 36.46 v 36.49 H 3.19 Z m 0,-39.49 h 36.46 v 36.49 H 3.19 Z m 0,-39.48 h 36.46 v 36.49 H 3.19 Z m 0,-39.49 h 36.46 v 36.49 H 3.19 Z m 0,-39.49 h 36.46 v 36.49 H 3.19 Z m 0,-39.49 h 36.46 v 36.49 H 3.19 Z m 470.83,-3 H 437.53 V 129.8 h 36.49 z M 316.07,284.66 h -36.49 v -36.49 h 36.49 z m 3,-36.49 h 36.49 v 36.49 h -36.49 z m -42.49,36.49 h -36.49 v -36.49 h 36.49 z m -39.49,0 H 200.6 v -36.49 h 36.49 z m -39.49,0 h -36.49 v -36.49 h 36.49 z m -39.48,0 h -36.49 v -36.49 h 36.49 z m 0,3 v 36.49 h -36.49 v -36.49 z m 3,0 h 36.49 v 36.49 h -36.49 z m 39.48,0 h 36.49 v 36.49 H 200.6 Z m 39.49,0 h 36.49 v 36.49 h -36.49 z m 39.49,0 h 36.49 v 36.49 h -36.49 z m 39.49,0 h 36.49 v 36.49 h -36.49 z m 39.48,0 h 36.49 v 36.49 h -36.49 z m 0,-3 v -36.49 h 36.49 v 36.49 z m 0,-39.49 v -36.49 h 36.49 v 36.49 z m -3,0 h -36.49 v -36.49 h 36.49 z m -39.48,0 h -36.49 v -36.49 h 36.49 z m -39.49,0 h -36.49 v -36.49 h 36.49 z m -39.49,0 H 200.6 v -36.49 h 36.49 z m -39.49,0 h -36.49 v -36.49 h 36.49 z m -39.48,0 h -36.49 v -36.49 h 36.49 z m -39.49,0 H 82.14 v -36.49 h 36.49 z m 0,3 v 36.49 H 82.14 v -36.49 z m 0,39.49 v 36.49 H 82.14 v -36.49 z m 0,39.48 v 36.49 H 82.14 v -36.49 z m 3,0 h 36.49 v 36.49 h -36.49 z m 39.49,0 h 36.49 v 36.49 h -36.49 z m 39.48,0 h 36.49 v 36.49 H 200.6 Z m 39.49,0 h 36.49 v 36.49 h -36.49 z m 39.49,0 h 36.49 v 36.49 h -36.49 z m 39.49,0 h 36.49 v 36.49 h -36.49 z m 39.48,0 h 36.49 v 36.49 h -36.49 z m 39.49,0 h 36.49 v 36.49 h -36.49 z m 0,-3 v -36.49 h 36.49 v 36.49 z m 0,-39.48 v -36.49 h 36.49 v 36.49 z m 0,-39.49 v -36.49 h 36.49 v 36.49 z m 0,-39.49 v -36.49 h 36.49 v 36.49 z m -3,0 h -36.49 v -36.49 h 36.49 z m -39.49,0 h -36.49 v -36.49 h 36.49 z m -39.48,0 h -36.49 v -36.49 h 36.49 z m -39.49,0 h -36.49 v -36.49 h 36.49 z m -39.49,0 H 200.6 v -36.49 h 36.49 z m -39.49,0 h -36.49 v -36.49 h 36.49 z m -39.48,0 h -36.49 v -36.49 h 36.49 z m -39.49,0 H 82.14 v -36.49 h 36.49 z m -39.49,0 H 42.65 v -36.49 h 36.49 z m 0,3 v 36.49 H 42.65 v -36.49 z m 0,39.49 v 36.49 H 42.65 v -36.49 z m 0,39.49 v 36.49 H 42.65 v -36.49 z m 0,39.48 v 36.49 H 42.65 v -36.49 z m 0,39.49 v 36.49 H 42.65 v -36.49 z m 3,0 h 36.49 v 36.49 H 82.14 Z m 39.49,0 h 36.49 v 36.49 h -36.49 z m 39.49,0 h 36.49 v 36.49 h -36.49 z m 39.48,0 h 36.49 v 36.49 H 200.6 Z m 39.49,0 h 36.49 v 36.49 h -36.49 z m 39.49,0 h 36.49 v 36.49 h -36.49 z m 39.49,0 h 36.49 v 36.49 h -36.49 z m 39.48,0 h 36.49 v 36.49 h -36.49 z m 39.49,0 h 36.49 v 36.49 h -36.49 z m 39.49,0 h 36.49 v 36.49 h -36.49 z m 0,-3 v -36.49 h 36.49 v 36.49 z m 0,-39.49 v -36.49 h 36.49 v 36.49 z m 0,-39.48 v -36.49 h 36.49 v 36.49 z m 0,-39.49 v -36.49 h 36.49 v 36.49 z m 0,-39.49 v -36.49 h 36.49 v 36.49 z m -3,-39.49 H 398.04 V 129.8 h 36.49 z m -39.49,0 H 358.55 V 129.8 h 36.49 z m -39.49,0 H 319.06 V 129.8 h 36.49 z m -39.48,0 H 279.58 V 129.8 h 36.49 z m -39.49,0 H 240.09 V 129.8 h 36.49 z m -39.49,0 H 200.6 V 129.8 h 36.49 z m -39.49,0 H 161.11 V 129.8 h 36.49 z m -39.48,0 H 121.63 V 129.8 h 36.49 z m -39.49,0 H 82.14 V 129.8 h 36.49 z m -39.49,0 H 42.65 V 129.8 h 36.49 z m -39.49,0 H 3.19 V 129.8 h 36.46 z m 3,239.93 h 36.49 v 36.49 H 42.65 Z m 39.49,0 h 36.49 v 36.49 H 82.14 Z m 39.49,0 h 36.49 v 36.49 h -36.49 z m 39.49,0 h 36.49 v 36.49 h -36.49 z m 39.48,0 h 36.49 v 36.49 H 200.6 Z m 39.49,0 h 36.49 v 36.49 h -36.49 z m 39.49,0 h 36.49 v 36.49 h -36.49 z m 39.49,0 h 36.49 v 36.49 h -36.49 z m 39.48,0 h 36.49 v 36.49 h -36.49 z m 39.49,0 h 36.49 v 36.49 h -36.49 z m 39.49,0 h 36.49 v 36.49 h -36.49 z m 39.49,0 h 36.49 v 36.49 h -36.49 z m 0,-3 v -36.49 h 36.49 v 36.49 z m 0,-39.49 v -36.49 h 36.49 v 36.49 z m 0,-39.49 v -36.49 h 36.49 v 36.49 z m 0,-39.48 v -36.49 h 36.49 v 36.49 z m 0,-39.49 v -36.49 h 36.49 v 36.49 z m 0,-39.49 v -36.49 h 36.49 v 36.49 z M 3.19,445.6 h 36.46 v 36.49 H 3.19 Z m 39.46,0 h 36.49 v 36.49 H 42.65 Z m 39.49,0 h 36.49 v 36.49 H 82.14 Z m 39.49,0 h 36.49 v 36.49 h -36.49 z m 39.49,0 h 36.49 v 36.49 h -36.49 z m 39.48,0 h 36.49 v 36.49 H 200.6 Z m 39.49,0 h 36.49 v 36.49 h -36.49 z m 39.49,0 h 36.49 v 36.49 h -36.49 z m 39.49,0 h 36.49 v 36.49 h -36.49 z m 39.48,0 h 36.49 v 36.49 h -36.49 z m 39.49,0 h 36.49 v 36.49 h -36.49 z m 39.49,0 h 36.49 v 36.49 h -36.49 z m 39.49,0 h 36.49 v 36.49 H 477.02 Z M 3.19,511.95 v -26.86 h 36.46 v 26.86 z m 39.46,0 v -26.86 h 36.49 v 26.86 z m 39.49,0 v -26.86 h 36.49 v 26.86 z m 39.49,0 v -26.86 h 36.49 v 26.86 z m 39.49,0 v -26.86 h 36.49 v 26.86 z m 39.48,0 v -26.86 h 36.49 v 26.86 z m 39.49,0 v -26.86 h 36.49 v 26.86 z m 39.49,0 v -26.86 h 36.49 v 26.86 z m 39.49,0 v -26.86 h 36.49 v 26.86 z m 39.48,0 v -26.86 h 36.49 v 26.86 z m 39.49,0 v -26.86 h 36.49 v 26.86 z m 39.49,0 v -26.86 h 36.49 v 26.86 z m 39.49,0 v -26.86 h 36.49 v 26.86 z"
           id="path28" />
        <rect
           class="cls-3"
           x="77.709999"
           width="5.7800002"
           height="513.45001"
           id="rect30"
           y="0" />
      </g>
      <g
         id="g40">
        <polygon
           class="cls-1"
           points="306.69,1.48 515.69,210.47 306.69,210.47 "
           id="polygon34"
           style="fill:url(#Ads%C4%B1z_degrade_113)" />
        <polygon
           class="cls-4"
           points="311.77,1.48 515.69,205.39 311.77,205.39 "
           id="polygon36" />
        <polygon
           class="cls-2"
           points="515.69,205.39 311.77,1.48 515.69,1.48 "
           id="polygon38"
           style="fill:url(#Ads%C4%B1z_degrade_111)" />
      </g>
    </g>
  </g>
</svg>
