<?xml version="1.0" encoding="UTF-8"?>
<svg id="katman_2" data-name="katman 2" xmlns="http://www.w3.org/2000/svg" viewBox="0 0 514.82 512.18">
  <defs>
    <style>
      .cls-1 {
        fill: #e83d43;
      }

      .cls-1, .cls-2, .cls-3 {
        stroke-width: 0px;
      }

      .cls-2 {
        fill: #00b1d9;
      }

      .cls-3 {
        fill: #fff;
      }
    </style>
  </defs>
  <g id="katman_1" data-name="katman 1">
    <g>
      <rect class="cls-3" x=".79" y="2.09" width="507.67" height="507.67"/>
      <path class="cls-2" d="M0,509.28v2.9h514.82v-2.9h-71.68v-75.05h71.68v-6.17h-71.68v-75.05h71.68v-6.17h-71.68v-75.05h71.68v-6.17h-71.68v-74.84h71.68v-6.38H0v6.38h30.89v74.84H0v6.17h30.89v75.05H0v6.17h30.89v75.05H0v6.17h30.89v75.05H0ZM361.93,190.79h75.05v74.84h-75.05v-74.84ZM361.93,271.8h75.05v75.05h-75.05v-75.05ZM361.93,353.02h75.05v75.05h-75.05v-75.05ZM361.93,434.24h75.05v75.05h-75.05v-75.05ZM280.71,190.79h75.05v74.84h-75.05v-74.84ZM280.71,271.8h75.05v75.05h-75.05v-75.05ZM280.71,353.02h75.05v75.05h-75.05v-75.05ZM280.71,434.24h75.05v75.05h-75.05v-75.05ZM199.49,190.79h75.05v74.84h-75.05v-74.84ZM199.49,271.8h75.05v75.05h-75.05v-75.05ZM199.49,353.02h75.05v75.05h-75.05v-75.05ZM199.49,434.24h75.05v75.05h-75.05v-75.05ZM118.27,190.79h75.05v74.84h-75.05v-74.84ZM118.27,271.8h75.05v75.05h-75.05v-75.05ZM118.27,353.02h75.05v75.05h-75.05v-75.05ZM118.27,434.24h75.05v75.05h-75.05v-75.05ZM37.06,190.79h75.05v74.84H37.06v-74.84ZM37.06,271.8h75.05v75.05H37.06v-75.05ZM37.06,353.02h75.05v75.05H37.06v-75.05ZM37.06,434.24h75.05v75.05H37.06v-75.05Z"/>
      <rect class="cls-1" x="110.97" width="8.48" height="512.18"/>
    </g>
  </g>
</svg>