<?xml version="1.0" encoding="utf-8"?>
<!-- Generator: Adobe Illustrator 28.4.1, SVG Export Plug-In . SVG Version: 6.00 Build 0)  -->
<svg version="1.0" id="katman_2_00000033340560341085896780000012290927036659913660_"
	 xmlns="http://www.w3.org/2000/svg" xmlns:xlink="http://www.w3.org/1999/xlink" x="0px" y="0px" viewBox="0 0 512 512"
	 style="enable-background:new 0 0 512 512;" xml:space="preserve">
<style type="text/css">
	.st0{fill:#FFFFFF;}
	.st1{fill:#00B1D9;}
	.st2{fill:#E83D43;}
	.st3{opacity:0.5;fill:url(#SVGID_1_);}
	.st4{fill:#F4F4F4;}
	.st5{fill:url(#SVGID_00000026856285790103540820000007592141249758807740_);}
</style>
<rect x="48.5" y="48.9" class="st0" width="416.2" height="416.2"/>
<g>
	<path class="st1" d="M45.7,149.6v1.3c-0.2,100.4-0.2,201.9,0,301.7v11.7h420.8V149.6H45.7z M461.7,181.6h-29.6v-29.5h29.6V181.6z
		 M48.1,376.1h29.6v29.6H48.1V376.1z M48.1,344.1h29.6v29.6H48.1V344.1z M48.1,312.1h29.6v29.6H48.1V312.1z M48.1,280.1h29.6v29.6
		H48.1V280.1z M48.1,248.1h29.6v29.6H48.1V248.1z M48.1,216.1h29.6v29.6H48.1V216.1z M48.1,184h29.6v29.6H48.1V184z M429.7,181.6
		h-29.6v-29.5h29.6V181.6z M301.7,277.6h-29.6v-29.6h29.6V277.6z M304.1,248.1h29.6v29.6h-29.6V248.1z M269.7,277.6h-29.6v-29.6
		h29.6V277.6z M237.7,277.6h-29.6v-29.6h29.6V277.6z M205.7,277.6h-29.6v-29.6h29.6V277.6z M173.7,277.6h-29.6v-29.6h29.6V277.6z
		 M173.7,280.1v29.6h-29.6v-29.6H173.7z M176.1,280.1h29.6v29.6h-29.6V280.1z M208.1,280.1h29.6v29.6h-29.6V280.1z M240.1,280.1
		h29.6v29.6h-29.6L240.1,280.1L240.1,280.1z M272.1,280.1h29.6v29.6h-29.6V280.1z M304.1,280.1h29.6v29.6h-29.6V280.1z M336.1,280.1
		h29.6v29.6h-29.6V280.1z M336.1,277.6v-29.6h29.6v29.6H336.1z M336.1,245.6v-29.6h29.6v29.6H336.1z M333.7,245.6h-29.6v-29.6h29.6
		V245.6z M301.7,245.6h-29.6v-29.6h29.6V245.6z M269.7,245.6h-29.6v-29.6h29.6V245.6z M237.7,245.6h-29.6v-29.6h29.6V245.6z
		 M205.7,245.6h-29.6v-29.6h29.6V245.6z M173.7,245.6h-29.6v-29.6h29.6V245.6z M141.7,245.6h-29.6v-29.6h29.6
		C141.7,216.1,141.7,245.6,141.7,245.6z M141.7,248.1v29.6h-29.6v-29.6C112.1,248.1,141.7,248.1,141.7,248.1z M141.7,280.1v29.6
		h-29.6v-29.6C112.1,280.1,141.7,280.1,141.7,280.1z M141.7,312.1v29.6h-29.6v-29.6C112.1,312.1,141.7,312.1,141.7,312.1z
		 M144.1,312.1h29.6v29.6h-29.6C144.1,341.7,144.1,312.1,144.1,312.1z M176.1,312.1h29.6v29.6h-29.6V312.1z M208.1,312.1h29.6v29.6
		h-29.6V312.1z M240.1,312.1h29.6v29.6h-29.6L240.1,312.1L240.1,312.1z M272.1,312.1h29.6v29.6h-29.6V312.1z M304.1,312.1h29.6v29.6
		h-29.6V312.1z M336.1,312.1h29.6v29.6h-29.6V312.1z M368.1,312.1h29.6v29.6h-29.6V312.1z M368.1,309.6v-29.6h29.6v29.6H368.1z
		 M368.1,277.6v-29.6h29.6v29.6H368.1z M368.1,245.6v-29.6h29.6v29.6H368.1z M368.1,213.6V184h29.6v29.6H368.1z M365.7,213.6h-29.6
		V184h29.6V213.6z M333.7,213.6h-29.6V184h29.6V213.6z M301.7,213.6h-29.6V184h29.6V213.6z M269.7,213.6h-29.6V184h29.6V213.6z
		 M237.7,213.6h-29.6V184h29.6V213.6z M205.7,213.6h-29.6V184h29.6V213.6z M173.7,213.6h-29.6V184h29.6V213.6z M141.7,213.6h-29.6
		V184h29.6C141.7,184,141.7,213.6,141.7,213.6z M109.6,213.6H80.1V184h29.6V213.6z M109.6,216.1v29.6H80.1v-29.6H109.6z
		 M109.6,248.1v29.6H80.1v-29.6H109.6z M109.6,280.1v29.6H80.1v-29.6H109.6z M109.6,312.1v29.6H80.1v-29.6H109.6z M109.6,344.1v29.6
		H80.1v-29.6H109.6z M112.1,344.1h29.6v29.6h-29.6V344.1z M144.1,344.1h29.6v29.6h-29.6C144.1,373.7,144.1,344.1,144.1,344.1z
		 M176.1,344.1h29.6v29.6h-29.6V344.1z M208.1,344.1h29.6v29.6h-29.6V344.1z M240.1,344.1h29.6v29.6h-29.6L240.1,344.1L240.1,344.1z
		 M272.1,344.1h29.6v29.6h-29.6V344.1z M304.1,344.1h29.6v29.6h-29.6V344.1z M336.1,344.1h29.6v29.6h-29.6V344.1z M368.1,344.1h29.6
		v29.6h-29.6V344.1z M400.2,344.1h29.6v29.6h-29.6V344.1z M400.2,341.7v-29.6h29.6v29.6H400.2z M400.2,309.6v-29.6h29.6v29.6H400.2z
		 M400.2,277.6v-29.6h29.6v29.6H400.2z M400.2,245.6v-29.6h29.6v29.6H400.2z M400.2,213.6V184h29.6v29.6H400.2z M397.7,181.6h-29.6
		v-29.5h29.6V181.6z M365.7,181.6h-29.6v-29.5h29.6V181.6z M333.7,181.6h-29.6v-29.5h29.6V181.6z M301.7,181.6h-29.6v-29.5h29.6
		V181.6z M269.7,181.6h-29.6v-29.5h29.6V181.6z M237.7,181.6h-29.6v-29.5h29.6V181.6z M205.7,181.6h-29.6v-29.5h29.6V181.6z
		 M173.7,181.6h-29.6v-29.5h29.6V181.6z M141.7,181.6h-29.6v-29.5h29.6C141.7,152.1,141.7,181.6,141.7,181.6z M109.6,181.6H80.1
		v-29.5h29.6V181.6z M77.6,181.6H48.1v-29.5h29.6C77.6,152.1,77.6,181.6,77.6,181.6z M80.1,376.1h29.6v29.6H80.1
		C80.1,405.7,80.1,376.1,80.1,376.1z M112.1,376.1h29.6v29.6h-29.6V376.1z M144.1,376.1h29.6v29.6h-29.6
		C144.1,405.7,144.1,376.1,144.1,376.1z M176.1,376.1h29.6v29.6h-29.6V376.1z M208.1,376.1h29.6v29.6h-29.6V376.1z M240.1,376.1
		h29.6v29.6h-29.6L240.1,376.1L240.1,376.1z M272.1,376.1h29.6v29.6h-29.6V376.1z M304.1,376.1h29.6v29.6h-29.6V376.1z M336.1,376.1
		h29.6v29.6h-29.6V376.1z M368.1,376.1h29.6v29.6h-29.6V376.1z M400.2,376.1h29.6v29.6h-29.6V376.1z M432.2,376.1h29.6v29.6h-29.6
		L432.2,376.1L432.2,376.1z M432.2,373.7v-29.6h29.6v29.6H432.2L432.2,373.7z M432.2,341.7v-29.6h29.6v29.6H432.2L432.2,341.7z
		 M432.2,309.6v-29.6h29.6v29.6H432.2L432.2,309.6z M432.2,277.6v-29.6h29.6v29.6H432.2L432.2,277.6z M432.2,245.6v-29.6h29.6v29.6
		H432.2L432.2,245.6z M432.2,213.6V184h29.6v29.6H432.2L432.2,213.6z M48.1,408.1h29.6v29.6H48.1V408.1z M80.1,408.1h29.6v29.6H80.1
		C80.1,437.7,80.1,408.1,80.1,408.1z M112.1,408.1h29.6v29.6h-29.6V408.1z M144.1,408.1h29.6v29.6h-29.6
		C144.1,437.7,144.1,408.1,144.1,408.1z M176.1,408.1h29.6v29.6h-29.6V408.1z M208.1,408.1h29.6v29.6h-29.6V408.1z M240.1,408.1
		h29.6v29.6h-29.6L240.1,408.1L240.1,408.1z M272.1,408.1h29.6v29.6h-29.6V408.1z M304.1,408.1h29.6v29.6h-29.6V408.1z M336.1,408.1
		h29.6v29.6h-29.6V408.1z M368.1,408.1h29.6v29.6h-29.6V408.1z M400.2,408.1h29.6v29.6h-29.6V408.1z M432.2,408.1h29.6v29.6h-29.6
		L432.2,408.1L432.2,408.1z M48.1,461.9v-21.8h29.6v21.8H48.1z M80.1,461.9v-21.8h29.6v21.8C109.6,461.9,80.1,461.9,80.1,461.9z
		 M112.1,461.9v-21.8h29.6v21.8H112.1z M144.1,461.9v-21.8h29.6v21.8C173.7,461.9,144.1,461.9,144.1,461.9z M176.1,461.9v-21.8h29.6
		v21.8H176.1z M208.1,461.9v-21.8h29.6v21.8H208.1z M240.1,461.9v-21.8h29.6v21.8H240.1L240.1,461.9z M272.1,461.9v-21.8h29.6v21.8
		H272.1z M304.1,461.9v-21.8h29.6v21.8H304.1z M336.1,461.9v-21.8h29.6v21.8H336.1z M368.1,461.9v-21.8h29.6v21.8H368.1z
		 M400.2,461.9v-21.8h29.6v21.8H400.2z M432.2,461.9v-21.8h29.6v21.8H432.2L432.2,461.9z"/>
	<rect x="108.5" y="46.9" class="st2" width="4.7" height="416.2"/>
</g>
<linearGradient id="SVGID_1_" gradientUnits="userSpaceOnUse" x1="268.0539" y1="266.5977" x2="422.4948" y2="425.5212" gradientTransform="matrix(1 0 0 -1 0 513.3612)">
	<stop  offset="0" style="stop-color:#C1C8CC"/>
	<stop  offset="0.1" style="stop-color:#000000;stop-opacity:0.96"/>
	<stop  offset="0.26" style="stop-color:#000000;stop-opacity:0.85"/>
	<stop  offset="0.45" style="stop-color:#000000;stop-opacity:0.67"/>
	<stop  offset="0.68" style="stop-color:#000000;stop-opacity:0.42"/>
	<stop  offset="0.92" style="stop-color:#000000;stop-opacity:0.11"/>
	<stop  offset="1" style="stop-color:#FFFFFF;stop-opacity:0"/>
</linearGradient>
<polygon class="st3" points="463.5,217.5 294.1,217.5 294.1,48.1 "/>
<polygon class="st4" points="463.5,213.4 298.2,213.4 298.2,48.1 "/>
<linearGradient id="SVGID_00000175303426132300743340000000903362885410510990_" gradientUnits="userSpaceOnUse" x1="349.2161" y1="350.106" x2="436.3622" y2="439.6433" gradientTransform="matrix(1 0 0 -1 0 513.3612)">
	<stop  offset="0" style="stop-color:#C1C8CC"/>
	<stop  offset="1" style="stop-color:#FFFFFF;stop-opacity:0"/>
</linearGradient>
<polygon style="fill:url(#SVGID_00000175303426132300743340000000903362885410510990_);" points="298.2,48.1 463.5,48.1 
	463.5,213.4 "/>
</svg>
