<?xml version="1.0" encoding="UTF-8" standalone="no"?>
<svg
   id="katman_2"
   data-name="katman 2"
   viewBox="0 0 504.65 504.65"
   version="1.1"
   sodipodi:docname="pen-settings.svg"
   inkscape:version="1.2.2 (b0a8486541, 2022-12-01)"
   xmlns:inkscape="http://www.inkscape.org/namespaces/inkscape"
   xmlns:sodipodi="http://sodipodi.sourceforge.net/DTD/sodipodi-0.dtd"
   xmlns="http://www.w3.org/2000/svg"
   xmlns:svg="http://www.w3.org/2000/svg">
  <sodipodi:namedview
     id="namedview42"
     pagecolor="#ffffff"
     bordercolor="#000000"
     borderopacity="0.25"
     inkscape:showpageshadow="2"
     inkscape:pageopacity="0.0"
     inkscape:pagecheckerboard="0"
     inkscape:deskcolor="#d1d1d1"
     showgrid="false"
     inkscape:zoom="1.7536907"
     inkscape:cx="252.325"
     inkscape:cy="252.61011"
     inkscape:window-width="1920"
     inkscape:window-height="1057"
     inkscape:window-x="0"
     inkscape:window-y="0"
     inkscape:window-maximized="1"
     inkscape:current-layer="katman_2" />
  <defs
     id="defs4">
    <style
       id="style2">
      .cls-1 {
        fill: #1eb8d3;
      }

      .cls-1, .cls-2, .cls-3, .cls-4 {
        stroke-width: 0px;
      }

      .cls-2 {
        fill: #1d1d1b;
      }

      .cls-3 {
        fill: #e6eaef;
      }

      .cls-4 {
        fill: #343434;
      }
    </style>
  </defs>
  <g
     id="katman_1"
     data-name="katman 1">
    <g
       id="g38">
      <g
         id="g10">
        <rect
           class="cls-3"
           x="3"
           y="3"
           width="498.64999"
           height="498.64999"
           rx="36.900002"
           ry="36.900002"
           id="rect6" />
        <path
           class="cls-2"
           d="M 464.75,504.65 H 39.9 C 17.9,504.65 0,486.75 0,464.75 V 39.9 C 0,17.9 17.9,0 39.9,0 h 424.86 c 22,0 39.9,17.9 39.9,39.9 v 424.86 c 0,22 -17.9,39.9 -39.9,39.9 z M 39.9,6 C 21.21,6 6,21.21 6,39.9 v 424.86 c 0,18.69 15.21,33.9 33.9,33.9 h 424.86 c 18.69,0 33.9,-15.21 33.9,-33.9 V 39.9 C 498.66,21.21 483.45,6 464.76,6 Z"
           id="path8" />
      </g>
      <g
         id="g36">
        <path
           class="cls-4"
           d="M 429.33,160.59 H 75.32 c -6.39,0 -11.6,-5.2 -11.6,-11.6 0,-6.4 5.2,-11.6 11.6,-11.6 h 354 c 6.39,0 11.6,5.2 11.6,11.6 0,6.4 -5.2,11.6 -11.6,11.6 z m 0,-0.2 z"
           id="path12" />
        <path
           class="cls-4"
           d="M 429.33,263.7 H 75.32 c -6.39,0 -11.6,-5.2 -11.6,-11.6 0,-6.4 5.2,-11.6 11.6,-11.6 h 354 c 6.39,0 11.6,5.2 11.6,11.6 0,6.4 -5.2,11.6 -11.6,11.6 z m 0,-0.2 z"
           id="path14" />
        <path
           class="cls-4"
           d="M 429.33,366.81 H 75.32 c -6.39,0 -11.6,-5.2 -11.6,-11.6 0,-6.4 5.2,-11.59 11.6,-11.59 h 354 c 6.39,0 11.6,5.2 11.6,11.59 0,6.39 -5.2,11.6 -11.6,11.6 z m 0,-0.19 z"
           id="path16" />
        <g
           id="g22">
          <rect
             class="cls-1"
             x="216.94"
             y="119.84"
             width="59"
             height="59"
             rx="10"
             ry="10"
             id="rect18" />
          <path
             class="cls-2"
             d="m 265.94,180.34 h -39 c -6.34,0 -11.5,-5.16 -11.5,-11.5 v -39 c 0,-6.34 5.16,-11.5 11.5,-11.5 h 39 c 6.34,0 11.5,5.16 11.5,11.5 v 39 c 0,6.34 -5.16,11.5 -11.5,11.5 z m -39,-59 c -4.69,0 -8.5,3.81 -8.5,8.5 v 39 c 0,4.69 3.81,8.5 8.5,8.5 h 39 c 4.69,0 8.5,-3.81 8.5,-8.5 v -39 c 0,-4.69 -3.81,-8.5 -8.5,-8.5 z"
             id="path20" />
        </g>
        <g
           id="g28">
          <rect
             class="cls-1"
             x="310.25"
             y="222.60001"
             width="59"
             height="59"
             rx="10"
             ry="10"
             id="rect24" />
          <path
             class="cls-2"
             d="m 359.25,283.1 h -39 c -6.34,0 -11.5,-5.16 -11.5,-11.5 v -39 c 0,-6.34 5.16,-11.5 11.5,-11.5 h 39 c 6.34,0 11.5,5.16 11.5,11.5 v 39 c 0,6.34 -5.16,11.5 -11.5,11.5 z m -39,-59 c -4.69,0 -8.5,3.81 -8.5,8.5 v 39 c 0,4.69 3.81,8.5 8.5,8.5 h 39 c 4.69,0 8.5,-3.81 8.5,-8.5 v -39 c 0,-4.69 -3.81,-8.5 -8.5,-8.5 z"
             id="path26" />
        </g>
        <g
           id="g34">
          <rect
             class="cls-1"
             x="137.71001"
             y="325.81"
             width="59"
             height="59"
             rx="10"
             ry="10"
             id="rect30" />
          <path
             class="cls-2"
             d="m 186.71,386.31 h -39 c -6.34,0 -11.5,-5.16 -11.5,-11.5 v -39 c 0,-6.34 5.16,-11.5 11.5,-11.5 h 39 c 6.34,0 11.5,5.16 11.5,11.5 v 39 c 0,6.34 -5.16,11.5 -11.5,11.5 z m -39,-59 c -4.69,0 -8.5,3.81 -8.5,8.5 v 39 c 0,4.69 3.81,8.5 8.5,8.5 h 39 c 4.69,0 8.5,-3.81 8.5,-8.5 v -39 c 0,-4.69 -3.81,-8.5 -8.5,-8.5 z"
             id="path32" />
        </g>
      </g>
    </g>
  </g>
</svg>
