<?xml version="1.0" encoding="utf-8"?>
<!-- Generator: Adobe Illustrator 28.4.1, SVG Export Plug-In . SVG Version: 6.00 Build 0)  -->
<svg version="1.0" id="katman_2_00000165198471761634656570000010293819866886311557_"
	 xmlns="http://www.w3.org/2000/svg" xmlns:xlink="http://www.w3.org/1999/xlink" x="0px" y="0px" viewBox="0 0 512 512"
	 style="enable-background:new 0 0 512 512;" xml:space="preserve">
<style type="text/css">
	.st0{fill:#E6EAEF;}
	.st1{fill:#1D1D1B;}
	.st2{fill:#343434;}
	.st3{fill:#1EB8D3;}
</style>
<path class="st0" d="M78.8,48h354.4c17,0,30.8,13.8,30.8,30.8v354.4c0,17-13.8,30.8-30.8,30.8H78.8c-17,0-30.8-13.8-30.8-30.8V78.8
	C48,61.8,61.8,48,78.8,48z"/>
<path class="st1" d="M433.2,466.5H78.8c-18.4,0-33.3-14.9-33.3-33.3V78.8c0-18.4,14.9-33.3,33.3-33.3h354.4
	c18.4,0,33.3,14.9,33.3,33.3v354.4C466.5,451.6,451.6,466.5,433.2,466.5L433.2,466.5z M78.8,50.5c-15.6,0-28.3,12.7-28.3,28.3v354.4
	c0,15.6,12.7,28.3,28.3,28.3h354.4c15.6,0,28.3-12.7,28.3-28.3V78.8c0-15.6-12.7-28.3-28.3-28.3C433.2,50.5,78.8,50.5,78.8,50.5z"/>
<path class="st2" d="M403.7,179.5H108.3c-5.3,0-9.7-4.3-9.7-9.7s4.3-9.7,9.7-9.7h295.3c5.3,0,9.7,4.3,9.7,9.7S409,179.5,403.7,179.5
	L403.7,179.5z M403.7,179.3L403.7,179.3L403.7,179.3z"/>
<path class="st2" d="M403.7,265.5H108.3c-5.3,0-9.7-4.3-9.7-9.7c0-5.4,4.3-9.7,9.7-9.7h295.3c5.3,0,9.7,4.3,9.7,9.7
	C413.3,261.2,409,265.5,403.7,265.5L403.7,265.5z M403.7,265.3L403.7,265.3L403.7,265.3z"/>
<path class="st2" d="M403.7,351.5H108.3c-5.3,0-9.7-4.3-9.7-9.7c0-5.3,4.3-9.7,9.7-9.7h295.3c5.3,0,9.7,4.3,9.7,9.7
	S409,351.5,403.7,351.5L403.7,351.5z M403.7,351.3L403.7,351.3L403.7,351.3z"/>
<path class="st3" d="M234.8,145.5h32.5c4.6,0,8.3,3.7,8.3,8.3v32.5c0,4.6-3.7,8.3-8.3,8.3h-32.5c-4.6,0-8.3-3.7-8.3-8.3v-32.5
	C226.5,149.2,230.2,145.5,234.8,145.5z"/>
<path class="st1" d="M267.4,195.9h-32.5c-5.3,0-9.6-4.3-9.6-9.6v-32.5c0-5.3,4.3-9.6,9.6-9.6h32.5c5.3,0,9.6,4.3,9.6,9.6v32.5
	C277,191.6,272.6,195.9,267.4,195.9z M234.8,146.7c-3.9,0-7.1,3.2-7.1,7.1v32.5c0,3.9,3.2,7.1,7.1,7.1h32.5c3.9,0,7.1-3.2,7.1-7.1
	v-32.5c0-3.9-3.2-7.1-7.1-7.1H234.8z"/>
<path class="st3" d="M312.7,231.2h32.5c4.6,0,8.3,3.7,8.3,8.3V272c0,4.6-3.7,8.3-8.3,8.3h-32.5c-4.6,0-8.3-3.7-8.3-8.3v-32.5
	C304.3,234.9,308.1,231.2,312.7,231.2z"/>
<path class="st1" d="M345.2,281.7h-32.5c-5.3,0-9.6-4.3-9.6-9.6v-32.5c0-5.3,4.3-9.6,9.6-9.6h32.5c5.3,0,9.6,4.3,9.6,9.6v32.5
	C354.8,277.4,350.5,281.7,345.2,281.7z M312.7,232.5c-3.9,0-7.1,3.2-7.1,7.1v32.5c0,3.9,3.2,7.1,7.1,7.1h32.5c3.9,0,7.1-3.2,7.1-7.1
	v-32.5c0-3.9-3.2-7.1-7.1-7.1H312.7z"/>
<path class="st3" d="M168.7,317.3h32.5c4.6,0,8.3,3.7,8.3,8.3v32.5c0,4.6-3.7,8.3-8.3,8.3h-32.5c-4.6,0-8.3-3.7-8.3-8.3v-32.5
	C160.4,321,164.1,317.3,168.7,317.3z"/>
<path class="st1" d="M201.3,367.8h-32.5c-5.3,0-9.6-4.3-9.6-9.6v-32.5c0-5.3,4.3-9.6,9.6-9.6h32.5c5.3,0,9.6,4.3,9.6,9.6v32.5
	C210.9,363.5,206.6,367.8,201.3,367.8z M168.7,318.6c-3.9,0-7.1,3.2-7.1,7.1v32.5c0,3.9,3.2,7.1,7.1,7.1h32.5c3.9,0,7.1-3.2,7.1-7.1
	v-32.5c0-3.9-3.2-7.1-7.1-7.1H168.7z"/>
</svg>
