<?xml version="1.0" encoding="UTF-8"?>
<svg id="katman_2" data-name="katman 2" xmlns="http://www.w3.org/2000/svg" viewBox="0 0 504.65 504.65">
  <defs>
    <style>
      .cls-1 {
        fill: #1eb8d3;
      }

      .cls-1, .cls-2, .cls-3, .cls-4 {
        stroke-width: 0px;
      }

      .cls-2 {
        fill: #1d1d1b;
      }

      .cls-3 {
        fill: #e6eaef;
      }

      .cls-4 {
        fill: #343434;
      }
    </style>
  </defs>
  <g id="katman_1" data-name="katman 1">
    <g>
      <g>
        <rect class="cls-3" x="3" y="3" width="498.65" height="498.65" rx="36.9" ry="36.9"/>
        <path class="cls-2" d="M464.75,504.65H39.9c-22,0-39.9-17.9-39.9-39.9V39.9C0,17.9,17.9,0,39.9,0h424.86c22,0,39.9,17.9,39.9,39.9v424.86c0,22-17.9,39.9-39.9,39.9ZM39.9,6C21.21,6,6,21.21,6,39.9v424.86c0,18.69,15.21,33.9,33.9,33.9h424.86c18.69,0,33.9-15.21,33.9-33.9V39.9c0-18.69-15.21-33.9-33.9-33.9H39.9Z"/>
      </g>
      <g>
        <path class="cls-4" d="M429.33,160.59H75.32c-6.39,0-11.6-5.2-11.6-11.6s5.2-11.6,11.6-11.6h354c6.39,0,11.6,5.2,11.6,11.6s-5.2,11.6-11.6,11.6ZM429.33,160.39h0,0Z"/>
        <path class="cls-4" d="M429.33,263.7H75.32c-6.39,0-11.6-5.2-11.6-11.6s5.2-11.6,11.6-11.6h354c6.39,0,11.6,5.2,11.6,11.6s-5.2,11.6-11.6,11.6ZM429.33,263.5h0,0Z"/>
        <path class="cls-4" d="M429.33,366.81H75.32c-6.39,0-11.6-5.2-11.6-11.6s5.2-11.59,11.6-11.59h354c6.39,0,11.6,5.2,11.6,11.59s-5.2,11.6-11.6,11.6ZM429.33,366.62h0,0Z"/>
        <g>
          <rect class="cls-1" x="216.94" y="119.84" width="59" height="59" rx="10" ry="10"/>
          <path class="cls-2" d="M265.94,180.34h-39c-6.34,0-11.5-5.16-11.5-11.5v-39c0-6.34,5.16-11.5,11.5-11.5h39c6.34,0,11.5,5.16,11.5,11.5v39c0,6.34-5.16,11.5-11.5,11.5ZM226.94,121.34c-4.69,0-8.5,3.81-8.5,8.5v39c0,4.69,3.81,8.5,8.5,8.5h39c4.69,0,8.5-3.81,8.5-8.5v-39c0-4.69-3.81-8.5-8.5-8.5h-39Z"/>
        </g>
        <g>
          <rect class="cls-1" x="310.25" y="222.6" width="59" height="59" rx="10" ry="10"/>
          <path class="cls-2" d="M359.25,283.1h-39c-6.34,0-11.5-5.16-11.5-11.5v-39c0-6.34,5.16-11.5,11.5-11.5h39c6.34,0,11.5,5.16,11.5,11.5v39c0,6.34-5.16,11.5-11.5,11.5ZM320.25,224.1c-4.69,0-8.5,3.81-8.5,8.5v39c0,4.69,3.81,8.5,8.5,8.5h39c4.69,0,8.5-3.81,8.5-8.5v-39c0-4.69-3.81-8.5-8.5-8.5h-39Z"/>
        </g>
        <g>
          <rect class="cls-1" x="137.71" y="325.81" width="59" height="59" rx="10" ry="10"/>
          <path class="cls-2" d="M186.71,386.31h-39c-6.34,0-11.5-5.16-11.5-11.5v-39c0-6.34,5.16-11.5,11.5-11.5h39c6.34,0,11.5,5.16,11.5,11.5v39c0,6.34-5.16,11.5-11.5,11.5ZM147.71,327.31c-4.69,0-8.5,3.81-8.5,8.5v39c0,4.69,3.81,8.5,8.5,8.5h39c4.69,0,8.5-3.81,8.5-8.5v-39c0-4.69-3.81-8.5-8.5-8.5h-39Z"/>
        </g>
      </g>
    </g>
  </g>
</svg>