<?xml version="1.0" encoding="UTF-8"?><svg id="katman_2" xmlns="http://www.w3.org/2000/svg" viewBox="0 0 367.72 478.63"><defs><style>.cls-1{fill:#f7a833;}.cls-2{fill:#f2908b;}.cls-3{fill:#e88916;}.cls-4{fill:#ee9828;}.cls-5{fill:#d3af94;}.cls-6{fill:#e0bea2;}.cls-7{fill:#c8a184;}.cls-8{fill:#1a2e34;}.cls-9{fill:#2a4551;}</style></defs><g id="katman_1"><g><polygon class="cls-1" points="0 478.63 5.92 326.39 205.5 42.89 343.75 139.72 144.71 424.3 0 478.63"/><polygon class="cls-9" points="309.17 189.16 343.75 139.72 205.5 42.89 170.77 92.22 309.17 189.16"/><path class="cls-2" d="M344.29,139.86l13.73-19.89c17.11-24.79,11.01-58.75-13.67-76.04l-48.56-34.01c-24.88-17.42-59.18-11.3-76.49,13.66l-13.42,19.34,138.4,96.94Z"/><path class="cls-7" d="M0,478.63l5.92-152.24s15.21-3.41,25.84,3.9c17.6,12.1,21.01,29.15,21.01,29.15,0,0,15.14-4.14,29.87,6.55,17.16,12.46,15.87,25.71,15.87,25.71,0,0,17.02-3.52,32.15,9.19,14.3,12.01,14.05,23.4,14.05,23.4L0,478.63Z"/><path class="cls-5" d="M0,478.63l52.77-119.19s15.14-4.14,29.87,6.55c17.16,12.46,15.87,25.71,15.87,25.71L0,478.63Z"/><path class="cls-6" d="M0,478.63l5.92-152.24s15.21-3.41,25.84,3.9c17.6,12.1,21.01,29.15,21.01,29.15L0,478.63Z"/><polygon class="cls-8" points="0 478.63 2.49 414.61 60.85 455.78 0 478.63"/><path class="cls-4" d="M217.08,124.66L53.04,359.38c2.06-.48,16-3.25,29.6,6.62,17.16,12.46,15.87,25.71,15.87,25.71,0,0,.03,0,.07-.01l165.35-234.22-46.85-32.81Z"/><path class="cls-3" d="M309.17,189.16l-45.24-31.69L98.58,391.69c1.17-.22,17.49-3.04,32.07,9.2,12.67,10.64,13.98,20.75,14.05,23.4l164.46-235.14Z"/></g></g></svg>