<?xml version="1.0" encoding="UTF-8"?>
<svg id="katman_2" data-name="katman 2" xmlns="http://www.w3.org/2000/svg" viewBox="0 0 434.99 421.82">
  <defs>
    <style>
      .cls-1 {
        fill: #d3af94;
      }

      .cls-1, .cls-2, .cls-3, .cls-4, .cls-5, .cls-6, .cls-7, .cls-8, .cls-9 {
        stroke-width: 0px;
      }

      .cls-2 {
        fill: #f7a833;
      }

      .cls-3 {
        fill: #ee9828;
      }

      .cls-4 {
        fill: #1a2e34;
      }

      .cls-5 {
        fill: #e88916;
      }

      .cls-6 {
        fill: #c8a184;
      }

      .cls-7 {
        fill: #e0bea2;
      }

      .cls-8 {
        fill: #f2908b;
      }

      .cls-9 {
        fill: #2a4551;
      }
    </style>
  </defs>
  <g id="katman_1" data-name="katman 1">
    <g>
      <polygon class="cls-2" points="0 421.82 34.24 273.36 283.24 32.11 400.98 153.05 152.31 395.46 0 421.82"/>
      <polygon class="cls-9" points="357.78 195.16 400.98 153.05 283.24 32.11 239.91 74.09 357.78 195.16"/>
      <path class="cls-8" d="M401.49,153.28l17.2-16.98c21.44-21.16,21.79-55.66.77-77.25l-41.36-42.48c-21.19-21.76-56.03-22.15-77.69-.86l-16.79,16.5,117.87,121.07Z"/>
      <path class="cls-6" d="M0,421.82l34.24-148.46s15.58-.51,24.66,8.66c15.03,15.18,15.2,32.56,15.2,32.56,0,0,15.65-1.24,28.12,12.02,14.53,15.44,10.79,28.22,10.79,28.22,0,0,17.37-.28,29.87,15.03,11.81,14.47,9.44,25.61,9.44,25.61L0,421.82Z"/>
      <path class="cls-1" d="M0,421.82l74.1-107.24s15.65-1.24,28.12,12.02c14.53,15.44,10.79,28.22,10.79,28.22L0,421.82Z"/>
      <path class="cls-7" d="M0,421.82l34.24-148.46s15.58-.51,24.66,8.66c15.03,15.18,15.2,32.56,15.2,32.56L0,421.82Z"/>
      <polygon class="cls-4" points="0 421.82 14.4 359.39 64.05 410.74 0 421.82"/>
      <path class="cls-3" d="M279.35,114.61l-204.98,199.96c2.11-.09,16.33-.21,27.84,12.03,14.53,15.44,10.79,28.22,10.79,28.22,0,0,.03,0,.07,0l206.17-199.23-39.9-40.98Z"/>
      <path class="cls-5" d="M357.78,195.16l-38.53-39.58-206.17,199.23c1.19,0,17.75.28,29.79,15.03,10.46,12.82,9.85,23,9.44,25.61l205.47-200.3Z"/>
    </g>
  </g>
</svg>