<?xml version="1.0" encoding="UTF-8" standalone="no"?>
<svg
   id="katman_2"
   data-name="katman 2"
   viewBox="0 0 434.99 421.82"
   version="1.1"
   sodipodi:docname="pen.svg"
   inkscape:version="1.2.2 (b0a8486541, 2022-12-01)"
   xmlns:inkscape="http://www.inkscape.org/namespaces/inkscape"
   xmlns:sodipodi="http://sodipodi.sourceforge.net/DTD/sodipodi-0.dtd"
   xmlns="http://www.w3.org/2000/svg"
   xmlns:svg="http://www.w3.org/2000/svg">
  <sodipodi:namedview
     id="namedview28"
     pagecolor="#ffffff"
     bordercolor="#000000"
     borderopacity="0.25"
     inkscape:showpageshadow="2"
     inkscape:pageopacity="0.0"
     inkscape:pagecheckerboard="0"
     inkscape:deskcolor="#d1d1d1"
     showgrid="false"
     inkscape:zoom="2.0980513"
     inkscape:cx="217.58286"
     inkscape:cy="210.67169"
     inkscape:window-width="1920"
     inkscape:window-height="1057"
     inkscape:window-x="0"
     inkscape:window-y="0"
     inkscape:window-maximized="1"
     inkscape:current-layer="katman_2" />
  <defs
     id="defs4">
    <style
       id="style2">
      .cls-1 {
        fill: #d3af94;
      }

      .cls-1, .cls-2, .cls-3, .cls-4, .cls-5, .cls-6, .cls-7, .cls-8, .cls-9 {
        stroke-width: 0px;
      }

      .cls-2 {
        fill: #f7a833;
      }

      .cls-3 {
        fill: #ee9828;
      }

      .cls-4 {
        fill: #1a2e34;
      }

      .cls-5 {
        fill: #e88916;
      }

      .cls-6 {
        fill: #c8a184;
      }

      .cls-7 {
        fill: #e0bea2;
      }

      .cls-8 {
        fill: #f2908b;
      }

      .cls-9 {
        fill: #2a4551;
      }
    </style>
  </defs>
  <g
     id="katman_1"
     data-name="katman 1">
    <g
       id="g24">
      <polygon
         class="cls-2"
         points="283.24,32.11 400.98,153.05 152.31,395.46 0,421.82 34.24,273.36 "
         id="polygon6" />
      <polygon
         class="cls-9"
         points="283.24,32.11 239.91,74.09 357.78,195.16 400.98,153.05 "
         id="polygon8" />
      <path
         class="cls-8"
         d="m 401.49,153.28 17.2,-16.98 c 21.44,-21.16 21.79,-55.66 0.77,-77.25 L 378.1,16.57 C 356.91,-5.19 322.07,-5.58 300.41,15.71 l -16.79,16.5 z"
         id="path10" />
      <path
         class="cls-6"
         d="M 0,421.82 34.24,273.36 c 0,0 15.58,-0.51 24.66,8.66 15.03,15.18 15.2,32.56 15.2,32.56 0,0 15.65,-1.24 28.12,12.02 14.53,15.44 10.79,28.22 10.79,28.22 0,0 17.37,-0.28 29.87,15.03 11.81,14.47 9.44,25.61 9.44,25.61 z"
         id="path12" />
      <path
         class="cls-1"
         d="M 0,421.82 74.1,314.58 c 0,0 15.65,-1.24 28.12,12.02 14.53,15.44 10.79,28.22 10.79,28.22 z"
         id="path14" />
      <path
         class="cls-7"
         d="M 0,421.82 34.24,273.36 c 0,0 15.58,-0.51 24.66,8.66 15.03,15.18 15.2,32.56 15.2,32.56 z"
         id="path16" />
      <polygon
         class="cls-4"
         points="64.05,410.74 0,421.82 14.4,359.39 "
         id="polygon18" />
      <path
         class="cls-3"
         d="M 279.35,114.61 74.37,314.57 c 2.11,-0.09 16.33,-0.21 27.84,12.03 14.53,15.44 10.79,28.22 10.79,28.22 0,0 0.03,0 0.07,0 l 206.17,-199.23 -39.9,-40.98 z"
         id="path20" />
      <path
         class="cls-5"
         d="M 357.78,195.16 319.25,155.58 113.08,354.81 c 1.19,0 17.75,0.28 29.79,15.03 10.46,12.82 9.85,23 9.44,25.61 l 205.47,-200.3 z"
         id="path22" />
    </g>
  </g>
</svg>
