<?xml version="1.0" encoding="utf-8"?>
<!-- Generator: Adobe Illustrator 28.4.1, SVG Export Plug-In . SVG Version: 6.00 Build 0)  -->
<svg version="1.0" id="katman_2_00000015328674555090814690000013762126697356173469_"
	 xmlns="http://www.w3.org/2000/svg" xmlns:xlink="http://www.w3.org/1999/xlink" x="0px" y="0px" viewBox="0 0 512 512"
	 style="enable-background:new 0 0 512 512;" xml:space="preserve">
<style type="text/css">
	.st0{fill:#DDEBF0;}
	.st1{fill:#1D70B7;}
	.st2{fill:#E84931;}
	.st3{fill:#1D1D1B;}
	.st4{fill:#2B5260;}
</style>
<path class="st0" d="M466.3,346c-0.3-4.6-2.5-8-7.1-9.5c-1.2-0.4-2.3-0.5-3.4-0.5V176c0,0,0,0,0,0c6,0.2,10.5-4.2,10.5-11.2
	c0.1-31.2,0.3-62.5-0.1-93.7c-0.2-15.5-11.1-25.3-26.6-25.3c-15,0-30,0-45,0c-16.1,0-32.2,0-48.3,0c-5.7,0-9.7,3.7-10.2,8.9
	c-0.1,0.6-0.1,1.1,0,1.7H176.1c0-0.2,0-0.4,0-0.6c0-6.2-4.6-10-12.1-10c-30.8,0-61.5,0-92.3,0c-15.1,0-25.8,10.8-25.9,26
	c0,15.2,0,30.3,0,45.5c0,15.8,0,31.6,0,47.3c0,6.7,4,11.2,9.8,11.4c0.3,0,0.6,0,0.8,0V336c-2.9-0.2-5.9,0.9-8,3.5
	c-1.7,2.2-2.6,5.7-2.6,8.6c-0.2,30-0.1,60-0.1,90c0,18.1,10,28.1,28,28.2c14.7,0.1,29.4,0,44,0c14.5,0,29.1,0,43.6,0
	c1.7,0,3.4,0,5.1-0.2c5.9-0.7,9.7-5,9.4-10.4h160c0,1,0.1,2.1,0.4,3.2c1.2,4.8,5.1,7.4,11.6,7.4c15.5,0.1,30.9,0,46.4,0
	c14.5,0,29.1,0.1,43.6,0c3.3,0,6.6-0.2,9.7-1c11.7-3.1,18.6-12.9,18.6-26.5c0.1-27,0-54,0-81.1C466.4,353.8,466.5,349.9,466.3,346z"
	/>
<g>
	<path class="st1" d="M256.1,356c-34.4,0-68.7,0-103.1,0c-16.6,0-27-10.2-27-26.7c-0.1-35.6,0-71.2,0-106.8
		c0-16.5,10.4-26.7,27-26.7c8.7,0,17.5-0.1,26.2,0.1c3.4,0.1,5.5-1.2,7.3-3.9c5.1-7.9,10.4-15.5,15.5-23.4
		c5.6-8.8,13.7-12.9,24-12.9c20,0,40,0,60,0c10.3,0,18.3,4,24,12.8c5,7.8,10.3,15.3,15.2,23c2,3.1,4.3,4.5,8.1,4.4
		c8.6-0.2,17.2-0.1,25.8-0.1c16.7,0,27.2,10.3,27.2,27.2c0.1,32.5,0,65,0,97.5c0,4.5,0.1,9.1-0.4,13.6c-1.5,13-11.8,22-24.8,22.1
		C326.1,356.1,291.1,356,256.1,356z M206.3,266.1c0.2,27.9,22.6,49.9,50.7,49.7c26.8-0.2,49.3-23,49.1-50
		c-0.1-27.6-22.7-49.8-50.4-49.6C228.2,216.3,206.1,238.6,206.3,266.1z"/>
</g>
<path class="st2" d="M45.5,117.2c0-15.2,0-30.3,0-45.5c0-15.2,10.7-26,25.9-26c30.8,0,61.5,0,92.3,0c7.4,0,12,3.9,12.1,10
	c0,6.2-4.5,10.2-12,10.3c-11.2,0.1-22.5,0-33.7,0c-18.1,0-36.2,0-54.4,0c-9.8,0-9.8,0-9.8,9.5c0,28.6,0,57.2,0,85.8
	c0,1.2,0,2.5,0,3.7c-0.4,6.6-4.7,11-10.5,10.8c-5.8-0.2-9.8-4.7-9.8-11.4C45.5,148.7,45.5,133,45.5,117.2z"/>
<path class="st3" d="M55.7,177.4c-0.1,0-0.2,0-0.4,0c-6.7-0.2-11.3-5.4-11.3-12.9c0-11.2,0-22.5,0-33.7l0-13.7l0-13.7
	c0-10.6,0-21.2,0-31.8c0-16.2,11.3-27.5,27.4-27.5c26.4,0,53.3,0,79.3,0l13,0c8.2,0,13.5,4.5,13.6,11.5c0,7.1-5.3,11.7-13.5,11.8
	c-7.9,0.1-16,0.1-23.8,0c-3.3,0-6.6,0-10,0l-54.4,0c-4,0-6.7,0-7.5,0.8c-0.8,0.8-0.8,3.3-0.8,7.3l0,85.8c0,0.3,0,0.7,0,1
	c0,0.9,0,1.8,0,2.8C66.9,172.4,62.1,177.4,55.7,177.4z M112.4,47.2c-13.7,0-27.4,0-41,0c-14.3,0-24.3,10.1-24.4,24.5
	c0,10.6,0,21.2,0,31.8l0,13.7l0,13.7c0,11.2,0,22.5,0,33.7c0,5.9,3.3,9.8,8.4,9.9c5,0.2,8.6-3.6,9-9.4c0.1-0.8,0-1.7,0-2.6
	c0-0.4,0-0.7,0-1.1l0-85.8c0-10.4,0.6-11,11.3-11l54.4,0c3.3,0,6.7,0,10,0c7.8,0,15.8,0,23.7,0c6.6-0.1,10.5-3.3,10.5-8.8
	c0-5.4-4-8.5-10.6-8.5l-13,0C138.1,47.2,125.3,47.2,112.4,47.2z"/>
<path class="st2" d="M394.4,45.7c15,0,30,0,45,0c15.5,0,26.4,9.8,26.6,25.3c0.4,31.2,0.2,62.5,0.1,93.7c0,7-4.5,11.5-10.5,11.2
	c-5.8-0.2-9.6-4.8-9.6-11.5c0-30.1,0-60.3,0-90.4c0-6.9-1-7.9-7.8-7.9c-29.2,0-58.4,0-87.6,0c-2,0-4.1,0-6.1-0.4
	c-5.8-1.1-9-5.4-8.5-11c0.5-5.2,4.5-8.9,10.2-8.9C362.2,45.6,378.3,45.7,394.4,45.7z"/>
<path class="st3" d="M455.9,177.4c-0.2,0-0.3,0-0.5,0c-6.6-0.3-11.1-5.5-11.1-13c0-18.5,0-37,0-55.5l0-34.9c0-6.1-0.3-6.4-6.3-6.4
	c-29.2,0-58.4,0-87.6,0c-2.3,0-4.3,0-6.3-0.4c-6.4-1.2-10.3-6.3-9.7-12.6c0.6-6.1,5.3-10.2,11.7-10.3c11.3-0.1,22.9,0,34,0
	c4.7,0,9.5,0,14.2,0l12.1,0c10.9,0,21.9,0,32.8,0c16.6,0,27.9,10.8,28.1,26.8c0.3,27.8,0.2,56.1,0.1,83.4l0,10.3
	c0,3.9-1.4,7.4-3.8,9.7C461.7,176.4,458.9,177.4,455.9,177.4z M367.5,47.2c-7.1,0-14.3,0-21.4,0c-4.8,0-8.3,3-8.7,7.6
	c-0.5,4.9,2.3,8.5,7.2,9.4c1.9,0.4,4.1,0.4,5.8,0.4c29.2,0,58.4,0,87.6,0c7.6,0,9.3,1.7,9.3,9.4l0,34.9c0,18.5,0,37,0,55.5
	c0,6,3.1,9.8,8.2,10c2.4,0.1,4.5-0.7,6.1-2.2c1.8-1.7,2.8-4.4,2.8-7.5l0-10.3c0.1-27.3,0.2-55.6-0.1-83.4
	c-0.2-14.5-10-23.8-25.1-23.8c-10.9,0-21.9,0-32.8,0l-12.1,0c-4.7,0-9.5,0-14.2,0C376,47.2,371.8,47.2,367.5,47.2z"/>
<path class="st2" d="M117.6,466.2c-14.7,0-29.4,0.1-44,0c-18.1-0.1-28-10.2-28-28.2c0-30-0.1-60,0.1-90c0-2.9,0.9-6.4,2.6-8.6
	c4.7-6.1,14.5-4,16.8,3.4c0.7,2.2,0.8,4.6,0.8,6.9c0,29.1,0,58.1,0,87.2c0,8.4,0.8,9.2,9,9.2c30.1,0,60.3,0,90.4,0
	c5.8,0,10.1,3.9,10.4,9.2c0.4,5.6-3.4,10-9.4,10.7c-1.7,0.2-3.4,0.2-5.1,0.2C146.7,466.2,132.1,466.2,117.6,466.2z"/>
<path class="st3" d="M90.6,467.7c-5.7,0-11.4,0-17,0C54.8,467.6,44,456.8,44,438l0-17.9c0-23.6,0-48,0.1-72c0-2.8,0.8-6.7,2.9-9.5
	c2.5-3.2,6.4-4.7,10.5-4c4.3,0.8,7.7,3.8,9,7.9c0.8,2.5,0.8,5.1,0.8,7.4c0,22.1,0,44.2,0,66.2l0,20.9c0,7.7,0.3,7.7,7.5,7.7l26.9,0
	c21.2,0,42.3,0,63.5,0c6.5,0,11.5,4.5,11.9,10.6c0.5,6.4-4,11.5-10.7,12.3c-1.8,0.2-3.5,0.2-5.2,0.2c-11.8,0-23.6,0-35.3,0l-8.4,0
	c-4.5,0-9,0-13.5,0C99.6,467.7,95.1,467.7,90.6,467.7z M55.5,337.3c-2.4,0-4.6,1.1-6.1,3c-1.4,1.8-2.3,4.8-2.3,7.7
	C47,372,47,396.4,47,420l0,17.9c0,17.1,9.4,26.6,26.5,26.7c10.2,0,20.5,0,30.5,0c4.5,0,9,0,13.5,0l8.4,0c11.7,0,23.5,0,35.2,0
	c1.7,0,3.4,0,5-0.2c5.2-0.6,8.4-4.3,8.1-9.1c-0.3-4.6-4-7.8-8.9-7.8c-21.2,0-42.3,0-63.5,0l-26.9,0c-9.1,0-10.5-1.4-10.5-10.7
	l0-20.9c0-22.1,0-44.1,0-66.2c0-2.1-0.1-4.4-0.7-6.5c-0.9-3-3.5-5.2-6.6-5.8C56.5,337.4,56,337.3,55.5,337.3z"/>
<path class="st2" d="M394.1,466.2c-15.5,0-30.9,0.1-46.4,0c-6.5,0-10.4-2.6-11.6-7.4c-1.8-6.9,2.8-12.7,10.3-12.7
	c30.1,0,60.3,0,90.4,0c7.8,0,8.9-1.2,8.9-8.9c0-30,0-60,0-90c0-8.1,6-13,13.1-10.8c4.6,1.4,6.8,4.9,7.1,9.5
	c0.2,3.9,0.1,7.8,0.1,11.7c0,27,0,54,0,81.1c0,13.6-6.9,23.4-18.6,26.5c-3.1,0.8-6.5,1-9.7,1C423.2,466.3,408.7,466.2,394.1,466.2z"
	/>
<path class="st3" d="M417.4,467.7c-4.1,0-8.1,0-12.2,0c-4.1,0-8.2,0-12.3,0c-4.2,0-8.4,0-12.6,0c-10.7,0-21.7,0-32.6,0
	c-9,0-12-4.7-13-8.5c-1-3.7-0.3-7.3,1.8-10.1c2.2-2.8,5.8-4.5,9.9-4.5c20.8,0,41.7,0,62.5,0l27.9,0c6.6,0,7.4-0.3,7.4-7.4l0-26.9
	c0-21,0-42.1,0-63.1c0-4.6,1.8-8.5,4.9-10.8c2.8-2.1,6.4-2.6,10.1-1.4c5,1.6,7.8,5.3,8.1,10.8c0.2,3,0.2,6,0.1,9c0,0.9,0,1.9,0,2.8
	l0,19.3c0,20.2,0,41.2,0,61.7c0,14.3-7.4,24.7-19.7,27.9c-3.3,0.9-6.8,1-10.1,1C431,467.7,424.2,467.7,417.4,467.7z M392.9,464.7
	c0.4,0,0.8,0,1.2,0l0,0c3.7,0,7.4,0,11.1,0c10.6,0,21.6,0,32.5,0c3.1,0,6.3-0.2,9.4-0.9c11.1-2.9,17.5-12,17.5-25
	c0-20.6,0-41.5,0-61.7l0-19.3c0-1,0-1.9,0-2.9c0-2.9,0-5.9-0.1-8.8c-0.3-4.2-2.3-7-6-8.1c-2.7-0.9-5.4-0.5-7.4,1
	c-2.3,1.7-3.7,4.8-3.7,8.4c0,21,0,42.1,0,63.1l0,26.9c0,8.6-1.9,10.4-10.4,10.4l-27.9,0c-20.8,0-41.7,0-62.5,0
	c-3.2,0-5.9,1.2-7.5,3.3c-1.6,2-2,4.7-1.3,7.5c1.1,4.1,4.5,6.2,10.1,6.3c10.9,0.1,21.9,0,32.6,0
	C384.5,464.7,388.7,464.7,392.9,464.7z"/>
<g>
	<path class="st4" d="M256,235.9c16.6,0,30.2,13.3,30.3,29.8c0.1,16.4-13.5,30.2-29.9,30.3c-16.8,0.1-30.5-13.4-30.4-30.1
		C226.1,249.2,239.4,235.9,256,235.9z"/>
</g>
</svg>
