<?xml version="1.0" encoding="UTF-8" standalone="no"?>
<svg
   id="katman_2"
   viewBox="0 0 395.7 395.59"
   version="1.1"
   sodipodi:docname="screenshot.svg"
   inkscape:version="1.2.2 (b0a8486541, 2022-12-01)"
   xmlns:inkscape="http://www.inkscape.org/namespaces/inkscape"
   xmlns:sodipodi="http://sodipodi.sourceforge.net/DTD/sodipodi-0.dtd"
   xmlns="http://www.w3.org/2000/svg"
   xmlns:svg="http://www.w3.org/2000/svg">
  <sodipodi:namedview
     id="namedview24"
     pagecolor="#ffffff"
     bordercolor="#000000"
     borderopacity="0.25"
     inkscape:showpageshadow="2"
     inkscape:pageopacity="0.0"
     inkscape:pagecheckerboard="0"
     inkscape:deskcolor="#d1d1d1"
     showgrid="false"
     inkscape:zoom="2.2371648"
     inkscape:cx="198.24199"
     inkscape:cy="197.5715"
     inkscape:window-width="1920"
     inkscape:window-height="1057"
     inkscape:window-x="0"
     inkscape:window-y="0"
     inkscape:window-maximized="1"
     inkscape:current-layer="katman_2" />
  <defs
     id="defs4">
    <style
       id="style2">.cls-1{fill:#deebf1;}.cls-2{fill:#1d71b8;}.cls-3{fill:#2c5360;}.cls-4{fill:#e94931;stroke:#1d1d1b;stroke-miterlimit:10;stroke-width:3px;}</style>
  </defs>
  <g
     id="katman_1">
    <g
       id="g20">
      <path
         class="cls-1"
         d="m 394.31,281.87 c -0.26,-4.3 -2.33,-7.5 -6.59,-8.85 -1.11,-0.35 -2.18,-0.5 -3.21,-0.49 V 123.22 c 0,0 0.01,0 0.02,0 5.6,0.23 9.81,-3.92 9.84,-10.47 0.11,-29.16 0.29,-58.33 -0.07,-87.49 -0.18,-14.45 -10.32,-23.6 -24.82,-23.63 -14,-0.03 -27.99,0 -41.99,0 -15.02,0 -30.04,-0.05 -45.05,0.03 -5.3,0.03 -9.03,3.44 -9.54,8.32 -0.06,0.54 -0.06,1.07 -0.04,1.58 H 123.38 c 0,-0.18 0.02,-0.36 0.02,-0.55 C 123.39,5.25 119.09,1.63 112.15,1.63 83.42,1.62 54.7,1.6 25.97,1.63 11.85,1.66 1.87,11.74 1.83,25.96 c -0.04,14.15 0,28.29 0,42.44 0,14.73 -0.03,29.46 0.01,44.19 0.02,6.25 3.74,10.48 9.18,10.64 0.27,0 0.53,0 0.79,-0.02 v 149.3 c -2.74,-0.19 -5.53,0.84 -7.43,3.3 -1.61,2.1 -2.44,5.32 -2.45,8.04 -0.17,28 -0.11,55.99 -0.1,83.99 0,16.86 9.31,26.26 26.18,26.34 13.71,0.06 27.41,0.01 41.12,0.01 13.56,0 27.12,0 40.68,0 1.6,0 3.21,0 4.8,-0.19 5.51,-0.65 9.04,-4.62 8.8,-9.73 h 149.4 c -0.03,0.96 0.07,1.96 0.34,2.99 1.15,4.44 4.76,6.88 10.82,6.91 14.43,0.08 28.87,0.02 43.31,0.03 13.56,0 27.12,0.06 40.68,-0.04 3.04,-0.02 6.18,-0.16 9.09,-0.93 10.95,-2.88 17.34,-12.04 17.37,-24.74 0.06,-25.23 0.02,-50.46 0.01,-75.68 0,-3.64 0.1,-7.3 -0.12,-10.93 z"
         id="path6" />
      <path
         class="cls-2"
         d="m 198.13,291.22 c -32.08,0 -64.15,0.01 -96.23,0 -15.52,0 -25.16,-9.49 -25.19,-24.92 -0.05,-33.25 -0.05,-66.49 0,-99.74 0.02,-15.4 9.72,-24.94 25.19,-24.96 8.17,0 16.33,-0.11 24.49,0.05 3.14,0.06 5.18,-1.08 6.85,-3.66 4.75,-7.33 9.75,-14.51 14.47,-21.86 5.27,-8.19 12.75,-12.04 22.37,-12.04 18.66,0 37.33,0 55.99,0 9.6,0 17.13,3.77 22.39,11.99 4.63,7.24 9.6,14.26 14.24,21.5 1.84,2.88 4.02,4.17 7.52,4.08 8.01,-0.21 16.04,-0.07 24.06,-0.07 15.57,0.01 25.37,9.66 25.42,25.36 0.09,30.33 0.04,60.66 0.01,90.99 0,4.22 0.08,8.48 -0.42,12.66 -1.44,12.09 -11.02,20.57 -23.19,20.59 -32.66,0.06 -65.32,0.02 -97.98,0.02 z m -46.54,-83.96 c 0.16,26.09 21.06,46.55 47.35,46.38 25.06,-0.17 45.98,-21.47 45.85,-46.69 -0.13,-25.77 -21.16,-46.46 -47.04,-46.3 -25.73,0.16 -46.32,20.96 -46.16,46.61 z"
         id="path8" />
      <path
         class="cls-4"
         d="M 1.51,68.28 C 1.51,54.13 1.48,39.99 1.51,25.84 1.56,11.62 11.54,1.55 25.67,1.53 c 28.73,-0.04 57.45,-0.02 86.18,0 6.94,0 11.24,3.62 11.25,9.38 0.01,5.79 -4.19,9.52 -11.2,9.59 -10.5,0.11 -21,0.03 -31.5,0.03 -16.91,0 -33.83,0 -50.74,0 q -9.12,0 -9.12,8.91 c 0,26.69 0,53.37 0,80.06 0,1.17 0.05,2.34 -0.02,3.5 -0.38,6.2 -4.34,10.28 -9.8,10.12 C 5.28,122.96 1.56,118.73 1.54,112.48 1.5,97.75 1.53,83.02 1.53,68.29 Z"
         id="path10" />
      <path
         class="cls-4"
         d="m 327.18,1.51 c 14,0 27.99,-0.02 41.99,0 14.5,0.03 24.64,9.18 24.82,23.63 0.36,29.16 0.18,58.33 0.07,87.49 -0.03,6.55 -4.24,10.7 -9.84,10.47 -5.42,-0.22 -9,-4.44 -9,-10.76 -0.02,-28.14 0,-56.29 -0.01,-84.43 0,-6.47 -0.89,-7.39 -7.28,-7.39 -27.27,-0.01 -54.53,0 -81.8,-0.02 -1.89,0 -3.81,-0.02 -5.65,-0.36 -5.38,-1 -8.43,-5.08 -7.89,-10.28 0.51,-4.88 4.24,-8.29 9.54,-8.32 15.02,-0.08 30.04,-0.03 45.05,-0.03 z"
         id="path12" />
      <path
         class="cls-4"
         d="m 68.81,394.07 c -13.71,0 -27.41,0.05 -41.12,-0.01 -16.87,-0.08 -26.18,-9.48 -26.18,-26.34 0,-28 -0.07,-56 0.1,-83.99 0.02,-2.72 0.84,-5.94 2.45,-8.04 4.38,-5.69 13.56,-3.72 15.71,3.19 0.63,2.03 0.71,4.3 0.72,6.47 0.05,27.12 0.03,54.24 0.03,81.37 0,7.84 0.7,8.56 8.4,8.56 28.14,0 56.28,-0.02 84.42,0.02 5.4,0 9.38,3.62 9.74,8.6 0.37,5.24 -3.2,9.33 -8.8,9.99 -1.59,0.19 -3.2,0.19 -4.8,0.19 -13.56,0.01 -27.12,0 -40.68,0 z"
         id="path14" />
      <path
         class="cls-4"
         d="m 326.96,394.07 c -14.44,0 -28.87,0.05 -43.31,-0.03 -6.07,-0.03 -9.67,-2.47 -10.82,-6.91 -1.66,-6.44 2.64,-11.83 9.6,-11.84 28.14,-0.04 56.28,-0.01 84.42,-0.02 7.24,0 8.35,-1.11 8.35,-8.31 0,-28 -0.02,-56 0.01,-84 0,-7.53 5.61,-12.14 12.19,-10.06 4.25,1.35 6.33,4.55 6.59,8.85 0.22,3.63 0.11,7.29 0.12,10.93 0,25.23 0.04,50.46 -0.01,75.68 -0.03,12.7 -6.42,21.86 -17.37,24.74 -2.91,0.77 -6.05,0.91 -9.09,0.93 -13.56,0.09 -27.12,0.04 -40.68,0.04 z"
         id="path16" />
      <path
         class="cls-3"
         d="m 198.04,179.09 c 15.54,-0.04 28.15,12.38 28.26,27.81 0.11,15.32 -12.59,28.19 -27.89,28.28 -15.71,0.09 -28.44,-12.51 -28.4,-28.12 0.03,-15.52 12.47,-27.93 28.03,-27.97 z"
         id="path18" />
    </g>
  </g>
</svg>
