<?xml version="1.0" encoding="UTF-8" standalone="no"?>
<svg
   xmlns:dc="http://purl.org/dc/elements/1.1/"
   xmlns:cc="http://creativecommons.org/ns#"
   xmlns:rdf="http://www.w3.org/1999/02/22-rdf-syntax-ns#"
   xmlns:svg="http://www.w3.org/2000/svg"
   xmlns="http://www.w3.org/2000/svg"
   xmlns:sodipodi="http://sodipodi.sourceforge.net/DTD/sodipodi-0.dtd"
   xmlns:inkscape="http://www.inkscape.org/namespaces/inkscape"
   width="100"
   height="100"
   version="1"
   id="svg10"
   sodipodi:docname="show-desktop.svg"
   inkscape:version="0.92.1 r15371">
  <metadata
     id="metadata16">
    <rdf:RDF>
      <cc:Work
         rdf:about="">
        <dc:format>image/svg+xml</dc:format>
        <dc:type
           rdf:resource="http://purl.org/dc/dcmitype/StillImage" />
        <dc:title />
      </cc:Work>
    </rdf:RDF>
  </metadata>
  <defs
     id="defs14" />
  <sodipodi:namedview
     pagecolor="#ffffff"
     bordercolor="#666666"
     borderopacity="1"
     objecttolerance="10"
     gridtolerance="10"
     guidetolerance="10"
     inkscape:pageopacity="0"
     inkscape:pageshadow="2"
     inkscape:window-width="1920"
     inkscape:window-height="1172"
     id="namedview12"
     showgrid="false"
     inkscape:zoom="1.84375"
     inkscape:cx="-103.12403"
     inkscape:cy="115.32781"
     inkscape:window-x="0"
     inkscape:window-y="0"
     inkscape:window-maximized="1"
     inkscape:current-layer="svg10" />
  <rect
     style="fill:#f2f2f2;fill-opacity:0.39215686;fill-rule:evenodd;stroke:none;stroke-width:0.1953125"
     id="rect3813"
     width="100"
     height="100"
     x="0"
     y="0"
     ry="6"
     rx="6" />
  <rect
     style="fill:#325f78;stroke-width:1.60713816"
     width="70.713867"
     height="90"
     x="-84.392868"
     y="-95"
     rx="4.8213997"
     ry="4.8214288"
     transform="matrix(0,-1,-1,0,0,0)"
     id="rect2" />
  <rect
     style="opacity:0.2;stroke-width:1.60713816"
     width="57.8568"
     height="77.14286"
     x="-77.964333"
     y="-88.571434"
     rx="0"
     ry="0"
     transform="matrix(0,-1,-1,0,0,0)"
     id="rect4" />
  <path
     inkscape:connector-curvature="0"
     style="opacity:0.1;fill:#ffffff;stroke-width:1.60713816"
     d="M 9.8214287,13.679001 C 7.1503572,13.679001 5,15.829345 5,18.500401 v 1.607133 c 0,-2.671055 2.1503572,-4.8214 4.8214287,-4.8214 H 90.178574 c 2.671071,0 4.821428,2.150345 4.821428,4.8214 v -1.607133 c 0,-2.671056 -2.150357,-4.8214 -4.821428,-4.8214 z"
     id="path6" />
  <path
     inkscape:connector-curvature="0"
     style="opacity:0.2;stroke-width:1.60713816"
     d="M 5,79.571466 V 81.1786 C 5,83.849655 7.1503572,86 9.8214287,86 H 90.178574 c 2.671071,0 4.821428,-2.150345 4.821428,-4.8214 v -1.607134 c 0,2.671056 -2.150357,4.8214 -4.821428,4.8214 H 9.8214287 C 7.1503572,84.392866 5,82.242522 5,79.571466 Z"
     id="path8" />
  <g
     id="g4640">
    <rect
       id="rect4-3"
       transform="matrix(0,-1,-1,0,0,0)"
       ry="0"
       rx="0"
       y="-22.428574"
       x="-77.964333"
       height="11"
       width="57.8568"
       style="opacity:1;fill:#eeeeee;fill-opacity:1;stroke-width:0.6068784" />
    <g
       transform="matrix(0.67857143,0,0,0.67857143,38.596856,26.365231)"
       id="g4602">
      <rect
         style="opacity:0.2"
         width="6"
         height="6"
         x="-38.932205"
         y="67.330505"
         rx="0.75"
         ry="0.75"
         id="rect10-6" />
      <g
         id="g4586"
         transform="translate(8,23.999996)">
        <rect
           id="rect12-7"
           ry="0.75"
           rx="0.75"
           y="43.330509"
           x="-38.932205"
           height="6"
           width="6"
           style="opacity:0.2" />
        <rect
           id="rect14-5"
           ry="0.75"
           rx="0.75"
           y="42.330509"
           x="-38.932205"
           height="6"
           width="6"
           style="fill:#383838;fill-opacity:1" />
      </g>
      <g
         id="g4590"
         transform="translate(0.2711868)">
        <rect
           id="rect16-3"
           ry="0.75"
           rx="0.75"
           y="59.330509"
           x="-31.203392"
           height="6"
           width="6"
           style="opacity:0.2" />
        <rect
           id="rect18-5"
           ry="0.75"
           rx="0.75"
           y="58.330509"
           x="-31.203392"
           height="6"
           width="6"
           style="fill:#383838;fill-opacity:1" />
      </g>
      <rect
         style="opacity:0.2"
         width="6"
         height="6"
         x="-38.932205"
         y="59.330509"
         rx="0.75"
         ry="0.75"
         id="rect20-6" />
      <rect
         style="fill:#383838;fill-opacity:1"
         width="6"
         height="6"
         x="-38.932205"
         y="58.330509"
         rx="0.75"
         ry="0.75"
         id="rect22-2" />
      <rect
         style="fill:#383838;fill-opacity:1"
         width="6"
         height="6"
         x="-38.932205"
         y="66.330505"
         rx="0.75"
         ry="0.75"
         id="rect24-9" />
    </g>
    <rect
       y="20.107533"
       x="11.428574"
       height="9.3902445"
       width="11"
       id="rect4604"
       style="opacity:1;fill:#383838;fill-opacity:1;stroke:none;stroke-width:1.31910574;stroke-linecap:round;stroke-linejoin:bevel;stroke-miterlimit:4;stroke-dasharray:none;stroke-opacity:1;paint-order:markers stroke fill" />
    <rect
       y="29.497776"
       x="11.428574"
       height="5"
       width="11"
       id="rect4604-1"
       style="opacity:1;fill:#6d6f7f;fill-opacity:0.94117647;stroke:none;stroke-width:0.96255642;stroke-linecap:round;stroke-linejoin:bevel;stroke-miterlimit:4;stroke-dasharray:none;stroke-opacity:1;paint-order:markers stroke fill" />
  </g>
</svg>
