<?xml version="1.0" encoding="UTF-8"?><svg id="katman_2" xmlns="http://www.w3.org/2000/svg" viewBox="0 0 395.7 395.59"><defs><style>.cls-1{fill:#deebf1;}.cls-2{fill:#1d71b8;}.cls-3{fill:#2c5360;}.cls-4{fill:#e94931;stroke:#1d1d1b;stroke-miterlimit:10;stroke-width:3px;}</style></defs><g id="katman_1"><g><path class="cls-1" d="M394.31,281.87c-.26-4.3-2.33-7.5-6.59-8.85-1.11-.35-2.18-.5-3.21-.49V123.22s.01,0,.02,0c5.6,.23,9.81-3.92,9.84-10.47,.11-29.16,.29-58.33-.07-87.49-.18-14.45-10.32-23.6-24.82-23.63-14-.03-27.99,0-41.99,0-15.02,0-30.04-.05-45.05,.03-5.3,.03-9.03,3.44-9.54,8.32-.06,.54-.06,1.07-.04,1.58H123.38c0-.18,.02-.36,.02-.55-.01-5.76-4.31-9.38-11.25-9.38-28.73-.01-57.45-.03-86.18,0C11.85,1.66,1.87,11.74,1.83,25.96c-.04,14.15,0,28.29,0,42.44,0,14.73-.03,29.46,.01,44.19,.02,6.25,3.74,10.48,9.18,10.64,.27,0,.53,0,.79-.02v149.3c-2.74-.19-5.53,.84-7.43,3.3-1.61,2.1-2.44,5.32-2.45,8.04-.17,28-.11,55.99-.1,83.99,0,16.86,9.31,26.26,26.18,26.34,13.71,.06,27.41,.01,41.12,.01,13.56,0,27.12,0,40.68,0,1.6,0,3.21,0,4.8-.19,5.51-.65,9.04-4.62,8.8-9.73h149.4c-.03,.96,.07,1.96,.34,2.99,1.15,4.44,4.76,6.88,10.82,6.91,14.43,.08,28.87,.02,43.31,.03,13.56,0,27.12,.06,40.68-.04,3.04-.02,6.18-.16,9.09-.93,10.95-2.88,17.34-12.04,17.37-24.74,.06-25.23,.02-50.46,.01-75.68,0-3.64,.1-7.3-.12-10.93Z"/><path class="cls-2" d="M198.13,291.22c-32.08,0-64.15,.01-96.23,0-15.52,0-25.16-9.49-25.19-24.92-.05-33.25-.05-66.49,0-99.74,.02-15.4,9.72-24.94,25.19-24.96,8.17,0,16.33-.11,24.49,.05,3.14,.06,5.18-1.08,6.85-3.66,4.75-7.33,9.75-14.51,14.47-21.86,5.27-8.19,12.75-12.04,22.37-12.04,18.66,0,37.33,0,55.99,0,9.6,0,17.13,3.77,22.39,11.99,4.63,7.24,9.6,14.26,14.24,21.5,1.84,2.88,4.02,4.17,7.52,4.08,8.01-.21,16.04-.07,24.06-.07,15.57,.01,25.37,9.66,25.42,25.36,.09,30.33,.04,60.66,.01,90.99,0,4.22,.08,8.48-.42,12.66-1.44,12.09-11.02,20.57-23.19,20.59-32.66,.06-65.32,.02-97.98,.02Zm-46.54-83.96c.16,26.09,21.06,46.55,47.35,46.38,25.06-.17,45.98-21.47,45.85-46.69-.13-25.77-21.16-46.46-47.04-46.3-25.73,.16-46.32,20.96-46.16,46.61Z"/><path class="cls-4" d="M1.51,68.28c0-14.15-.03-28.29,0-42.44C1.56,11.62,11.54,1.55,25.67,1.53c28.73-.04,57.45-.02,86.18,0,6.94,0,11.24,3.62,11.25,9.38,.01,5.79-4.19,9.52-11.2,9.59-10.5,.11-21,.03-31.5,.03-16.91,0-33.83,0-50.74,0q-9.12,0-9.12,8.91c0,26.69,0,53.37,0,80.06,0,1.17,.05,2.34-.02,3.5-.38,6.2-4.34,10.28-9.8,10.12-5.44-.16-9.16-4.39-9.18-10.64-.04-14.73-.01-29.46-.01-44.19Z"/><path class="cls-4" d="M327.18,1.51c14,0,27.99-.02,41.99,0,14.5,.03,24.64,9.18,24.82,23.63,.36,29.16,.18,58.33,.07,87.49-.03,6.55-4.24,10.7-9.84,10.47-5.42-.22-9-4.44-9-10.76-.02-28.14,0-56.29-.01-84.43,0-6.47-.89-7.39-7.28-7.39-27.27-.01-54.53,0-81.8-.02-1.89,0-3.81-.02-5.65-.36-5.38-1-8.43-5.08-7.89-10.28,.51-4.88,4.24-8.29,9.54-8.32,15.02-.08,30.04-.03,45.05-.03Z"/><path class="cls-4" d="M68.81,394.07c-13.71,0-27.41,.05-41.12-.01-16.87-.08-26.18-9.48-26.18-26.34,0-28-.07-56,.1-83.99,.02-2.72,.84-5.94,2.45-8.04,4.38-5.69,13.56-3.72,15.71,3.19,.63,2.03,.71,4.3,.72,6.47,.05,27.12,.03,54.24,.03,81.37,0,7.84,.7,8.56,8.4,8.56,28.14,0,56.28-.02,84.42,.02,5.4,0,9.38,3.62,9.74,8.6,.37,5.24-3.2,9.33-8.8,9.99-1.59,.19-3.2,.19-4.8,.19-13.56,.01-27.12,0-40.68,0Z"/><path class="cls-4" d="M326.96,394.07c-14.44,0-28.87,.05-43.31-.03-6.07-.03-9.67-2.47-10.82-6.91-1.66-6.44,2.64-11.83,9.6-11.84,28.14-.04,56.28-.01,84.42-.02,7.24,0,8.35-1.11,8.35-8.31,0-28-.02-56,.01-84,0-7.53,5.61-12.14,12.19-10.06,4.25,1.35,6.33,4.55,6.59,8.85,.22,3.63,.11,7.29,.12,10.93,0,25.23,.04,50.46-.01,75.68-.03,12.7-6.42,21.86-17.37,24.74-2.91,.77-6.05,.91-9.09,.93-13.56,.09-27.12,.04-40.68,.04Z"/><path class="cls-3" d="M198.04,179.09c15.54-.04,28.15,12.38,28.26,27.81,.11,15.32-12.59,28.19-27.89,28.28-15.71,.09-28.44-12.51-28.4-28.12,.03-15.52,12.47-27.93,28.03-27.97Z"/></g></g></svg>