<?xml version="1.0" encoding="utf-8"?><!-- Uploaded to: SVG Repo, www.svgrepo.com, Generator: SVG Repo Mixer Tools -->
<svg fill="#000000" width="800px" height="800px" viewBox="0 0 24 24" id="ruler-6" data-name="Flat Color" xmlns="http://www.w3.org/2000/svg" class="icon flat-color"><path id="primary" d="M17.46,21.71l4.25-4.25a1,1,0,0,0,0-1.41L8,2.29a1,1,0,0,0-1.41,0L2.29,6.54a1,1,0,0,0-.29.7A1,1,0,0,0,2.29,8L16.05,21.71A1,1,0,0,0,17.46,21.71Z" style="fill: rgb(0, 0, 0);"></path><path id="secondary" d="M9.88,5.64a1,1,0,0,0,1.41,1.41L12,6.34,10.59,4.93Zm3.53,3.53a1,1,0,0,0,0,1.42,1,1,0,0,0,1.42,0l.71-.71L14.12,8.47ZM17,12.71a1,1,0,0,0,1.41,1.41l.71-.7L17.66,12Z" style="fill: rgb(44, 169, 188);"></path></svg>