<?xml version="1.0" encoding="utf-8"?>
<!-- Generator: Adobe Illustrator 28.4.1, SVG Export Plug-In . SVG Version: 6.00 Build 0)  -->
<svg version="1.0" id="katman_2_00000015328674555090814690000013762126697356173469_"
	 xmlns="http://www.w3.org/2000/svg" xmlns:xlink="http://www.w3.org/1999/xlink" x="0px" y="0px" viewBox="0 0 512 512"
	 style="enable-background:new 0 0 512 512;" xml:space="preserve">
<style type="text/css">
	.st0{fill:#1EB7D2;}
	.st1{fill:#1D70B7;}
	.st2{fill:#CD9544;}
	.st3{fill:#C5D5DB;}
	.st4{fill:#7CA1B1;}
	.st5{opacity:0.1;fill:#161A1E;}
</style>
<path class="st0" d="M390.1,234.7c-0.5-0.9-6.7-20.4-35.1-35.1c-21.9-11.3-47.9-11.4-49.4-11.3c-20.5,0-38.4,7.4-53.4,21.1
	c-7.6,6.9-14,15.1-21,22.6c-15.7,16.9-31.8,33.5-51.6,45.8c-20.9,12.9-43.3,21.9-67.6,26.3c-18.7,3.4-27.3,26.8-12.7,40.5
	c13.1,12.3,26,25,40,36.2c39.7,31.8,82.3,59.2,129.9,77.8c8.7,3.4,17.8,6.1,23.2,7.9c15.5-0.3,24.5-5.3,30.6-14.9
	c7.1-11,14-22.1,20.5-33.5c21.9-38.2,37-79.2,51.6-120.5C402.7,275.9,401.1,255,390.1,234.7z"/>
<path class="st1" d="M378,344.2c5.9-15.2,11.5-30.6,16.9-46.1c7.7-21.7,6.1-42.6-4.9-62.9c-0.5-0.9-6.7-20.4-35.1-35.1
	c-21.9-11.3-47.9-11.4-49.4-11.3c-20.5,0-38.4,7.4-53.4,21.1c-7.6,6.9-14,15.1-21,22.6c-7,7.6-14.1,15-21.6,22.1
	c0,0,24.1,22.5,63.3,47.1C321.5,332.2,378,344.2,378,344.2z"/>
<path class="st2" d="M399.5,65.6c-18.4,0.4-31.8,9.5-40.3,25.9c-16,30.9-32,61.8-48,92.7c-1.3,2.4,78,45.8,78.8,44
	c3.8-8,8.1-15.7,12.1-23.5c13-25.1,26.7-49.9,38.8-75.4C455.3,99.4,432.5,64.9,399.5,65.6z"/>
<path class="st3" d="M151.4,156.9c10.4-10.4,20.7-17.9,34.3-19.2l0.6-0.6c-13.7-1.5-27.1-7.5-37.7-18.1
	C138.1,108.4,132,95,130.6,81.2l-0.4-0.4c-1.2,13.9-7,27.4-17.6,38c-10.6,10.6-24.1,16.4-38,17.6l0.4,0.4
	c13.6,1.5,24.5,11.3,35,21.9c10.5,10.5,20.8,53.6,20.8,53.6C132.2,198.6,141,167.3,151.4,156.9z"/>
<path class="st3" d="M194.7,213.1c5-5,9.8-8.5,16.3-9.2l0.3-0.3c-6.5-0.7-12.9-3.6-17.9-8.6c-5-5-7.9-11.4-8.6-18l-0.2-0.2
	c-0.6,6.6-3.4,13-8.4,18.1c-5,5-11.4,7.8-18.1,8.4l0.2,0.2c6.5,0.7,12,4.4,17,9.4s9.5,26.5,9.5,26.5
	C185.5,232.9,189.8,218,194.7,213.1z"/>
<path class="st3" d="M176.9,79c2.6-2.6,5.2-4.5,8.7-4.9l0.1-0.1c-3.5-0.4-6.9-1.9-9.5-4.6c-2.7-2.7-4.2-6.1-4.6-9.6l-0.1-0.1
	c-0.3,3.5-1.8,6.9-4.5,9.6c-2.7,2.7-6.1,4.2-9.6,4.5l0.1,0.1c3.5,0.4,6.4,2.3,9.1,5c2.7,2.7,5,14.1,5,14.1
	C172,89.5,174.2,81.6,176.9,79z"/>
<path class="st3" d="M102.7,54.2c1.2-1.2,2.4-2.1,3.9-2.2l0.1-0.1c-1.6-0.2-3.1-0.9-4.3-2.1c-1.2-1.2-1.9-2.8-2.1-4.3l0,0
	c-0.1,1.6-0.8,3.1-2,4.3c-1.2,1.2-2.8,1.9-4.3,2l0,0c1.6,0.2,2.9,1.1,4.1,2.3c1.2,1.2,2.3,6.4,2.3,6.4
	C100.5,59,101.5,55.4,102.7,54.2z"/>
<path class="st3" d="M81.8,102.5c2.1-2.1,4.1-3.5,6.8-3.8l0.1-0.1c-2.7-0.3-5.3-1.5-7.4-3.6c-2.1-2.1-3.3-4.7-3.6-7.5l-0.1-0.1
	c-0.2,2.7-1.4,5.4-3.5,7.5c-2.1,2.1-4.7,3.2-7.5,3.5l0.1,0.1c2.7,0.3,5,1.8,7.1,3.9c2.1,2.1,3.9,11,3.9,11
	C78,110.7,79.7,104.5,81.8,102.5z"/>
<circle class="st3" cx="78.8" cy="191.1" r="11.9"/>
<circle class="st3" cx="229.9" cy="105.5" r="4.6"/>
<circle class="st3" cx="122.8" cy="271.6" r="6.8"/>
<path class="st4" d="M321.2,169l78.2,43c6.3,3.4,8.5,11.3,5.1,17.6v0c-3.4,6.3-11.3,8.5-17.6,5.1l-78.2-43
	c-6.3-3.4-8.5-11.3-5.1-17.6v0C307.1,167.8,315,165.5,321.2,169z"/>
<path class="st5" d="M419.1,70.1c-40.3,67.2-104.7,174-126.8,208.4c-38.8,60.4-79.7,112.9-101.8,140.1c24.5,15.7,50.2,29.3,77.7,40
	c8.7,3.4,17.8,6.1,23.2,7.9c15.5-0.3,24.5-5.3,30.6-14.9c7.1-11,14-22.1,20.5-33.5c13.6-23.7,24.6-48.6,34.5-73.9c0.1,0,0.2,0,0.2,0
	c5.9-15.2,11.5-30.6,16.9-46.1c3.2-9,4.8-17.8,4.8-26.5c0.1-12.1-2.9-24-9-35.7c5.4,1,11-1.4,13.8-6.5c3.4-6.3,1.2-14.1-5.1-17.6
	l-0.9-0.5c1.2-2.3,2.4-4.6,3.6-6.9c13-25.1,26.7-49.9,38.8-75.4C451.2,106.2,440,80.2,419.1,70.1z"/>
</svg>
