<?xml version="1.0" encoding="UTF-8" standalone="no"?>
<!-- Generator: Adobe Illustrator 27.9.6, SVG Export Plug-In . SVG Version: 9.03 Build 54986)  -->

<svg
   version="1.1"
   id="katman_1"
   x="0px"
   y="0px"
   viewBox="0 0 48 48"
   style="enable-background:new 0 0 48 48;"
   xml:space="preserve"
   sodipodi:docname="clear.svg"
   inkscape:version="1.2.2 (b0a8486541, 2022-12-01)"
   xmlns:inkscape="http://www.inkscape.org/namespaces/inkscape"
   xmlns:sodipodi="http://sodipodi.sourceforge.net/DTD/sodipodi-0.dtd"
   xmlns="http://www.w3.org/2000/svg"
   xmlns:svg="http://www.w3.org/2000/svg"><defs
   id="defs2" /><sodipodi:namedview
   id="namedview2"
   pagecolor="#ffffff"
   bordercolor="#000000"
   borderopacity="0.25"
   inkscape:showpageshadow="2"
   inkscape:pageopacity="0.0"
   inkscape:pagecheckerboard="false"
   inkscape:deskcolor="#d1d1d1"
   inkscape:zoom="8.3645832"
   inkscape:cx="43.337485"
   inkscape:cy="30.963886"
   inkscape:window-width="1920"
   inkscape:window-height="946"
   inkscape:window-x="0"
   inkscape:window-y="0"
   inkscape:window-maximized="1"
   inkscape:current-layer="katman_1"
   showgrid="false" />


<g
   id="g2"
   fill="transparent"
   transform="matrix(2.4736842,0,0,2.4736842,-5.6842104,-4.4473683)"
   style="fill:none;stroke-width:1.41489362;stroke-dasharray:none"><path
     d="m 6,7 v 11 c 0,1.1046 0.89543,2 2,2 h 8 c 1.1046,0 2,-0.8954 2,-2 V 7 M 6,7 H 5 m 1,0 h 2 m 10,0 h 1 m -1,0 h -2 m -6,4 v 5 m 4,-5 v 5 M 8,7 V 5 C 8,3.89543 8.89543,3 10,3 h 4 c 1.1046,0 2,0.89543 2,2 V 7 M 8,7 h 8"
     stroke="#f4f4f4"
     stroke-width="1.5"
     stroke-linecap="round"
     stroke-linejoin="round"
     id="path1"
     style="fill:none;" /></g>
</svg>
