<?xml version="1.0" encoding="utf-8"?>
<!-- Generator: Adobe Illustrator 27.9.6, SVG Export Plug-In . SVG Version: 9.03 Build 54986)  -->
<svg version="1.1" id="katman_1" xmlns="http://www.w3.org/2000/svg" xmlns:xlink="http://www.w3.org/1999/xlink" x="0px" y="0px"
	 viewBox="0 0 48 48" style="enable-background:new 0 0 48 48;" xml:space="preserve">
<style type="text/css">
	.st0{fill:#C0C0C0;}
	.st1{fill:#FF4D4D;}
</style>
<g>
	<g>
		<path class="st0" d="M24,48C10.77,48,0,37.23,0,24S10.77,0,24,0s24,10.77,24,24S37.23,48,24,48z M24,4.36
			C13.17,4.36,4.36,13.17,4.36,24S13.17,43.64,24,43.64S43.64,34.83,43.64,24S34.83,4.36,24,4.36z"/>
	</g>
	<g>
		<g>
			<g>
				<path class="st1" d="M17.45,32.73c-0.56,0-1.12-0.21-1.54-0.64c-0.85-0.85-0.85-2.23,0-3.09L29,15.91
					c0.85-0.85,2.23-0.85,3.09,0c0.85,0.85,0.85,2.23,0,3.09L19,32.09C18.57,32.51,18.01,32.73,17.45,32.73z"/>
			</g>
		</g>
		<g>
			<g>
				<path class="st1" d="M30.55,32.73c-0.56,0-1.12-0.21-1.54-0.64L15.91,19c-0.85-0.85-0.85-2.23,0-3.09
					c0.85-0.85,2.23-0.85,3.09,0L32.09,29c0.85,0.85,0.85,2.23,0,3.09C31.66,32.51,31.1,32.73,30.55,32.73z"/>
			</g>
		</g>
	</g>
</g>
</svg>
