<?xml version="1.0" encoding="utf-8"?>
<!-- Generator: Adobe Illustrator 27.9.6, SVG Export Plug-In . SVG Version: 9.03 Build 54986)  -->
<svg version="1.1" id="katman_1" xmlns="http://www.w3.org/2000/svg" xmlns:xlink="http://www.w3.org/1999/xlink" x="0px" y="0px"
	 viewBox="0 0 48 48" style="enable-background:new 0 0 48 48;" xml:space="preserve">
<style type="text/css">
	.st0{fill:#4A90E2;}
	.st1{fill:#FF4D4D;}
	.st2{fill:#C0C0C0;}
</style>
<g>
	<g>
		<path class="st0" d="M36,48c-1.33,0-2.4-1.07-2.4-2.4V28.8H14.4v16.8c0,1.33-1.07,2.4-2.4,2.4s-2.4-1.07-2.4-2.4V28.8
			c0-2.65,2.15-4.8,4.8-4.8h19.2c2.65,0,4.8,2.15,4.8,4.8v16.8C38.4,46.93,37.33,48,36,48z"/>
	</g>
	<g>
		<g>
			<path class="st1" d="M33.6,16.8H16.8c-2.65,0-4.8-2.15-4.8-4.8V2.4C12,1.07,13.07,0,14.4,0s2.4,1.07,2.4,2.4V12h16.8
				c1.33,0,2.4,1.07,2.4,2.4S34.93,16.8,33.6,16.8z"/>
		</g>
	</g>
	<g>
		<path class="st2" d="M40.8,48H7.2C3.23,48,0,44.77,0,40.8V7.2C0,3.23,3.23,0,7.2,0h24.48c0.01,0,0.02,0,0.03,0
			c1.91,0.03,3.7,0.79,5.04,2.16l9.1,9.1c1.35,1.32,2.12,3.11,2.14,5.02V40.8C48,44.77,44.77,48,40.8,48z M7.2,4.8
			c-1.32,0-2.4,1.08-2.4,2.4v33.6c0,1.32,1.08,2.4,2.4,2.4h33.6c1.32,0,2.4-1.08,2.4-2.4V16.32c-0.01-0.6-0.27-1.21-0.72-1.65
			l-9.14-9.14c-0.46-0.47-1.05-0.72-1.68-0.74H7.2z"/>
	</g>
</g>
</svg>
