<?xml version="1.0" encoding="utf-8"?>
<!-- Generator: Adobe Illustrator 27.9.6, SVG Export Plug-In . SVG Version: 9.03 Build 54986)  -->
<svg version="1.1" id="katman_1" xmlns="http://www.w3.org/2000/svg" xmlns:xlink="http://www.w3.org/1999/xlink" x="0px" y="0px"
	 viewBox="0 0 48 48" style="enable-background:new 0 0 48 48;" xml:space="preserve">
<style type="text/css">
	.st0{fill:#C0C0C0;}
</style>
<g>
	<path class="st0" d="M47.95,1.93c-0.02-0.08-0.04-0.15-0.06-0.22c-0.02-0.08-0.04-0.15-0.07-0.23c-0.04-0.09-0.09-0.17-0.13-0.25
		c-0.03-0.05-0.05-0.11-0.09-0.16c-0.18-0.26-0.4-0.49-0.67-0.67c-0.05-0.03-0.11-0.06-0.16-0.09c-0.08-0.05-0.16-0.1-0.25-0.13
		c-0.08-0.03-0.15-0.05-0.23-0.07c-0.07-0.02-0.14-0.05-0.22-0.06C45.91,0.02,45.76,0,45.6,0H31.2c-1.33,0-2.4,1.07-2.4,2.4
		c0,1.33,1.07,2.4,2.4,2.4h8.61L27.1,17.5c-0.94,0.94-0.94,2.46,0,3.39c0.47,0.47,1.08,0.7,1.7,0.7s1.23-0.23,1.7-0.7l12.7-12.7
		v8.61c0,1.33,1.07,2.4,2.4,2.4c1.33,0,2.4-1.07,2.4-2.4V2.4C48,2.24,47.98,2.09,47.95,1.93z"/>
	<path class="st0" d="M17.5,27.1L4.8,39.81V31.2c0-1.33-1.07-2.4-2.4-2.4S0,29.87,0,31.2v14.4c0,0.16,0.02,0.31,0.05,0.47
		c0.01,0.08,0.04,0.15,0.06,0.22c0.02,0.08,0.04,0.15,0.07,0.23c0.04,0.09,0.09,0.17,0.13,0.25c0.03,0.05,0.05,0.11,0.09,0.16
		c0.18,0.26,0.4,0.49,0.67,0.67c0.05,0.03,0.11,0.06,0.16,0.09c0.08,0.05,0.16,0.1,0.25,0.13c0.08,0.03,0.15,0.05,0.23,0.07
		c0.07,0.02,0.14,0.05,0.22,0.06C2.09,47.98,2.24,48,2.4,48h14.4c1.33,0,2.4-1.07,2.4-2.4c0-1.33-1.07-2.4-2.4-2.4H8.19l12.7-12.7
		c0.94-0.94,0.94-2.46,0-3.39S18.44,26.17,17.5,27.1z"/>
</g>
</svg>
