<?xml version="1.0" encoding="utf-8"?>
<!-- Generator: Adobe Illustrator 27.9.6, SVG Export Plug-In . SVG Version: 9.03 Build 54986)  -->
<svg version="1.1" id="katman_1" xmlns="http://www.w3.org/2000/svg" xmlns:xlink="http://www.w3.org/1999/xlink" x="0px" y="0px"
	 viewBox="0 0 48 48" style="enable-background:new 0 0 48 48;" xml:space="preserve">
<style type="text/css">
	.st0{fill:#C0C0C0;}
</style>
<g>
	<path class="st0" d="M47.3,0.7c-0.94-0.94-2.46-0.94-3.39,0l-12.7,12.7V4.8c0-1.33-1.07-2.4-2.4-2.4c-1.33,0-2.4,1.07-2.4,2.4v14.4
		c0,0,0,0,0,0c0,0.16,0.02,0.31,0.05,0.47c0.01,0.08,0.04,0.15,0.06,0.22c0.02,0.08,0.04,0.15,0.07,0.23
		c0.04,0.09,0.09,0.17,0.13,0.25c0.03,0.05,0.05,0.11,0.09,0.16c0.18,0.26,0.4,0.49,0.67,0.67c0.05,0.03,0.11,0.06,0.16,0.09
		c0.08,0.05,0.16,0.1,0.25,0.13c0.08,0.03,0.15,0.05,0.23,0.07c0.07,0.02,0.14,0.05,0.22,0.06c0.15,0.03,0.31,0.05,0.47,0.05h14.4
		c1.33,0,2.4-1.07,2.4-2.4c0-1.33-1.07-2.4-2.4-2.4h-8.61L47.3,4.1C48.23,3.16,48.23,1.64,47.3,0.7z"/>
	<path class="st0" d="M21.49,28.11c-0.02-0.08-0.04-0.15-0.07-0.23c-0.04-0.09-0.09-0.17-0.13-0.25c-0.03-0.05-0.05-0.11-0.09-0.16
		c-0.18-0.26-0.4-0.49-0.67-0.67c-0.05-0.03-0.11-0.06-0.16-0.09c-0.08-0.05-0.16-0.1-0.25-0.13c-0.08-0.03-0.15-0.05-0.23-0.07
		c-0.07-0.02-0.14-0.05-0.22-0.06c-0.15-0.03-0.31-0.05-0.47-0.05H4.8c-1.33,0-2.4,1.07-2.4,2.4c0,1.33,1.07,2.4,2.4,2.4h8.61
		L0.7,43.9c-0.94,0.94-0.94,2.46,0,3.39C1.17,47.77,1.79,48,2.4,48s1.23-0.23,1.7-0.7l12.7-12.7v8.61c0,1.33,1.07,2.4,2.4,2.4
		c1.33,0,2.4-1.07,2.4-2.4V28.8c0-0.16-0.02-0.31-0.05-0.47C21.54,28.26,21.51,28.19,21.49,28.11z"/>
</g>
</svg>
