<?xml version="1.0" encoding="utf-8"?>
<!-- Generator: Adobe Illustrator 27.9.6, SVG Export Plug-In . SVG Version: 9.03 Build 54986)  -->
<svg version="1.1" id="katman_1" xmlns="http://www.w3.org/2000/svg" xmlns:xlink="http://www.w3.org/1999/xlink" x="0px" y="0px"
	 viewBox="0 0 48 48" style="enable-background:new 0 0 48 48;" xml:space="preserve">
<style type="text/css">
	.st0{fill:url(#SVGID_1_);}
</style>
<g>
	<radialGradient id="SVGID_1_" cx="-50.5233" cy="20.4471" r="156.9779" gradientUnits="userSpaceOnUse">
		<stop  offset="0" style="stop-color:#FFFFFF"/>
		<stop  offset="0.2714" style="stop-color:#BFDAFF"/>
		<stop  offset="0.6238" style="stop-color:#72AEFF"/>
		<stop  offset="0.8755" style="stop-color:#4293FF"/>
		<stop  offset="1" style="stop-color:#2F88FF"/>
	</radialGradient>
	<path class="st0" d="M25.5,48c-0.78,0-1.55-0.3-2.12-0.88l-21-21c-1.17-1.17-1.17-3.07,0-4.24l21-21c0.86-0.86,2.14-1.12,3.27-0.65
		C27.77,0.69,28.5,1.79,28.5,3v9h15c1.66,0,3,1.34,3,3v18c0,1.66-1.34,3-3,3h-15v9c0,1.21-0.73,2.31-1.85,2.77
		C26.28,47.93,25.89,48,25.5,48z M8.74,24L22.5,37.76V33c0-1.66,1.34-3,3-3h15V18h-15c-1.66,0-3-1.34-3-3v-4.76L8.74,24z"/>
</g>
</svg>
