<?xml version="1.0" encoding="UTF-8" standalone="no"?>
<!-- Generator: Adobe Illustrator 27.9.6, SVG Export Plug-In . SVG Version: 9.03 Build 54986)  -->

<svg
   version="1.1"
   id="katman_1"
   x="0px"
   y="0px"
   viewBox="0 0 48 48"
   style="enable-background:new 0 0 48 48;"
   xml:space="preserve"
   sodipodi:docname="go-back.svg"
   inkscape:version="1.4.2 (ebf0e940d0, 2025-05-08)"
   xmlns:inkscape="http://www.inkscape.org/namespaces/inkscape"
   xmlns:sodipodi="http://sodipodi.sourceforge.net/DTD/sodipodi-0.dtd"
   xmlns="http://www.w3.org/2000/svg"
   xmlns:svg="http://www.w3.org/2000/svg"><defs
   id="defs5" /><sodipodi:namedview
   id="namedview5"
   pagecolor="#ffffff"
   bordercolor="#000000"
   borderopacity="0.25"
   inkscape:showpageshadow="2"
   inkscape:pageopacity="0.0"
   inkscape:pagecheckerboard="0"
   inkscape:deskcolor="#d1d1d1"
   inkscape:zoom="10.166667"
   inkscape:cx="23.95082"
   inkscape:cy="24"
   inkscape:window-width="1366"
   inkscape:window-height="699"
   inkscape:window-x="0"
   inkscape:window-y="0"
   inkscape:window-maximized="1"
   inkscape:current-layer="katman_1" />
<style
   type="text/css"
   id="style1">
	.st0{fill:url(#SVGID_1_);}
</style>
<g
   id="g5">
	<radialGradient
   id="SVGID_1_"
   cx="-50.5233"
   cy="20.4471"
   r="156.97791"
   gradientUnits="userSpaceOnUse">
		<stop
   offset="0"
   style="stop-color:#FFFFFF"
   id="stop1" />
		<stop
   offset="0.2714"
   style="stop-color:#BFDAFF"
   id="stop2" />
		<stop
   offset="0.6238"
   style="stop-color:#72AEFF"
   id="stop3" />
		<stop
   offset="0.8755"
   style="stop-color:#4293FF"
   id="stop4" />
		<stop
   offset="1"
   style="stop-color:#2F88FF"
   id="stop5" />
	</radialGradient>
	<path
   class="st0"
   d="m 25.5,48 c -0.78,0 -1.55,-0.3 -2.12,-0.88 l -21,-21 c -1.17,-1.17 -1.17,-3.07 0,-4.24 l 21,-21 C 24.24,0.02 25.52,-0.24 26.65,0.23 27.77,0.69 28.5,1.79 28.5,3 v 9 h 15 c 1.66,0 3,1.34 3,3 v 18 c 0,1.66 -1.34,3 -3,3 h -15 v 9 c 0,1.21 -0.73,2.31 -1.85,2.77 C 26.28,47.93 25.89,48 25.5,48 Z M 8.74,24 22.5,37.76 V 33 c 0,-1.66 1.34,-3 3,-3 h 15 V 18 h -15 c -1.66,0 -3,-1.34 -3,-3 v -4.76 z"
   id="path5"
   style="fill:url(#SVGID_1_)" />
</g>
</svg>
