<?xml version="1.0" encoding="utf-8"?>
<!-- Generator: Adobe Illustrator 27.9.6, SVG Export Plug-In . SVG Version: 9.03 Build 54986)  -->
<svg version="1.1" id="katman_1" xmlns="http://www.w3.org/2000/svg" xmlns:xlink="http://www.w3.org/1999/xlink" x="0px" y="0px"
	 viewBox="0 0 48 48" style="enable-background:new 0 0 48 48;" xml:space="preserve">
<style type="text/css">
	.st0{fill:url(#SVGID_1_);}
</style>
<g>
	
		<radialGradient id="SVGID_1_" cx="-743.1945" cy="20.4471" r="156.9779" gradientTransform="matrix(-1 0 0 1 -644.6712 0)" gradientUnits="userSpaceOnUse">
		<stop  offset="0" style="stop-color:#FFFFFF"/>
		<stop  offset="0.2714" style="stop-color:#BFDAFF"/>
		<stop  offset="0.6238" style="stop-color:#72AEFF"/>
		<stop  offset="0.8755" style="stop-color:#4293FF"/>
		<stop  offset="1" style="stop-color:#2F88FF"/>
	</radialGradient>
	<path class="st0" d="M21.35,47.77c-1.12-0.46-1.85-1.56-1.85-2.77v-9h-15c-1.66,0-3-1.34-3-3V15c0-1.66,1.34-3,3-3h15V3
		c0-1.21,0.73-2.31,1.85-2.77c1.13-0.47,2.41-0.21,3.27,0.65l21,21c1.17,1.17,1.17,3.07,0,4.24l-21,21C24.05,47.7,23.28,48,22.5,48
		C22.11,48,21.72,47.93,21.35,47.77z M25.5,10.24V15c0,1.66-1.34,3-3,3h-15v12h15c1.66,0,3,1.34,3,3v4.76L39.26,24L25.5,10.24z"/>
</g>
</svg>
