<?xml version="1.0" encoding="utf-8"?>
<!-- Generator: Adobe Illustrator 27.9.6, SVG Export Plug-In . SVG Version: 9.03 Build 54986)  -->
<svg version="1.1" id="katman_1" xmlns="http://www.w3.org/2000/svg" xmlns:xlink="http://www.w3.org/1999/xlink" x="0px" y="0px"
	 viewBox="0 0 48 48" style="enable-background:new 0 0 48 48;" xml:space="preserve">
<style type="text/css">
	.st0{fill:#F4F4F4;}
</style>
<g>
	<g>
		<path class="st0" d="M41.42,30.58c-3.63,0-6.58-2.95-6.58-6.58s2.95-6.58,6.58-6.58c3.63,0,6.58,2.95,6.58,6.58
			S45.05,30.58,41.42,30.58z M41.42,20.79c-1.77,0-3.21,1.44-3.21,3.21s1.44,3.21,3.21,3.21c1.77,0,3.21-1.44,3.21-3.21
			S43.19,20.79,41.42,20.79z"/>
	</g>
	<g>
		<path class="st0" d="M6.58,30.58C2.95,30.58,0,27.63,0,24s2.95-6.58,6.58-6.58c3.63,0,6.58,2.95,6.58,6.58S10.2,30.58,6.58,30.58z
			 M6.58,20.79c-1.77,0-3.21,1.44-3.21,3.21s1.44,3.21,3.21,3.21S9.79,25.77,9.79,24S8.35,20.79,6.58,20.79z"/>
	</g>
	<g>
		<path class="st0" d="M24,30.58c-3.63,0-6.58-2.95-6.58-6.58s2.95-6.58,6.58-6.58c3.63,0,6.58,2.95,6.58,6.58S27.63,30.58,24,30.58
			z M24,20.79c-1.77,0-3.21,1.44-3.21,3.21s1.44,3.21,3.21,3.21c1.77,0,3.21-1.44,3.21-3.21S25.77,20.79,24,20.79z"/>
	</g>
</g>
</svg>
