<?xml version="1.0" encoding="utf-8"?>
<!-- Generator: Adobe Illustrator 27.9.6, SVG Export Plug-In . SVG Version: 9.03 Build 54986)  -->
<svg version="1.1" id="katman_1" xmlns="http://www.w3.org/2000/svg" xmlns:xlink="http://www.w3.org/1999/xlink" x="0px" y="0px"
	 viewBox="0 0 48 48" style="enable-background:new 0 0 48 48;" xml:space="preserve">
<style type="text/css">
	.st0{fill:#D0FF7D;}
</style>
<g>
	<g>
		<g>
			<path class="st0" d="M4.8,24c-1.33,0-2.4-1.07-2.4-2.4v-7.2c0-3.97,3.23-7.2,7.2-7.2H24c1.33,0,2.4,1.07,2.4,2.4S25.33,12,24,12
				H9.6c-1.32,0-2.4,1.08-2.4,2.4v7.2C7.2,22.93,6.13,24,4.8,24z"/>
		</g>
		<g>
			<path class="st0" d="M16.8,19.2c-0.61,0-1.23-0.23-1.7-0.7c-0.94-0.94-0.94-2.46,0-3.39l5.5-5.5l-5.5-5.5
				c-0.94-0.94-0.94-2.46,0-3.39s2.46-0.94,3.39,0l7.2,7.2c0.94,0.94,0.94,2.46,0,3.39l-7.2,7.2C18.03,18.97,17.41,19.2,16.8,19.2z"
				/>
		</g>
		<g>
			<path class="st0" d="M38.4,48H9.6c-3.97,0-7.2-3.23-7.2-7.2v-9.6c0-1.33,1.07-2.4,2.4-2.4s2.4,1.07,2.4,2.4v9.6
				c0,1.32,1.08,2.4,2.4,2.4h28.8c1.32,0,2.4-1.08,2.4-2.4V14.4c0-1.32-1.08-2.4-2.4-2.4h-4.8c-1.33,0-2.4-1.07-2.4-2.4
				s1.07-2.4,2.4-2.4h4.8c3.97,0,7.2,3.23,7.2,7.2v26.4C45.6,44.77,42.37,48,38.4,48z"/>
		</g>
	</g>
</g>
</svg>
