<?xml version="1.0" encoding="utf-8"?>
<!-- Generator: Adobe Illustrator 27.9.6, SVG Export Plug-In . SVG Version: 9.03 Build 54986)  -->
<svg version="1.1" id="katman_1" xmlns="http://www.w3.org/2000/svg" xmlns:xlink="http://www.w3.org/1999/xlink" x="0px" y="0px"
	 viewBox="0 0 48 48" style="enable-background:new 0 0 48 48;" xml:space="preserve">
<style type="text/css">
	.st0{fill:#D0FF7D;}
</style>
<g>
	<g>
		<g>
			<path class="st0" d="M43.2,24c1.33,0,2.4-1.07,2.4-2.4v-7.2c0-3.97-3.23-7.2-7.2-7.2H24c-1.33,0-2.4,1.07-2.4,2.4S22.67,12,24,12
				h14.4c1.32,0,2.4,1.08,2.4,2.4v7.2C40.8,22.93,41.87,24,43.2,24z"/>
		</g>
		<g>
			<path class="st0" d="M31.2,19.2c0.61,0,1.23-0.23,1.7-0.7c0.94-0.94,0.94-2.46,0-3.39l-5.5-5.5l5.5-5.5
				c0.94-0.94,0.94-2.46,0-3.39c-0.94-0.94-2.46-0.94-3.39,0l-7.2,7.2c-0.94,0.94-0.94,2.46,0,3.39l7.2,7.2
				C29.97,18.97,30.59,19.2,31.2,19.2z"/>
		</g>
		<g>
			<path class="st0" d="M9.6,48h28.8c3.97,0,7.2-3.23,7.2-7.2v-9.6c0-1.33-1.07-2.4-2.4-2.4s-2.4,1.07-2.4,2.4v9.6
				c0,1.32-1.08,2.4-2.4,2.4H9.6c-1.32,0-2.4-1.08-2.4-2.4V14.4c0-1.32,1.08-2.4,2.4-2.4h4.8c1.33,0,2.4-1.07,2.4-2.4
				s-1.07-2.4-2.4-2.4H9.6c-3.97,0-7.2,3.23-7.2,7.2v26.4C2.4,44.77,5.63,48,9.6,48z"/>
		</g>
	</g>
</g>
</svg>
