<?xml version="1.0" encoding="UTF-8" standalone="no"?>
<!-- Generator: Adobe Illustrator 27.9.6, SVG Export Plug-In . SVG Version: 9.03 Build 54986)  -->

<svg
   version="1.1"
   id="katman_1"
   x="0px"
   y="0px"
   viewBox="0 0 48 48"
   style="enable-background:new 0 0 48 48;"
   xml:space="preserve"
   sodipodi:docname="screenshot-crop.svg"
   inkscape:version="1.4.2 (ebf0e940d0, 2025-05-08)"
   xmlns:inkscape="http://www.inkscape.org/namespaces/inkscape"
   xmlns:sodipodi="http://sodipodi.sourceforge.net/DTD/sodipodi-0.dtd"
   xmlns="http://www.w3.org/2000/svg"
   xmlns:svg="http://www.w3.org/2000/svg"><defs
   id="defs13">
	
	
</defs><sodipodi:namedview
   id="namedview13"
   pagecolor="#ffffff"
   bordercolor="#000000"
   borderopacity="0.25"
   inkscape:showpageshadow="2"
   inkscape:pageopacity="0.0"
   inkscape:pagecheckerboard="0"
   inkscape:deskcolor="#d1d1d1"
   inkscape:zoom="8.7083333"
   inkscape:cx="20.555024"
   inkscape:cy="24.344498"
   inkscape:window-width="1920"
   inkscape:window-height="1012"
   inkscape:window-x="0"
   inkscape:window-y="0"
   inkscape:window-maximized="1"
   inkscape:current-layer="katman_1" />
<style
   type="text/css"
   id="style1">
	.st0{fill:#FF4D4D;}
	.st1{fill:#4A90E2;}
</style>
<g
   id="g12"
   transform="matrix(0.63649086,0,0,0.63649086,8.7210368,9.2525067)">
		<g
   id="g10">
			<path
   class="st1"
   d="M 35.14,36.18 H 12.86 c -2.56,0 -4.65,-2.09 -4.65,-4.65 V 18.99 c 0,-2.56 2.09,-4.65 4.65,-4.65 h 3.31 l 2.92,-3.51 c 0.35,-0.42 0.88,-0.67 1.43,-0.67 h 6.97 c 0.55,0 1.08,0.25 1.43,0.67 l 2.92,3.51 h 3.31 c 2.56,0 4.65,2.09 4.65,4.65 v 12.54 c -0.01,2.56 -2.09,4.65 -4.66,4.65 z M 12.86,18.07 c -0.51,0 -0.92,0.41 -0.92,0.92 v 12.54 c 0,0.51 0.41,0.92 0.92,0.92 h 22.29 c 0.51,0 0.92,-0.41 0.92,-0.92 V 18.99 c 0,-0.51 -0.41,-0.92 -0.92,-0.92 h -4.18 c -0.55,0 -1.08,-0.25 -1.43,-0.67 L 26.62,13.89 H 21.4 l -2.92,3.51 c -0.35,0.42 -0.88,0.67 -1.43,0.67 z"
   id="path9" />
		</g>
		<g
   id="g11">
			<path
   class="st1"
   d="m 24,30.61 c -3.33,0 -6.04,-2.71 -6.04,-6.04 0,-3.33 2.71,-6.04 6.04,-6.04 3.33,0 6.04,2.71 6.04,6.04 0,3.33 -2.71,6.04 -6.04,6.04 z m 0,-8.36 c -1.28,0 -2.32,1.04 -2.32,2.32 0,1.28 1.04,2.32 2.32,2.32 1.28,0 2.32,-1.04 2.32,-2.32 0,-1.28 -1.04,-2.32 -2.32,-2.32 z"
   id="path10" />
		</g>
	</g>
<style
   type="text/css"
   id="style1-6">
	.st0{fill:url(#SVGID_1_);}
</style><path
   class="st0"
   d="m 45.815,34.905 h -6.55 v -19.64 c 0,-3.61 -2.94,-6.55 -6.55,-6.55 h -19.63 v -6.54 c 0,-1.21 -0.98,-2.18 -2.18,-2.18 -1.2,0 -2.18,0.98 -2.18,2.18 v 6.55 h -6.55 c -1.2,0 -2.18,0.97 -2.18,2.18 0,1.21 0.98,2.18 2.18,2.18 h 6.55 v 19.64 c 0,3.61 2.94,6.55 6.55,6.55 h 19.64 v 6.55 c 0,1.21 0.98,2.18 2.18,2.18 1.21,0 2.18,-0.98 2.18,-2.18 v -6.55 h 6.55 c 1.21,0 2.18,-0.98 2.18,-2.18 0,-1.2 -0.99,-2.19 -2.19,-2.19 z m -30.55,0 c -1.2,0 -2.18,-0.98 -2.18,-2.18 v -19.64 h 19.64 c 1.2,0 2.18,0.98 2.18,2.18 v 19.64 z"
   id="path2"
   style="fill:#ff4d4d;fill-opacity:1" /></svg>
