<?xml version="1.0" encoding="utf-8"?>
<!-- Generator: Adobe Illustrator 27.9.6, SVG Export Plug-In . SVG Version: 9.03 Build 54986)  -->
<svg version="1.1" id="katman_1" xmlns="http://www.w3.org/2000/svg" xmlns:xlink="http://www.w3.org/1999/xlink" x="0px" y="0px"
	 viewBox="0 0 48 48" style="enable-background:new 0 0 48 48;" xml:space="preserve">
<style type="text/css">
	.st0{fill:#FF4D4D;}
	.st1{fill:#4A90E2;}
</style>
<g>
	<g>
		<g>
			<g>
				<path class="st0" d="M2.4,14.4C1.07,14.4,0,13.33,0,12V7.2C0,3.23,3.23,0,7.2,0H12c1.33,0,2.4,1.07,2.4,2.4S13.33,4.8,12,4.8
					H7.2c-1.32,0-2.4,1.08-2.4,2.4V12C4.8,13.33,3.73,14.4,2.4,14.4z"/>
			</g>
		</g>
		<g>
			<g>
				<path class="st0" d="M45.6,14.4c-1.33,0-2.4-1.07-2.4-2.4V7.2c0-1.32-1.08-2.4-2.4-2.4H36c-1.33,0-2.4-1.07-2.4-2.4
					S34.67,0,36,0h4.8C44.77,0,48,3.23,48,7.2V12C48,13.33,46.93,14.4,45.6,14.4z"/>
			</g>
		</g>
		<g>
			<g>
				<path class="st0" d="M40.8,48H36c-1.33,0-2.4-1.07-2.4-2.4c0-1.33,1.07-2.4,2.4-2.4h4.8c1.32,0,2.4-1.08,2.4-2.4V36
					c0-1.33,1.07-2.4,2.4-2.4c1.33,0,2.4,1.07,2.4,2.4v4.8C48,44.77,44.77,48,40.8,48z"/>
			</g>
		</g>
		<g>
			<g>
				<path class="st0" d="M12,48H7.2C3.23,48,0,44.77,0,40.8V36c0-1.33,1.07-2.4,2.4-2.4s2.4,1.07,2.4,2.4v4.8
					c0,1.32,1.08,2.4,2.4,2.4H12c1.33,0,2.4,1.07,2.4,2.4C14.4,46.93,13.33,48,12,48z"/>
			</g>
		</g>
	</g>
	<g>
		<g>
			<path class="st1" d="M35.14,36.18H12.86c-2.56,0-4.65-2.09-4.65-4.65V18.99c0-2.56,2.09-4.65,4.65-4.65h3.31l2.92-3.51
				c0.35-0.42,0.88-0.67,1.43-0.67h6.97c0.55,0,1.08,0.25,1.43,0.67l2.92,3.51h3.31c2.56,0,4.65,2.09,4.65,4.65v12.54
				C39.79,34.09,37.71,36.18,35.14,36.18z M12.86,18.07c-0.51,0-0.92,0.41-0.92,0.92v12.54c0,0.51,0.41,0.92,0.92,0.92h22.29
				c0.51,0,0.92-0.41,0.92-0.92V18.99c0-0.51-0.41-0.92-0.92-0.92h-4.18c-0.55,0-1.08-0.25-1.43-0.67l-2.92-3.51h-5.22l-2.92,3.51
				c-0.35,0.42-0.88,0.67-1.43,0.67H12.86z"/>
		</g>
		<g>
			<path class="st1" d="M24,30.61c-3.33,0-6.04-2.71-6.04-6.04c0-3.33,2.71-6.04,6.04-6.04s6.04,2.71,6.04,6.04
				C30.04,27.9,27.33,30.61,24,30.61z M24,22.25c-1.28,0-2.32,1.04-2.32,2.32s1.04,2.32,2.32,2.32s2.32-1.04,2.32-2.32
				S25.28,22.25,24,22.25z"/>
		</g>
	</g>
</g>
</svg>
