<?xml version="1.0" encoding="UTF-8" standalone="no"?>
<svg
   shape-rendering="geometricPrecision"
   text-rendering="geometricPrecision"
   image-rendering="optimizeQuality"
   fill-rule="evenodd"
   clip-rule="evenodd"
   viewBox="0 0 441 512.399"
   version="1.1"
   id="svg6"
   sodipodi:docname="page-settings.svg"
   xml:space="preserve"
   inkscape:version="1.2.2 (b0a8486541, 2022-12-01)"
   xmlns:inkscape="http://www.inkscape.org/namespaces/inkscape"
   xmlns:sodipodi="http://sodipodi.sourceforge.net/DTD/sodipodi-0.dtd"
   xmlns="http://www.w3.org/2000/svg"
   xmlns:svg="http://www.w3.org/2000/svg"><defs
     id="defs10" /><sodipodi:namedview
     id="namedview8"
     pagecolor="#ffffff"
     bordercolor="#000000"
     borderopacity="0.25"
     inkscape:showpageshadow="2"
     inkscape:pageopacity="0.0"
     inkscape:pagecheckerboard="0"
     inkscape:deskcolor="#d1d1d1"
     showgrid="false"
     inkscape:zoom="0.50107437"
     inkscape:cx="394.15307"
     inkscape:cy="276.40607"
     inkscape:window-width="850"
     inkscape:window-height="1390"
     inkscape:window-x="0"
     inkscape:window-y="0"
     inkscape:window-maximized="1"
     inkscape:current-layer="svg6" /><g
     id="g1884"
     transform="matrix(0.74251048,0,0,0.74251048,56.77644,65.968687)"><path
       fill="#88bcf4"
       fill-rule="nonzero"
       d="m 102.78,354.887 c -5.727,0 -10.372,-4.646 -10.372,-10.373 0,-5.727 4.645,-10.372 10.372,-10.372 h 85.566 a 148.234,148.234 0 0 0 -7.597,20.745 z m 0,-145.37 c -5.727,0 -10.372,-4.645 -10.372,-10.372 0,-5.727 4.645,-10.373 10.372,-10.373 h 151.286 c 5.727,0 10.373,4.646 10.373,10.373 0,5.727 -4.646,10.372 -10.373,10.372 z m 0,72.681 c -5.727,0 -10.372,-4.645 -10.372,-10.372 0,-5.727 4.645,-10.372 10.372,-10.372 h 143.271 c 2.829,0 5.394,1.134 7.264,2.97 a 149.511,149.511 0 0 0 -25.876,17.774 z"
       id="path2" /><path
       fill="#3c4d7a"
       d="m 324.263,278.925 c 32.232,0 61.419,13.067 82.545,34.193 21.125,21.124 34.192,50.312 34.192,82.542 0,32.236 -13.067,61.419 -34.192,82.545 -21.126,21.126 -50.311,34.194 -82.545,34.194 -32.232,0 -61.418,-13.068 -82.542,-34.194 -21.126,-21.126 -34.195,-50.312 -34.195,-82.545 0,-32.232 13.069,-61.417 34.195,-82.542 21.125,-21.126 50.308,-34.193 82.542,-34.193 z M 60.863,0 h 174.81 c 3.382,0 6.384,1.619 8.278,4.124 l 110.107,119.119 a 10.288,10.288 0 0 1 2.746,7.012 h 0.052 v 119.818 a 149.42,149.42 0 0 0 -20.752,-3.112 v -92.212 h -43.666 v -0.041 h -0.161 c -22.046,-0.35 -39.33,-6.223 -51.694,-16.785 C 227.734,126.944 220.52,111.309 219.08,91.884 A 10.145,10.145 0 0 1 218.984,90.48 V 20.752 H 60.863 c -11.02,0 -21.049,4.516 -28.321,11.79 -7.274,7.272 -11.79,17.301 -11.79,28.321 V 399.14 c 0,11.014 4.521,21.037 11.796,28.311 7.278,7.28 17.31,11.801 28.315,11.801 h 120.749 a 148.391,148.391 0 0 0 8.116,20.753 H 60.863 c -16.73,0 -31.958,-6.85 -42.987,-17.882 C 6.852,431.1 0,415.883 0,399.14 V 60.863 C 0,44.114 6.842,28.894 17.87,17.87 28.894,6.842 44.114,0 60.863,0 Z m 178.873,29.983 v 60.433 c 1.021,13.737 5.819,24.536 14.302,31.783 8.668,7.404 21.488,11.544 38.4,11.835 v -0.037 h 43.443 z m 120.449,304.914 c -1.57,-1.074 -3.355,-1.553 -5.156,-1.189 -1.801,0.346 -3.355,1.305 -4.429,2.858 l -6.114,8.626 c -4.131,-1.849 -9.404,-3.057 -13.882,-3.701 l -1.917,-11.269 c -0.362,-1.903 -1.322,-3.339 -2.758,-4.43 -1.555,-1.074 -3.224,-1.438 -5.139,-1.074 l -14.13,2.512 c -1.803,0.363 -3.239,1.206 -4.429,2.759 -1.074,1.554 -1.553,3.239 -1.206,5.156 l 1.801,10.295 c -4.347,1.817 -8.66,4.461 -12.329,7.42 l -9.583,-6.594 c -1.553,-1.074 -3.223,-1.553 -5.025,-1.188 -1.801,0.362 -3.354,1.322 -4.428,2.874 l -8.147,11.617 c -1.074,1.553 -1.553,3.339 -1.191,5.14 0.348,1.917 1.307,3.355 2.877,4.429 l 8.609,6.114 c -1.817,4.099 -3.057,9.435 -3.7,13.882 l -11.255,1.917 c -1.918,0.362 -3.356,1.322 -4.445,2.76 -1.074,1.553 -1.421,3.222 -1.074,5.139 l 2.511,14.128 c 0.364,1.802 1.207,3.239 2.76,4.429 1.553,1.091 3.239,1.57 5.156,1.207 l 10.295,-1.802 c 1.9,4.512 4.495,8.56 7.421,12.46 l -6.595,9.452 c -1.074,1.555 -1.553,3.239 -1.19,5.025 0.364,1.801 1.322,3.353 2.876,4.428 l 11.732,8.263 c 1.555,1.091 3.356,1.439 5.139,1.091 1.803,-0.364 3.356,-1.207 4.561,-2.76 l 6.099,-8.742 c 4.197,1.851 9.353,3.024 13.898,3.717 l 1.916,11.255 c 0.347,1.917 1.307,3.354 2.743,4.429 1.572,1.075 3.239,1.437 5.156,1.075 l 14.13,-2.513 c 1.8,-0.364 3.222,-1.207 4.429,-2.76 1.074,-1.553 1.553,-3.222 1.189,-5.139 l -1.784,-10.295 c 4.544,-1.917 8.509,-4.496 12.443,-7.436 l 9.47,6.592 c 1.552,1.075 3.221,1.554 5.138,1.191 1.918,-0.347 3.356,-1.305 4.43,-2.877 l 8.262,-11.732 c 1.074,-1.552 1.438,-3.355 1.074,-5.138 -0.348,-1.803 -1.189,-3.356 -2.743,-4.561 l -8.741,-5.983 c 1.817,-4.099 3.057,-9.437 3.701,-13.881 l 11.253,-1.917 c 1.917,-0.365 3.355,-1.322 4.446,-2.761 1.074,-1.552 1.438,-3.222 1.074,-5.139 l -2.512,-14.129 c -0.363,-1.801 -1.206,-3.239 -2.76,-4.428 -1.553,-1.091 -3.24,-1.57 -5.155,-1.207 l -10.295,1.802 c -1.985,-4.478 -4.347,-8.511 -7.421,-12.328 l 6.593,-9.584 c 1.076,-1.555 1.555,-3.239 1.191,-5.025 -0.363,-1.801 -1.322,-3.353 -2.875,-4.444 l -11.618,-8.131 z m -35.908,30.572 c 16.673,0 30.191,13.518 30.191,30.191 0,16.674 -13.518,30.193 -30.191,30.193 -16.676,0 -30.194,-13.519 -30.194,-30.193 0,-16.673 13.518,-30.191 30.194,-30.191 z"
       id="path4" /></g></svg>
