<?xml version="1.0" encoding="utf-8"?>
<!-- Generator: Adobe Illustrator 27.9.6, SVG Export Plug-In . SVG Version: 9.03 Build 54986)  -->
<svg version="1.1" id="katman_1" xmlns="http://www.w3.org/2000/svg" xmlns:xlink="http://www.w3.org/1999/xlink" x="0px" y="0px"
	 viewBox="0 0 48 48" style="enable-background:new 0 0 48 48;" xml:space="preserve">
<style type="text/css">
	.st0{fill:#8CB6E0;}
	.st1{fill:#F4F4F4;}
</style>
<g>
	<g>
		<path class="st0" d="M24.53,48h-1.05c-3.96,0-7.19-2.94-7.19-6.55v-0.39c0-0.77-0.46-1.5-1.2-1.88l-1.04-0.55
			c-0.73-0.39-1.65-0.38-2.39,0l-0.43,0.21c-3.35,1.76-7.75,0.69-9.74-2.43l-0.53-0.83c-1.98-3.12-0.8-7.13,2.62-8.94l0.33-0.18
			c0.78-0.41,1.24-1.14,1.23-1.92v-1.12c0-0.76-0.46-1.48-1.2-1.86l-0.49-0.29c-3.29-1.73-4.47-5.74-2.49-8.86l0.53-0.83
			c1.98-3.12,6.38-4.19,9.81-2.39l0.29,0.14c0.81,0.43,1.73,0.42,2.46,0.04l1.03-0.54c0.74-0.39,1.2-1.11,1.2-1.89V6.55
			c0-3.61,3.22-6.55,7.19-6.55h1.05c3.96,0,7.19,2.94,7.19,6.55v0.39c0,0.77,0.46,1.5,1.2,1.88l1.04,0.55
			c0.73,0.39,1.65,0.39,2.39,0l0.43-0.21c3.36-1.77,7.76-0.69,9.74,2.42l0.53,0.83c1.98,3.13,0.8,7.13-2.62,8.94l-0.33,0.18
			c-0.78,0.41-1.24,1.14-1.23,1.92v1.1c0,0.79,0.46,1.52,1.2,1.91l0.29,0.14c3.5,1.84,4.67,5.85,2.7,8.97l-0.52,0.83
			c-2,3.14-6.4,4.21-9.82,2.41l-0.29-0.14c-0.81-0.43-1.73-0.43-2.47-0.04l-1.03,0.54c-0.74,0.39-1.2,1.11-1.2,1.89v0.39
			C31.72,45.06,28.49,48,24.53,48z M12.84,33.97c1.24,0,2.5,0.29,3.62,0.88l1.04,0.55c2.21,1.16,3.59,3.33,3.59,5.66v0.39
			c0,1.2,1.08,2.18,2.4,2.18h1.05c1.32,0,2.4-0.98,2.4-2.18v-0.39c0-2.33,1.38-4.5,3.59-5.66l1.02-0.54c2.22-1.17,4.98-1.17,7.19,0
			l0.28,0.14c1.22,0.64,2.68,0.28,3.34-0.76l0.51-0.83c0.67-1.06,0.28-2.39-0.86-2.99l-0.29-0.14c-2.3-1.21-3.67-3.39-3.67-5.73
			v-1.08c-0.01-2.33,1.37-4.52,3.59-5.69l0.32-0.18c1.17-0.62,1.57-1.95,0.91-3l-0.53-0.82c-0.66-1.04-2.13-1.39-3.27-0.8
			l-0.43,0.21c-2.15,1.13-4.9,1.13-7.12-0.04l-1.04-0.55c-2.21-1.16-3.58-3.33-3.59-5.66v-0.4c0-1.2-1.08-2.18-2.4-2.18h-1.05
			c-1.32,0-2.4,0.98-2.4,2.18v0.39c0,2.33-1.38,4.5-3.59,5.66l-1.02,0.54c-2.22,1.17-4.97,1.17-7.19,0l-0.29-0.14
			c-1.21-0.63-2.68-0.27-3.34,0.76L5.11,14.6c-0.66,1.04-0.27,2.37,0.88,2.98l0.49,0.29c2.07,1.08,3.45,3.24,3.46,5.55v1.13
			c0.01,2.33-1.37,4.51-3.59,5.69l-0.33,0.18c-1.17,0.62-1.56,1.95-0.91,2.99l0.53,0.83c0.66,1.04,2.13,1.39,3.27,0.79l0.43-0.21
			C10.4,34.26,11.62,33.97,12.84,33.97z"/>
	</g>
	<g>
		<g>
			<path class="st1" d="M24,32.73c-5.28,0-9.58-3.92-9.58-8.73s4.3-8.73,9.58-8.73s9.58,3.92,9.58,8.73S29.29,32.73,24,32.73z
				 M24,19.64c-2.64,0-4.79,1.96-4.79,4.36s2.15,4.36,4.79,4.36s4.79-1.96,4.79-4.36S26.65,19.64,24,19.64z"/>
		</g>
	</g>
</g>
</svg>
