<?xml version="1.0" encoding="UTF-8" standalone="no"?>
<!-- Generator: Adobe Illustrator 27.9.6, SVG Export Plug-In . SVG Version: 9.03 Build 54986)  -->

<svg
   version="1.1"
   id="katman_1"
   x="0px"
   y="0px"
   viewBox="0 0 48 48"
   style="enable-background:new 0 0 48 48;"
   xml:space="preserve"
   sodipodi:docname="color-picker.svg"
   inkscape:version="1.4.2 (ebf0e940d0, 2025-05-08)"
   xmlns:inkscape="http://www.inkscape.org/namespaces/inkscape"
   xmlns:sodipodi="http://sodipodi.sourceforge.net/DTD/sodipodi-0.dtd"
   xmlns="http://www.w3.org/2000/svg"
   xmlns:svg="http://www.w3.org/2000/svg"><defs
   id="defs16" /><sodipodi:namedview
   id="namedview16"
   pagecolor="#ffffff"
   bordercolor="#000000"
   borderopacity="0.25"
   inkscape:showpageshadow="2"
   inkscape:pageopacity="0.0"
   inkscape:pagecheckerboard="0"
   inkscape:deskcolor="#d1d1d1"
   inkscape:zoom="10.166667"
   inkscape:cx="23.95082"
   inkscape:cy="24"
   inkscape:window-width="1366"
   inkscape:window-height="699"
   inkscape:window-x="0"
   inkscape:window-y="0"
   inkscape:window-maximized="1"
   inkscape:current-layer="katman_1" />
<style
   type="text/css"
   id="style1">
	.st0{fill:url(#SVGID_1_);}
	.st1{fill:#FFF68F;}
	.st2{fill:#66DD88;}
	.st3{fill:#FF4D4D;}
	.st4{fill:#B57EDC;}
</style>
<g
   id="g16">
	<g
   id="g3">
		<g
   id="g2">
			<radialGradient
   id="SVGID_1_"
   cx="24"
   cy="24"
   r="24"
   gradientUnits="userSpaceOnUse">
				<stop
   offset="0"
   style="stop-color:#C0C0C0"
   id="stop1" />
				<stop
   offset="0.9762"
   style="stop-color:#FFFFFF"
   id="stop2" />
			</radialGradient>
			<path
   class="st0"
   d="M 24.55,48 H 24 C 10.77,48 0,37.23 0,24 0,10.77 10.77,0 24,0 37.23,0 48,9.79 48,21.82 48,29.04 42.13,34.91 34.91,34.91 H 30 c -0.9,0 -1.64,0.74 -1.64,1.64 0,0.35 0.12,0.7 0.33,0.98 l 0.66,0.87 c 0.96,1.28 1.37,2.86 1.14,4.45 -0.23,1.59 -1.06,2.99 -2.34,3.95 -1.04,0.77 -2.32,1.2 -3.6,1.2 z M 24,4.36 C 13.17,4.36 4.36,13.17 4.36,24 4.36,34.83 13.17,43.64 24,43.64 h 0.55 c 0.36,0 0.7,-0.11 0.98,-0.33 0.35,-0.26 0.58,-0.64 0.64,-1.08 0.06,-0.43 -0.05,-0.86 -0.31,-1.21 L 25.2,40.14 C 24.43,39.11 24,37.83 24,36.54 c 0,-3.31 2.69,-6 6,-6 h 4.91 c 4.81,0 8.73,-3.91 8.73,-8.73 C 43.64,12.19 34.83,4.36 24,4.36 Z"
   id="path2"
   style="fill:url(#SVGID_1_)" />
		</g>
	</g>
	<g
   id="g6">
		<g
   id="g4">
			<circle
   class="st1"
   cx="27.27"
   cy="12"
   r="1.09"
   id="circle3" />
		</g>
		<g
   id="g5">
			<path
   class="st1"
   d="M 27.27,15.27 C 25.47,15.27 24,13.8 24,12 c 0,-1.8 1.47,-3.27 3.27,-3.27 1.8,0 3.27,1.47 3.27,3.27 0,1.8 -1.46,3.27 -3.27,3.27 z m 0,-4.36 c -0.6,0 -1.09,0.49 -1.09,1.09 0,0.6 0.49,1.09 1.09,1.09 0.6,0 1.09,-0.49 1.09,-1.09 0,-0.6 -0.49,-1.09 -1.09,-1.09 z"
   id="path4" />
		</g>
	</g>
	<g
   id="g9">
		<g
   id="g7">
			<circle
   class="st2"
   cx="36"
   cy="20.73"
   r="1.09"
   id="circle6" />
		</g>
		<g
   id="g8">
			<path
   class="st2"
   d="m 36,24 c -1.8,0 -3.27,-1.47 -3.27,-3.27 0,-1.8 1.47,-3.27 3.27,-3.27 1.8,0 3.27,1.47 3.27,3.27 0,1.8 -1.47,3.27 -3.27,3.27 z m 0,-4.36 c -0.6,0 -1.09,0.49 -1.09,1.09 0,0.6 0.49,1.09 1.09,1.09 0.6,0 1.09,-0.49 1.09,-1.09 0,-0.6 -0.49,-1.09 -1.09,-1.09 z"
   id="path7" />
		</g>
	</g>
	<g
   id="g12">
		<g
   id="g10">
			<circle
   class="st3"
   cx="12"
   cy="25.09"
   r="1.09"
   id="circle9" />
		</g>
		<g
   id="g11">
			<path
   class="st3"
   d="m 12,28.36 c -1.8,0 -3.27,-1.47 -3.27,-3.27 0,-1.8 1.47,-3.27 3.27,-3.27 1.8,0 3.27,1.47 3.27,3.27 0,1.8 -1.47,3.27 -3.27,3.27 z M 12,24 c -0.6,0 -1.09,0.49 -1.09,1.09 0,0.6 0.49,1.09 1.09,1.09 0.6,0 1.09,-0.49 1.09,-1.09 C 13.09,24.49 12.6,24 12,24 Z"
   id="path10" />
		</g>
	</g>
	<g
   id="g15">
		<g
   id="g13">
			<circle
   class="st4"
   cx="16.360001"
   cy="14.18"
   r="1.09"
   id="circle12" />
		</g>
		<g
   id="g14">
			<path
   class="st4"
   d="m 16.36,17.45 c -1.8,0 -3.27,-1.47 -3.27,-3.27 0,-1.8 1.47,-3.27 3.27,-3.27 1.8,0 3.27,1.47 3.27,3.27 0,1.8 -1.46,3.27 -3.27,3.27 z m 0,-4.36 c -0.6,0 -1.09,0.49 -1.09,1.09 0,0.6 0.49,1.09 1.09,1.09 0.6,0 1.09,-0.49 1.09,-1.09 0,-0.6 -0.48,-1.09 -1.09,-1.09 z"
   id="path13" />
		</g>
	</g>
</g>
</svg>
