<?xml version="1.0" encoding="utf-8"?>
<!-- Generator: Adobe Illustrator 27.9.6, SVG Export Plug-In . SVG Version: 9.03 Build 54986)  -->
<svg version="1.1" id="katman_1" xmlns="http://www.w3.org/2000/svg" xmlns:xlink="http://www.w3.org/1999/xlink" x="0px" y="0px"
	 viewBox="0 0 48 48" style="enable-background:new 0 0 48 48;" xml:space="preserve">
<style type="text/css">
	.st0{fill:url(#SVGID_1_);}
	.st1{fill:#FFF68F;}
	.st2{fill:#66DD88;}
	.st3{fill:#FF4D4D;}
	.st4{fill:#B57EDC;}
</style>
<g>
	<g>
		<g>
			<radialGradient id="SVGID_1_" cx="24" cy="24" r="24" gradientUnits="userSpaceOnUse">
				<stop  offset="0" style="stop-color:#C0C0C0"/>
				<stop  offset="0.9762" style="stop-color:#FFFFFF"/>
			</radialGradient>
			<path class="st0" d="M24.55,48H24C10.77,48,0,37.23,0,24S10.77,0,24,0s24,9.79,24,21.82c0,7.22-5.87,13.09-13.09,13.09H30
				c-0.9,0-1.64,0.74-1.64,1.64c0,0.35,0.12,0.7,0.33,0.98l0.66,0.87c0.96,1.28,1.37,2.86,1.14,4.45c-0.23,1.59-1.06,2.99-2.34,3.95
				C27.11,47.57,25.83,48,24.55,48z M24,4.36C13.17,4.36,4.36,13.17,4.36,24S13.17,43.64,24,43.64h0.55c0.36,0,0.7-0.11,0.98-0.33
				c0.35-0.26,0.58-0.64,0.64-1.08c0.06-0.43-0.05-0.86-0.31-1.21l-0.66-0.88c-0.77-1.03-1.2-2.31-1.2-3.6c0-3.31,2.69-6,6-6h4.91
				c4.81,0,8.73-3.91,8.73-8.73C43.64,12.19,34.83,4.36,24,4.36z"/>
		</g>
	</g>
	<g>
		<g>
			<circle class="st1" cx="27.27" cy="12" r="1.09"/>
		</g>
		<g>
			<path class="st1" d="M27.27,15.27C25.47,15.27,24,13.8,24,12s1.47-3.27,3.27-3.27s3.27,1.47,3.27,3.27S29.08,15.27,27.27,15.27z
				 M27.27,10.91c-0.6,0-1.09,0.49-1.09,1.09s0.49,1.09,1.09,1.09c0.6,0,1.09-0.49,1.09-1.09S27.87,10.91,27.27,10.91z"/>
		</g>
	</g>
	<g>
		<g>
			<circle class="st2" cx="36" cy="20.73" r="1.09"/>
		</g>
		<g>
			<path class="st2" d="M36,24c-1.8,0-3.27-1.47-3.27-3.27s1.47-3.27,3.27-3.27s3.27,1.47,3.27,3.27S37.8,24,36,24z M36,19.64
				c-0.6,0-1.09,0.49-1.09,1.09c0,0.6,0.49,1.09,1.09,1.09s1.09-0.49,1.09-1.09C37.09,20.13,36.6,19.64,36,19.64z"/>
		</g>
	</g>
	<g>
		<g>
			<circle class="st3" cx="12" cy="25.09" r="1.09"/>
		</g>
		<g>
			<path class="st3" d="M12,28.36c-1.8,0-3.27-1.47-3.27-3.27s1.47-3.27,3.27-3.27s3.27,1.47,3.27,3.27S13.8,28.36,12,28.36z M12,24
				c-0.6,0-1.09,0.49-1.09,1.09c0,0.6,0.49,1.09,1.09,1.09s1.09-0.49,1.09-1.09C13.09,24.49,12.6,24,12,24z"/>
		</g>
	</g>
	<g>
		<g>
			<circle class="st4" cx="16.36" cy="14.18" r="1.09"/>
		</g>
		<g>
			<path class="st4" d="M16.36,17.45c-1.8,0-3.27-1.47-3.27-3.27s1.47-3.27,3.27-3.27s3.27,1.47,3.27,3.27S18.17,17.45,16.36,17.45z
				 M16.36,13.09c-0.6,0-1.09,0.49-1.09,1.09s0.49,1.09,1.09,1.09s1.09-0.49,1.09-1.09S16.97,13.09,16.36,13.09z"/>
		</g>
	</g>
</g>
</svg>
