<?xml version="1.0" encoding="utf-8"?>
<!-- Generator: Adobe Illustrator 27.9.6, SVG Export Plug-In . SVG Version: 9.03 Build 54986)  -->
<svg version="1.1" id="katman_1" xmlns="http://www.w3.org/2000/svg" xmlns:xlink="http://www.w3.org/1999/xlink" x="0px" y="0px"
	 viewBox="0 0 48 48" style="enable-background:new 0 0 48 48;" xml:space="preserve">
<style type="text/css">
	.st0{fill:url(#SVGID_1_);}
</style>
<radialGradient id="SVGID_1_" cx="-12.5959" cy="46.8966" r="61.8217" gradientUnits="userSpaceOnUse">
	<stop  offset="0" style="stop-color:#2F88FF"/>
	<stop  offset="0.9762" style="stop-color:#FF4D4D"/>
</radialGradient>
<path class="st0" d="M45.72,41.43H31.41l14.24-14.24c1.46-1.31,2.29-3.1,2.35-5.04c0.05-2.03-0.75-3.98-2.26-5.5L33.65,4.57
	c-1.32-1.46-3.11-2.29-5.04-2.35c-2.03-0.05-3.98,0.75-5.49,2.26L7.28,20.33c-0.01,0.01-0.01,0.01-0.02,0.01s-0.01,0.01-0.01,0.02
	l-4.9,4.9C0.89,26.58,0.05,28.37,0,30.3c-0.05,2.03,0.75,3.98,2.26,5.5l9.34,9.34c0.1,0.1,0.22,0.19,0.34,0.28
	c0.05,0.03,0.1,0.05,0.14,0.08c0.08,0.04,0.15,0.09,0.23,0.12c0.07,0.03,0.14,0.04,0.21,0.07c0.06,0.02,0.13,0.04,0.19,0.06
	c0.14,0.03,0.28,0.04,0.43,0.04h32.58c1.2,0,2.17-0.97,2.17-2.17C47.89,42.4,46.92,41.43,45.72,41.43z M26.19,7.56
	c0.66-0.66,1.48-0.97,2.31-0.99c0.74,0.02,1.41,0.34,2,0.99l12.16,12.16c0.66,0.66,1.01,1.48,0.99,2.31c-0.02,0.74-0.33,1.41-0.99,2
	L28.34,38.36L11.87,21.88L26.19,7.56z M4.35,30.42c0.02-0.74,0.33-1.41,0.99-2l3.46-3.46l16.48,16.48l0,0H14.04l-8.7-8.7
	C4.68,32.06,4.32,31.24,4.35,30.42z"/>
</svg>
