<?xml version="1.0" encoding="utf-8"?>
<!-- Generator: Adobe Illustrator 27.9.6, SVG Export Plug-In . SVG Version: 9.03 Build 54986)  -->
<svg version="1.1" id="katman_1" xmlns="http://www.w3.org/2000/svg" xmlns:xlink="http://www.w3.org/1999/xlink" x="0px" y="0px"
	 viewBox="0 0 48 48" style="enable-background:new 0 0 48 48;" xml:space="preserve">
<style type="text/css">
	.st0{fill:#4A90E2;}
</style>
<g>
	<g>
		<g>
			<path class="st0" d="M45.6,38.4c-1.32,0-2.4-1.07-2.4-2.4c0-5.13-2.01-9.95-5.64-13.57c-3.63-3.62-8.44-5.61-13.56-5.61
				c-0.01,0-0.01,0-0.02,0c-4.72,0-9.26,1.74-12.78,4.89l-7.19,6.47c-0.99,0.89-2.5,0.81-3.39-0.18c-0.89-0.99-0.81-2.5,0.18-3.39
				l7.2-6.48c4.41-3.94,10.08-6.11,15.98-6.12c0.01,0,0.02,0,0.02,0c6.4,0,12.42,2.49,16.95,7.01C45.49,23.56,47.99,29.59,48,36
				C48,37.32,46.93,38.4,45.6,38.4C45.6,38.4,45.6,38.4,45.6,38.4z"/>
		</g>
		<g>
			<path class="st0" d="M16.8,28.8H2.4c-1.33,0-2.4-1.07-2.4-2.4V12c0-1.33,1.07-2.4,2.4-2.4s2.4,1.07,2.4,2.4v12h12
				c1.33,0,2.4,1.07,2.4,2.4C19.2,27.73,18.13,28.8,16.8,28.8z"/>
		</g>
	</g>
</g>
</svg>
