<?xml version="1.0" encoding="UTF-8" standalone="no"?>
<!-- Generator: Adobe Illustrator 27.9.6, SVG Export Plug-In . SVG Version: 9.03 Build 54986)  -->

<svg
   version="1.1"
   id="katman_1"
   x="0px"
   y="0px"
   viewBox="0 0 48 48"
   style="enable-background:new 0 0 48 48;"
   xml:space="preserve"
   sodipodi:docname="go-back.svg"
   inkscape:version="1.4.2 (ebf0e940d0, 2025-05-08)"
   xmlns:inkscape="http://www.inkscape.org/namespaces/inkscape"
   xmlns:sodipodi="http://sodipodi.sourceforge.net/DTD/sodipodi-0.dtd"
   xmlns="http://www.w3.org/2000/svg"
   xmlns:svg="http://www.w3.org/2000/svg"><defs
   id="defs4" /><sodipodi:namedview
   id="namedview4"
   pagecolor="#ffffff"
   bordercolor="#000000"
   borderopacity="0.25"
   inkscape:showpageshadow="2"
   inkscape:pageopacity="0.0"
   inkscape:pagecheckerboard="0"
   inkscape:deskcolor="#d1d1d1"
   inkscape:zoom="10.166667"
   inkscape:cx="23.95082"
   inkscape:cy="24"
   inkscape:window-width="1366"
   inkscape:window-height="699"
   inkscape:window-x="0"
   inkscape:window-y="0"
   inkscape:window-maximized="1"
   inkscape:current-layer="katman_1" />
<style
   type="text/css"
   id="style1">
	.st0{fill:#4A90E2;}
</style>
<g
   id="g4">
	<g
   id="g3">
		<g
   id="g1">
			<path
   class="st0"
   d="m 45.6,38.4 c -1.32,0 -2.4,-1.07 -2.4,-2.4 0,-5.13 -2.01,-9.95 -5.64,-13.57 -3.63,-3.62 -8.44,-5.61 -13.56,-5.61 -0.01,0 -0.01,0 -0.02,0 -4.72,0 -9.26,1.74 -12.78,4.89 L 4.01,28.18 C 3.02,29.07 1.51,28.99 0.62,28 -0.27,27.01 -0.19,25.5 0.8,24.61 L 8,18.13 c 4.41,-3.94 10.08,-6.11 15.98,-6.12 0.01,0 0.02,0 0.02,0 6.4,0 12.42,2.49 16.95,7.01 4.54,4.54 7.04,10.57 7.05,16.98 0,1.32 -1.07,2.4 -2.4,2.4 z"
   id="path1" />
		</g>
		<g
   id="g2">
			<path
   class="st0"
   d="M 16.8,28.8 H 2.4 C 1.07,28.8 0,27.73 0,26.4 V 12 c 0,-1.33 1.07,-2.4 2.4,-2.4 1.33,0 2.4,1.07 2.4,2.4 v 12 h 12 c 1.33,0 2.4,1.07 2.4,2.4 0,1.33 -1.07,2.4 -2.4,2.4 z"
   id="path2" />
		</g>
	</g>
</g>
</svg>
