<?xml version="1.0" encoding="utf-8"?>
<!-- Generator: Adobe Illustrator 27.9.6, SVG Export Plug-In . SVG Version: 9.03 Build 54986)  -->
<svg version="1.1" id="katman_1" xmlns="http://www.w3.org/2000/svg" xmlns:xlink="http://www.w3.org/1999/xlink" x="0px" y="0px"
	 viewBox="0 0 48 48" style="enable-background:new 0 0 48 48;" xml:space="preserve">
<style type="text/css">
	.st0{fill:#4A90E2;}
</style>
<g>
	<g>
		<g>
			<path class="st0" d="M2.4,38.4c1.32,0,2.4-1.07,2.4-2.4c0-5.13,2.01-9.95,5.64-13.57c3.63-3.62,8.44-5.61,13.56-5.61
				c0.01,0,0.01,0,0.02,0c4.72,0,9.26,1.74,12.78,4.89l7.19,6.47c0.99,0.89,2.5,0.81,3.39-0.18c0.89-0.99,0.81-2.5-0.18-3.39
				l-7.2-6.48c-4.41-3.94-10.08-6.11-15.98-6.12c-0.01,0-0.02,0-0.02,0c-6.4,0-12.42,2.49-16.95,7.01C2.51,23.56,0.01,29.59,0,36
				C0,37.32,1.07,38.4,2.4,38.4C2.4,38.4,2.4,38.4,2.4,38.4z"/>
		</g>
		<g>
			<path class="st0" d="M31.2,28.8h14.4c1.33,0,2.4-1.07,2.4-2.4V12c0-1.33-1.07-2.4-2.4-2.4c-1.33,0-2.4,1.07-2.4,2.4v12h-12
				c-1.33,0-2.4,1.07-2.4,2.4C28.8,27.73,29.87,28.8,31.2,28.8z"/>
		</g>
	</g>
</g>
</svg>
