<?xml version="1.0" encoding="utf-8"?>
<!-- Generator: Adobe Illustrator 28.4.1, SVG Export Plug-In . SVG Version: 6.00 Build 0)  -->
<svg version="1.0" id="katman_2_00000015328674555090814690000013762126697356173469_"
	 xmlns="http://www.w3.org/2000/svg" xmlns:xlink="http://www.w3.org/1999/xlink" x="0px" y="0px" viewBox="0 0 512 512"
	 style="enable-background:new 0 0 512 512;" xml:space="preserve">
<style type="text/css">
	.st0{fill:#1EB7D2;}
	.st1{fill:#1F71B7;}
</style>
<path class="st0" d="M454.6,197.5l-50.8,37.9c-16.6-32.6-40.8-58.5-71.4-76.2c-46.9-27.1-107.3-33.4-161.6-16.9
	c-70.4,21.4-107.1,79.9-108.6,82.4L49.1,246l42.5,26.2l13.3-21.1c0.3-0.4,28.8-45.1,80.5-60.8c31.8-9.7,80.6-11.5,122,12.4
	c20.6,11.9,37,28.7,49,50.1l-60.4,5.2c-5.2,0.4-7.2,7-3.2,10.3l134.2,109.2c3.5,2.8,8.7,0.8,9.4-3.6L463.8,203
	C464.6,197.9,458.8,194.4,454.6,197.5z"/>
<path class="st1" d="M430.5,381.4c-1.9,0-3.8-0.6-5.3-1.9L291.1,270.3c-2.7-2.2-3.8-5.7-2.7-9c1-3.4,3.8-5.6,7.3-5.9l56.3-4.9
	c-11.5-19.3-27-34.6-46-45.5c-40.7-23.4-88.6-21.6-119.9-12.1c-50.7,15.4-78.8,59.2-79,59.7l-14.7,23.4l-46.9-29L60,223.3
	c1.6-2.5,38.8-61.9,110.1-83.6c54.9-16.7,116.1-10.3,163.7,17.2c30.2,17.4,54.1,42.5,71,74.5l48.3-36.1c2.8-2.1,6.4-2.3,9.4-0.5
	c3,1.8,4.5,5.1,4,8.6l-27.5,170.8c-0.5,3-2.5,5.5-5.3,6.5C432.6,381.2,431.6,381.4,430.5,381.4z M232.3,180.9
	c24.7,0,51.8,5.3,76.3,19.4c21,12.1,37.8,29.3,50,51.1l2,3.6l-64.5,5.6c-2,0.2-2.6,1.7-2.7,2.2s-0.5,2.1,1,3.4l134.2,109.2
	c1.3,1,2.6,0.7,3.1,0.5c0.5-0.2,1.7-0.8,2-2.5l27.5-170.8c0.3-2-1.1-2.9-1.5-3.2c-0.4-0.3-1.9-1-3.5,0.2l-53.3,39.8l-1.4-2.8
	c-16.5-32.4-40.2-57.7-70.4-75.1c-46.3-26.7-105.9-32.9-159.5-16.7C102.2,165.9,66,223.6,64.4,226.1l-11.7,19l38,23.5l11.9-18.9
	c0.3-0.5,29.1-45.9,82-61.9C198.1,183.6,214.6,180.9,232.3,180.9z"/>
</svg>
