<?xml version="1.0" encoding="utf-8"?>
<!-- Generator: Adobe Illustrator 28.4.1, SVG Export Plug-In . SVG Version: 6.00 Build 0)  -->
<svg version="1.0" id="katman_2_00000019637673955395355760000009862740573311693457_"
	 xmlns="http://www.w3.org/2000/svg" xmlns:xlink="http://www.w3.org/1999/xlink" x="0px" y="0px" viewBox="0 0 512 512"
	 style="enable-background:new 0 0 512 512;" xml:space="preserve">
<style type="text/css">
	.st0{fill:#F4E72A;}
	.st1{fill:#0C0D18;}
	.st2{fill:#161A1E;}
	.st3{opacity:0.1;fill:#161A1E;enable-background:new    ;}
	.st4{opacity:0.1;}
</style>
<polygon class="st0" points="89.2,394.3 45.5,438 88.7,464.2 124.1,428.8 "/>
<path class="st0" d="M457.7,180.9c12.5-14.9,11.5-38.3-2.2-52l-70.1-70.1c-13.7-13.7-37.1-14.7-52-2.2l-220,186.1L271.6,401
	L457.7,180.9L457.7,180.9z"/>
<path class="st1" d="M139.5,445.8c32.9-32.9,91.3-22.9,91.3-22.9L94.4,286.5c0,0,10,58.5-22.9,91.3L139.5,445.8L139.5,445.8z"/>
<path class="st2" d="M272.3,400.1c0,0-13.1,2.9-23.4,9c-10,5.9-18.1,13.9-18.1,13.9L94.4,286.5c0,0,7.6-10.2,11.4-18.9
	c4.3-9.6,8.5-25.5,8.5-25.5L272.3,400.1L272.3,400.1z"/>
<path class="st3" d="M422,95.4L66.6,450.8l22.2,13.4l34.6-34.6l16.2,16.2c32.2-32.2,89-23.3,91.3-22.9l0,0c0,0,8.1-7.9,18.1-13.9
	c8.4-5,18.6-7.8,22.1-8.7l0.6,0.6l186.1-220c12.5-14.9,11.5-38.3-2.2-52L422,95.4L422,95.4z"/>
<g class="st4">
	<path class="st2" d="M200.2,233.2c-2.5,0-4.9-1-6.7-3.1c-3.2-3.7-2.7-9.2,1-12.4l132.6-113.1c3.7-3.1,9.2-2.7,12.4,1
		c3.2,3.7,2.7,9.2-1,12.4L205.9,231.1C204.3,232.5,202.2,233.2,200.2,233.2L200.2,233.2z"/>
</g>
</svg>
