<?xml version="1.0" encoding="UTF-8" standalone="no"?>
<!-- Generator: Adobe Illustrator 27.9.6, SVG Export Plug-In . SVG Version: 9.03 Build 54986)  -->

<svg
   version="1.1"
   id="katman_1"
   x="0px"
   y="0px"
   viewBox="0 0 48 48"
   style="enable-background:new 0 0 48 48;"
   xml:space="preserve"
   sodipodi:docname="minify.svg"
   inkscape:version="1.4 (e7c3feb100, 2024-10-09)"
   xmlns:inkscape="http://www.inkscape.org/namespaces/inkscape"
   xmlns:sodipodi="http://sodipodi.sourceforge.net/DTD/sodipodi-0.dtd"
   xmlns:xlink="http://www.w3.org/1999/xlink"
   xmlns="http://www.w3.org/2000/svg"
   xmlns:svg="http://www.w3.org/2000/svg"><defs
   id="defs3"><linearGradient
     id="linearGradient4"
     inkscape:collect="always"><stop
       style="stop-color:#e0e0e0;stop-opacity:1;"
       offset="0"
       id="stop4" /><stop
       style="stop-color:#ffffff;stop-opacity:1;"
       offset="1"
       id="stop5" /></linearGradient><linearGradient
     inkscape:collect="always"
     xlink:href="#linearGradient4"
     id="linearGradient5"
     x1="4.801764"
     y1="4.0969067"
     x2="27.967121"
     y2="28.979437"
     gradientUnits="userSpaceOnUse" /><linearGradient
     inkscape:collect="always"
     xlink:href="#linearGradient4"
     id="linearGradient6"
     gradientUnits="userSpaceOnUse"
     x1="4.801764"
     y1="4.0969067"
     x2="27.967121"
     y2="28.979437" /></defs><sodipodi:namedview
   id="namedview3"
   pagecolor="#ffffff"
   bordercolor="#000000"
   borderopacity="0.25"
   inkscape:showpageshadow="2"
   inkscape:pageopacity="0.0"
   inkscape:pagecheckerboard="0"
   inkscape:deskcolor="#d1d1d1"
   showguides="true"
   inkscape:zoom="11.829307"
   inkscape:cx="34.490609"
   inkscape:cy="26.671047"
   inkscape:window-width="1920"
   inkscape:window-height="1011"
   inkscape:window-x="0"
   inkscape:window-y="0"
   inkscape:window-maximized="1"
   inkscape:current-layer="katman_1" />
<style
   type="text/css"
   id="style1">
	.st0{fill:url(#SVGID_1_);}
</style>

<g
   style="fill:url(#linearGradient5)"
   id="g4"
   transform="matrix(1.6785714,0,0,1.6785714,-2.9710687,-2.8571424)"><path
     d="m 13,2 c -1.644531,0 -3,1.355469 -3,3 v 11.8125 l -0.65625,-0.6875 -0.25,-0.21875 c -1.152344,-1.152344 -3.035156,-1.152344 -4.1875,0 -1.152344,1.152344 -1.152344,3.035156 0,4.1875 V 20.125 l 8.1875,8.09375 0.0625,0.03125 0.03125,0.0625 c 1.347656,1.011719 3.066406,1.6875 5,1.6875 h 1.71875 c 4.535156,0 8.1875,-3.652344 8.1875,-8.1875 V 14 c 0,-1.644531 -1.355469,-3 -3,-3 -0.425781,0 -0.820312,0.117188 -1.1875,0.28125 C 23.578125,9.980469 22.394531,9 21,9 20.234375,9 19.53125,9.300781 19,9.78125 18.46875,9.300781 17.765625,9 17,9 16.648438,9 16.316406,9.074219 16,9.1875 V 5 C 16,3.355469 14.644531,2 13,2 Z m 0,2 c 0.554688,0 1,0.445313 1,1 v 11 h 2 v -4 c 0,-0.554687 0.445313,-1 1,-1 0.554688,0 1,0.445313 1,1 v 4 h 2 v -4 c 0,-0.554687 0.445313,-1 1,-1 0.554688,0 1,0.445313 1,1 v 4 h 2.09375 v -2 c 0,-0.554687 0.445313,-1 1,-1 0.554688,0 1,0.445313 1,1 v 7.8125 c 0,3.464844 -2.722656,6.1875 -6.1875,6.1875 H 18.1875 c -1.464844,0 -2.730469,-0.523437 -3.78125,-1.3125 l -8.09375,-8 c -0.445312,-0.445312 -0.445312,-0.929687 0,-1.375 0.445313,-0.445312 0.929688,-0.445312 1.375,0 L 12,21.625 V 5 c 0,-0.554687 0.445313,-1 1,-1 z"
     id="path1"
     style="fill:url(#linearGradient6)" /></g></svg>
