<?xml version="1.0" encoding="utf-8"?>
<!-- Generator: Adobe Illustrator 27.9.6, SVG Export Plug-In . SVG Version: 9.03 Build 54986)  -->
<svg version="1.1" id="katman_1" xmlns="http://www.w3.org/2000/svg" xmlns:xlink="http://www.w3.org/1999/xlink" x="0px" y="0px"
	 viewBox="0 0 48 48" style="enable-background:new 0 0 48 48;" xml:space="preserve">
<style type="text/css">
	.st0{fill:url(#SVGID_1_);}
</style>
<g>
	<g>
		<radialGradient id="SVGID_1_" cx="-26.8121" cy="-24.345" r="78.0533" gradientUnits="userSpaceOnUse">
			<stop  offset="0" style="stop-color:#C0C0C0"/>
			<stop  offset="0.9762" style="stop-color:#FFFFFF"/>
		</radialGradient>
		<path class="st0" d="M20.22,48c-0.32,0-0.64-0.04-0.96-0.12c-1.15-0.3-2.11-1.13-2.56-2.24L0.3,5.24c-0.8-1.9,0.08-4.11,1.98-4.93
			c0.94-0.41,2.04-0.41,3,0l40.35,16.39c0.94,0.38,1.67,1.11,2.07,2.04c0.39,0.93,0.4,1.96,0.01,2.9c-0.45,1.1-1.41,1.94-2.56,2.23
			l-15.47,3.99c-0.89,0.23-1.59,0.92-1.82,1.81l-3.99,15.47c-0.26,0.98-0.88,1.81-1.75,2.32C21.55,47.82,20.89,48,20.22,48z
			 M21.39,43.73h0.02H21.39z M6.09,6.1l13.85,34.1l3.03-11.77c0.69-2.67,2.78-4.75,5.45-5.44l11.76-3.04L6.09,6.1z M3.32,4.97
			c0.01,0.01,0.03,0.01,0.04,0.02L3.32,4.97z"/>
	</g>
</g>
</svg>
