<?xml version="1.0" encoding="utf-8"?>
<!-- Generator: Adobe Illustrator 27.9.6, SVG Export Plug-In . SVG Version: 9.03 Build 54986)  -->
<svg version="1.1" id="katman_1" xmlns="http://www.w3.org/2000/svg" xmlns:xlink="http://www.w3.org/1999/xlink" x="0px" y="0px"
	 viewBox="0 0 58 58" style="enable-background:new 0 0 58 58;" xml:space="preserve">
<style type="text/css">
	.st0{fill:#528CCA;}
	.st1{fill:#F4F3F4;}
</style>
<g>
	<g>
		<g>
			<path class="st0" d="M23.2,40.6c-0.74,0-1.48-0.28-2.05-0.85l-8.7-8.7c-1.13-1.13-1.13-2.97,0-4.1l8.7-8.7
				c1.13-1.13,2.97-1.13,4.1,0s1.13,2.97,0,4.1L18.6,29l6.65,6.65c1.13,1.13,1.13,2.97,0,4.1C24.68,40.32,23.94,40.6,23.2,40.6z"/>
		</g>
		<g>
			<path class="st0" d="M43.5,40.6c-1.6,0-2.9-1.3-2.9-2.9v-2.9c0-1.6-1.3-2.9-2.9-2.9H14.5c-1.6,0-2.9-1.3-2.9-2.9s1.3-2.9,2.9-2.9
				h23.2c4.8,0,8.7,3.9,8.7,8.7v2.9C46.4,39.3,45.1,40.6,43.5,40.6z"/>
		</g>
	</g>
	<g>
		<g>
			<path class="st1" d="M2.9,17.4c-1.6,0-2.9-1.3-2.9-2.9V8.7C0,3.9,3.9,0,8.7,0h5.8c1.6,0,2.9,1.3,2.9,2.9s-1.3,2.9-2.9,2.9H8.7
				c-1.6,0-2.9,1.3-2.9,2.9v5.8C5.8,16.1,4.5,17.4,2.9,17.4z"/>
		</g>
		<g>
			<path class="st1" d="M55.1,17.4c-1.6,0-2.9-1.3-2.9-2.9V8.7c0-1.6-1.3-2.9-2.9-2.9h-5.8c-1.6,0-2.9-1.3-2.9-2.9S41.9,0,43.5,0
				h5.8C54.1,0,58,3.9,58,8.7v5.8C58,16.1,56.7,17.4,55.1,17.4z"/>
		</g>
		<g>
			<path class="st1" d="M49.3,58h-5.8c-1.6,0-2.9-1.3-2.9-2.9c0-1.6,1.3-2.9,2.9-2.9h5.8c1.6,0,2.9-1.3,2.9-2.9v-5.8
				c0-1.6,1.3-2.9,2.9-2.9c1.6,0,2.9,1.3,2.9,2.9v5.8C58,54.1,54.1,58,49.3,58z"/>
		</g>
		<g>
			<path class="st1" d="M14.5,58H8.7C3.9,58,0,54.1,0,49.3v-5.8c0-1.6,1.3-2.9,2.9-2.9s2.9,1.3,2.9,2.9v5.8c0,1.6,1.3,2.9,2.9,2.9
				h5.8c1.6,0,2.9,1.3,2.9,2.9C17.4,56.7,16.1,58,14.5,58z"/>
		</g>
	</g>
</g>
</svg>
