<?xml version="1.0" encoding="utf-8"?>
<!-- Generator: Adobe Illustrator 27.9.6, SVG Export Plug-In . SVG Version: 9.03 Build 54986)  -->
<svg version="1.1" id="katman_1" xmlns="http://www.w3.org/2000/svg" xmlns:xlink="http://www.w3.org/1999/xlink" x="0px" y="0px"
	 viewBox="0 0 48 48" style="enable-background:new 0 0 48 48;" xml:space="preserve">
<style type="text/css">
	.st0{fill:#F4F4F4;}
</style>
<g>
	<g>
		<g>
			<g>
				<circle class="st0" cx="14.48" cy="14.48" r="1.09"/>
				<path class="st0" d="M14.48,17.76c-1.8,0-3.27-1.47-3.27-3.27s1.47-3.27,3.27-3.27s3.27,1.47,3.27,3.27S16.29,17.76,14.48,17.76
					z M14.48,13.39c-0.6,0-1.09,0.49-1.09,1.09s0.49,1.09,1.09,1.09s1.09-0.49,1.09-1.09S15.08,13.39,14.48,13.39z"/>
			</g>
			<g>
				<circle class="st0" cx="33.52" cy="14.48" r="1.09"/>
				<path class="st0" d="M33.52,17.76c-1.8,0-3.27-1.47-3.27-3.27s1.47-3.27,3.27-3.27c1.8,0,3.27,1.47,3.27,3.27
					S35.32,17.76,33.52,17.76z M33.52,13.39c-0.6,0-1.09,0.49-1.09,1.09s0.49,1.09,1.09,1.09s1.09-0.49,1.09-1.09
					S34.12,13.39,33.52,13.39z"/>
			</g>
		</g>
		<g>
			<g>
				<circle class="st0" cx="14.48" cy="33.52" r="1.09"/>
				<path class="st0" d="M14.48,36.79c-1.8,0-3.27-1.47-3.27-3.27c0-1.8,1.47-3.27,3.27-3.27s3.27,1.47,3.27,3.27
					C17.76,35.32,16.29,36.79,14.48,36.79z M14.48,32.43c-0.6,0-1.09,0.49-1.09,1.09s0.49,1.09,1.09,1.09s1.09-0.49,1.09-1.09
					S15.08,32.43,14.48,32.43z"/>
			</g>
			<g>
				<circle class="st0" cx="33.52" cy="33.52" r="1.09"/>
				<path class="st0" d="M33.52,36.79c-1.8,0-3.27-1.47-3.27-3.27c0-1.8,1.47-3.27,3.27-3.27c1.8,0,3.27,1.47,3.27,3.27
					C36.79,35.32,35.32,36.79,33.52,36.79z M33.52,32.43c-0.6,0-1.09,0.49-1.09,1.09s0.49,1.09,1.09,1.09s1.09-0.49,1.09-1.09
					S34.12,32.43,33.52,32.43z"/>
			</g>
		</g>
		<g>
			<circle class="st0" cx="24" cy="24" r="1.09"/>
			<path class="st0" d="M24,27.27c-1.8,0-3.27-1.47-3.27-3.27s1.47-3.27,3.27-3.27s3.27,1.47,3.27,3.27S25.8,27.27,24,27.27z
				 M24,22.91c-0.6,0-1.09,0.49-1.09,1.09s0.49,1.09,1.09,1.09s1.09-0.49,1.09-1.09S24.6,22.91,24,22.91z"/>
		</g>
	</g>
	<g>
		<path class="st0" d="M0,40.8L0,7.2C0,3.23,3.23,0,7.2,0l33.6,0C44.77,0,48,3.23,48,7.2v33.6c0,3.97-3.23,7.2-7.2,7.2H7.2
			C3.23,48,0,44.77,0,40.8z M7.2,4.8c-1.32,0-2.4,1.08-2.4,2.4v33.6c0,1.32,1.08,2.4,2.4,2.4h33.6c1.32,0,2.4-1.08,2.4-2.4V7.2
			c0-1.32-1.08-2.4-2.4-2.4H7.2z"/>
	</g>
</g>
</svg>
