<?xml version="1.0" encoding="utf-8"?>
<!-- Generator: Adobe Illustrator 27.9.6, SVG Export Plug-In . SVG Version: 9.03 Build 54986)  -->
<svg version="1.1" id="katman_1" xmlns="http://www.w3.org/2000/svg" xmlns:xlink="http://www.w3.org/1999/xlink" x="0px" y="0px"
	 viewBox="0 0 48 48" style="enable-background:new 0 0 48 48;" xml:space="preserve">
<style type="text/css">
	.st0{fill:#4A90E2;}
	.st1{fill:#F4F4F4;}
</style>
<g>
	<g>
		<path class="st0" d="M14.4,16.8h16.8c1.33,0,2.4-1.07,2.4-2.4S32.53,12,31.2,12H14.4c-1.33,0-2.4,1.07-2.4,2.4
			S13.07,16.8,14.4,16.8z"/>
	</g>
	<path class="st1" d="M0,40.8L0,7.2C0,3.23,3.23,0,7.2,0l33.6,0C44.77,0,48,3.23,48,7.2v33.6c0,3.97-3.23,7.2-7.2,7.2H7.2
		C3.23,48,0,44.77,0,40.8z M7.2,4.8c-1.32,0-2.4,1.08-2.4,2.4v33.6c0,1.32,1.08,2.4,2.4,2.4h33.6c1.32,0,2.4-1.08,2.4-2.4V7.2
		c0-1.32-1.08-2.4-2.4-2.4H7.2z"/>
	<g>
		<path class="st0" d="M14.97,26.4H32.8c1.64,0,2.97-1.07,2.97-2.4s-1.33-2.4-2.97-2.4H14.97C13.33,21.6,12,22.67,12,24
			S13.33,26.4,14.97,26.4z"/>
	</g>
	<g>
		<path class="st0" d="M14.4,36h12c1.33,0,2.4-1.07,2.4-2.4c0-1.33-1.07-2.4-2.4-2.4h-12c-1.33,0-2.4,1.07-2.4,2.4
			C12,34.93,13.07,36,14.4,36z"/>
	</g>
</g>
</svg>
