<?xml version="1.0" encoding="utf-8"?>
<!-- Generator: Adobe Illustrator 27.9.6, SVG Export Plug-In . SVG Version: 9.03 Build 54986)  -->
<svg version="1.1" id="katman_1" xmlns="http://www.w3.org/2000/svg" xmlns:xlink="http://www.w3.org/1999/xlink" x="0px" y="0px"
	 viewBox="0 0 48 48" style="enable-background:new 0 0 48 48;" xml:space="preserve">
<style type="text/css">
	.st0{fill:#F4F4F4;}
</style>
<g>
	<g>
		<g>
			<path class="st0" d="M45.6,33.6c-1.33,0-2.4-1.07-2.4-2.4V9.6c0-1.33,1.07-2.4,2.4-2.4c1.33,0,2.4,1.07,2.4,2.4v21.6
				C48,32.53,46.93,33.6,45.6,33.6z"/>
		</g>
		<g>
			<path class="st0" d="M39.6,40.8c-4.63,0-8.4-3.77-8.4-8.4s3.77-8.4,8.4-8.4s8.4,3.77,8.4,8.4S44.23,40.8,39.6,40.8z M39.6,28.8
				c-1.99,0-3.6,1.61-3.6,3.6c0,1.99,1.61,3.6,3.6,3.6c1.99,0,3.6-1.61,3.6-3.6C43.2,30.41,41.59,28.8,39.6,28.8z"/>
		</g>
		<g>
			<path class="st0" d="M24,26.4H2.4C1.07,26.4,0,25.33,0,24s1.07-2.4,2.4-2.4H24c1.33,0,2.4,1.07,2.4,2.4S25.33,26.4,24,26.4z"/>
		</g>
		<g>
			<path class="st0" d="M33.6,12H2.4C1.07,12,0,10.93,0,9.6s1.07-2.4,2.4-2.4h31.2c1.33,0,2.4,1.07,2.4,2.4S34.93,12,33.6,12z"/>
		</g>
		<g>
			<path class="st0" d="M24,40.8H2.4c-1.33,0-2.4-1.07-2.4-2.4C0,37.07,1.07,36,2.4,36H24c1.33,0,2.4,1.07,2.4,2.4
				C26.4,39.73,25.33,40.8,24,40.8z"/>
		</g>
	</g>
</g>
</svg>
