<?xml version="1.0" encoding="UTF-8" standalone="no"?>
<!-- Generator: Adobe Illustrator 28.5.0, SVG Export Plug-In . SVG Version: 9.03 Build 54727)  -->

<svg
   version="1.0"
   id="katman_2_00000078725689803714063050000012307051137647818159_"
   x="0px"
   y="0px"
   viewBox="0 0 514.8 512.3"
   style="enable-background:new 0 0 514.8 512.3;"
   xml:space="preserve"
   sodipodi:docname="overlay-music.svg"
   inkscape:version="1.2.2 (b0a8486541, 2022-12-01)"
   xmlns:inkscape="http://www.inkscape.org/namespaces/inkscape"
   xmlns:sodipodi="http://sodipodi.sourceforge.net/DTD/sodipodi-0.dtd"
   xmlns="http://www.w3.org/2000/svg"
   xmlns:svg="http://www.w3.org/2000/svg"><defs
   id="defs10" /><sodipodi:namedview
   id="namedview10"
   pagecolor="#ffffff"
   bordercolor="#000000"
   borderopacity="0.25"
   inkscape:showpageshadow="2"
   inkscape:pageopacity="0.0"
   inkscape:pagecheckerboard="0"
   inkscape:deskcolor="#d1d1d1"
   inkscape:zoom="0.5"
   inkscape:cx="-319"
   inkscape:cy="42"
   inkscape:window-width="1920"
   inkscape:window-height="1009"
   inkscape:window-x="0"
   inkscape:window-y="0"
   inkscape:window-maximized="1"
   inkscape:current-layer="katman_2_00000078725689803714063050000012307051137647818159_"
   showgrid="false" />
<style
   type="text/css"
   id="style1">
	.st0{fill:#FFFFFF;}
	.st1{fill:#00B1D9;}
	.st2{fill:#E83D43;}
	.st3{fill:url(#SVGID_1_);}
	.st4{fill:#F4F4F4;}
	.st5{fill:url(#SVGID_00000088843325418996795160000016939047574646756995_);}
</style>



<linearGradient
   id="SVGID_1_"
   gradientUnits="userSpaceOnUse"
   x1="158.8378"
   y1="151.0038"
   x2="438.5178"
   y2="438.7938"
   gradientTransform="matrix(1,0,0,-1,0,510.7717)">
	<stop
   offset="0"
   style="stop-color:#C1C8CC"
   id="stop2" />
	<stop
   offset="0.1"
   style="stop-color:#000000;stop-opacity:0.96"
   id="stop3" />
	<stop
   offset="0.26"
   style="stop-color:#000000;stop-opacity:0.85"
   id="stop4" />
	<stop
   offset="0.45"
   style="stop-color:#000000;stop-opacity:0.67"
   id="stop5" />
	<stop
   offset="0.68"
   style="stop-color:#000000;stop-opacity:0.42"
   id="stop6" />
	<stop
   offset="0.92"
   style="stop-color:#000000;stop-opacity:0.11"
   id="stop7" />
	<stop
   offset="1"
   style="stop-color:#FFFFFF;stop-opacity:0"
   id="stop8" />
</linearGradient>


<linearGradient
   id="SVGID_00000085959610406410372280000017031354277105598633_"
   gradientUnits="userSpaceOnUse"
   x1="305.8145"
   y1="302.2273"
   x2="463.6245"
   y2="464.3573"
   gradientTransform="matrix(1,0,0,-1,0,510.7717)">
	<stop
   offset="0"
   style="stop-color:#C1C8CC"
   id="stop9" />
	<stop
   offset="1"
   style="stop-color:#FFFFFF;stop-opacity:0"
   id="stop10" />
</linearGradient>
<rect
   x="58.021595"
   y="58.830639"
   class="st0"
   width="394.48331"
   height="394.48331"
   id="rect1"
   style="stroke-width:0.777001"
   ry="15.855021" /><g
   id="g572"
   transform="matrix(7.9545456,0,0,7.9545456,-2208.914,445.86646)"><path
     style="opacity:0.5;fill:#2a2a2a;fill-rule:evenodd"
     d="m 288.0509,-35.849971 v 2 h 44 v -2 z m 0,6 v 2 h 44 v -2 z m 0,6 v 2 h 44 v -2 z m 0,6 v 2 h 44 v -2 z m 0,6 v 2 h 44 v -2 z"
     id="path6" /><path
     d="m 306.44235,-23.074879 c -1.18339,-1.240304 -2.87395,-2.015494 -4.90262,-1.860456 -0.16906,-0.310076 -0.84528,-3.410836 -0.84528,-3.410836 0,0 2.36678,-3.255798 2.87395,-3.87595 2.53584,-3.720912 2.7049,-6.666634 1.18339,-9.612356 -0.50717,-1.085266 -1.85961,-2.015494 -3.21206,-2.015494 -1.01434,0 -1.85962,0.77519 -2.36679,1.705418 -1.69056,2.635646 -1.69056,7.596862 -0.84528,11.007698 0,0 -0.84528,0.77519 -1.69056,1.705418 -1.69056,1.705418 -3.55017,3.565874 -4.2264,6.046482 -0.84528,2.790684 -0.16905,5.42633 1.69056,7.441824 2.02868,2.32557 5.07168,3.410836 8.79092,3.10076 0.67622,2.945722 1.18339,4.806178 0.16905,6.511596 -0.33811,0.620152 -1.01433,1.240304 -2.19773,1.240304 -0.33811,0 -0.50716,0 -0.84528,-0.155038 1.01434,-0.465114 1.85962,-1.395342 1.85962,-2.480608 0,-1.55038 -1.35245,-2.790684 -3.04301,-2.790684 -2.87395,0.155038 -3.04301,2.790684 -3.04301,2.790684 0,0.930228 0.33812,1.860456 1.01434,2.480608 0.84528,0.77519 2.19773,1.395342 3.71923,1.395342 1.85962,0 3.71923,-0.620152 4.39546,-3.10076 0.67622,-2.015494 -0.50717,-5.271292 -0.67623,-6.356558 1.85962,-0.77519 3.55018,-3.10076 3.71924,-4.65114 0.33811,-1.705418 -0.33812,-3.720912 -1.52151,-5.116254 z m -5.40979,-17.209218 c 0.16906,-0.310076 0.50717,-0.465114 0.84528,-0.465114 0.16906,0 0.50717,0.155038 0.67622,0.310076 0.67623,0.310076 0.84528,0.930228 0.84528,1.860456 -0.16905,2.32557 -2.36678,5.116254 -3.55017,6.046482 -0.50717,-2.170532 -0.16906,-6.20152 1.18339,-7.7519 z m -4.90262,24.340966 c -1.1834,-1.085266 -1.69056,-2.635646 -1.52151,-4.186026 0.33811,-2.480608 2.19773,-4.496102 3.71923,-6.046482 0.33812,-0.310076 0.67623,-0.620152 0.84528,-0.930228 0.16906,0.77519 0.67623,2.015494 0.84528,2.635646 -2.02867,0.77519 -3.21206,3.255798 -3.043,5.271292 0,0.930228 0.33811,1.55038 0.84528,2.170532 0.16905,0.155038 0.33811,0.310076 0.50716,0.310076 0.16906,0 0.50717,-0.155038 0.50717,-0.310076 0.16906,-0.155038 0.16906,-0.465114 0,-0.620152 -0.16905,-0.155038 -0.16905,-0.310076 -0.16905,-0.620152 -0.16906,-1.395342 0.84528,-2.480608 2.02867,-2.945722 0.16905,0.930228 1.35245,5.736406 1.5215,6.821672 -2.19773,0.620152 -4.56451,0 -6.08601,-1.55038 z m 7.60752,0.930228 c -0.33812,-1.085266 -0.50717,-2.32557 -0.84528,-3.720912 -0.16906,-0.930228 -0.33812,-2.015494 -0.67623,-2.945722 2.19773,0 2.87395,1.705418 3.04301,2.32557 0.50717,1.705418 0,3.410836 -1.5215,4.341064 z"
     id="path10"
     style="fill:#2a2a2a;stroke-width:1.61895" /></g>
</svg>
