<?xml version="1.0" encoding="utf-8"?>
<!-- Generator: Adobe Illustrator 27.9.6, SVG Export Plug-In . SVG Version: 9.03 Build 54986)  -->
<svg version="1.1" id="katman_1" xmlns="http://www.w3.org/2000/svg" xmlns:xlink="http://www.w3.org/1999/xlink" x="0px" y="0px"
	 viewBox="0 0 48 48" style="enable-background:new 0 0 48 48;" xml:space="preserve">
<style type="text/css">
	.st0{fill:#4A90E2;}
	.st1{fill:#F4F4F4;}
	.st2{fill:#FD4E4C;}
</style>
<g>
	<g>
		<path class="st0" d="M19.34,28.06h24.21c2.23,0,4.03-1.07,4.03-2.4c0-1.33-1.8-2.4-4.03-2.4H19.34c-2.23,0-4.03,1.07-4.03,2.4
			C15.3,26.98,17.11,28.06,19.34,28.06z"/>
	</g>
	<g>
		<path class="st0" d="M19.91,37.66h23.05c2.55,0,4.61-1.07,4.61-2.4c0-1.33-2.06-2.4-4.61-2.4H19.91c-2.55,0-4.61,1.07-4.61,2.4
			C15.3,36.58,17.36,37.66,19.91,37.66z"/>
	</g>
	<path class="st0" d="M34.22,17.39V41.9c0,1.94,1.07,3.5,2.4,3.5c1.33,0,2.4-1.57,2.4-3.5V17.39c0-1.94-1.07-3.5-2.4-3.5
		C35.29,13.88,34.22,15.45,34.22,17.39z"/>
	<g>
		<path class="st0" d="M24.62,17.93v24.25c0,2.23,1.07,4.04,2.4,4.04c1.33,0,2.4-1.81,2.4-4.04V17.93c0-2.23-1.07-4.04-2.4-4.04
			C25.69,13.88,24.62,15.69,24.62,17.93z"/>
	</g>
	<path class="st1" d="M6.38,18.46H41.7c2.79,0,5.05-1.07,5.05-2.4s-2.26-2.4-5.05-2.4H6.38c-2.79,0-5.05,1.07-5.05,2.4
		S3.59,18.46,6.38,18.46z"/>
	<g>
		<g>
			<path class="st2" d="M15.02,7.86v31.96c0,3.53,1.07,6.39,2.4,6.39s2.4-2.86,2.4-6.39V7.86c0-3.53-1.07-6.39-2.4-6.39
				S15.02,4.33,15.02,7.86z"/>
		</g>
	</g>
	<g>
		<path class="st1" d="M0,40.8L0,7.2C0,3.23,3.23,0,7.2,0l33.6,0C44.77,0,48,3.23,48,7.2v33.6c0,3.97-3.23,7.2-7.2,7.2H7.2
			C3.23,48,0,44.77,0,40.8z M7.2,4.8c-1.32,0-2.4,1.08-2.4,2.4v33.6c0,1.32,1.08,2.4,2.4,2.4h33.6c1.32,0,2.4-1.08,2.4-2.4V7.2
			c0-1.32-1.08-2.4-2.4-2.4H7.2z"/>
	</g>
</g>
</svg>
