<?xml version="1.0" encoding="UTF-8" standalone="no"?>
<!-- Generator: Adobe Illustrator 27.9.6, SVG Export Plug-In . SVG Version: 9.03 Build 54986)  -->

<svg
   version="1.1"
   id="katman_1"
   x="0px"
   y="0px"
   viewBox="0 0 58 58"
   style="enable-background:new 0 0 58 58;"
   xml:space="preserve"
   sodipodi:docname="tr.org.pardus.pen.svg"
   inkscape:version="1.4 (e7c3feb100, 2024-10-09)"
   inkscape:export-filename="tr.org.pardus.pen.svg"
   inkscape:export-xdpi="96"
   inkscape:export-ydpi="96"
   xmlns:inkscape="http://www.inkscape.org/namespaces/inkscape"
   xmlns:sodipodi="http://sodipodi.sourceforge.net/DTD/sodipodi-0.dtd"
   xmlns="http://www.w3.org/2000/svg"
   xmlns:svg="http://www.w3.org/2000/svg"><defs
   id="defs88" /><sodipodi:namedview
   id="namedview88"
   pagecolor="#ffffff"
   bordercolor="#000000"
   borderopacity="0.25"
   inkscape:showpageshadow="2"
   inkscape:pageopacity="0.0"
   inkscape:pagecheckerboard="0"
   inkscape:deskcolor="#d1d1d1"
   inkscape:zoom="12.275862"
   inkscape:cx="29"
   inkscape:cy="28.918539"
   inkscape:window-width="1920"
   inkscape:window-height="914"
   inkscape:window-x="0"
   inkscape:window-y="0"
   inkscape:window-maximized="1"
   inkscape:current-layer="katman_1" />
<style
   type="text/css"
   id="style1">
	.st0{fill:#FFFFFF;}
	.st1{fill:#171614;}
	.st2{fill:#FECB52;}
	.st3{fill:#107C87;}
	.st4{fill:#5BD1C9;}
	.st5{fill:#FDCF61;}
	.st6{fill:#FEFBE8;}
	.st7{fill:#5CD1C9;}
	.st8{fill:#E0BC7C;}
	.st9{fill:#117C88;}
	.st10{fill:#FED56A;}
	.st11{fill:#FED46A;}
	.st12{fill:#6C4020;}
	.st13{fill:#FEFBEA;}
	.st14{fill:#693E1E;}
	.st15{fill:#FED56B;}
	.st16{fill:#FDDA7C;}
	.st17{fill:#FEFBEB;}
	.st18{fill:#F25043;}
	.st19{fill:#FEF3B9;}
	.st20{fill:#FDF2B7;}
	.st21{fill:#FEFBE9;}
	.st22{fill:#FDE096;}
	.st23{fill:#FDC241;}
	.st24{fill:#FEFCEC;}
	.st25{fill:#FEF2B4;}
	.st26{fill:#C0EEE4;}
	.st27{fill:#C98B43;}
	.st28{fill:#AF6925;}
	.st29{fill:#D33429;}
	.st30{fill:#FEF4BB;}
	.st31{fill:#B9EDE4;}
	.st32{fill:#FAFAF7;}
	.st33{fill:#DD8B22;}
	.st34{fill:#474545;}
	.st35{fill:#FAFAF6;}
	.st36{fill:#BEEEE5;}
	.st37{fill:#FB7867;}
	.st38{fill:#A8AAAC;}
	.st39{fill:#A6A9AB;}
	.st40{fill:#AE9A7D;}
	.st41{fill:#DDBC7B;}
	.st42{fill:#FCC4AE;}
	.st43{fill:#AB6826;}
	.st44{fill:#D1801F;}
	.st45{fill:#403B37;}
	.st46{fill:#B7EDE3;}
	.st47{fill:#FDA993;}
	.st48{fill:#FDF2BF;}
	.st49{fill:#6B6868;}
	.st50{fill:#CCCECD;}
	.st51{fill:#D58421;}
	.st52{fill:#9E8D78;}
	.st53{fill:#B26B26;}
	.st54{fill:#DDB978;}
	.st55{fill:#B19E82;}
	.st56{fill:#F9F3A6;}
	.st57{fill:#AB9980;}
	.st58{fill:#CB9E57;}
	.st59{fill:#DEBD7C;}
	.st60{fill:#A9977D;}
	.st61{fill:#F2AB2E;}
	.st62{fill:#EFC464;}
	.st63{fill:#F4E9A4;}
	.st64{fill:#F5EBAA;}
	.st65{fill:#81F3F0;}
	.st66{fill:#955522;}
	.st67{fill:#DCC8A1;}
	.st68{fill:#E8D6B0;}
	.st69{fill:#D3BF9F;}
	.st70{fill:#E1CFA9;}
	.st71{fill:#FEF8D9;}
	.st72{fill:#6B3F1F;}
	.st73{fill:#683D1E;}
	.st74{fill:#452815;}
	.st75{fill:#663B1E;}
	.st76{fill:#EB9A2A;}
	.st77{fill:#E28330;}
	.st78{fill:#C49A57;}
	.st79{fill:#CCA460;}
	.st80{fill:#FCCA54;}
	.st81{fill:#E6C17F;}
	.st82{fill:#D0D1CF;}
	.st83{fill:#693E1F;}
</style>

<g
   id="g88">
	<path
   class="st1"
   d="M23.4,54.8c-0.8,0-2.1-0.1-3.3-0.5c-1.1-0.4-1.5-1.2-1.4-2.4c0.2-1.6,0.5-3.3,0.4-4.9c-0.1-1-0.5-1.8-1-2.6   c-0.1-0.2-0.2-0.1-0.3,0c-2.9,1.2-5.8,2.3-8.6,3.5c-0.4,0.2-0.8,0.2-1.2,0c-0.4-0.2-0.7-0.6-0.5-1.1C8,45.6,8.5,44.4,9,43.2   c0.7-1.9,1.5-3.7,2.3-5.6c0.2-0.6,0.6-1.1,1.1-1.5c0.2-0.2,0.2-0.4,0.1-0.7c-0.6-1.1-1.4-1.9-2.1-2.9c-1.8-2.4-1.8-5.9,0.5-8.1   c0.5-0.5,1.1-0.9,1.8-1.2c0.3-0.1,0.3-0.3,0.3-0.5c-0.1-1.2,0.1-2.4,0.6-3.5c1-2,2.6-3.2,4.8-3.6c0.8-0.2,1.7-0.1,2.5,0.1   c0.3,0.1,0.3,0,0.4-0.2c1-1.9,2.5-3,4.5-3.6c1.8-0.5,3.5-0.2,5.2,0.6c0.6,0.3,1.2,0.7,1.7,1.1c0.2,0.1,0.2,0.1,0.4,0   c1.4-1.5,2.9-3.1,4.3-4.6c0.4-0.4,0.7-0.8,1.1-1.1c0.3-0.4,0.7-0.7,1.2-0.9c0.4-0.2,0.7-0.5,1-0.8c0.7-0.7,1.4-1.4,2-2.1   c0.9-1,2-1.1,3.2-0.8c2.4,0.6,3.7,2.2,4.4,4.5c0.4,1.2,0.1,2.3-0.8,3.2c-0.6,0.6-1.2,1.3-1.7,1.9c-0.2,0.2-0.2,0.5-0.4,0.7   c-0.3,0.5-0.8,0.9-1.2,1.4c-2,2.3-4.1,4.5-6.2,6.7c-0.2,0.2,0,0.3,0.1,0.3c0.9,0.7,1.7,1.6,2.4,2.6c0.9,1.5,1.3,3.1,1.3,4.9   c-0.1,1.8-0.6,3.5-1.1,5.2c-0.5,1.8-1,3.5-1.4,5.3c-0.4,1.7-0.6,3.4-0.5,5.2c0,0.5,0.1,1,0.2,1.5c0.1,0.5-0.1,1-0.4,1.4   c-1.1,1.3-2.5,2.3-3.9,3.2c-2.6,1.6-5.5,2.6-8.5,3.2C26.7,54.7,25.3,54.8,23.4,54.8z"
   id="path2" />
	<path
   class="st2"
   d="M37.9,41.4C37.9,41.4,37.9,41.4,37.9,41.4c0.1,0.4,0.1,0.8-0.2,1.2c-0.7,0.1-1.3,0.1-1.9,0.5   c-1.1,0.7-1.8,1.6-2.2,2.8c-0.4,1.2-0.9,2.3-1.7,3.3c-0.2,0.2-0.3,0.5-0.6,0.6c-0.4,0.3-0.7,0.7-1.1,1c0,0-0.1,0-0.1,0.1   c-0.2,0.1-0.3,0.2-0.5,0.3c-0.3,0.2-0.6,0-0.6-0.3c0-0.3,0-0.6,0.2-0.8c0.1-0.2,0.1-0.4,0-0.6c-0.4-1.1-0.7-2.2-1.3-3.3   c-0.1-0.2-0.3-0.4-0.6-0.4c-0.6-0.1-0.6-0.2-0.2-0.7c-0.1,0-0.1,0.3-0.3,0.1c0-0.2,0.1-0.3,0.1-0.4c0.8-1.3,1.8-2.4,2.9-3.5   c1.2-1.1,2.3-2.3,3.4-3.5c0.7-0.8,0.8-1.7,0.7-2.7c-0.1-0.5-0.3-0.9-0.4-1.4c0.3-0.5,0.7-0.9,1.1-1.3c0.4-0.5,0.7-1.1,0.5-1.8   c-0.2-0.5-0.4-1-0.8-1.4c-0.1-0.1-0.2-0.1-0.1-0.3c0.1-0.1,0.2-0.1,0.3,0c0.6,0.3,1.3,0.6,1.7,1.3c0.5-1.1-0.1-2.3-1.3-2.4   c-0.1,0-0.1,0-0.2,0c-0.1,0-0.2,0-0.2-0.1c0-0.1,0.1-0.1,0.1-0.2c0.3-0.1,0.5-0.2,0.7-0.4c1.6-1,1.4-3.5-0.3-4.2   c-0.1-0.1-0.3-0.1-0.4-0.3c0.2-0.2,0.5-0.1,0.8-0.1c2.4,0.6,4,2.1,5.2,4.2c0.1,0.2,0.2,0.3,0.1,0.5c0,0-0.1,0.1-0.1,0.1   c-0.9,0.2-1.4,0.9-1.3,1.8c0.1,1,0.7,1.7,1.5,2.3c0.2,0.2,0.5,0.2,0.7,0.2c0,0,0.1,0,0.1,0.1c-0.2,0.8-0.5,1.5-0.7,2.3   c0,0.1,0,0.1-0.1,0.1c-0.1,0-0.1-0.1-0.1-0.1c0.2-0.6,0.4-1.1,0.6-1.7c0-0.1,0.2-0.3-0.1-0.4c-0.2-0.1-0.3,0.1-0.3,0.3   c-0.1,0.6-0.2,1.1-0.3,1.7c-0.1,0.1-0.3,0-0.4,0c-0.5-0.2-1-0.1-1.4,0.2c-1.2,0.7-2.1,1.7-2.8,2.8c-0.7,1.2-0.4,2.1,0.9,2.7   c0.4,0.2,0.8,0.2,1.2,0.4c-0.1,0.2-0.2,0.4-0.2,0.6c-0.2,0.4-0.6,0.6-0.9,0.9C37.4,41.4,37.7,41.3,37.9,41.4z"
   id="path3" />
	<path
   class="st3"
   d="M27.5,28c0.5,0.2,0.7,0.5,1,0.9c0.4,0.5,0.7,1.1,1,1.6c0.1,0.2,0,0.3-0.1,0.4c-2.2,2.4-4.5,4.7-6.7,7.1   c-1,1.1-2,2.2-3,3.3c-0.1-0.3-0.1-0.6-0.2-0.9c-0.3-1.1-0.8-1.5-2-1.6c-0.1,0-0.2,0-0.3,0c0.8-0.9,1.6-1.7,2.4-2.6   c1.3-1.4,2.7-2.9,4-4.3c0.8-0.9,1.6-1.8,2.5-2.6c0.3-0.3,0.6-0.7,1-1.1C27.3,28.2,27.4,28,27.5,28z"
   id="path4" />
	<path
   class="st4"
   d="M27.5,28c-0.7,0.6-1.3,1.3-1.9,2c-1.9,2.1-3.9,4.2-5.8,6.3c-0.7,0.8-1.5,1.6-2.3,2.4c-0.1,0.1-0.2,0.2-0.3,0.2   c-0.5,0.1-0.6-0.2-0.8-0.6c-0.2-0.6-0.5-1.1-0.9-1.6c-0.1-0.2-0.3-0.2-0.5-0.2c0-0.2,0.1-0.3,0.2-0.4c0.5-0.5,0.9-1,1.3-1.4   c0.2-0.1,0.3-0.3,0.5-0.3c0.1,0,0.2,0,0.4,0c0.2,0,0.2-0.1,0.2-0.3c0-0.3,0.1-0.5,0.3-0.7c0.9-0.9,1.7-1.9,2.6-2.8   c0.3-0.3,0.6-0.7,1.2-0.6c0,0,0-0.1,0-0.1c-0.1-0.3,0-0.5,0.2-0.8c0.7-0.8,1.4-1.6,2.2-2.4c0.3-0.3,0.6-0.7,0.9-1   c0.1-0.1,0.2-0.2,0.3-0.1c0.2,0.1,0.1,0.2,0.1,0.4c0,0.3-0.1,0.6,0,0.9c0,0,0,0,0,0.1c-0.1,0.6,0.3,0.8,0.8,0.9   C26.8,27.8,27.2,27.8,27.5,28z"
   id="path5" />
	<path
   class="st5"
   d="M27.2,45.2c0.2,0.1,0.1-0.2,0.3-0.2c0.1,0.2-0.1,0.2-0.2,0.4c-0.1,0.2,0,0.3,0.2,0.2c0.7-0.1,0.8,0.4,1,0.9   c0.2,0.5,0.5,1,0.7,1.4c0,0,0.1,0.1,0.1,0.1c-0.2,0.6,0.3,1,0.4,1.6c0,0.2,0,0.3-0.1,0.5c-0.3,0.2-0.2,0.6-0.2,0.9   c0,0.2,0.2,0.3,0.4,0.1c0.2-0.1,0.3-0.3,0.5-0.3c-0.1,0.4-0.5,0.4-0.7,0.6c0.2-0.2,0.5-0.2,0.8-0.3c0.1,0,0.2-0.1,0.3,0.1   c-0.7,0.3-1.5,0.6-2.3,0.8c-0.5,0.1-0.9,0.2-1.3,0.4c-0.7,0.2-1.4,0.3-2.1,0.4c-0.2-0.3-0.6-0.5-0.7-0.9c0-0.1-0.2-0.2-0.3-0.3   c-0.1,0-0.2,0-0.2-0.1c-0.2-0.4-0.8-0.5-0.9-1c-0.1-0.4-0.4-0.7-0.3-1.1c0-0.1,0-0.3-0.2-0.3c-0.2-0.1-0.3-0.3-0.3-0.5   c-0.2-1.1-0.5-2.1-0.8-3.2c0,0,0-0.1,0.1-0.1c0-0.2,0.2-0.4,0.4-0.6c0.3-0.4,0.6-0.8,1-1.2c0,0,0.1,0,0.1,0c0.6,0.1,1-0.2,1.4-0.5   c0.1-0.1,0.3-0.3,0.4-0.2c0.2,0.1,0,0.3-0.1,0.5c-0.2,0.4-0.3,0.8-0.5,1.2c-0.5,1-0.6,2-0.4,3.1c0.1-0.4,0.4-0.7,0.6-1.1   c0.1-0.1,0.1-0.2,0.2-0.4c0.2-0.2,0.3-0.5,0.5-0.4c0.2,0,0.2,0.4,0.2,0.5c0.2,0.7,0.5,1.3,1,1.8c0-0.4,0-0.8,0.1-1.2   c0.1-0.6,0.3-1.1,0.6-1.6C27,45.4,27,45.2,27.2,45.2z"
   id="path6" />
	<path
   class="st6"
   d="M35.7,22.6c-0.2,0-0.5,0-0.8,0c1.2,0.5,1.9,1.3,1.9,2.6c0,1.3-0.9,2-2,2.5c1.7,0.3,2.4,1.4,1.7,2.8   c-0.4-0.8-1.2-1.2-2-1.4c0.5,0.4,0.9,1,1,1.6c-0.1,0.2-0.3,0.1-0.4,0c-1.6-0.4-3.1-1.2-4.4-2.2c-0.4-0.4-0.9-0.7-1.2-1.2   c0.1,0.2,0.2,0.3,0.2,0.5c0,0.1,0.1,0.2-0.1,0.2c-0.1-0.3-0.2-0.6-0.3-0.9c-0.1-0.2,0-0.3,0.2-0.3c0.5,0,1-0.1,1.5-0.2   c1-0.2,1.8-0.8,1.7-2c0-1-0.8-1.8-1.9-1.9c1.9-1.7,5.2-1.9,7.8,0.1c-0.2,0.2-0.3,0-0.4-0.1c-0.5-0.3-1.1-0.6-1.7-0.8   c-0.3-0.1-0.6-0.1-0.8,0.2c0,0.1-0.1,0.1-0.1,0.2c0.1,0.1,0.2,0.1,0.3,0.2C35.9,22.6,35.8,22.6,35.7,22.6z"
   id="path7" />
	<path
   class="st7"
   d="M38.2,11.3c1.2,0.1,2.2,0.6,3,1.4c0.1,0.2-0.1,0.3-0.2,0.4c-0.9,0.9-1.8,1.9-2.7,2.9c-1.2,1.2-2.3,2.5-3.5,3.8   c-0.1,0.1-0.2,0.2-0.3,0.2c-0.9,0-1.8,0.2-2.6,0.5c-0.3,0.1-0.3,0-0.2-0.2c0.2-0.6,0.2-1.2,0.2-1.8c-0.1-0.3,0.1-0.5,0.3-0.7   c0.8-0.9,1.6-1.8,2.5-2.6c1.1-1.1,2.1-2.3,3.2-3.5C38,11.5,38.1,11.4,38.2,11.3z"
   id="path8" />
	<path
   class="st8"
   d="M29.7,27.9c0-0.3-0.2-0.6-0.2-0.9c1.5,1.9,3.4,2.9,5.6,3.6c0.1,0,0.3,0.1,0.4,0.1c0.2,0.7-0.1,1.3-0.5,1.9   c-0.3,0.4-0.7,0.8-1,1.2c-0.3-0.1-0.3-0.5-0.5-0.7c-0.4,0.6-0.6,1.3-0.8,2.1c-0.1,0.4-0.1,0.7,0,1.1c0.1,0.3-0.1,0.4-0.4,0.3   c-0.7-0.2-1.2-0.6-1.6-1.1c-0.2-0.3-0.3-0.3-0.5,0c-0.6,0.7-0.6,1.4-0.3,2.2c0.1,0.2,0.2,0.4,0.2,0.6c0,0.1,0.1,0.1,0,0.2   c-0.1,0.1-0.2,0-0.2,0c-0.3-0.2-0.5-0.4-0.6-0.7c-0.1-0.5-0.1-0.9,0-1.3c0-0.1,0.1-0.2,0-0.3c-0.5,0.4-0.9,0.8-1.3,1.4   c-0.5,0.8-0.5,1.7-0.4,2.6c0,0.4,0,0.5-0.5,0.3c-0.3-0.1-0.5-0.2-0.8-0.4c-0.2-0.1-0.4-0.1-0.6,0.1c-1,1-2,1.9-2.6,3.2   c-0.1,0.1-0.1,0.3-0.3,0.3c0,0,0,0-0.1,0c-0.1,0-0.1,0-0.1,0c-0.5-0.5-0.7-1.1-0.9-1.8c0.7-0.7,1.4-1.4,2-2.1   c0.8-0.8,1.5-1.7,2.3-2.6c0,0.7,0.2,1.3,0.5,1.9c0,0,0,0,0.1,0c0,0,0,0,0-0.1c0.2-0.5,0.1-1,0.3-1.5c0.3-1,0.8-2,1.6-2.8   c0.1-0.1,0.3-0.3,0.4-0.5c0.5-0.5,1.1-0.8,1.8-1.2c0.1,0.8,0.3,1.4,0.9,1.9c0.1,0,0.1,0.2,0.2,0c0-0.4-0.1-0.7-0.1-1.1   c0-0.7,0-1.4,0.2-2.1c0.1-0.3,0.2-0.4,0.5-0.3c0.7,0.1,1.5,0.1,2.2-0.2c0.1-0.1,0-0.1-0.1-0.1c-1.6-0.2-3-0.9-4.1-2.1   C30.1,28.8,29.9,28.4,29.7,27.9z"
   id="path9" />
	<path
   class="st9"
   d="M34.6,20c1.5-1.6,2.9-3.1,4.4-4.7c0.7-0.8,1.5-1.6,2.2-2.4c0.1-0.1,0.1-0.1,0.1-0.2c0.8,0.8,1.4,1.8,1.6,2.9   c0.1,0.4,0,0.6-0.3,0.9c-1.4,1.4-2.7,2.8-4,4.3c-0.1,0.1-0.2,0.2-0.4,0.1C37,20.3,35.8,20.1,34.6,20C34.5,20,34.5,20,34.6,20z"
   id="path10" />
	<path
   class="st10"
   d="M22,22.8c0.3,0.3,0.4,0.6,0.4,1c0.1,1.1-0.1,2.2-1,3.1c0-0.4-0.2-0.7-0.3-1C21,25.6,21,25.4,21,25.1   c-0.1-1.1-1.2-2.3-2.5-2.3c-0.8,0-1.5,0.2-1.9,1c-0.3,0.5-0.3,1.1-0.2,1.7c0,0.2,0.1,0.3,0,0.5c-0.3,0.1-0.4-0.1-0.6-0.3   c-0.6-1.4-1-2.8-0.7-4.3c0.3-1.6,1.2-2.6,2.7-3.2c0.8-0.3,1.6-0.4,2.4-0.2c0.1,0,0.3,0.1,0.4,0.2c0,0.7-0.1,1.4,0.2,2.1   c-1-0.1-1.8,0.2-2.3,1.2c1.1-0.3,2.1,0,2.9,0.6C21.7,22.3,21.9,22.5,22,22.8c-0.2,0.1-0.2-0.1-0.3-0.3c0.5,0.7,0.5,1.5,0.3,2.3   c-0.1,0.3-0.2,0.6-0.4,0.8c-0.1,0.1-0.2,0.2-0.2,0.3c0,0.1,0,0.3,0.1,0.3c0.1,0.1,0.2-0.1,0.2-0.2c0.5-0.9,0.6-1.8,0.3-2.8   C22,23.1,21.9,23,22,22.8z"
   id="path11" />
	<path
   class="st11"
   d="M30.3,16.2c-0.6-0.3-1.1-0.6-1.8-0.6c-0.5,0-0.9,0.2-1.2,0.6c1.6,0.1,2.5,0.9,2.9,2.3   c0.3,1.3-0.1,2.5-1.2,3.3c-0.1-0.2-0.1-0.2,0.1-0.4c0.5-0.4,0.7-1,0.9-1.6c0.1-0.3,0.1-0.5,0.1-0.8c-0.1,0.9-0.6,1.6-1.3,2.2   c-0.3,0.3-0.4,0.4-0.1,0.7c-0.1,0.1-0.2,0.1-0.4,0.2c0-0.4,0-0.8-0.2-1.1c-0.1-0.3,0-0.5,0.1-0.8c0.3-1.1-0.2-2.3-1.2-2.7   c-1.1-0.4-2.4-0.1-3,1.1c-0.3,0.6-0.4,1.3-0.3,2c0,0.1,0.1,0.3,0,0.4c-0.2,0.2-0.3,0-0.4-0.1c-0.3-0.2-0.5-0.5-0.7-0.8   c-0.1-0.2-0.2-0.1-0.3,0c0-0.1,0-0.2-0.1-0.3c0.5-2,1.1-3.9,2.9-5c1.6-1,3.2-1,4.9-0.3c0.3,0.1,0.6,0.3,0.9,0.5   c0.2,0.1,0.3,0.3,0.2,0.6c-0.1,0.1-0.2,0.3-0.2,0.4C30.7,16.3,30.5,16.4,30.3,16.2z"
   id="path12" />
	<path
   class="st12"
   d="M32,49.1c0.8-1.1,1.3-2.4,1.8-3.6c0.4-1.1,1.1-1.9,2.1-2.5c0.6-0.3,1.1-0.5,1.7-0.5c0.3,0,0.4,0.1,0.4,0.4   c-0.1,0.5,0,1.1,0,1.6c0,0.2,0,0.4-0.2,0.5c-0.1,0-0.2,0-0.3,0c-0.8-0.3-1.3-0.1-1.9,0.6c-0.4,0.6-0.5,1.3-0.3,2   c0.1,0.3,0.3,0.5,0.5,0.6c0.1,0.1,0.3,0.1,0.3,0.3c-0.2,0.3-0.6,0.4-0.9,0.6c-0.3,0-0.5,0.2-0.7,0.3c-0.6,0.4-1.2,0.4-1.8,0.2   C32.3,49.5,32.1,49.4,32,49.1z"
   id="path13" />
	<path
   class="st13"
   d="M23.6,21.2c-0.1-0.8-0.1-1.6,0.2-2.3c0.7-1.5,2.3-1.7,3.4-1.2c0.8,0.4,1.3,1.5,1.1,2.4   c-0.1,0.3-0.2,0.7-0.2,1c-0.4-0.8-1.2-1-1.8-0.8c-0.8,0.2-1.3,0.8-1.3,1.6c0,0.2,0,0.5,0,0.7c0,0.2-0.1,0.1-0.1,0   c-0.2-0.4-0.6-0.6-0.9-0.9C23.9,21.7,23.7,21.5,23.6,21.2z"
   id="path14" />
	<path
   class="st14"
   d="M38.4,39.9c-0.9,0-1.6-0.4-2.3-1.1c-0.4-0.4-0.5-0.8-0.3-1.4c0.3-1,1-1.9,1.8-2.6c0.4-0.4,0.9-0.8,1.4-1.1   c0.6-0.3,1.2-0.3,1.7,0c0.1,0,0.1,0,0.2,0.1c0,0,0,0.1,0.1,0.1c-0.1,0.6-0.4,1.1-0.6,1.6c-0.7,0.2-1.3,0.5-1.7,1   c-0.5,0.6-0.7,1.3-0.5,2.1c0.1,0.3,0.3,0.4,0.5,0.6C38.5,39.5,38.4,39.7,38.4,39.9z"
   id="path15" />
	<path
   class="st15"
   d="M13.8,25.9c0.2,0.3,0.5,0.6,0.8,0.9c-0.6,0.1-1,0.4-1.2,1c1.3-0.5,2.4-0.2,3.3,0.7c0.3,0.3,0.6,0.7,0.5,1.2   c-0.2,0-0.2-0.2-0.2-0.3c-0.1-0.4-0.4-0.7-0.5-0.9c0.3,0.2,0.5,1,0.3,1.6c-0.2,0.4-0.1,0.7,0.1,1.1c0,0.1,0.1,0,0,0c0,0,0,0,0,0   c0.2-0.5,0.2-1,0.3-1.5c0.2,0.7,0,1.3-0.4,2c-0.1-0.4-0.2-0.7-0.4-1c-0.4-0.4-0.5-1.1-0.9-1.4c-0.7-0.5-1.8-0.7-2.5-0.2   c-0.6,0.4-0.8,0.9-0.7,1.7c0,0.2,0.2,0.5,0.1,0.7c-0.1,0.1-0.3,0-0.4,0c-0.2-0.1-0.4-0.3-0.7-0.4c-0.1-0.1-0.3-0.2,0-0.3   c0.1-0.1,0-0.2,0-0.3c-0.5-1.6,0-3.6,1.6-4.6C13.4,25.5,13.5,25.5,13.8,25.9z"
   id="path16" />
	<path
   class="st16"
   d="M21.4,45.6c0.3,0.2,0.3,0.5,0.4,0.8c0.1,0.8,0.4,1.5,0.5,2.2c0,0.2,0.1,0.4,0.4,0.5c0.2,0,0.2,0.3,0.2,0.4   c0,0.2-0.2,0.4,0.2,0.4c0,0,0.1,0.1,0,0.1c-0.1,0.6-0.1,0.7,0.5,0.9c0.1,0,0.1,0.1,0.2,0.1c0,0.4,0.3,0.5,0.7,0.6   c0.1,0,0.3,0.2,0.3,0.4c0,0.1,0.1,0.2,0.2,0.2c0.3,0.1,0.3,0.3,0.4,0.5c0,0.1,0.1,0,0.2,0.1c-0.1,0.1-0.2,0.1-0.3,0.1   c-0.5-0.1-0.9,0.1-1.3,0.1c-0.9,0-1.7,0-2.6-0.2c-0.3-0.1-0.4-0.2-0.4-0.5c0-1,0.1-2,0.1-3c0-0.9,0.1-1.8-0.1-2.7   c-0.1-0.3,0.2-0.4,0.2-0.6C21.1,45.8,21.3,45.7,21.4,45.6z"
   id="path17" />
	<path
   class="st17"
   d="M16.4,26c-0.1-0.5-0.2-1-0.2-1.6c0.1-0.9,0.9-1.6,1.9-1.7c1.7-0.1,2.6,1,2.9,2c0.1,0.4,0.1,0.7,0.1,1.1   c-0.5-0.6-1.1-0.9-1.9-0.6c-0.9,0.3-1.3,1.1-1.1,2c0,0.2,0.1,0.4,0.2,0.6c-0.3-0.1-0.6-0.2-0.9-0.4c0.2-0.2,0.3,0.1,0.5,0   c-0.1-0.2-0.3-0.3-0.5-0.4C17.1,26.7,16.6,26.5,16.4,26z"
   id="path18" />
	<path
   class="st18"
   d="M46.4,10c-0.6-0.8-1.3-1.5-2.1-2.1c-0.2-0.2-0.2-0.3,0-0.5c0.6-0.6,1.2-1.4,1.8-2c0.3-0.1,0.6,0.1,0.8,0.2   c0.4,0.2,0.8,0.5,1.3,0.7c0.2,0.1,0.2,0.3,0.4,0.4C48.8,7,48.9,7.3,49,7.6C48,8.1,47.5,9,46.7,9.7C46.6,9.8,46.5,9.9,46.4,10z"
   id="path19" />
	<path
   class="st19"
   d="M30.3,16.2c0.5,0.1,0.4-0.3,0.6-0.6c0.2-0.2,0-0.3-0.2-0.5c-1.9-1.2-4.1-1.4-5.9,0c-1.3,1-2,2.3-2.3,3.9   c-0.1,0.4-0.4,0.6-0.4,0.9c-0.3-1.6,0-3,0.9-4.3c1.2-1.6,2.7-2.5,4.8-2.4c0.9,0.1,1.7,0.3,2.5,0.9c0.4,0.3,0.6,0.6,0.8,1   c0.1,0.1,0.1,0.2,0,0.3c-0.2,0.3-0.3,0.7-0.5,1C30.5,16.4,30.4,16.3,30.3,16.2z"
   id="path20" />
	<path
   class="st20"
   d="M20.6,18.2c-2.3-0.7-5,0.9-5.3,3.3c-0.2,1.2-0.1,2.3,0.4,3.5c0.1,0.3,0.2,0.5,0.2,0.8c-0.1,0-0.2-0.1-0.4-0.1   c-1.4-1.8-1.6-4.7-0.1-6.6c1.3-1.6,2.9-2.2,4.9-1.9c0.4,0.1,0.5,0.2,0.3,0.5C20.6,17.9,20.6,18,20.6,18.2z"
   id="path21" />
	<path
   class="st21"
   d="M12.8,43.4c-0.6-0.6-1.4-0.7-2.3-0.7c0.5-1.1,1-2.2,1.5-3.3c0.2,0.1,0.1,0.3,0,0.4c-0.3,0.8-0.7,1.5-1,2.2   c0,0.1-0.1,0.1-0.1,0.2c0,0.1-0.1,0.2,0.1,0.2c0.1,0,0.2,0,0.2-0.1c0-0.4,0.3-0.7,0.5-1c0.5-1,1.1-2,1.6-2.9   c-0.2,0.1-0.2,0.5-0.5,0.7c-0.2-0.1-0.1-0.2,0-0.3c0.2-0.2,0.2-0.4,0.1-0.7c-0.1,0.2-0.3,0.5-0.4,0.7c-0.1,0.1-0.1,0.3-0.3,0.2   c0,0,0,0,0,0c0,0,0,0,0,0c0.1-0.4,0.3-0.7,0.5-1c0.5-0.8,2-0.9,2.5,0.1c0.1,0.2,0.3,0.4,0.4,0.7c-0.6,0.2-0.8,0.8-1.2,1.2   c-0.7,0.8-1.4,1.7-2.2,2.5c-0.1,0.1-0.1,0.2,0,0.3c0.1,0.1,0.3,0.1,0.4,0.2C12.8,43.1,12.9,43.2,12.8,43.4z"
   id="path22" />
	<path
   class="st22"
   d="M12.8,43.4c-0.1-0.4-0.5-0.4-0.7-0.6c-0.1-0.1-0.2-0.1-0.1-0.3c0.8-0.8,1.5-1.7,2.3-2.5   c0.3-0.4,0.7-0.8,1-1.2c0.1-0.2,0.2-0.1,0.4-0.1c0.1,0.1,0.1,0.2,0.2,0.3c0.1,0.6,0.5,0.7,1,0.7c0.5,0,0.9,0.1,1.3,0.4   c0,0.1,0,0.1-0.1,0.2c-0.5,0.4-0.9,0.9-1.4,1.3c-0.1,0-0.1,0.1-0.2,0.1c-0.2-0.3,0-0.5,0.2-0.7c0.3-0.3,0.7-0.6,1.1-0.8   c-0.4-0.2-0.7-0.1-1.1,0.2c-1,0.9-2,1.8-3.1,2.7c-0.1,0.1-0.2,0.1-0.2,0.2c-0.1,0.1-0.2,0.2-0.1,0.3c0.1,0.2,0.1,0,0.2,0   c0.1,0,0.1,0,0.1,0.1c-0.1,0.2-0.2,0.3-0.3,0.5c0,0-0.1,0-0.1,0C13.1,43.9,13,43.6,12.8,43.4z"
   id="path23" />
	<path
   class="st23"
   d="M36,48.5c-0.5-0.3-0.9-0.6-1-1.2c-0.2-0.8,0.2-1.7,0.8-2.2c0.6-0.4,1.1-0.4,1.7-0.1c0.2,0,0.3,0.2,0.4,0.4   c0.1,0.6,0,1.3,0,1.9C37.4,47.7,36.8,48.2,36,48.5z"
   id="path24" />
	<path
   class="st24"
   d="M12.4,31.5c-0.1-0.2-0.1-0.3-0.2-0.5c-0.4-1.4,0.6-2.3,1.9-2.3c0.9,0,1.5,0.4,2,1.2c0.2,0.3,0.2,0.6,0.4,0.9   c-0.6-0.8-1.6-0.7-2.2-0.1c-0.5,0.4-0.4,1-0.3,1.5c0,0.2,0.1,0.3,0.1,0.5c-0.6-0.3-1.1-0.6-1.6-1C12.4,31.6,12.4,31.5,12.4,31.5z"
   id="path25" />
	<path
   class="st25"
   d="M35.7,22.6C35.7,22.6,35.7,22.6,35.7,22.6C35.8,22.6,35.8,22.6,35.7,22.6c-0.1-0.1-0.2-0.1-0.3-0.2   c0.1-0.3,0.4-0.4,0.5-0.7c0-0.1,0.1,0,0.2,0c0.8,0.2,1.5,0.5,2.2,0.9c0.1,0.1,0.2,0.2,0.4,0.1c1.8,1.2,2.9,2.8,3.4,4.9   c0,0,0,0.1,0,0.2c-0.1,0.1-0.1,0-0.2-0.1c-0.2-0.2-0.4-0.3-0.7-0.4c-0.1,0-0.2-0.1-0.3-0.2c-0.2-0.8-0.7-1.4-1.2-2   C38.7,23.9,37.4,23,35.7,22.6z"
   id="path26" />
	<path
   class="st26"
   d="M38.2,11.3c-0.5,0.6-1,1.2-1.5,1.7c-1.5,1.6-3,3.3-4.6,4.9c-0.1,0.1-0.2,0.2-0.2,0.3c0,0,0,0-0.1,0   c0-0.1,0-0.2,0-0.3c-0.3-0.7,0.1-1.1,0.5-1.6c1.4-1.5,2.8-2.9,4.1-4.4C36.9,11.5,37.5,11.3,38.2,11.3z"
   id="path27" />
	<path
   class="st27"
   d="M13.2,44.2c0-0.2,0.1-0.4,0.3-0.5c0.1-0.1,0.2-0.2,0.3-0.3c0.8-0.5,1.5-1,2.3-1.6c0.1-0.1,0.2-0.1,0.3-0.1   c0.6-0.5,1.1-1,1.7-1.5c0.1,0,0.2,0.1,0.2,0.2c0.2,0.4,0.2,0.8,0.2,1.3c0,0.3-0.1,0.5-0.4,0.6c-1.1,0.6-2.3,1.1-3.5,1.7   c-0.3,0.1-0.6,0.3-0.8,0.4C13.3,44.7,13.3,44.7,13.2,44.2z"
   id="path28" />
	<path
   class="st28"
   d="M21.8,41.8c0.3,0.5,0.4,1,0.7,1.4c0.1,0.1,0.2,0.3,0.3,0.3c-0.3,0.7-0.9,1.2-1.3,1.8c-0.8-0.4-1.4-1-1.8-1.8   c-0.1-0.2,0-0.2,0.1-0.3C20.5,42.9,21.1,42.4,21.8,41.8z"
   id="path29" />
	<path
   class="st29"
   d="M46.4,10c0.1-0.2,0.3-0.4,0.4-0.6c0.6-0.6,1.2-1.1,1.7-1.7c0.1-0.2,0.3-0.2,0.4-0.1c0.4,0.8,0.4,1.4-0.3,2.1   c-0.5,0.5-0.9,1-1.4,1.5c-0.2,0.2-0.2,0.2-0.3-0.1C46.8,10.7,46.6,10.4,46.4,10z"
   id="path30" />
	<path
   class="st30"
   d="M13.8,25.9C13.8,25.9,13.8,25.9,13.8,25.9c-0.3-0.4-0.6-0.2-1,0c-1.5,0.9-2.1,2.9-1.5,4.5   c0.1,0.3,0.1,0.3-0.1,0.3c-0.1,0-0.1,0,0.1,0.2c0.3,0.3,0.3,0.3,0.2,0.5c-1.4-1.8-1.3-4.3,0.3-5.8c0.4-0.4,0.8-0.6,1.3-0.8   c0.2-0.1,0.3,0,0.3,0.1C13.6,25.3,13.7,25.6,13.8,25.9z"
   id="path31" />
	<path
   class="st31"
   d="M21.8,30c-0.7,0-1.1,0.7-1.5,1.1c-0.7,0.7-1.4,1.5-2.1,2.3c-0.2,0.2-0.4,0.5-0.5,0.8c-0.4-0.8-0.1-1.4,0.5-2   c0.7-0.7,1.3-1.4,1.9-2.2c0.1-0.2,0.3-0.2,0.5-0.2C20.9,29.9,21.4,29.9,21.8,30z"
   id="path32" />
	<path
   class="st32"
   d="M39.5,8.8c0.6-0.9,1.4-1,2.4-0.7c1.3,0.3,2.4,1.1,3.3,2.1c-0.1,0.1-0.1,0.1-0.3,0c-0.3-0.3-0.5-0.6-0.8-0.8   c-0.1-0.1-0.3-0.3-0.4-0.1c-0.2,0.1-0.3,0.3-0.4,0.5c0,0.1,0.1,0.1,0.1,0.2c0.2,0.2,0.4,0.4,0.6,0.6c0.1,0.1,0.2,0.2,0.1,0.4   c-0.3-0.1-0.5-0.3-0.7-0.5c-0.8-0.8-1.7-1.3-2.8-1.5C40.3,8.9,39.9,8.9,39.5,8.8C39.6,8.9,39.6,8.8,39.5,8.8z"
   id="path33" />
	<path
   class="st33"
   d="M38.6,39.3c-0.4-0.1-0.7-0.5-0.7-1.1c-0.1-1.5,1.4-2.5,2.4-2.7c0,0,0,0,0,0.1C39.8,36.8,39.2,38,38.6,39.3z"
   id="path34" />
	<path
   class="st34"
   d="M39.6,8.8c0.9-0.1,1.7,0.1,2.4,0.5c0.8,0.4,1.4,1,2,1.6c0,0,0.1,0,0.1,0.1c0.5,0.6,0.9,1.2,1.2,1.9   c0.1,0.2,0.1,0.4,0,0.5c-0.2,0.2-0.3,0.5-0.5,0.5c-0.2,0-0.2-0.2-0.2-0.3c-0.2-0.7-0.5-1.3-0.9-1.8c-0.3-0.5-0.8-0.9-1.3-1.3   c-0.1-0.1-0.1-0.1-0.1-0.2c0.3-0.5,0.3-0.5-0.2-0.7C41.4,9.2,40.8,9,40,9C39.9,9,39.7,9,39.6,8.8z"
   id="path35" />
	<path
   class="st35"
   d="M42.2,10.4c0.1,0,0.1,0.1,0.2,0.1c0,0.2-0.2,0.1-0.3,0.2c-0.2,0.2-0.5,0.4-0.5,0.8c0,0,0,0,0,0c0,0,0,0,0,0   c-1-0.8-2.1-1.2-3.5-1.2c0.3-0.3,0.5-0.5,0.8-0.8c0.1-0.1,0.3-0.1,0.5-0.1c1.1-0.1,2,0.2,2.9,0.8C42.2,10.3,42.2,10.3,42.2,10.4z"
   id="path36" />
	<path
   class="st36"
   d="M25.5,26.9C25.5,26.9,25.5,26.9,25.5,26.9C25.5,26.9,25.5,27,25.5,26.9c-0.1-0.2-0.1-0.5,0-0.9   c0-0.1,0.1-0.3,0-0.3c-0.1-0.1-0.2,0.1-0.3,0.2c-1.1,1.2-2.2,2.4-3.3,3.6c-0.2,0.2,0,0.4-0.1,0.5c-0.1-0.3-0.2-0.5-0.2-0.8   c0-0.1,0-0.2,0.1-0.3c1-1.1,1.9-2.2,2.9-3.3c0.1-0.1,0.1-0.1,0.3-0.1c0.3,0.1,0.7,0,0.8,0.2c0.1,0.1,0,0.5-0.1,0.8   C25.5,26.5,25.5,26.7,25.5,26.9z"
   id="path37" />
	<path
   class="st37"
   d="M46.1,5.5c-0.2,0.4-0.6,0.6-0.8,1c-0.2,0.3-0.5,0.6-0.8,0.9c-0.2,0.2-0.3,0.3-0.1,0.6   c-0.4-0.2-0.9-0.5-1.3-0.7c-0.1-0.2,0-0.4,0.2-0.5c0.4-0.4,0.8-0.8,1.1-1.2C44.8,5,45.6,5,46.1,5.5z"
   id="path38" />
	<path
   class="st38"
   d="M45.3,13.5c0.1-0.3-0.1-0.6-0.2-0.8c-0.3-0.6-0.6-1.2-1-1.7c0.2-0.4,0.4-0.7,0.9-0.9c0.1,0,0.1,0.2,0.2,0.1   c0.5,0.6,0.9,1.3,1.1,2.1c0,0.1,0.1,0.2,0,0.2C45.9,12.9,45.7,13.2,45.3,13.5z"
   id="path39" />
	<path
   class="st39"
   d="M43.7,11.8c0.5,0.5,0.7,1.2,0.9,1.8c0,0.1,0,0.3,0.1,0.3c-0.2,0.4-0.6,0.7-0.9,1.1c-0.2-1-0.7-1.8-1.2-2.6   c-0.2-0.5,0.3-0.6,0.5-0.8C43.3,11.6,43.5,11.7,43.7,11.8z"
   id="path40" />
	<path
   class="st40"
   d="M27.8,25.6c-0.2,0.1-0.4,0.3-0.6,0.4c0.1-0.3,0.2-0.6,0.3-0.8c0.6-1,1.5-1.5,2.7-1.6c0.5,0,1,0,1.3,0.5   c0,0.2-0.1,0.3-0.3,0.3C29.9,24.4,28.9,24.9,27.8,25.6C27.8,25.5,27.8,25.5,27.8,25.6z"
   id="path41" />
	<path
   class="st41"
   d="M23.6,21.2c0.3,0.4,0.7,0.8,1.1,1.1c0.2,0.1,0.3,0.2,0.3,0.5c0,0,0,0,0,0c0,0,0,0,0,0   c0.1,0.2,0.2,0.5,0.2,0.7c-1.2-0.1-2.7-1.5-3.1-3.2c0.1-0.1,0-0.2,0.1-0.3c0.3,0.4,0.7,0.7,1,1.1C23.4,21.1,23.5,21.2,23.6,21.2z"
   id="path42" />
	<path
   class="st42"
   d="M46.1,5.5c-0.3-0.1-0.7-0.2-1-0.2c-0.4-0.1-0.5,0.2-0.8,0.4c-0.1-0.1,0-0.2,0-0.3c0-0.1,0.1-0.3,0-0.4   c-0.2-0.1-0.3,0.1-0.4,0.2c-0.4,0.4-0.8,0.8-1.2,1.2c-0.1,0.1-0.2,0.2-0.3,0.2c0,0,0,0,0,0c0,0,0,0,0,0c0.5-0.5,1-0.9,1.4-1.5   c0.5-0.6,1.1-0.7,1.8-0.5c1.4,0.3,2.3,1.1,3,2.3c-0.5-0.3-1.1-0.7-1.6-1C46.7,5.6,46.4,5.5,46.1,5.5z"
   id="path43" />
	<path
   class="st43"
   d="M32,49.1c0.5,0.5,1.2,0.5,1.9,0.4c0.3,0,0.6-0.3,0.9-0.4c0.1-0.1,0.2-0.2,0.4-0.1c-1.4,0.8-2.8,1.5-4.3,2.1   c-0.4-0.1-0.7,0.2-1,0.3c-0.1,0-0.1,0.1-0.2,0c0.3-0.2,0.5-0.4,0.7-0.6c0,0,0,0,0,0c0.4-0.3,0.7-0.7,1.1-1   C31.6,49.6,31.8,49.4,32,49.1z"
   id="path44" />
	<path
   class="st44"
   d="M37.7,42.5c0.1,0,0.2-0.1,0.2-0.2c0-0.3,0.1-0.6,0.1-0.8c0.5-0.1,0.8-0.5,1.2-0.7c0.1-0.1,0.2-0.2,0.4-0.2   c0.1,0,0.2,0.1,0.2,0.2c-0.2,1.1-0.4,2.2-0.5,3.3c-0.3-0.2-0.3-0.5-0.5-0.7C38.4,43,38,42.7,37.7,42.5z"
   id="path45" />
	<path
   class="st45"
   d="M11.4,43.5c0.4-0.2,1.1,0.3,1.2,0.7c0,0.1,0,0.1-0.1,0.2c-0.9,0.5-1.8,1.1-2.7,1.6c0,0-0.1,0-0.1,0   c-0.1-0.1,0-0.2,0.1-0.3c0.5-0.7,1-1.4,1.4-2.1C11.3,43.6,11.3,43.5,11.4,43.5z"
   id="path46" />
	<path
   class="st46"
   d="M17.1,34.4c-0.7,0.7-1.4,1.4-2,2.2c-0.4,0-0.7,0.1-1.2,0.2c0.4-0.4,0.7-0.8,1-1.1c0.3-0.4,0.7-0.7,1-1.1   c0.1-0.2,0.3-0.2,0.5-0.2C16.6,34.3,16.8,34.3,17.1,34.4z"
   id="path47" />
	<path
   class="st47"
   d="M42.3,6.5c0.2,0.1,0.2-0.1,0.3-0.1c0.5-0.4,0.9-0.9,1.3-1.3c0.1-0.1,0.2-0.3,0.4-0.2c0.2,0.1,0.2,0.3,0.1,0.5   c0,0.1-0.1,0.2-0.1,0.3c-0.3,0.5-0.7,0.8-1.1,1.2C43.1,7,43,7.1,43,7.3c-0.4-0.1-0.7-0.2-1.1-0.3C42,6.8,42.2,6.6,42.3,6.5z"
   id="path48" />
	<path
   class="st48"
   d="M11.9,41.4c-0.2,0.3-0.6,0.6-0.5,1.1c0,0.2-0.3,0.1-0.4,0.1c-0.2,0-0.1-0.2-0.1-0.2c0.3-0.7,0.6-1.3,0.9-2   c0.1-0.3,0.4-0.6,0.3-0.9c0.1-0.1,0.1-0.3,0.2-0.4c0.2,0.1,0.1-0.1,0.2-0.2c0.2-0.3,0.2-0.7,0.6-0.9c0,0.4,0.1,0.8-0.2,1.1   c0,0.1,0,0.1,0,0.2c0.1,0.1,0,0.2-0.1,0.4C12.5,40.2,12.1,40.8,11.9,41.4z"
   id="path49" />
	<path
   class="st49"
   d="M39.3,9.5c-0.2,0.1-0.3,0.1-0.5,0.1C39,9.3,39.3,9,39.5,8.8c0,0,0.1,0,0.1,0c0.2,0.1,0.5,0,0.7,0.1   C41.2,9,42,9.3,42.8,9.9c-0.2,0.1-0.3,0.4-0.5,0.4c0,0,0,0,0,0C41.4,9.7,40.4,9.4,39.3,9.5C39.3,9.5,39.2,9.5,39.3,9.5   C39.3,9.5,39.3,9.5,39.3,9.5z"
   id="path50" />
	<path
   class="st50"
   d="M43.7,11.8c-0.4-0.1-0.9,0.2-1,0.8c-0.4-0.4-0.7-0.7-1.1-1.1c-0.1-0.3,0.5-1,0.9-1   C42.9,10.9,43.3,11.3,43.7,11.8z"
   id="path51" />
	<path
   class="st51"
   d="M38,47.3c-0.1,0-0.1-0.1-0.1-0.2c0-0.6,0-1.2,0-1.8c0.4,0,0.7-0.1,1-0.3c0.2,0,0.2,0.2,0.2,0.3   c0,0.4,0,0.8,0.1,1.2C38.9,46.8,38.4,47.1,38,47.3z"
   id="path52" />
	<path
   class="st52"
   d="M11.4,43.5c-0.6,0.8-1.1,1.7-1.7,2.5c-0.2,0.2-0.5,0.4-0.7,0.6C9,46.3,9.1,46.1,9.2,46c0.4-0.7,0.7-1.4,1-2.2   c0.1-0.2,0.2-0.3,0.5-0.3C10.9,43.5,11.2,43.3,11.4,43.5C11.4,43.5,11.4,43.5,11.4,43.5z"
   id="path53" />
	<path
   class="st53"
   d="M41.2,27.3c0.3,0.1,0.6,0.2,0.8,0.6c0.2,0.7,0.1,1.5,0,2.2c-0.1,0.5-0.2,1-0.3,1.5c0,0,0,0-0.1,0   c-0.1,0-0.1-0.1-0.1-0.2c0.2-1.2-0.3-2.4-0.6-3.5c0-0.1-0.1-0.2-0.1-0.3C40.9,27.3,41.1,27.3,41.2,27.3z"
   id="path54" />
	<path
   class="st54"
   d="M11.5,31.5c0.1-0.2-0.2-0.3-0.2-0.5c0.3,0.1,0.5,0.3,0.7,0.4c0.1,0.1,0.2,0.1,0.3,0.1   c0.4,0.3,0.8,0.6,1.2,0.8c0.2,0.1,0.3,0.2,0.4,0.3c0,0,0,0,0,0c0,0.1,0.1,0.2,0.2,0.4c-0.1,0.1-0.2,0-0.3,0.1   C12.8,32.9,12.1,32.3,11.5,31.5z"
   id="path55" />
	<path
   class="st55"
   d="M16.1,33.2c-0.6-0.4-1-0.8-1.4-1.3c-0.1-0.2-0.2-0.3-0.1-0.5c0-0.3,0.2-0.4,0.5-0.5c0.3-0.1,0.3,0.2,0.3,0.3   C15.6,31.9,15.9,32.5,16.1,33.2z"
   id="path56" />
	<path
   class="st56"
   d="M21.1,46c-0.2,0.4-0.1,0.7-0.1,1.1c0.1,1.2,0,2.5-0.1,3.7c0,0.5,0,1.1,0,1.6c0,0.2,0.1,0.2,0.2,0.2   c0.4,0.1,0.7,0.2,1.1,0.2c0.8,0,1.6,0.1,2.4-0.1c0.2,0,0.3-0.1,0.5,0.1C24,53,22.9,53.1,21.9,53c-0.1,0-0.1,0-0.2,0   c-1-0.1-1.1-0.2-1-1.2c0-1.1,0.1-2.1,0.2-3.2c0-0.7,0-1.3-0.1-2C20.7,46.3,20.9,46.2,21.1,46z"
   id="path57" />
	<path
   class="st57"
   d="M20,28c-0.4-0.3-0.7-0.7-0.9-1.1c-0.2-0.4-0.1-0.7,0.3-0.9c0.2-0.1,0.3-0.1,0.3,0.1c0.2,0.6,0.5,1.2,0.7,1.8   c0,0.1,0,0.1,0,0.2C20.2,28.2,20.2,28.1,20,28z"
   id="path58" />
	<path
   class="st58"
   d="M28.7,22.1c-0.1-0.1-0.2,0-0.2-0.2c0-0.2,0-0.4,0.2-0.5c0.5-0.4,0.9-0.9,1.2-1.5c0.2-0.3,0.2-0.6,0.3-1   c0.1,1.1-0.2,2-1,2.8c-0.1,0.1-0.3,0.1-0.2,0.3C28.9,22,28.8,22,28.7,22.1z"
   id="path59" />
	<path
   class="st59"
   d="M15.6,25.6c0.2-0.2,0.2,0.1,0.4,0.1c0.1,0.2,0.3,0.3,0.5,0.3c0.5,0.5,1,0.8,1.5,1.2c0.1,0.1,0.2,0.2,0.2,0.3   c-0.1,0.1-0.2,0-0.3-0.1c-0.1,0-0.2-0.1-0.3-0.1C16.7,27,16.1,26.4,15.6,25.6z"
   id="path60" />
	<path
   class="st60"
   d="M26.6,23.4c-0.1-0.2-0.3-0.3-0.3-0.6c-0.1-0.3-0.2-0.6-0.3-0.8c-0.1-0.4,0.1-0.7,0.5-0.8   c0.2-0.1,0.3,0,0.3,0.2c0,0.6,0,1.2,0,1.8C26.8,23.4,26.8,23.5,26.6,23.4z"
   id="path61" />
	<path
   class="st61"
   d="M39.2,46.5c-0.1-0.4-0.1-0.8-0.1-1.2c0-0.1,0-0.3-0.2-0.3c-0.1-0.4,0.1-0.8-0.1-1.1c-0.1-0.2-0.2-0.4-0.2-0.7   c0.3,0.1,0.3,0.4,0.5,0.6c0-1.1,0.2-2.1,0.4-3.1c0-0.1,0.1-0.2-0.1-0.3c0.1-0.1,0.2-0.2,0.3-0.2c-0.5,1.9-0.7,3.9-0.6,5.9   C39.2,46.2,39.2,46.4,39.2,46.5z"
   id="path62" />
	<path
   class="st62"
   d="M13.2,44.2c0.2,0.4,0.2,0.4,0.7,0.2c1.3-0.6,2.6-1.3,3.9-1.9c0.7-0.3,0.8-0.7,0.7-1.5c0-0.2-0.2-0.3-0.1-0.5   c0.4,0.5,0.3,1.1,0.2,1.6c0,0.1-0.1,0.2-0.2,0.2c-1.7,0.8-3.4,1.7-5.1,2.5C13.2,44.6,13.2,44.4,13.2,44.2   C13.2,44.2,13.2,44.2,13.2,44.2z"
   id="path63" />
	<path
   class="st63"
   d="M34.6,31.4c-0.6,0.4-1.3,0.4-2,0.3c-0.4-0.1-0.5,0-0.6,0.4c-0.2,0.9-0.2,1.7,0,2.6c0,0.1,0.1,0.3,0,0.4   c-0.2-1.1-0.3-2.2,0.1-3.3c0.1-0.2,0.1-0.3,0.3-0.2c0.6,0.1,1.3,0.1,1.9-0.1C34.3,31.5,34.5,31.5,34.6,31.4z"
   id="path64" />
	<path
   class="st64"
   d="M29,34.4c0.1,0.2-0.1,0.2-0.2,0.3c-1.3,1.2-1.9,2.6-1.9,4.3c0,0.1,0,0.2-0.1,0.1C26.9,37.2,27.5,35.6,29,34.4   z"
   id="path65" />
	<path
   class="st65"
   d="M31.8,18.3C31.9,18.3,31.9,18.3,31.8,18.3c0.2,0.6,0,1.1,0,1.7c0,0.1-0.1,0.3-0.1,0.5c1-0.3,1.9-0.6,2.9-0.5   c0,0,0,0,0,0.1c-1,0-2,0.2-3,0.7C31.8,19.9,31.9,19.1,31.8,18.3z"
   id="path66" />
	<path
   class="st66"
   d="M37.9,41.4c-0.3,0-0.6,0.1-1.1,0.1c0.5-0.4,0.9-0.7,1.3-1C38.1,40.8,38,41.1,37.9,41.4z"
   id="path67" />
	<path
   class="st67"
   d="M27.8,25.6c-0.1-0.1,0-0.1,0.1-0.2c1-0.6,2.1-1.1,3.3-1.2c0.2,0,0.2-0.1,0.3-0.2c0.1,0.2,0.1,0.3-0.2,0.3   c-1.1,0.1-2.1,0.5-3.1,1C28.1,25.4,27.9,25.5,27.8,25.6z"
   id="path68" />
	<path
   class="st68"
   d="M26.6,23.4c0.1-0.1,0.2-0.1,0.2-0.3c0-0.6,0-1.1,0-1.7c0-0.3-0.1-0.3-0.4-0.2c-0.3,0.1-0.4,0.4-0.3,0.7   c0.1,0.3,0.2,0.6,0.2,0.9C26.1,22.6,26,22.3,26,22c-0.1-0.4,0.2-0.7,0.6-0.9c0.2,0,0.3,0,0.3,0.2c0,0.8,0,1.5,0,2.3   C26.7,23.6,26.7,23.5,26.6,23.4z"
   id="path69" />
	<path
   class="st69"
   d="M11.4,43.5c-0.7-0.1-1.2,0.1-1.4,0.9c-0.2,0.6-0.5,1.1-0.7,1.6c0,0,0,0,0,0c0,0,0,0,0,0   c0.3-0.8,0.7-1.6,1-2.4c0-0.1,0.1-0.1,0.1-0.1C10.7,43.4,11.1,43.3,11.4,43.5C11.4,43.4,11.5,43.4,11.4,43.5   C11.5,43.4,11.4,43.5,11.4,43.5z"
   id="path70" />
	<path
   class="st70"
   d="M20,28c0.1,0,0.2,0.1,0.4,0.1c-0.2-0.7-0.5-1.3-0.7-1.9c-0.1-0.1-0.2-0.1-0.3-0.1c0.2-0.1,0.3-0.2,0.4,0.1   c0.3,0.8,0.5,1.5,0.8,2.4C20.4,28.4,20.2,28.2,20,28z"
   id="path71" />
	<path
   class="st24"
   d="M13.8,33.1c0.4,0,0.1-0.3,0.1-0.5c0.1,0.2,0.2,0.3,0.4,0.6C14.2,33.2,14,33.1,13.8,33.1z"
   id="path72" />
	<path
   class="st71"
   d="M22.9,43.6c0.5-1.3,1.4-2.4,2.5-3.4c0.6-0.6,0.6-0.6,1.3-0.2c0.3,0.1,0.5,0.3,0.8,0.3   c-0.3-1.9,0.2-3.5,1.9-4.6c-0.1,0.4-0.1,0.7-0.2,1.1c0,0.5,0,1,0.5,1.4c0.1,0.1,0.2,0.2,0.3,0.1c-0.8-1.7-0.7-2.5,0.4-3.4   c0.4,0.7,1.1,1.2,1.8,1.5c0.2,0.1,0.3,0.1,0.3-0.2c-0.1-1.2,0.3-2.3,0.9-3.4c0.2,0.3,0.4,0.7,0.5,1c0.4,0.9,0.6,1.8,0.4,2.8   c-0.1,0.6-0.4,1.1-0.9,1.6c-1.1,1.2-2.2,2.3-3.3,3.4c-1.1,1.1-2.1,2.3-2.9,3.7c-0.6,1-0.9,2.1-0.8,3.4c-0.7-0.8-1.1-1.6-1.3-2.7   c-0.7,0.6-1,1.4-1.3,2.2c-0.4-1.1-0.2-2.4,1.1-5.2c-0.4,0.2-0.8,0.5-1.2,0.6C23.4,43.7,23.1,43.8,22.9,43.6z"
   id="path73" />
	<path
   class="st72"
   d="M41.2,27.3c-0.1,0.1-0.2,0.1-0.1,0.3c0.3,0.9,0.5,1.9,0.7,2.8c0.1,0.4,0,0.8-0.1,1.1c-0.2,0.1-0.4,0.1-0.6,0   c-1.1-0.4-1.9-2-1.7-3.1c0.2-0.9,0.6-1.2,1.5-1.3C41,27.2,41.1,27.2,41.2,27.3z"
   id="path74" />
	<path
   class="st73"
   d="M35.1,42.3c-0.4,0.6-1.3,0.8-2.1,0.5c-0.8-0.7-0.7-1.4,0.3-1.9c0.5-0.2,0.9-0.3,1.4-0.1   c0.5,0.2,0.7,0.6,0.5,1.2C35.2,42.1,35.1,42.2,35.1,42.3z"
   id="path75" />
	<path
   class="st74"
   d="M38.7,43.2c0.3,0.6,0.5,1.1,0.2,1.8c-0.2,0.4-0.6,0.5-1,0.3c-0.1-0.1-0.2-0.2-0.3-0.3   c0.1-0.1,0.2-0.2,0.2-0.4c0-0.6-0.1-1.2,0.1-1.8c0-0.2,0-0.3-0.2-0.3c-0.5,0-1,0.1-1.5,0.3c-0.1,0-0.1,0.2-0.3,0   c0.6-0.4,1.2-0.6,1.9-0.5C38.1,42.6,38.4,42.9,38.7,43.2z"
   id="path76" />
	<path
   class="st75"
   d="M39.3,31.5c0,0.6-0.4,1-0.9,1c-0.5,0-0.8-0.3-0.8-0.8c0-0.5,0.5-1.1,0.9-1.1C39,30.6,39.3,31,39.3,31.5z"
   id="path77" />
	<path
   class="st76"
   d="M40.9,33.9c-0.1,0-0.1-0.1-0.2-0.1c-0.1-0.2-0.1-0.3,0-0.5c0.1-0.4,0.2-0.8,0.3-1.2c0.1-0.3,0.3-0.4,0.6-0.3   c0.1,0,0.1,0.1,0,0.2C41.4,32.6,41.2,33.2,40.9,33.9z"
   id="path78" />
	<path
   class="st77"
   d="M38.1,28.3c0,0.1-0.1,0.2-0.1,0.3c-0.1,0.2-0.2,0.2-0.3,0c-0.2-0.2-0.2-0.5-0.3-0.8c0-0.1,0-0.2,0.1-0.3   c0.1,0,0.2,0,0.2,0.1C38,27.8,38.1,28,38.1,28.3z"
   id="path79" />
	<path
   class="st5"
   d="M30,46.9c0.8,0.4,1.5,0.3,2.1-0.4c0,0,0.1,0.1,0,0.1c-0.3,0.5-1.4,0.8-1.9,0.6C30.2,47.1,30.1,47,30,46.9z"
   id="path80" />
	<path
   class="st5"
   d="M31.4,49.8c-0.3,0.4-0.6,0.8-1.1,1C30.7,50.4,31,50,31.4,49.8z"
   id="path81" />
	<path
   class="st78"
   d="M22,22.8c0.1,0.4,0.3,0.7,0.3,1.1c0.1,0.8-0.1,1.6-0.5,2.3c-0.1,0.1-0.2,0.4-0.3,0.3   c-0.2-0.1-0.3-0.4-0.2-0.6c0,0,0-0.1,0.1-0.1c0.8-1.1,0.8-2.2,0.1-3.3c0,0,0,0,0-0.1c0,0,0,0,0,0C21.8,22.4,21.8,22.7,22,22.8   C22,22.8,22,22.8,22,22.8z"
   id="path82" />
	<path
   class="st79"
   d="M17.3,29.8c0,0.6,0,1.1-0.4,1.6c-0.3-0.4-0.4-0.7-0.2-1.2c0.3-0.6,0-1.2-0.4-1.8c0.5,0.3,0.7,0.7,0.8,1.2   C17.2,29.6,17.2,29.7,17.3,29.8C17.3,29.8,17.3,29.8,17.3,29.8z"
   id="path83" />
	<path
   class="st80"
   d="M11.9,41.4c-0.2-0.2,0-0.3,0.1-0.4c0.3-0.6,0.6-1.2,0.9-1.9c0.2-0.3,0.4-0.7,0.8-1   C13,39.4,12.4,40.4,11.9,41.4z"
   id="path84" />
	<path
   class="st81"
   d="M16.4,41.7c-0.9,0.8-1.9,1.4-2.9,2c-0.1-0.1-0.1,0-0.2,0c-0.2,0.1-0.2,0-0.3-0.1c-0.1-0.1,0-0.2,0.1-0.3   c1.1-0.8,2-1.8,3-2.6c0.2-0.2,0.4-0.4,0.6-0.5c0.2-0.2,0.8-0.3,1.1,0c0,0,0.1,0.1,0.1,0.1c0,0.1-0.1,0-0.2,0.1   C17.2,40.7,16.5,40.9,16.4,41.7z"
   id="path85" />
	<path
   class="st82"
   d="M44.9,10.1c-0.3,0.3-0.6,0.5-0.9,0.9c0,0,0,0,0,0c-0.1-0.4-0.5-0.6-0.7-0.9C43.2,10,43.1,9.9,43,9.8   c0.1-0.1,0.2-0.2,0.2-0.3c0.4-0.6,0.5-0.6,1-0.1C44.5,9.6,44.7,9.9,44.9,10.1z"
   id="path86" />
	<path
   class="st34"
   d="M39.3,9.5c-0.1,0-0.1,0-0.3-0.1c1.1-0.1,2.1,0.1,3,0.7c0.1,0.1,0.2,0.1,0.2,0.2C41.4,9.8,40.4,9.4,39.3,9.5z"
   id="path87" />
	<path
   class="st83"
   d="M30.8,47c-0.6,0-1-0.3-1-1c0-0.7,0.8-1.5,1.5-1.5c0.6,0,1,0.4,1,1.1C32.3,46.4,31.7,47,30.8,47z"
   id="path88" />
</g>
</svg>
